<?xml version="1.0" standalone="no"?>
<!DOCTYPE svg PUBLIC "-//W3C//DTD SVG 1.1//EN" "http://www.w3.org/Graphics/SVG/1.1/DTD/svg11.dtd" >
<svg xmlns="http://www.w3.org/2000/svg">
<metadata></metadata>
<defs>
<font id="EuropeBoldItalic" horiz-adv-x="720" >
<font-face units-per-em="1000" ascent="800" descent="-200" />
<missing-glyph horiz-adv-x="360" />
<glyph unicode=" "  horiz-adv-x="360" />
<glyph unicode="&#x09;" horiz-adv-x="360" />
<glyph unicode="&#xa0;" horiz-adv-x="360" />
<glyph unicode="!" horiz-adv-x="349" d="M219 164l-28 -164h-162l28 164h162zM334 750l-92 -454h-162l68 454h186z" />
<glyph unicode="&#x22;" horiz-adv-x="442" d="M64 750h138l-23 -130l-65 -129h-54l-19 129zM286 750h138l-23 -130l-65 -129h-54l-19 129z" />
<glyph unicode="#" d="M349 749h106l-77 -209h101l77 209h104l-76 -209h80l-20 -115h-98l-47 -130h94l-20 -115h-118l-65 -180h-106l65 180h-101l-65 -180h-106l65 180h-91l20 115h113l47 130h-96l20 115h117zM337 425l-47 -130h102l49 130h-104z" />
<glyph unicode="$" d="M325 462l96 -9q56 -5 87.5 -9.5t69.5 -15t56.5 -26t31.5 -42.5t13 -65q0 -27 -6 -61q-24 -136 -99 -188t-234 -52l-17 -92h-97l17 92q-64 0 -106 6.5t-77 24t-51 52t-16 86.5q0 41 8 84h180q-4 -21 -4 -41q0 -37 20 -46.5t73 -9.5h97q64 0 95.5 21t31.5 78q0 27 -21 37 t-79 15l-96 7q-142 10 -193.5 40.5t-51.5 100.5q0 31 8 77q24 140 89.5 185t226.5 45l15 82h97l-15 -82q40 -2 64.5 -5t55 -9t48 -16.5t34.5 -27t24 -41.5t7 -59t-7 -72h-175q3 16 3 28q0 30 -17.5 38t-63.5 8h-97q-57 0 -84 -18.5t-27 -77.5q0 -22 17 -29.5t69 -12.5z" />
<glyph unicode="%" horiz-adv-x="907" d="M808 750l-575 -750h-120l575 750h120zM718 375q80 0 113.5 -17t33.5 -70q0 -17 -24 -158q-15 -85 -55 -110.5t-134 -25.5q-78 0 -109.5 16t-31.5 67q0 26 24 162q16 87 53 111.5t130 24.5zM703 288q-39 0 -50.5 -9t-19.5 -51q-19 -97 -19 -123q0 -15 11 -19.5t41 -4.5 q41 0 55.5 10t22.5 54q18 108 18 114q0 20 -12 24.5t-47 4.5zM249 756q80 0 113.5 -17t33.5 -70q0 -17 -24 -158q-15 -85 -55 -110.5t-134 -25.5q-78 0 -109.5 16t-31.5 67q0 26 24 162q16 87 53 111.5t130 24.5zM234 669q-39 0 -50.5 -9t-19.5 -51q-19 -97 -19 -123 q0 -15 11 -19.5t41 -4.5q41 0 55.5 10t22.5 54q18 108 18 114q0 20 -12 24.5t-47 4.5z" />
<glyph unicode="&#x26;" horiz-adv-x="774" d="M605 0l-58 62q-40 -44 -95.5 -58t-139.5 -14q-57 0 -96 3t-78.5 13.5t-63 29t-38 50.5t-14.5 77q0 23 7 69q35 196 168 196q-40 40 -40 82q0 15 5 45q11 64 33 104t60 61t82 28.5t111 7.5q121 0 175.5 -27t54.5 -111q0 -23 -13 -105h-172q6 33 6 52q0 26 -15.5 34 t-62.5 8q-40 0 -59.5 -18.5t-19.5 -64.5q0 -25 29 -57l153 -164l17 99h161l-26 -147q-6 -34 -33 -73l70 -75zM447 169l-169 172q-28 -3 -38 -14.5t-18 -48.5q-8 -34 -8 -58q0 -44 30 -57.5t97 -13.5q57 0 106 20z" />
<glyph unicode="'" horiz-adv-x="220" d="M64 750h138l-23 -130l-65 -129h-54l-19 129z" />
<glyph unicode="(" horiz-adv-x="385" d="M408 756l-29 -162q-52 0 -71 -27.5t-32 -101.5q-63 -351 -63 -372q0 -81 65 -81l-29 -162q-136 0 -186.5 34t-50.5 117q0 50 68 431q14 81 23 118t31 86.5t53.5 69.5t86 35t134.5 15z" />
<glyph unicode=")" horiz-adv-x="385" d="M108 594l29 162q134 0 184.5 -37t50.5 -119q0 -52 -68 -432q-9 -51 -15 -81t-16.5 -66t-21.5 -56t-28 -42.5t-38.5 -33.5t-51.5 -21.5t-68 -14t-87 -3.5l29 162q45 0 67 28.5t35 100.5q66 367 66 391q0 31 -15 46.5t-52 15.5z" />
<glyph unicode="*" d="M566 564l-131 -39l56 -107l-83 -56l-58 112l-104 -111l-66 55l97 108l-119 46l47 88l118 -45l24 136h93l-24 -136l138 45z" />
<glyph unicode="+" horiz-adv-x="600" d="M253 334l33 190h115l-33 -190h193l-20 -115h-193l-35 -199h-115l35 199h-192l20 115h192z" />
<glyph unicode="," horiz-adv-x="360" d="M122 164h162l-29 -164q-14 -79 -55.5 -110.5t-141.5 -31.5l13 74q42 0 59.5 14.5t24.5 53.5h-62z" />
<glyph unicode="-" horiz-adv-x="370" d="M50 237l20 115h270l-20 -115h-270z" />
<glyph unicode="." horiz-adv-x="360" d="M266 164l-28 -164h-162l28 164h162z" />
<glyph unicode="/" horiz-adv-x="637" d="M684 750l-593 -863h-137l593 863h137z" />
<glyph unicode="0" horiz-adv-x="724" d="M450 757q51 0 83 -2t72 -12t63 -28.5t39 -54t16 -85.5q0 -45 -49 -318q-10 -53 -27 -94.5t-36.5 -69t-48 -47.5t-54.5 -30.5t-62 -16.5t-64 -7.5t-68 -1.5q-35 0 -59.5 1t-55 5t-51.5 11.5t-42.5 21.5t-34.5 33t-21 48t-8 65q0 37 49 318q9 53 26 94.5t36.5 69t48 46.5 t54 29.5t62.5 16t64 7t68 1.5zM422 601q-41 0 -62.5 -3.5t-39.5 -18.5t-27.5 -42t-17.5 -76q-39 -219 -39 -244q0 -44 22.5 -57.5t83.5 -13.5q77 0 104 24.5t44 117.5q39 221 39 246q0 43 -22.5 55t-84.5 12z" />
<glyph unicode="1" d="M644 750l-132 -750h-200l101 573l-225 -177l-91 128l313 226h234z" />
<glyph unicode="2" d="M634 156l-28 -156h-591l28 156q15 86 42 130t86.5 72.5t180.5 53.5q55 11 86.5 22.5t48 28.5t21 35.5t4.5 50.5t-21 42t-74 10q-39 0 -57 -2.5t-34.5 -15t-23.5 -36.5t-14 -70h-189q10 73 31.5 124t49.5 81.5t71.5 47t87 22t106.5 5.5q51 0 86.5 -3t70.5 -13t56 -28 t34 -48t13 -73q0 -34 -7 -72q-9 -51 -22 -86t-30.5 -59.5t-47 -42t-62.5 -29.5t-87 -26q-32 -8 -69 -16t-54.5 -11.5t-37 -10.5t-28 -16.5t-16 -25.5t-12.5 -41h402z" />
<glyph unicode="3" d="M294 499h-189q8 52 21.5 91.5t30 66.5t42 46t49.5 29.5t61.5 16t68 7t78.5 1.5q40 0 69.5 -2t66.5 -11t61 -24.5t40.5 -45.5t16.5 -72q0 -32 -8 -66t-24 -67t-46.5 -56t-70.5 -28l-1 -8q100 -4 100 -106q0 -146 -85 -213.5t-255 -67.5q-44 0 -74.5 1.5t-65.5 7 t-57.5 16.5t-42 28.5t-29 45t-9.5 64.5q0 30 13 106h189q-8 -40 -8 -53q0 -39 24 -49.5t79 -10.5q70 0 102 23t32 98q0 24 -21.5 34t-83.5 10h-48l26 145h48q79 0 99.5 19t20.5 82q0 25 -19.5 34.5t-75.5 9.5q-60 0 -88 -19.5t-37 -82.5z" />
<glyph unicode="4" d="M704 750l-80 -457h64l-26 -145h-64l-26 -148h-190l26 148h-392l38 214l355 388h295zM434 293l53 303h-7l-281 -303h235z" />
<glyph unicode="5" d="M170 750h542l-26 -145h-370l-25 -144q43 38 71.5 46.5t103.5 8.5q109 0 155 -36t46 -118q0 -34 -10 -92q-16 -90 -41.5 -145t-70.5 -85t-99.5 -40t-141.5 -10q-130 0 -191.5 34t-61.5 126q0 28 6 64h190q0 -45 17 -56.5t68 -11.5q70 0 95.5 17t37.5 86q8 42 8 64 q0 32 -21.5 43t-82.5 11q-52 0 -70.5 -6t-30.5 -31h-172z" />
<glyph unicode="6" d="M323 146q69 0 94 10t36 48q9 32 9 53q0 15 -5.5 23.5t-22.5 12.5t-33 5t-51 1q-58 0 -79 -11.5t-29 -54.5q-4 -20 -4 -39q0 -28 18 -38t67 -10zM706 521h-190q3 18 3 30q0 33 -20 41.5t-73 8.5q-74 0 -99.5 -17t-37.5 -88l-21 -118h3q26 50 58.5 63.5t90.5 13.5 q50 0 83 -2.5t65 -11t49.5 -23.5t28.5 -41.5t11 -63.5q0 -34 -7 -73q-14 -77 -40 -127t-69 -76.5t-94.5 -36.5t-128.5 -10q-150 0 -209 35.5t-59 137.5q0 46 15 134l33 188q12 70 32.5 117.5t47.5 78t69.5 47.5t89.5 23t117 6q50 0 81.5 -2t70 -10t60 -23t36.5 -44t15 -70 q0 -30 -11 -87z" />
<glyph unicode="7" d="M700 750l-30 -168l-351 -582h-210l356 586h-360l29 164h566z" />
<glyph unicode="8" d="M367 309q-76 0 -103.5 -20t-27.5 -86q0 -32 23 -44.5t79 -12.5q47 0 74.5 6.5t41 24t17.5 37t4 54.5q0 27 -21 34t-87 7zM420 601q-67 0 -92 -21.5t-25 -78.5q0 -30 20 -38.5t71 -8.5q71 0 96.5 19.5t25.5 86.5q0 24 -19.5 32.5t-76.5 8.5zM212 380l1 7q-96 25 -96 118 q0 65 19.5 112t49.5 73.5t76.5 42t88.5 20t97 4.5q41 0 70 -1.5t61.5 -6.5t54 -15.5t40 -26.5t27.5 -41.5t9 -59.5q0 -96 -34 -147.5t-114 -71.5l-1 -7q100 -13 100 -119q0 -69 -19.5 -119t-50.5 -79t-79 -46t-94 -22t-106 -5q-49 0 -84 3t-72.5 12.5t-61 26.5t-38.5 47 t-15 72q0 54 17.5 103.5t58 86.5t95.5 39z" />
<glyph unicode="9" d="M408 451q67 0 89.5 22t22.5 83q0 27 -18 36t-68 9q-84 0 -111.5 -19.5t-27.5 -87.5q0 -27 22.5 -35t90.5 -8zM52 225h190q-3 -18 -3 -30q0 -32 20 -40.5t73 -8.5q73 0 98.5 18t38.5 89l21 120l-5 1q-19 -37 -43 -55t-44.5 -21t-60.5 -3q-50 0 -83 2.5t-65 11t-49.5 23.5 t-28.5 41.5t-11 63.5q0 97 24 162t71.5 98.5t105 46.5t138.5 13q151 0 210 -35t59 -136q0 -46 -48 -321q-15 -87 -41.5 -141t-71.5 -83.5t-100.5 -40t-142.5 -10.5q-50 0 -81.5 1.5t-70 10t-60 23.5t-36.5 43.5t-15 69.5q0 30 11 87z" />
<glyph unicode=":" horiz-adv-x="360" d="M234 164l-28 -164h-162l28 164h162zM297 525l-28 -164h-162l28 164h162z" />
<glyph unicode=";" horiz-adv-x="360" d="M90 164h162l-29 -164q-14 -79 -55.5 -110.5t-141.5 -31.5l13 74q42 0 59.5 14.5t24.5 53.5h-62zM316 525l-28 -164h-162l28 164h162z" />
<glyph unicode="&#x37e;" horiz-adv-x="360" d="M90 164h162l-29 -164q-14 -79 -55.5 -110.5t-141.5 -31.5l13 74q42 0 59.5 14.5t24.5 53.5h-62zM316 525l-28 -164h-162l28 164h162z" />
<glyph unicode="&#x3c;" horiz-adv-x="600" d="M594 525l-23 -128l-359 -119l-1 -1l318 -120l-23 -128l-467 188l22 120z" />
<glyph unicode="=" horiz-adv-x="600" d="M81 449h500l-21 -115h-500zM40 219h500l-20 -115h-500z" />
<glyph unicode="&#x3e;" horiz-adv-x="600" d="M94 525l467 -188l-22 -120l-533 -188l23 128l359 119l1 2l-318 119z" />
<glyph unicode="?" horiz-adv-x="605" d="M245 532h-172q8 62 28 104.5t44 66t64 35.5t75 15t91 3q44 0 75 -2.5t61 -11t48 -23t29 -39.5t11 -60q0 -95 -40.5 -159t-115.5 -91q-62 -23 -80 -41t-22 -64h-172q14 96 45 135t120 73q46 17 68 42.5t22 65.5q0 25 -16 34.5t-56 9.5q-53 0 -76 -16t-31 -77zM318 164 l-28 -164h-162l28 164h162z" />
<glyph unicode="@" horiz-adv-x="760" d="M404 458q-45 0 -81 -38.5t-36 -95.5q0 -25 15.5 -43.5t44.5 -18.5q47 0 85 39.5t38 93.5q0 26 -16 44.5t-50 18.5zM521 506l19 51h95q-108 -312 -108 -319q0 -9 13 -9q45 0 89 75.5t44 161.5q0 94 -62 147t-165 53q-139 0 -237.5 -104.5t-98.5 -249.5q0 -106 68.5 -167 t182.5 -61q104 0 203 67h99q-143 -157 -326 -157q-144 0 -235.5 86.5t-91.5 222.5q0 120 64.5 225.5t169.5 166.5t221 61q118 0 207 -75.5t89 -188.5q0 -82 -44.5 -161t-116 -128t-144.5 -49q-26 0 -37.5 11t-11.5 38l-2 2q-49 -47 -104 -47q-59 0 -99.5 42t-40.5 104 q0 98 76 179.5t172 81.5q79 0 112 -59z" />
<glyph unicode="A" horiz-adv-x="767" d="M496 129h-269l-60 -129h-208l357 750h304l96 -750h-204zM480 274l-34 326h-2l-149 -326h185z" />
<glyph unicode="B" horiz-adv-x="753" d="M19 0l132 750h394q107 0 158 -27t51 -106q0 -26 -6 -59q-13 -78 -44.5 -120t-103.5 -53l-2 -8q59 -4 83 -30t24 -74q0 -29 -6 -64q-12 -68 -34.5 -110t-60.5 -63.5t-79.5 -28.5t-107.5 -7h-398zM322 586l-24 -136h144q53 0 72.5 13.5t27.5 58.5q3 15 3 26 q0 21 -12.5 29.5t-42.5 8.5h-168zM274 311l-26 -147h151q50 0 73.5 16t31.5 60q3 15 3 27q0 27 -17.5 35.5t-60.5 8.5h-155z" />
<glyph unicode="C" horiz-adv-x="750" d="M745 481h-206q6 33 6 46q0 56 -111 56q-81 0 -108 -28.5t-42 -114.5q-32 -179 -32 -201q0 -40 23.5 -57.5t84.5 -17.5q38 0 56.5 2.5t39.5 13t32 35t16 65.5h206q-25 -172 -102 -231t-257 -59q-52 0 -85.5 2t-73.5 8t-64 18.5t-46 33.5t-32 54t-10 78q0 40 43 288 q13 73 38.5 125t58.5 83t83 48t101 23t123 6q137 0 203.5 -40t66.5 -139q0 -25 -12 -97z" />
<glyph unicode="D" horiz-adv-x="792" d="M19 0l132 750h380q134 0 197 -46.5t63 -153.5q0 -40 -37 -248q-28 -159 -101.5 -230.5t-226.5 -71.5h-407zM320 576l-70 -402h176q99 0 122 128q33 186 33 204q0 41 -20.5 55.5t-65.5 14.5h-175z" />
<glyph unicode="E" horiz-adv-x="679" d="M322 586l-24 -137h320l-24 -139h-320l-26 -146h348l-29 -164h-548l132 750h541l-29 -164h-341z" />
<glyph unicode="F" horiz-adv-x="632" d="M151 750h532l-29 -164h-332l-26 -147h306l-29 -164h-306l-48 -275h-200z" />
<glyph unicode="G" horiz-adv-x="778" d="M780 518h-204q2 6 2 13q0 62 -117 62q-43 0 -72 -6.5t-47 -16.5t-29.5 -33t-17.5 -45.5t-13 -64.5q-30 -168 -30 -186q0 -51 31 -69t100 -18q77 0 107.5 25t44.5 102h-138l24 139h341l-23 -131q-17 -98 -40 -154t-69 -90t-108 -44.5t-168 -10.5q-65 0 -111 4.5 t-86.5 17.5t-65 34.5t-38 56.5t-13.5 83q0 53 43 285q14 73 40 125t59.5 83t83.5 48.5t101 23.5t123 6q70 0 119.5 -7t92 -25.5t63.5 -54.5t21 -90q0 -28 -6 -62z" />
<glyph unicode="H" horiz-adv-x="791" d="M351 750l-50 -282h261l50 282h200l-132 -750h-200l52 294h-261l-52 -294h-200l132 750h200z" />
<glyph unicode="I" horiz-adv-x="330" d="M351 750l-132 -750h-200l132 750h200z" />
<glyph unicode="J" horiz-adv-x="602" d="M427 750h200l-92 -519q-18 -102 -51.5 -153t-92 -69.5t-168.5 -18.5q-124 0 -171 29.5t-47 112.5q0 47 23 178h190q-16 -82 -16 -104q0 -23 11.5 -32.5t40.5 -9.5q44 0 59.5 14.5t21.5 52.5z" />
<glyph unicode="K" horiz-adv-x="782" d="M351 750l-50 -282h60l243 282h242l-329 -368l219 -382h-248l-157 294h-60l-52 -294h-200l132 750h200z" />
<glyph unicode="L" horiz-adv-x="600" d="M351 750l-101 -576h313l-31 -174h-513l132 750h200z" />
<glyph unicode="M" horiz-adv-x="1058" d="M151 750h317l60 -471h7l219 471h325l-132 -750h-200l121 575l-8 2l-290 -577h-173l-87 577l-10 -2l-81 -575h-200z" />
<glyph unicode="N" horiz-adv-x="871" d="M151 750h338l120 -577l2 1l89 576h200l-132 -750h-341l-117 578l-2 -2l-89 -576h-200z" />
<glyph unicode="O" horiz-adv-x="784" d="M344 -10q-148 0 -226 43.5t-78 159.5q0 44 44 288q12 68 38 117.5t60.5 79.5t83 48t99 24.5t115.5 6.5q57 0 100.5 -5t83.5 -18t65.5 -35t40.5 -57.5t15 -84.5q0 -37 -44 -288q-12 -68 -38 -117.5t-60.5 -80.5t-83.5 -49.5t-99.5 -25t-115.5 -6.5zM375 164 q83 0 116.5 23.5t47.5 103.5q34 195 34 219q0 46 -27 59.5t-97 13.5q-84 0 -116.5 -21.5t-46.5 -101.5q-34 -195 -34 -221q0 -46 27 -60.5t96 -14.5z" />
<glyph unicode="P" horiz-adv-x="743" d="M256 208l-37 -208h-200l132 750h377q116 0 167.5 -39t51.5 -131q0 -35 -10 -95q-28 -162 -89 -219.5t-215 -57.5h-177zM322 586l-38 -214h137q58 0 77.5 19.5t32.5 91.5q6 29 6 49q0 30 -17.5 42t-60.5 12h-137z" />
<glyph unicode="Q" horiz-adv-x="791" d="M450 378l93 -76q31 173 31 204q0 46 -26 61.5t-98 15.5q-64 0 -95 -13t-46.5 -44t-27.5 -102q-29 -165 -29 -184q0 -48 28 -62t96 -14q51 0 93 15l-118 87zM681 -1l-64 59q-89 -68 -271 -68q-159 0 -232.5 43.5t-73.5 162.5q0 35 40 258q16 91 48.5 151t84.5 93t115.5 46 t153.5 13q156 0 230 -44.5t74 -162.5q0 -44 -26.5 -195t-48.5 -189l72 -56z" />
<glyph unicode="R" horiz-adv-x="750" d="M257 218l-38 -218h-200l132 750h386q115 0 167 -34t52 -119q0 -35 -7 -71q-21 -120 -54 -166.5t-123 -67.5l-1 -8q115 -12 115 -101q0 -15 -30 -183h-200q25 140 25 153q0 65 -69 65h-155zM322 586l-36 -204h155q56 0 72.5 21.5t30.5 95.5q4 19 4 37q0 28 -16 39t-55 11 h-155z" />
<glyph unicode="S" horiz-adv-x="733" d="M712 516h-192q3 16 3 28q0 32 -20.5 40.5t-81.5 8.5q-83 0 -107 -20t-24 -62q0 -26 25.5 -38.5t94.5 -24.5q171 -29 225 -58.5t54 -94.5q0 -49 -19 -127t-56 -113q-37 -36 -109 -50.5t-190 -14.5q-60 0 -99.5 3t-77 13.5t-58.5 29t-33.5 49.5t-12.5 76q0 36 8 79h192 q-4 -26 -4 -33q0 -34 24 -43.5t90 -9.5q76 0 108 17.5t32 71.5q0 31 -32.5 44t-154.5 29q-121 16 -165 47t-44 115q0 70 22.5 122t56.5 81t84 47t96.5 23.5t102.5 5.5q63 0 105 -4.5t84 -19.5t63 -47.5t21 -83.5q0 -12 -5 -46t-6 -40z" />
<glyph unicode="T" horiz-adv-x="644" d="M106 750h604l-31 -174h-202l-101 -576h-200l101 576h-202z" />
<glyph unicode="U" horiz-adv-x="776" d="M152 750h200l-86 -487q-3 -18 -3 -33q0 -39 25.5 -52.5t83.5 -13.5q67 0 98 19.5t42 79.5l86 487h200l-88 -500q-17 -97 -51.5 -150.5t-110 -81.5t-207.5 -28q-163 0 -225 38t-62 126q0 36 10 96z" />
<glyph unicode="V" horiz-adv-x="743" d="M86 750h203l60 -577h2l271 577h207l-351 -750h-312z" />
<glyph unicode="W" horiz-adv-x="1122" d="M86 750h203v-577h11l245 577h208l32 -577h3l219 577h201l-298 -750h-289l-19 470h-8l-192 -470h-286z" />
<glyph unicode="X" horiz-adv-x="775" d="M105 750h234l87 -275l184 275h230l-271 -364l155 -386h-233l-98 289l-199 -289h-235l293 386z" />
<glyph unicode="Y" horiz-adv-x="740" d="M86 750h229l83 -289h7l189 289h232l-360 -487l-46 -263h-200l46 263z" />
<glyph unicode="Z" horiz-adv-x="659" d="M132 750h590l-30 -168l-429 -402l-1 -6h359l-31 -174h-613l30 169l424 401l1 6h-331z" />
<glyph unicode="[" horiz-adv-x="385" d="M137 756h271l-29 -162h-82l-102 -582h83l-29 -162h-272z" />
<glyph unicode="\" horiz-adv-x="640" d="M140 750h140l220 -750h-140z" />
<glyph unicode="]" horiz-adv-x="385" d="M248 -150h-270l29 162h81l102 582h-81l29 162h270z" />
<glyph unicode="^" horiz-adv-x="600" d="M136 250h-130l278 500h120l102 -500h-130l-59 338h-2z" />
<glyph unicode="_" horiz-adv-x="500" d="M507 -76l-14 -74h-500l14 74h500z" />
<glyph unicode="`" horiz-adv-x="404" d="M141 756l183 -120l-39 -62l-214 71z" />
<glyph unicode="a" horiz-adv-x="609" d="M355 78h-6q-30 -86 -166 -86q-84 0 -125 25t-41 91q0 214 224 214q28 0 45.5 -1.5t39 -6.5t33.5 -18t15 -33h8q19 105 19 121q0 23 -14 35t-52 12q-36 0 -55.5 -11t-25.5 -44h-172q8 45 27 75.5t41 47t60 25t66 10t76 1.5q120 0 170.5 -25.5t50.5 -106.5q0 -29 -8 -75 l-57 -328h-172zM280 215q-26 0 -42 -3.5t-30 -19t-14 -44.5q0 -45 66 -45q60 0 83 17t23 59q0 23 -19.5 29.5t-66.5 6.5z" />
<glyph unicode="b" horiz-adv-x="625" d="M409 262q8 48 8 73q0 37 -17 52.5t-58 15.5q-55 0 -77.5 -30t-36.5 -110q-10 -58 -10 -82q0 -35 16.5 -46t58.5 -11q59 0 79.5 24.5t36.5 113.5zM314 750l-53 -298l8 -2q50 85 161 85q88 0 127.5 -35t39.5 -112q0 -34 -29 -201q-35 -195 -234 -195q-61 0 -94.5 21.5 t-37.5 77.5h-8l-12 -91h-172l132 750h172z" />
<glyph unicode="c" horiz-adv-x="590" d="M562 332h-172q3 18 3 30q0 25 -15.5 33t-56.5 8q-47 0 -68 -26.5t-36 -114.5q-10 -53 -10 -85q0 -33 14 -43t50 -10q56 0 72 16t25 68h172q-12 -70 -33.5 -112.5t-59.5 -65.5t-82.5 -30.5t-116.5 -7.5q-119 0 -167.5 33.5t-48.5 119.5q0 42 13 117q13 72 30 118.5t50 84 t86.5 54t132.5 16.5q44 0 74.5 -2.5t61 -11t48.5 -23.5t29 -41t11 -63q0 -28 -6 -62z" />
<glyph unicode="d" horiz-adv-x="625" d="M397 262q8 48 8 73q0 37 -17 52.5t-58 15.5q-55 0 -77.5 -30t-36.5 -110q-10 -58 -10 -82q0 -35 16.5 -46t58.5 -11q59 0 79.5 24.5t36.5 113.5zM430 450l53 300h172l-132 -750h-172l20 91h-8q-24 -56 -65.5 -77.5t-102.5 -21.5q-169 0 -169 139q0 30 26 176 q21 121 76.5 174.5t162.5 53.5q114 0 134 -85h5z" />
<glyph unicode="e" horiz-adv-x="598" d="M227 328h169q4 22 4 35q0 32 -17.5 42t-57.5 10q-47 0 -67.5 -18t-30.5 -69zM552 233h-341q-7 -35 -7 -62q0 -32 16 -45.5t54 -13.5q32 0 47 2t29 15t18 39h172q-7 -40 -20.5 -69.5t-34.5 -48.5t-44 -31t-56 -17.5t-62 -7.5t-70 -2q-121 0 -171 37t-50 124q0 37 12 109 q14 79 33 128.5t53.5 83.5t86.5 47.5t132 13.5q120 0 170 -35t50 -126q0 -46 -17 -141z" />
<glyph unicode="f" horiz-adv-x="393" d="M423 525l-22 -126h-117l-70 -399h-172l70 399h-69l22 126h69l9 51q13 71 43 107t91.5 51.5t178.5 15.5l-23 -131q-18 5 -35 5q-50 0 -64 -14.5t-24 -65.5l-4 -19h117z" />
<glyph unicode="g" horiz-adv-x="625" d="M454 432l10 93h172l-88 -501q-18 -103 -47 -156.5t-86.5 -79t-159.5 -25.5q-124 0 -176.5 27t-52.5 99q0 25 6 55h160q0 -36 14 -45.5t56 -9.5q56 0 76 16.5t30 71.5l19 109h-6q-49 -94 -160 -94q-94 0 -131.5 39.5t-37.5 113.5q0 40 13 118q13 71 27.5 115.5t41.5 83 t72 56t111 17.5q60 0 93 -23t38 -80h6zM418 262q8 48 8 73q0 37 -17 52.5t-58 15.5q-55 0 -77.5 -30t-36.5 -110q-10 -58 -10 -82q0 -35 16.5 -46t58.5 -11q59 0 79.5 24.5t36.5 113.5z" />
<glyph unicode="h" horiz-adv-x="615" d="M312 750l-57 -323h5q29 60 72 84t107 24q143 0 143 -122q0 -20 -5 -50l-64 -363h-172l57 323q3 17 3 29q0 51 -60 51q-53 0 -77 -29.5t-33 -84.5l-51 -289h-172l132 750h172z" />
<glyph unicode="i" horiz-adv-x="282" d="M273 525l-92 -525h-172l92 525h172zM313 750l-23 -132h-172l23 132h172z" />
<glyph unicode="j" horiz-adv-x="282" d="M102 525h172l-106 -596q-15 -85 -62.5 -120.5t-134.5 -35.5q-31 0 -50 6l21 117q29 0 41 13.5t17 37.5zM313 750l-23 -132h-172l23 132h172z" />
<glyph unicode="k" horiz-adv-x="592" d="M313 750l-74 -422h30l138 197h189l-192 -252l134 -273h-201l-89 213h-30l-37 -213h-172l132 750h172z" />
<glyph unicode="l" horiz-adv-x="282" d="M313 750l-132 -750h-172l132 750h172z" />
<glyph unicode="m" horiz-adv-x="924" d="M272 525l-13 -74h2q22 43 66 63.5t93 20.5q66 0 103 -21.5t37 -85.5h8q16 53 63 80t102 27q157 0 157 -125q0 -20 -5 -50l-63 -360h-172l54 304q5 30 5 48q0 25 -12.5 38t-44.5 13q-46 0 -68 -28t-31 -77l-52 -298h-172l52 296q8 42 8 60q0 23 -12 35t-42 12 q-49 0 -71.5 -26.5t-31.5 -78.5l-52 -298h-172l92 525h172z" />
<glyph unicode="n" horiz-adv-x="615" d="M272 525l-17 -98h5q29 60 72 84t107 24q143 0 143 -122q0 -20 -5 -50l-64 -363h-172l57 323q3 17 3 29q0 51 -60 51q-53 0 -77 -29.5t-33 -84.5l-51 -289h-172l92 525h172z" />
<glyph unicode="o" horiz-adv-x="615" d="M355 535q130 0 179.5 -30.5t49.5 -116.5q0 -48 -14 -126q-20 -112 -50.5 -167.5t-89.5 -79t-171 -23.5q-127 0 -177 33.5t-50 119.5q0 42 13 117q20 113 50 168.5t89.5 80t170.5 24.5zM398 262q8 48 8 73q0 37 -17 52.5t-58 15.5q-55 0 -77.5 -30t-36.5 -110 q-10 -58 -10 -82q0 -35 16.5 -46t58.5 -11q59 0 79.5 24.5t36.5 113.5z" />
<glyph unicode="p" horiz-adv-x="625" d="M408 262q8 48 8 73q0 37 -17 52.5t-58 15.5q-55 0 -77.5 -30t-36.5 -110q-10 -58 -10 -82q0 -35 16.5 -46t58.5 -11q59 0 79.5 24.5t36.5 113.5zM195 79l-54 -306h-172l132 752h172l-18 -83h8q42 93 166 93q169 0 169 -141q0 -30 -26 -176q-21 -121 -76.5 -173.5 t-162.5 -52.5q-54 0 -87 18.5t-43 68.5h-8z" />
<glyph unicode="q" horiz-adv-x="625" d="M402 262q8 48 8 73q0 37 -17 52.5t-58 15.5q-55 0 -77.5 -30t-36.5 -110q-10 -58 -10 -82q0 -35 16.5 -46t58.5 -11q59 0 79.5 24.5t36.5 113.5zM438 442l10 83h172l-132 -752h-172l54 306h-8q-28 -50 -68 -68.5t-93 -18.5q-88 0 -128 35t-40 111q0 33 29 200 q35 197 234 197q124 0 134 -93h8z" />
<glyph unicode="r" horiz-adv-x="512" d="M272 525l-13 -77h2q48 87 148 87q104 0 104 -109q0 -29 -17 -131h-155q8 41 8 57q0 51 -38 51q-60 0 -76 -88l-55 -315h-172l92 525h172z" />
<glyph unicode="s" horiz-adv-x="584" d="M545 380h-162q0 28 -13 36t-50 8q-60 0 -79.5 -13t-19.5 -47q0 -35 83 -35q124 0 177.5 -26.5t53.5 -99.5q0 -108 -64 -159.5t-207 -51.5q-141 0 -196.5 21.5t-55.5 95.5q0 19 5 51h172q-2 -12 -2 -17q0 -25 17.5 -32.5t59.5 -7.5q55 0 77 12.5t22 49.5q0 21 -16 29.5 t-66 8.5q-126 0 -179 29.5t-53 93.5q0 110 68.5 159.5t214.5 49.5q52 0 85.5 -3t67.5 -13t50.5 -31.5t16.5 -55.5q0 -11 -7 -52z" />
<glyph unicode="t" horiz-adv-x="492" d="M135 636h172l-20 -111h199l-22 -126h-199q-43 -243 -43 -255q0 -26 32 -26q51 0 62 96h138q-10 -73 -27 -118t-47.5 -67.5t-65 -29.5t-92.5 -7q-42 0 -70.5 4t-55 14.5t-40 33t-13.5 57.5q0 21 50 298h-64l22 126h64z" />
<glyph unicode="u" horiz-adv-x="614" d="M102 525h172l-50 -284q-9 -50 -9 -65q0 -52 55 -52q38 0 69.5 20.5t37.5 57.5l57 323h172l-92 -525h-167l23 101h-8q-51 -109 -176 -109q-152 0 -152 127q0 19 5 47z" />
<glyph unicode="v" horiz-adv-x="550" d="M49 525h180l23 -410h5l158 410h178l-221 -525h-270z" />
<glyph unicode="w" horiz-adv-x="842" d="M49 525h165l-14 -410h8l159 410h201l15 -410h7l133 410h162l-184 -525h-247l-8 374h-6l-138 -374h-253v525z" />
<glyph unicode="x" horiz-adv-x="563" d="M70 525h199l35 -145l88 145h200l-181 -247l103 -278h-202l-45 173l-103 -173h-207l205 278z" />
<glyph unicode="y" horiz-adv-x="553" d="M49 525h180l29 -427h2l160 427h176l-233 -571q-41 -102 -97 -144.5t-162 -42.5q-9 0 -18.5 0.5t-21 1.5t-18.5 1l21 121q4 0 13.5 -2t15.5 -2q50 0 74 29.5t36 83.5h-94z" />
<glyph unicode="z" horiz-adv-x="496" d="M86 525h435l-24 -136l-301 -269h254l-21 -120h-454l25 142l294 263h-229z" />
<glyph unicode="{" horiz-adv-x="385" d="M304 -19l-23 -132h-142q-30 0 -61 29t-31 78q0 17 20.5 128.5t20.5 118.5q0 23 -16.5 31t-58.5 8l24 132q46 0 65 7.5t24 36.5l36 205q11 62 56.5 98t80.5 36h142l-23 -132h-37q-47 0 -55 -52l-31 -171q-6 -34 -28.5 -56t-42.5 -29t-41 -9v-2q80 -9 80 -77 q0 -13 -17 -107.5t-17 -99.5q0 -41 38 -41h37z" />
<glyph unicode="|" horiz-adv-x="600" d="M424 750l-132 -750h-115l132 750h115z" />
<glyph unicode="}" horiz-adv-x="385" d="M374 374l-24 -132q-81 0 -91 -54l-36 -205q-11 -62 -56.5 -98t-80.5 -36h-142l23 132h37q21 0 36.5 16t18.5 36l31 171q17 93 114 102v2q-31 3 -56.5 20.5t-25.5 53.5q0 11 17 104.5t17 102.5q0 36 -38 36h-37l23 132h144q30 0 60 -28.5t30 -77.5q0 -15 -20 -125.5 t-20 -112.5q0 -12 8.5 -20.5t22 -12t24.5 -5t21 -1.5z" />
<glyph unicode="~" horiz-adv-x="600" d="M467 359h97q-9 -50 -26 -93t-53.5 -77.5t-84.5 -34.5q-30 0 -74 32t-85.5 64t-64.5 32q-7 0 -13.5 -5.5t-11 -17t-7.5 -20t-7 -24t-5 -20.5h-97q7 37 18.5 70t31 65.5t50.5 52t69 19.5q36 0 77.5 -32t77.5 -64t59 -32q18 0 31 27.5t18 57.5z" />
<glyph unicode="&#xa3;" d="M724 501h-196q4 21 4 39q0 28 -15.5 39t-54.5 11q-53 0 -74 -18.5t-30 -71.5l-14 -79h190l-26 -145h-190q-9 -52 -21 -74t-46 -37v-5h413l-29 -160h-632l29 160q43 0 59 26t27 90h-89l26 145h89l19 108q15 85 47 132.5t99.5 71.5t183.5 24q139 0 192 -30.5t53 -109.5 q0 -32 -14 -116z" />
<glyph unicode="&#xa4;" d="M518 252l67 -81l-84 -68l-67 81q-3 -1 -14 -7t-16 -8t-16.5 -6.5t-20 -6.5t-21.5 -3.5t-27 -1.5q-59 0 -97 35l-99 -84l-59 70l97 83q-21 34 -21 79q0 39 16 79t41 58l-69 81l86 72l67 -82q49 32 119 32q67 0 102 -30l97 82l60 -71l-99 -83q1 -4 7 -17t9.5 -26.5 t3.5 -29.5q0 -14 -2.5 -28.5t-7 -27.5t-9 -23.5t-12 -22t-11.5 -17.5t-11.5 -16.5t-8.5 -11.5zM376 459q-44 0 -79 -35t-35 -79q0 -32 22.5 -55.5t57.5 -23.5q49 0 81 36t32 77q0 30 -19.5 55t-59.5 25z" />
<glyph unicode="&#xa5;" d="M75 750h217l76 -289h7l182 289h220l-138 -192h94l-23 -131h-166l-56 -80h208l-23 -131h-245l-38 -216h-200l38 216h-237l23 131h201l-27 80h-160l23 131h91z" />
<glyph unicode="&#xa6;" horiz-adv-x="600" d="M345 250l-53 -300h-115l53 300h115zM424 700l-53 -300h-115l53 300h115z" />
<glyph unicode="&#xa7;" d="M262 215l195 -35q34 1 50.5 31.5t16.5 66.5q0 21 -13 30t-49 19q-148 37 -195 37q-35 0 -51 -30t-16 -68q0 -26 14 -35.5t48 -15.5zM705 517h-185q4 30 4 37q0 30 -23 38t-87 8q-71 0 -95 -13.5t-24 -52.5q0 -17 13.5 -25t59.5 -17l182 -34q87 -16 120 -37t33 -81 q0 -26 -6 -62q-5 -31 -9.5 -48.5t-14 -41t-26 -39.5t-40.5 -27q45 -15 45 -75q0 -25 -7 -63q-9 -49 -20.5 -80t-36.5 -59.5t-65 -44t-103 -24.5t-153 -9q-61 0 -101 3t-76 12t-55.5 26.5t-30.5 45.5t-11 69q0 43 10 96h186q-4 -20 -4 -39q0 -35 23.5 -46t85.5 -11 q92 0 122.5 15.5t30.5 63.5q0 22 -15 31.5t-63 17.5l-231 41q-69 12 -94.5 32t-25.5 66q0 26 8 72q5 29 10 46.5t15.5 41.5t28 39t43.5 22q-32 25 -32 78q0 29 8 71q9 49 24 80t50 60t101.5 42.5t166.5 13.5q55 0 89.5 -2t74 -10t61.5 -22.5t37 -42t15 -67.5q0 -23 -13 -95z " />
<glyph unicode="&#xa9;" horiz-adv-x="800" d="M333 -6q-140 0 -230 89.5t-90 224.5q0 117 65 221.5t170 165.5t219 61q139 0 229.5 -90t90.5 -225q0 -116 -64.5 -220t-169.5 -165.5t-220 -61.5zM348 81q134 0 243 104.5t109 240.5q0 104 -70.5 173.5t-177.5 69.5q-137 0 -244.5 -103.5t-107.5 -241.5 q0 -104 69.5 -173.5t178.5 -69.5zM500 303h89q-20 -71 -80 -113t-133 -42q-86 0 -134.5 50.5t-48.5 131.5q0 117 75 198t187 81q74 0 118 -40.5t44 -110.5h-89q0 35 -24 57t-62 22q-68 0 -115 -58.5t-47 -129.5q0 -53 28.5 -91t80.5 -38q37 0 70 23.5t41 59.5z" />
<glyph unicode="&#xab;" horiz-adv-x="556" d="M216 515l102 -61l-128 -182l66 -169l-118 -66l-93 235zM439 515l102 -61l-128 -182l66 -169l-118 -66l-93 235z" />
<glyph unicode="&#xac;" horiz-adv-x="600" d="M409 42l31 177h-385l21 115h500l-52 -292h-115z" />
<glyph unicode="&#xad;" horiz-adv-x="370" d="M50 237l20 115h270l-20 -115h-270z" />
<glyph unicode="&#xae;" horiz-adv-x="800" d="M333 -6q-140 0 -230 89.5t-90 224.5q0 117 65 221.5t170 165.5t219 61q139 0 229.5 -90t90.5 -225q0 -116 -64.5 -220t-170 -165.5t-219.5 -61.5zM348 81q87 0 168 46.5t132.5 126.5t51.5 171q0 105 -70 174.5t-178 69.5q-137 0 -244.5 -103.5t-107.5 -241.5 q0 -104 69.5 -173.5t178.5 -69.5zM484 340l69 -174h-98l-62 169h-78l-30 -169h-86l73 412h206q70 0 105.5 -18.5t35.5 -71.5q0 -70 -37 -109t-98 -39zM346 512l-19 -111h122q84 0 84 72q0 39 -83 39h-104z" />
<glyph unicode="&#xb0;" horiz-adv-x="400" d="M227 756q55 0 90.5 -36t35.5 -89q0 -69 -55 -122t-123 -53q-55 0 -90.5 35t-35.5 88q0 69 54 123t124 54zM214 687q-35 0 -64.5 -26.5t-29.5 -66.5q0 -28 17.5 -48.5t49.5 -20.5q35 0 65 28t30 67q0 28 -18 47.5t-50 19.5z" />
<glyph unicode="&#xb1;" horiz-adv-x="600" d="M288 606h115l-21 -119h193l-20 -115h-193l-21 -122h-115l21 122h-192l20 115h192zM4 80l20 115h500l-20 -115h-500z" />
<glyph unicode="&#xb4;" horiz-adv-x="404" d="M295 756l30 -111l-238 -71l-17 62z" />
<glyph unicode="&#xb5;" horiz-adv-x="614" d="M121 525h172l-51 -291q-8 -47 -8 -61q0 -24 11.5 -36t40.5 -12q38 0 71 20.5t39 56.5l57 323h172l-92 -525h-172l29 101h-8q-52 -107 -182 -107l-39 -221h-172z" />
<glyph unicode="&#xb6;" d="M627 -227h-120l147 832h-77l-147 -832h-120l74 422h-130q-129 0 -179.5 33t-50.5 122q0 43 13 123q26 149 96 213t209 64h457zM410 340l47 265h-100q-41 0 -64 -5.5t-37 -23.5t-20 -38.5t-14 -64.5q-9 -48 -9 -75q0 -34 20.5 -46t77.5 -12h99z" />
<glyph unicode="&#xb7;" horiz-adv-x="360" d="M275 363l-28 -164h-162l28 164h162z" />
<glyph unicode="&#xbb;" horiz-adv-x="556" d="M333 37l-102 61l128 182l-66 169l118 66l93 -235zM110 37l-102 61l128 182l-66 169l118 66l93 -235z" />
<glyph unicode="&#xbe;" horiz-adv-x="1080" d="M1027 450l-49 -274h41l-15 -87h-41l-16 -89h-122l16 89h-257l23 128l228 233h192zM856 171l32 187l-187 -187h155zM914 750l-576 -750h-120l576 750h120zM211 487l16 89h31q46 0 58 6.5t16 30.5q3 14 3 23q0 15 -12.5 20.5t-49.5 5.5q-28 0 -40 -2t-22.5 -13.5 t-14.5 -36.5l-2 -9h-124l3 16q7 38 20.5 64t30.5 40.5t44 22.5t52 10t64 2t64.5 -2.5t55 -11t44.5 -28.5t15 -51q0 -13 -3 -28q-17 -92 -92 -101l-1 -5q65 -3 65 -66q0 -15 -3 -31q-15 -81 -69 -107.5t-157 -26.5q-39 0 -65.5 3t-52.5 13t-39 31.5t-13 54.5q0 16 3 36l4 24 h122l-2 -15q-6 -33 10.5 -43t54.5 -10q44 0 61 9t23 46q5 24 -6.5 32t-60.5 8h-31z" />
<glyph unicode="&#xd7;" horiz-adv-x="600" d="M79 438l103 87l134 -161l190 161l73 -87l-191 -162l134 -162l-104 -88l-133 162l-191 -162l-72 88l190 162z" />
<glyph unicode="&#xf7;" horiz-adv-x="600" d="M40 219l20 115h500l-20 -115h-500zM313 28h-115l21 115h115zM381 410h-115l20 115h115z" />
<glyph unicode="&#x192;" d="M636 489l-44 -126h-102l-138 -390q-12 -33 -19.5 -54.5t-19 -44t-18.5 -35t-22.5 -25.5t-25 -19.5t-32.5 -13t-39.5 -8.5t-50 -4t-60.5 -2h-75l45 131q43 -5 50 -5q38 0 55.5 19.5t33.5 66.5l136 384h-76l44 126h75l22 59q12 32 21.5 56t21.5 45t21 35t25 26t26.5 19 t33.5 13t38 8.5t47.5 4t54.5 1.5h66l-45 -131q-20 5 -39 5q-37 0 -55 -16.5t-38 -71.5l-19 -53h102z" />
<glyph unicode="&#x2c6;" horiz-adv-x="512" d="M269 756l163 -109l-35 -57l-147 62l-163 -62l-17 57z" />
<glyph unicode="&#x2dc;" horiz-adv-x="585" d="M438 733l75 -41q-67 -99 -140 -99q-35 0 -65 17t-53 34t-40 17q-36 0 -68 -45l-74 44q71 96 146 96q39 0 87 -34.5t72 -34.5q32 0 60 46z" />
<glyph unicode="&#x3bc;" horiz-adv-x="614" d="M121 525h172l-51 -291q-8 -47 -8 -61q0 -24 11.5 -36t40.5 -12q38 0 71 20.5t39 56.5l57 323h172l-92 -525h-172l29 101h-8q-52 -107 -182 -107l-39 -221h-172z" />
<glyph unicode="&#x401;" horiz-adv-x="679" d="M323 586l-24 -137h320l-25 -139h-320l-26 -146h348l-29 -164h-548l133 750h541l-29 -164h-341zM410 937l-18 -103h-109l18 103h109zM618 937l-18 -103h-109l18 103h109z" />
<glyph unicode="&#x402;" horiz-adv-x="874" d="M93 750h670l-27 -156h-235l-24 -134h144q108 0 158.5 -37.5t50.5 -120.5q0 -302 -290 -302h-77l27 156h38q51 0 74.5 21t23.5 80q0 25 -15 36t-53 11h-109l-53 -304h-200l105 594h-235z" />
<glyph unicode="&#x403;" horiz-adv-x="632" d="M151 750h532l-29 -164h-332l-103 -586h-200zM676 969l-210 -164h-95l136 164h169z" />
<glyph unicode="&#x404;" horiz-adv-x="739" d="M747 500h-206q5 28 5 38q0 55 -110 55q-77 0 -106 -28.5t-44 -114.5h182l-25 -139h-182q-9 -49 -9 -82q0 -40 22.5 -57.5t83.5 -17.5q38 0 56.5 2.5t39.5 12.5t31.5 34.5t15.5 65.5h206q-9 -76 -34.5 -129.5t-56.5 -82t-80 -44.5t-88 -19.5t-97 -3.5q-52 0 -85.5 2 t-73.5 8t-64 18.5t-46 33.5t-32 54t-10 78q0 41 43 288q15 87 47.5 144t84.5 87.5t113.5 42t149.5 11.5q138 0 207.5 -41t69.5 -141q0 -30 -8 -75z" />
<glyph unicode="&#x405;" horiz-adv-x="733" d="M712 516h-192q3 16 3 28q0 32 -20.5 40.5t-81.5 8.5q-83 0 -107 -20t-24 -62q0 -26 25.5 -38.5t94.5 -24.5q171 -29 225 -58.5t54 -94.5q0 -49 -19 -127t-56 -113q-37 -36 -109 -50.5t-190 -14.5q-60 0 -99.5 3t-77 13.5t-58.5 29t-33.5 49.5t-12.5 76q0 36 8 79h192 q-4 -26 -4 -33q0 -34 24 -43.5t90 -9.5q76 0 108 17.5t32 71.5q0 31 -32.5 44t-154.5 29q-121 16 -165 47t-44 115q0 70 22.5 122t56.5 81t84 47t96.5 23.5t102.5 5.5q63 0 105 -4.5t84 -19.5t63 -47.5t21 -83.5q0 -12 -5 -46t-6 -40z" />
<glyph unicode="&#x406;" horiz-adv-x="330" d="M351 750l-132 -750h-200l132 750h200z" />
<glyph unicode="&#x407;" horiz-adv-x="332" d="M351 750l-132 -750h-200l132 750h200zM234 937l-18 -103h-109l18 103h109zM444 937l-18 -103h-109l18 103h109z" />
<glyph unicode="&#x408;" horiz-adv-x="602" d="M427 750h200l-92 -519q-18 -102 -51.5 -153t-92 -69.5t-168.5 -18.5q-124 0 -171 29.5t-47 112.5q0 47 23 178h190q-16 -82 -16 -104q0 -23 11.5 -32.5t40.5 -9.5q44 0 59.5 14.5t21.5 52.5z" />
<glyph unicode="&#x409;" horiz-adv-x="1214" d="M232 750h607l-51 -290h186q99 0 148 -37.5t49 -121.5q0 -35 -7 -71q-21 -123 -87.5 -176.5t-183.5 -53.5h-386l101 576h-217l-55 -315q-22 -127 -91 -198t-180 -71q-55 0 -100 9l28 162q20 -7 60 -7q41 0 61.5 23t30.5 79zM760 304l-26 -148h139q44 0 64 15t27 57 q3 17 3 29q0 27 -15.5 37t-52.5 10h-139z" />
<glyph unicode="&#x40a;" horiz-adv-x="1188" d="M351 750l-51 -290h261l51 290h200l-51 -290h186q99 0 148 -37.5t49 -121.5q0 -35 -7 -71q-21 -123 -87.5 -176.5t-183.5 -53.5h-386l53 304h-261l-53 -304h-200l132 750h200zM733 304l-26 -148h139q44 0 64 15t27 57q3 17 3 29q0 27 -15.5 37t-52.5 10h-139z" />
<glyph unicode="&#x40b;" horiz-adv-x="874" d="M93 750h670l-27 -156h-235l-24 -134h142q104 0 152.5 -37.5t48.5 -120.5q0 -36 -7 -72l-40 -230h-200l40 228q3 17 3 29q0 25 -15 36t-53 11h-99l-53 -304h-200l105 594h-235z" />
<glyph unicode="&#x40c;" horiz-adv-x="782" d="M351 750l-50 -282h60l243 282h242l-329 -368l219 -382h-248l-158 294h-60l-51 -294h-200l132 750h200zM693 969l-210 -164h-95l136 164h169z" />
<glyph unicode="&#x40e;" horiz-adv-x="740" d="M90 750h227l75 -322h9l186 322h231l-397 -592q-60 -89 -121 -128.5t-140 -39.5q-45 0 -99 9l29 162q20 -7 65 -7q46 0 63.5 10t32.5 40zM397 958q-2 -10 -2 -20q0 -27 19 -37t63 -10q51 0 73 14t29 53h84q-16 -94 -63 -123.5t-139 -29.5q-79 0 -116 20t-37 83q0 18 5 50 h84z" />
<glyph unicode="&#x40f;" horiz-adv-x="801" d="M351 750l-101 -576h261l101 576h200l-132 -750h-260l-30 -171h-141l30 171h-260l132 750h200z" />
<glyph unicode="&#x410;" horiz-adv-x="767" d="M496 129h-269l-60 -129h-208l357 750h304l96 -750h-204zM480 274l-34 326h-2l-149 -326h185z" />
<glyph unicode="&#x411;" horiz-adv-x="727" d="M698 750l-27 -156h-347l-24 -134h186q99 0 148 -37.5t49 -121.5q0 -35 -7 -71q-21 -123 -87.5 -176.5t-183.5 -53.5h-386l132 750h547zM272 304l-26 -148h139q44 0 64 15t27 57q3 16 3 29q0 27 -15.5 37t-52.5 10h-139z" />
<glyph unicode="&#x412;" horiz-adv-x="753" d="M19 0l132 750h394q107 0 158 -27t51 -106q0 -26 -6 -59q-13 -78 -44.5 -120t-103.5 -53l-2 -8q59 -4 83 -30t24 -74q0 -29 -6 -64q-12 -68 -34.5 -110t-60.5 -63.5t-79.5 -28.5t-107.5 -7h-398zM322 586l-24 -136h144q53 0 72.5 13.5t27.5 58.5q3 15 3 26 q0 21 -12.5 29.5t-42.5 8.5h-168zM274 311l-26 -147h151q50 0 73.5 16t31.5 60q3 15 3 27q0 27 -17.5 35.5t-60.5 8.5h-155z" />
<glyph unicode="&#x413;" horiz-adv-x="632" d="M151 750h532l-29 -164h-332l-103 -586h-200z" />
<glyph unicode="&#x414;" horiz-adv-x="817" d="M250 750h577l-101 -578h63l-61 -345h-190l30 173h-393l-30 -173h-190l61 345h59q49 55 78.5 125t50.5 190zM597 578h-187l-18 -103q-19 -108 -45.5 -177t-69.5 -126h249z" />
<glyph unicode="&#x415;" horiz-adv-x="679" d="M322 586l-24 -137h320l-24 -139h-320l-26 -146h348l-29 -164h-548l132 750h541l-29 -164h-341z" />
<glyph unicode="&#x416;" horiz-adv-x="1171" d="M719 468h60l216 282h228l-290 -363l192 -387h-248l-128 294h-60l-52 -294h-189l52 294h-60l-232 -294h-248l328 387l-162 363h228l116 -282h60l50 282h189z" />
<glyph unicode="&#x417;" horiz-adv-x="733" d="M303 311l25 139h95q53 0 77 19t24 74q0 26 -23 38t-84 12q-63 0 -91 -15.5t-36 -61.5h-191l6 31q21 119 104 164.5t240 45.5q141 0 212.5 -34.5t71.5 -121.5q0 -89 -37.5 -147t-115.5 -69l-1 -8q107 -10 107 -109q0 -21 -5 -49q-16 -92 -49 -138.5t-106.5 -68.5 t-210.5 -22q-74 0 -121.5 6.5t-86 24.5t-56 52t-17.5 87q0 32 8 80h192q-4 -26 -4 -33q0 -34 24 -43.5t90 -9.5q77 0 109.5 22.5t32.5 81.5q0 28 -18.5 40.5t-58.5 12.5h-106z" />
<glyph unicode="&#x418;" horiz-adv-x="824" d="M341 750l-87 -494h7l321 494h263l-132 -750h-190l87 494h-7l-312 -494h-272l132 750h190z" />
<glyph unicode="&#x419;" horiz-adv-x="824" d="M341 750l-87 -494h7l321 494h263l-132 -750h-190l87 494h-7l-312 -494h-272l132 750h190zM426 958q-2 -10 -2 -20q0 -27 19 -37t63 -10q51 0 73 14t29 53h84q-16 -94 -63 -123.5t-139 -29.5q-79 0 -116 20t-37 83q0 18 5 50h84z" />
<glyph unicode="&#x41a;" horiz-adv-x="782" d="M351 750l-50 -282h60l243 282h242l-329 -368l219 -382h-248l-157 294h-60l-52 -294h-200l132 750h200z" />
<glyph unicode="&#x41b;" horiz-adv-x="817" d="M232 750h607l-132 -750h-200l101 576h-217l-55 -315q-22 -127 -91 -198t-180 -71q-55 0 -100 9l28 162q20 -7 60 -7q41 0 61.5 23t30.5 79z" />
<glyph unicode="&#x41c;" horiz-adv-x="1058" d="M151 750h317l60 -471h7l219 471h325l-132 -750h-200l121 575l-8 2l-290 -577h-173l-87 577l-10 -2l-81 -575h-200z" />
<glyph unicode="&#x41d;" horiz-adv-x="791" d="M351 750l-50 -282h261l50 282h200l-132 -750h-200l52 294h-261l-52 -294h-200l132 750h200z" />
<glyph unicode="&#x41e;" horiz-adv-x="784" d="M344 -10q-148 0 -226 43.5t-78 159.5q0 44 44 288q12 68 38 117.5t60.5 79.5t83 48t99 24.5t115.5 6.5q57 0 100.5 -5t83.5 -18t65.5 -35t40.5 -57.5t15 -84.5q0 -37 -44 -288q-12 -68 -38 -117.5t-60.5 -80.5t-83.5 -49.5t-99.5 -25t-115.5 -6.5zM375 164 q83 0 116.5 23.5t47.5 103.5q34 195 34 219q0 46 -27 59.5t-97 13.5q-84 0 -116.5 -21.5t-46.5 -101.5q-34 -195 -34 -221q0 -46 27 -60.5t96 -14.5z" />
<glyph unicode="&#x41f;" horiz-adv-x="791" d="M151 750h661l-132 -750h-200l101 576h-261l-101 -576h-200z" />
<glyph unicode="&#x420;" horiz-adv-x="743" d="M256 208l-37 -208h-200l132 750h377q116 0 167.5 -39t51.5 -131q0 -35 -10 -95q-28 -162 -89 -219.5t-215 -57.5h-177zM322 586l-38 -214h137q58 0 77.5 19.5t32.5 91.5q6 29 6 49q0 30 -17.5 42t-60.5 12h-137z" />
<glyph unicode="&#x421;" horiz-adv-x="750" d="M745 481h-206q6 33 6 46q0 56 -111 56q-81 0 -108 -28.5t-42 -114.5q-32 -179 -32 -201q0 -40 23.5 -57.5t84.5 -17.5q38 0 56.5 2.5t39.5 13t32 35t16 65.5h206q-25 -172 -102 -231t-257 -59q-52 0 -85.5 2t-73.5 8t-64 18.5t-46 33.5t-32 54t-10 78q0 40 43 288 q13 73 38.5 125t58.5 83t83 48t101 23t123 6q137 0 203.5 -40t66.5 -139q0 -25 -12 -97z" />
<glyph unicode="&#x422;" horiz-adv-x="644" d="M106 750h604l-31 -174h-202l-101 -576h-200l101 576h-202z" />
<glyph unicode="&#x423;" horiz-adv-x="740" d="M89 750h227l75 -322h9l186 322h231l-396 -592q-60 -89 -121.5 -128.5t-140.5 -39.5q-44 0 -98 9l28 162q20 -7 65 -7q46 0 63.5 10t33.5 40z" />
<glyph unicode="&#x424;" horiz-adv-x="1040" d="M506 750h200l-13 -75h101q123 0 178 -42t55 -144q0 -49 -12 -114q-30 -170 -102 -233.5t-224 -63.5h-101l-14 -78h-200l14 78h-103q-124 0 -178 39.5t-54 141.5q0 50 12 116q30 169 103 234.5t223 65.5h102zM664 511l-47 -269h68q56 0 83.5 28.5t40.5 104.5q6 33 6 58 q0 42 -19.5 60t-63.5 18h-68zM417 242l47 269h-69q-56 0 -83.5 -31t-40.5 -105q-6 -36 -6 -60q0 -41 18.5 -57t62.5 -16h71z" />
<glyph unicode="&#x425;" horiz-adv-x="775" d="M105 750h234l87 -275l184 275h230l-271 -364l155 -386h-233l-98 289l-199 -289h-235l293 386z" />
<glyph unicode="&#x426;" horiz-adv-x="810" d="M351 750l-101 -576h261l101 576h200l-101 -576h62l-61 -345h-190l30 171h-533l132 750h200z" />
<glyph unicode="&#x427;" horiz-adv-x="763" d="M151 750h200q-37 -207 -37 -232q0 -37 22 -50.5t79 -13.5q67 0 118 14l50 282h200l-132 -750h-200l53 300q-69 -20 -167 -20q-125 0 -178.5 40.5t-53.5 130.5q0 48 46 299z" />
<glyph unicode="&#x428;" horiz-adv-x="1118" d="M351 750l-101 -576h194l101 576h200l-101 -576h194l101 576h200l-132 -750h-988l132 750h200z" />
<glyph unicode="&#x429;" horiz-adv-x="1137" d="M351 750l-101 -576h194l101 576h200l-101 -576h194l101 576h200l-101 -576h62l-61 -345h-190l30 171h-860l132 750h200z" />
<glyph unicode="&#x42a;" horiz-adv-x="823" d="M86 750h370l-51 -290h186q99 0 148 -37.5t49 -121.5q0 -35 -7 -71q-21 -123 -87.5 -176.5t-183.5 -53.5h-386l103 586h-170zM377 304l-26 -148h139q44 0 64 15t27 57q3 17 3 29q0 27 -15.5 37t-52.5 10h-139z" />
<glyph unicode="&#x42b;" horiz-adv-x="1060" d="M351 750l-51 -290h186q99 0 148 -37.5t49 -121.5q0 -35 -7 -71q-21 -123 -87.5 -176.5t-183.5 -53.5h-386l132 750h200zM272 304l-26 -148h139q44 0 64 15t27 57q3 16 3 29q0 27 -15.5 37t-52.5 10h-139zM1081 750l-132 -750h-200l132 750h200z" />
<glyph unicode="&#x42c;" horiz-adv-x="727" d="M351 750l-51 -290h186q99 0 148 -37.5t49 -121.5q0 -35 -7 -71q-21 -123 -87.5 -176.5t-183.5 -53.5h-386l132 750h200zM272 304l-26 -148h139q44 0 64 15t27 57q3 16 3 29q0 27 -15.5 37t-52.5 10h-139z" />
<glyph unicode="&#x42d;" horiz-adv-x="740" d="M284 501h-206q20 117 118.5 186.5t247.5 69.5q154 0 225.5 -40t71.5 -154q0 -47 -43 -285q-10 -58 -27 -102.5t-36 -74.5t-48.5 -51t-56 -33t-67.5 -18t-74 -7.5t-84 -1.5q-71 0 -118 6.5t-86.5 24.5t-58 53t-18.5 89q0 36 13 107h206q-8 -45 -8 -56q0 -39 24.5 -49.5 t85.5 -10.5q42 0 68.5 8.5t43 30t25 47.5t16.5 71h-190l25 139h190q8 45 8 70q0 41 -23 57t-85 16q-63 0 -96.5 -18.5t-42.5 -73.5z" />
<glyph unicode="&#x42e;" horiz-adv-x="1122" d="M302 468h118l2 13q15 84 49.5 140t89 85t114.5 40t143 11q57 0 100.5 -5t83.5 -18t65.5 -35t40.5 -57.5t15 -84.5q0 -50 -44 -288q-16 -84 -51 -140.5t-89 -86t-115 -41t-143 -11.5q-148 0 -225.5 43.5t-77.5 159.5q0 36 11 101h-118l-52 -294h-200l132 750h200zM713 164 q83 0 116.5 23.5t47.5 103.5q34 195 34 219q0 46 -27 59.5t-97 13.5q-82 0 -115.5 -23t-47.5 -100q-34 -192 -34 -220q0 -46 27.5 -61t95.5 -15z" />
<glyph unicode="&#x42f;" horiz-adv-x="736" d="M425 0l46 264h-94l-178 -264h-229l214 288q-53 24 -77.5 60.5t-24.5 94.5q0 34 7 70q22 123 87.5 180t196.5 57h384l-132 -750h-200zM500 428l28 158h-150q-37 0 -56 -11.5t-27 -37.5q-9 -31 -9 -51q0 -58 79 -58h135z" />
<glyph unicode="&#x430;" horiz-adv-x="609" d="M355 78h-6q-30 -86 -166 -86q-84 0 -125 25t-41 91q0 214 224 214q28 0 45.5 -1.5t39 -6.5t33.5 -18t15 -33h8q19 105 19 121q0 23 -14 35t-52 12q-36 0 -55.5 -11t-25.5 -44h-172q8 45 27 75.5t41 47t60 25t66 10t76 1.5q120 0 170.5 -25.5t50.5 -106.5q0 -29 -8 -75 l-57 -328h-172zM280 215q-26 0 -42 -3.5t-30 -19t-14 -44.5q0 -45 66 -45q60 0 83 17t23 59q0 23 -19.5 29.5t-66.5 6.5z" />
<glyph unicode="&#x431;" horiz-adv-x="609" d="M208 418q17 41 58.5 67.5t90.5 26.5q108 0 153.5 -31.5t45.5 -117.5q0 -45 -10 -101q-29 -160 -90 -215t-215 -55q-124 0 -174 37t-50 127q0 49 30 224q30 168 102.5 245t210.5 77q64 0 89 8.5t29 30.5h124q-15 -87 -73 -123t-167 -36q-71 0 -106 -30.5t-52 -120.5 l-2 -13h6zM312 380q-56 0 -78.5 -23.5t-34.5 -94.5q-10 -60 -10 -83q0 -32 16 -43.5t59 -11.5q58 0 76 24.5t34 113.5q7 38 7 65q0 31 -15 42t-54 11z" />
<glyph unicode="&#x432;" horiz-adv-x="585" d="M209 218l-19 -107h92q38 0 57 15.5t19 56.5q0 18 -12 26.5t-45 8.5h-92zM9 0l92 525h284q80 0 120 -23t40 -79q0 -119 -107 -143l-1 -4q86 -14 86 -96q0 -180 -219 -180h-295zM244 414l-16 -91h86q33 0 48.5 12.5t15.5 46.5q0 16 -9.5 24t-36.5 8h-88z" />
<glyph unicode="&#x433;" horiz-adv-x="457" d="M101 525h382l-22 -126h-210l-70 -399h-172z" />
<glyph unicode="&#x434;" horiz-adv-x="665" d="M183 525h456l-71 -405h49l-45 -256h-154l24 136h-311l-24 -136h-154l45 256h51q79 86 104 234zM396 120l50 285h-122l-10 -56q-15 -89 -34.5 -135.5t-58.5 -93.5h175z" />
<glyph unicode="&#x435;" horiz-adv-x="598" d="M227 328h169q4 22 4 35q0 32 -17.5 42t-57.5 10q-47 0 -67.5 -18t-30.5 -69zM552 233h-341q-7 -35 -7 -62q0 -32 16 -45.5t54 -13.5q32 0 47 2t29 15t18 39h172q-7 -40 -20.5 -69.5t-34.5 -48.5t-44 -31t-56 -17.5t-62 -7.5t-70 -2q-121 0 -171 37t-50 124q0 37 12 109 q14 79 33 128.5t53.5 83.5t86.5 47.5t132 13.5q120 0 170 -35t50 -126q0 -46 -17 -141z" />
<glyph unicode="&#x436;" horiz-adv-x="836" d="M382 525h160l-34 -197h30l132 197h173l-185 -252l125 -273h-185l-81 213h-30l-37 -213h-160l37 213h-30l-155 -213h-185l221 273l-97 252h173l64 -197h30z" />
<glyph unicode="&#x437;" horiz-adv-x="581" d="M223 368h-162l4 26q7 42 30.5 70.5t60.5 43.5t78.5 21t94.5 6q115 0 166 -25t51 -88q0 -60 -27.5 -97t-79.5 -45l-1 -4q86 -12 86 -91q0 -39 -9.5 -68.5t-35.5 -60t-84 -47.5t-145 -17q-130 0 -184 23.5t-54 95.5q0 20 5 52h172q-2 -16 -2 -21q0 -23 16 -31t58 -8 q56 0 76.5 17t20.5 60q0 22 -17 30t-65 8h-56l19 105h59q43 0 62 13.5t19 49.5q0 19 -14.5 28.5t-55.5 9.5q-44 0 -62.5 -12t-23.5 -44z" />
<glyph unicode="&#x438;" horiz-adv-x="607" d="M101 525h154l-56 -322h8l196 322h195l-92 -525h-154l57 324h-5l-198 -324h-197z" />
<glyph unicode="&#x439;" horiz-adv-x="607" d="M101 525h154l-56 -322h8l196 322h195l-92 -525h-154l57 324h-5l-198 -324h-197zM440 712h74q-14 -77 -53.5 -105t-118.5 -28q-61 0 -91.5 20.5t-30.5 70.5q0 21 4 42h74q-2 -16 -2 -21q0 -23 14 -30.5t47 -7.5q39 0 58 11.5t25 47.5z" />
<glyph unicode="&#x43a;" horiz-adv-x="592" d="M273 525l-34 -197h30l138 197h189l-192 -252l134 -273h-201l-89 213h-30l-37 -213h-172l92 525h172z" />
<glyph unicode="&#x43b;" horiz-adv-x="641" d="M175 525h458l-92 -525h-172l70 399h-124l-30 -169q-23 -130 -84 -184t-154 -54q-40 0 -73 4l22 124q14 -2 34 -2q43 0 63.5 29.5t30.5 85.5z" />
<glyph unicode="&#x43c;" horiz-adv-x="782" d="M277 0l-39 390h-5l-69 -390h-154l92 525h251l24 -322h8l136 322h251l-92 -525h-154l69 390h-5l-177 -390h-136z" />
<glyph unicode="&#x43d;" horiz-adv-x="615" d="M273 525l-31 -177h161l31 177h172l-92 -525h-172l39 222h-161l-39 -222h-172l92 525h172z" />
<glyph unicode="&#x43e;" horiz-adv-x="615" d="M355 535q130 0 179.5 -30.5t49.5 -116.5q0 -48 -14 -126q-20 -112 -50.5 -167.5t-89.5 -79t-171 -23.5q-127 0 -177 33.5t-50 119.5q0 42 13 117q20 113 50 168.5t89.5 80t170.5 24.5zM398 262q8 48 8 73q0 37 -17 52.5t-58 15.5q-55 0 -77.5 -30t-36.5 -110 q-10 -58 -10 -82q0 -35 16.5 -46t58.5 -11q59 0 79.5 24.5t36.5 113.5z" />
<glyph unicode="&#x43f;" horiz-adv-x="615" d="M101 525h505l-92 -525h-172l70 399h-161l-70 -399h-172z" />
<glyph unicode="&#x440;" horiz-adv-x="625" d="M408 262q8 48 8 73q0 37 -17 52.5t-58 15.5q-55 0 -77.5 -30t-36.5 -110q-10 -58 -10 -82q0 -35 16.5 -46t58.5 -11q59 0 79.5 24.5t36.5 113.5zM195 79l-54 -306h-172l132 752h172l-18 -83h8q42 93 166 93q169 0 169 -141q0 -30 -26 -176q-21 -121 -76.5 -173.5 t-162.5 -52.5q-54 0 -87 18.5t-43 68.5h-8z" />
<glyph unicode="&#x441;" horiz-adv-x="590" d="M562 332h-172q3 18 3 30q0 25 -15.5 33t-56.5 8q-47 0 -68 -26.5t-36 -114.5q-10 -53 -10 -85q0 -33 14 -43t50 -10q56 0 72 16t25 68h172q-12 -70 -33.5 -112.5t-59.5 -65.5t-82.5 -30.5t-116.5 -7.5q-119 0 -167.5 33.5t-48.5 119.5q0 42 13 117q13 72 30 118.5t50 84 t86.5 54t132.5 16.5q44 0 74.5 -2.5t61 -11t48.5 -23.5t29 -41t11 -63q0 -28 -6 -62z" />
<glyph unicode="&#x442;" horiz-adv-x="458" d="M51 525h448l-22 -126h-138l-70 -399h-172l70 399h-138z" />
<glyph unicode="&#x443;" horiz-adv-x="553" d="M49 525h180l29 -427h2l160 427h176l-233 -571q-41 -102 -97 -144.5t-162 -42.5q-9 0 -18.5 0.5t-21 1.5t-18.5 1l21 121q4 0 13.5 -2t15.5 -2q50 0 74 29.5t36 83.5h-94z" />
<glyph unicode="&#x444;" horiz-adv-x="900" d="M531 262q-9 -56 -9 -77q0 -31 13 -46t45 -15q47 0 67.5 26t35.5 112q10 58 10 83q0 33 -14 45.5t-50 12.5q-45 0 -64 -28t-34 -113zM455 750h162l-54 -308l4 -1q49 94 149 94q159 0 159 -136q0 -26 -27 -179q-22 -122 -74.5 -175t-153.5 -53q-44 0 -74 23.5t-38 63.5h-9 l-54 -306h-162l54 306h-8q-22 -40 -60.5 -63.5t-82.5 -23.5q-82 0 -119.5 34t-37.5 108q0 36 30 205q18 100 73 148t149 48q99 0 116 -93h4zM369 262q10 58 10 83q0 32 -13.5 45t-45.5 13q-50 0 -68.5 -27.5t-34.5 -113.5q-9 -50 -9 -77q0 -36 14.5 -48.5t49.5 -12.5 q47 0 65.5 31.5t31.5 106.5z" />
<glyph unicode="&#x445;" horiz-adv-x="563" d="M70 525h199l35 -145l88 145h200l-181 -247l103 -278h-202l-45 173l-103 -173h-207l205 278z" />
<glyph unicode="&#x446;" horiz-adv-x="628" d="M203 126h161l70 399h172l-70 -399h48l-46 -262h-154l24 136h-399l92 525h172z" />
<glyph unicode="&#x447;" horiz-adv-x="597" d="M91 525h172q-25 -137 -25 -157q0 -25 15 -35t51 -10q44 0 63 15.5t26 55.5l23 131h172l-92 -525h-172l47 270h-6q-20 -44 -52.5 -61.5t-102.5 -17.5q-78 0 -115 28.5t-37 90.5q0 27 33 215z" />
<glyph unicode="&#x448;" horiz-adv-x="872" d="M101 525h162l-70 -399h138l70 399h162l-70 -399h138l70 399h162l-92 -525h-762z" />
<glyph unicode="&#x449;" horiz-adv-x="885" d="M101 525h162l-70 -399h138l70 399h162l-70 -399h138l70 399h162l-70 -399h48l-46 -262h-154l24 136h-656z" />
<glyph unicode="&#x44a;" horiz-adv-x="664" d="M300 227l-19 -107h88q74 0 74 70q0 18 -11.5 27.5t-43.5 9.5h-88zM46 525h306l-31 -178h128q83 0 123.5 -29.5t40.5 -94.5q0 -223 -225 -223h-300l70 399h-134z" />
<glyph unicode="&#x44b;" horiz-adv-x="848" d="M221 227l-19 -107h88q74 0 74 70q0 18 -11.5 27.5t-43.5 9.5h-88zM273 525l-31 -178h128q83 0 123.5 -29.5t40.5 -94.5q0 -223 -225 -223h-300l92 525h172zM839 525l-92 -525h-172l92 525h172z" />
<glyph unicode="&#x44c;" horiz-adv-x="585" d="M221 227l-19 -107h88q74 0 74 70q0 18 -11.5 27.5t-43.5 9.5h-88zM273 525l-31 -178h128q83 0 123.5 -29.5t40.5 -94.5q0 -223 -225 -223h-300l92 525h172z" />
<glyph unicode="&#x44d;" horiz-adv-x="588" d="M224 341h-172q11 61 35.5 101t64.5 59.5t83 26.5t106 7q120 0 168 -39.5t48 -124.5q0 -45 -11 -108q-27 -157 -89 -214t-212 -57q-119 0 -172 27.5t-53 110.5q0 29 6 65h172q-5 -27 -5 -39q0 -24 16 -34t57 -10q45 0 67 21.5t33 84.5h-113l19 105h113q4 28 4 36 q0 32 -16.5 44t-52.5 12q-48 0 -68 -14.5t-28 -59.5z" />
<glyph unicode="&#x44e;" horiz-adv-x="880" d="M240 334h83q28 117 90.5 159t206.5 42q130 0 179.5 -30.5t49.5 -116.5q0 -48 -14 -126q-20 -112 -50.5 -167.5t-89.5 -79t-171 -23.5q-128 0 -178 33.5t-50 121.5q0 32 4 61h-83l-36 -208h-172l92 525h172zM663 262q8 48 8 73q0 37 -17 52.5t-58 15.5q-55 0 -77.5 -30 t-36.5 -110q-10 -58 -10 -82q0 -35 16.5 -46t58.5 -11q59 0 79.5 24.5t36.5 113.5z" />
<glyph unicode="&#x44f;" horiz-adv-x="590" d="M369 298l19 107h-88q-74 0 -74 -68q0 -20 11 -29.5t44 -9.5h88zM317 0l31 178h-68l-113 -178h-187l137 194q-61 29 -61 106q0 225 225 225h300l-92 -525h-172z" />
<glyph unicode="&#x451;" horiz-adv-x="583" d="M318 712l-18 -103h-109l18 103h109zM528 712l-18 -103h-109l18 103h109zM218 328h169q4 22 4 35q0 32 -17.5 42t-57.5 10q-47 0 -67.5 -18t-30.5 -69zM543 233h-341q-7 -35 -7 -62q0 -32 16 -45.5t54 -13.5q32 0 47 2t29 15t18 39h172q-7 -40 -20.5 -69.5t-34.5 -48.5 t-44 -31t-56 -17.5t-62 -7.5t-70 -2q-121 0 -171 37t-50 124q0 37 12 109q14 79 33 128.5t53.5 83.5t86.5 47.5t132 13.5q120 0 170 -35t50 -126q0 -46 -17 -141z" />
<glyph unicode="&#x452;" horiz-adv-x="615" d="M142 757h172l-13 -70h161l-14 -80h-161l-31 -180h5q28 60 71.5 84t107.5 24q71 0 105 -31t34 -100q0 -31 -44 -282q-17 -98 -39 -155t-59.5 -88t-81.5 -40t-120 -9l22 123q32 0 48.5 12.5t32 54t30.5 129.5q32 186 32 203q0 29 -13.5 40t-45.5 11q-53 0 -76.5 -29 t-33.5 -85l-51 -289h-172l107 607h-60l14 80h60z" />
<glyph unicode="&#x453;" horiz-adv-x="457" d="M102 525h382l-23 -126h-210l-69 -399h-172zM505 748l-170 -130h-79l112 130h137z" />
<glyph unicode="&#x454;" horiz-adv-x="566" d="M555 341h-171q3 17 3 28q0 27 -16.5 36.5t-56.5 9.5q-44 0 -65.5 -19t-30.5 -73h112l-19 -105h-112q-5 -32 -5 -48q0 -34 15 -46t51 -12q55 0 71.5 14t25.5 62h171q-9 -52 -26.5 -88t-40 -57t-58.5 -32.5t-72 -15t-92 -3.5q-120 0 -168 34.5t-48 121.5q0 48 12 115 q13 72 30.5 118.5t50.5 83.5t86.5 53.5t132.5 16.5q113 0 169 -28t56 -111q0 -30 -5 -55z" />
<glyph unicode="&#x455;" horiz-adv-x="584" d="M545 380h-162q0 28 -13 36t-50 8q-60 0 -79.5 -13t-19.5 -47q0 -35 83 -35q124 0 177.5 -26.5t53.5 -99.5q0 -108 -64 -159.5t-207 -51.5q-141 0 -196.5 21.5t-55.5 95.5q0 19 5 51h172q-2 -12 -2 -17q0 -25 17.5 -32.5t59.5 -7.5q55 0 77 12.5t22 49.5q0 21 -16 29.5 t-66 8.5q-126 0 -179 29.5t-53 93.5q0 110 68.5 159.5t214.5 49.5q52 0 85.5 -3t67.5 -13t50.5 -31.5t16.5 -55.5q0 -11 -7 -52z" />
<glyph unicode="&#x456;" horiz-adv-x="282" d="M273 525l-92 -525h-172l92 525h172zM313 750l-23 -132h-172l23 132h172z" />
<glyph unicode="&#x457;" horiz-adv-x="282" d="M272 525l-92 -525h-172l92 525h172zM168 712l-18 -103h-109l18 103h109zM378 712l-18 -103h-109l18 103h109z" />
<glyph unicode="&#x458;" horiz-adv-x="282" d="M102 525h172l-106 -596q-15 -84 -62.5 -120t-134.5 -36q-31 0 -50 6l21 117q29 0 41 13.5t17 37.5zM313 750l-23 -132h-172l23 132h172z" />
<glyph unicode="&#x459;" horiz-adv-x="949" d="M175 525h458l-31 -178h128q83 0 123.5 -29.5t40.5 -94.5q0 -223 -225 -223h-300l70 399h-124l-30 -169q-23 -130 -84 -184t-154 -54q-40 0 -73 4l22 124q14 -2 34 -2q43 0 63.5 29.5t30.5 85.5zM581 227l-19 -107h88q74 0 74 70q0 18 -11.5 27.5t-43.5 9.5h-88z" />
<glyph unicode="&#x45a;" horiz-adv-x="923" d="M273 525l-31 -177h161l31 177h172l-31 -178h128q83 0 123.5 -29.5t40.5 -94.5q0 -223 -225 -223h-300l40 227h-161l-40 -227h-172l92 525h172zM554 227l-19 -107h88q74 0 74 70q0 18 -11.5 27.5t-43.5 9.5h-88z" />
<glyph unicode="&#x45b;" horiz-adv-x="615" d="M314 757l-13 -70h161l-14 -80h-161l-32 -180h5q29 60 72 84t107 24q143 0 143 -122q0 -20 -5 -50l-64 -363h-172l57 323q3 17 3 29q0 51 -60 51q-53 0 -77 -29.5t-33 -84.5l-51 -289h-172l107 607h-60l14 80h60l13 70h172z" />
<glyph unicode="&#x45c;" horiz-adv-x="592" d="M274 525l-35 -197h30l139 197h189l-193 -252l134 -273h-201l-88 213h-30l-37 -213h-172l92 525h172zM551 748l-170 -130h-79l112 130h137z" />
<glyph unicode="&#x45e;" horiz-adv-x="553" d="M49 525h180l29 -427h2l160 427h176l-232 -571q-41 -102 -97 -144.5t-162 -42.5q-9 0 -18.5 0.5t-21.5 1.5t-19 1l22 121q2 0 12.5 -2t16.5 -2q50 0 74 29.5t36 83.5h-94zM440 712h74q-13 -77 -52.5 -105t-118.5 -28q-62 0 -92.5 21t-30.5 72q0 20 4 40h74q-2 -16 -2 -20 q0 -24 14.5 -31.5t47.5 -7.5q39 0 57.5 11t24.5 48z" />
<glyph unicode="&#x45f;" horiz-adv-x="615" d="M205 126h161l70 399h172l-92 -525h-202l-24 -136h-101l24 136h-202l92 525h172z" />
<glyph unicode="&#x490;" horiz-adv-x="632" d="M151 750h382l26 145h150l-54 -309h-332l-104 -586h-200z" />
<glyph unicode="&#x491;" horiz-adv-x="457" d="M101 525h282l16 90h100l-38 -216h-210l-70 -399h-172z" />
<glyph unicode="&#x2013;" horiz-adv-x="600" d="M40 237l20 115h500l-20 -115h-500z" />
<glyph unicode="&#x2014;" horiz-adv-x="1000" d="M10 352h1000l-20 -115h-1000z" />
<glyph unicode="&#x2018;" horiz-adv-x="264" d="M212 450h-162l29 164q14 79 55.5 110.5t141.5 31.5l-13 -74q-42 0 -59.5 -14.5t-24.5 -53.5h62z" />
<glyph unicode="&#x2019;" horiz-adv-x="264" d="M114 750h162l-29 -164q-14 -79 -55.5 -110.5t-141.5 -31.5l13 74q42 0 59.5 14.5t24.5 53.5h-62z" />
<glyph unicode="&#x201a;" horiz-adv-x="360" d="M122 164h162l-29 -164q-14 -79 -55.5 -110.5t-141.5 -31.5l13 74q42 0 59.5 14.5t24.5 53.5h-62z" />
<glyph unicode="&#x201c;" horiz-adv-x="489" d="M437 450h-162l29 164q14 79 55.5 110.5t141.5 31.5l-13 -74q-42 0 -59.5 -14.5t-24.5 -53.5h62zM212 450h-162l29 164q14 79 55.5 110.5t141.5 31.5l-13 -74q-42 0 -59.5 -14.5t-24.5 -53.5h62z" />
<glyph unicode="&#x201d;" horiz-adv-x="489" d="M114 750h162l-29 -164q-14 -79 -55.5 -110.5t-141.5 -31.5l13 74q42 0 59.5 14.5t24.5 53.5h-62zM339 750h162l-29 -164q-14 -79 -55.5 -110.5t-141.5 -31.5l13 74q42 0 59.5 14.5t24.5 53.5h-62z" />
<glyph unicode="&#x201e;" horiz-adv-x="489" d="M81 164h162l-29 -164q-14 -79 -55.5 -110.5t-141.5 -31.5l13 74q42 0 59.5 14.5t24.5 53.5h-62zM306 164h162l-29 -164q-14 -79 -55.5 -110.5t-141.5 -31.5l13 74q42 0 59.5 14.5t24.5 53.5h-62z" />
<glyph unicode="&#x2020;" d="M532 750l-38 -219h182l-24 -132h-182l-110 -626h-172l110 626h-182l24 132h182l38 219h172z" />
<glyph unicode="&#x2022;" horiz-adv-x="600" d="M335 563q69 0 113.5 -44t44.5 -111q0 -87 -68.5 -153.5t-155.5 -66.5q-69 0 -113 43.5t-44 109.5q0 85 67 153.5t156 68.5z" />
<glyph unicode="&#x2026;" horiz-adv-x="1000" d="M261 164l-28 -164h-162l28 164h162zM595 164l-28 -164h-162l28 164h162zM929 164l-28 -164h-162l28 164h162z" />
<glyph unicode="&#x2030;" horiz-adv-x="1290" d="M1101 375q80 0 113.5 -17t33.5 -70q0 -17 -24 -158q-15 -85 -55 -110.5t-134 -25.5q-78 0 -109.5 16t-31.5 67q0 26 24 162q16 87 53 111.5t130 24.5zM1086 288q-39 0 -50.5 -9t-19.5 -51q-19 -97 -19 -123q0 -15 11 -19.5t41 -4.5q41 0 55.5 10t22.5 54q18 108 18 114 q0 20 -12 24.5t-47 4.5zM808 750l-575 -750h-120l575 750h120zM718 375q80 0 113.5 -17t33.5 -70q0 -17 -24 -158q-15 -85 -55 -110.5t-134 -25.5q-78 0 -109.5 16t-31.5 67q0 26 24 162q16 87 53 111.5t130 24.5zM703 288q-39 0 -50.5 -9t-19.5 -51q-19 -97 -19 -123 q0 -15 11 -19.5t41 -4.5q41 0 55.5 10t22.5 54q18 108 18 114q0 20 -12 24.5t-47 4.5zM249 756q80 0 113.5 -17t33.5 -70q0 -17 -24 -158q-15 -85 -55 -110.5t-134 -25.5q-78 0 -109.5 16t-31.5 67q0 26 24 162q16 87 53 111.5t130 24.5zM234 669q-39 0 -50.5 -9t-19.5 -51 q-19 -97 -19 -123q0 -15 11 -19.5t41 -4.5q41 0 55.5 10t22.5 54q18 108 18 114q0 20 -12 24.5t-47 4.5z" />
<glyph unicode="&#x2039;" horiz-adv-x="331" d="M214 515l102 -61l-128 -182l66 -169l-118 -66l-93 235z" />
<glyph unicode="&#x203a;" horiz-adv-x="330" d="M110 37l-102 61l128 182l-66 169l118 66l93 -235z" />
<glyph unicode="&#x2116;" horiz-adv-x="1199" d="M780 127h314l-13 -77h-314zM1004 505q78 0 107.5 -19t29.5 -67q0 -21 -9 -77q-17 -98 -51.5 -131t-134.5 -33q-78 0 -107.5 19t-29.5 68q0 21 9 77q17 98 51 130.5t135 32.5zM991 428q-33 0 -46.5 -15.5t-22.5 -70.5q-6 -32 -6 -49q0 -23 10 -30.5t34 -7.5q32 0 45 16 t23 71q6 31 6 50q0 22 -9.5 29t-33.5 7zM151 750h310l77 -575h6l82 575h200l-132 -750h-311l-77 575h-6l-81 -575h-200z" />
<glyph unicode="&#x2122;" horiz-adv-x="897" d="M441 750h147l48 -239l134 239h147l-72 -404h-93l57 321h-3l-173 -321h-52l-59 321h-3l-57 -321h-93zM49 750h348l-15 -83h-123l-57 -321h-102l57 321h-123z" />
<glyph unicode="&#x2219;" horiz-adv-x="360" d="M275 363l-28 -164h-162l28 164h162z" />
<glyph unicode="&#xe000;" horiz-adv-x="525" d="M0 525h525v-525h-525v525z" />
<glyph horiz-adv-x="272" d="M14 358h272l-28 -164h-272z" />
</font>
</defs>
</svg>
