<?xml version="1.0" standalone="no"?>
<!DOCTYPE svg PUBLIC "-//W3C//DTD SVG 1.1//EN" "http://www.w3.org/Graphics/SVG/1.1/DTD/svg11.dtd" >
<svg xmlns="http://www.w3.org/2000/svg">
<metadata></metadata>
<defs>
<font id="EuropeBold" horiz-adv-x="720" >
<font-face units-per-em="1000" ascent="800" descent="-200" />
<missing-glyph horiz-adv-x="360" />
<glyph unicode=" "  horiz-adv-x="360" />
<glyph unicode="&#x09;" horiz-adv-x="360" />
<glyph unicode="&#xa0;" horiz-adv-x="360" />
<glyph unicode="!" horiz-adv-x="349" d="M256 164v-164h-162v164h162zM268 750l-12 -454h-162l-12 454h186z" />
<glyph unicode="&#x22;" horiz-adv-x="442" d="M41 750h138v-130l-42 -129h-54l-42 129v130zM263 750h138v-130l-42 -129h-54l-42 129v130z" />
<glyph unicode="#" d="M283 749h106l-40 -209h101l40 209h104l-39 -209h80v-115h-98l-24 -130h94v-115h-118l-33 -180h-106l33 180h-101l-33 -180h-106l33 180h-91v115h113l24 130h-96v115h117zM328 425l-24 -130h102l26 130h-104z" />
<glyph unicode="$" d="M309 462l97 -9q46 -4 73.5 -7.5t62.5 -10.5t55 -16.5t42 -25.5t33 -37.5t18 -52t7 -69.5q0 -136 -66 -188t-225 -52v-92h-97v92q-75 0 -123.5 9.5t-87.5 35.5t-57 77t-18 131h180q0 -65 21.5 -81t84.5 -16h97q59 0 85 16t26 61q0 41 -21 55t-90 19l-97 7q-91 6 -144 19 t-83 40t-39.5 62.5t-9.5 96.5q0 73 13 117t47.5 69.5t83.5 34.5t132 9v82h97v-82q40 -2 64.5 -4.5t56 -9t50.5 -16t39 -26.5t31 -40t18 -57t7 -77h-175q0 48 -19 61t-72 13h-97q-53 0 -74.5 -13.5t-21.5 -60.5q0 -36 17.5 -47.5t78.5 -16.5z" />
<glyph unicode="%" horiz-adv-x="907" d="M742 750l-443 -750h-120l443 750h120zM718 375q94 0 130 -25t36 -110v-110q0 -85 -35.5 -110.5t-129.5 -25.5q-93 0 -126.5 25t-33.5 110v110q0 86 33 111t126 25zM718 288q-39 0 -49 -9t-10 -51v-83q0 -45 10 -54.5t49 -9.5q41 0 53.5 10t12.5 54v83q0 42 -11.5 51 t-54.5 9zM182 756q94 0 130 -25t36 -110v-110q0 -85 -35.5 -110.5t-129.5 -25.5q-93 0 -126.5 25t-33.5 110v110q0 86 33 111t126 25zM182 669q-39 0 -49 -9t-10 -51v-83q0 -45 10 -54.5t49 -9.5q41 0 53.5 10t12.5 54v83q0 42 -11.5 51t-54.5 9z" />
<glyph unicode="&#x26;" horiz-adv-x="774" d="M671 0l-69 62q-33 -44 -86 -58t-136 -14q-65 0 -108.5 4t-88 18.5t-70.5 40t-42.5 70.5t-16.5 109q0 196 133 196q-35 31 -46 55.5t-11 71.5q0 64 15 104t49 61t76.5 28.5t109.5 7.5q56 0 93 -4t71.5 -16t53.5 -34.5t30.5 -59.5t11.5 -91v-38h-172q0 63 -13.5 78.5 t-74.5 15.5q-39 0 -52.5 -13t-13.5 -53q0 -24 9.5 -39t30.5 -35l182 -164v99h161v-147q0 -35 -20 -73l83 -75zM483 169l-199 172q-31 -4 -38.5 -20t-7.5 -69q0 -64 33 -83.5t109 -19.5q57 0 103 20z" />
<glyph unicode="'" horiz-adv-x="220" d="M41 750h138v-130l-42 -129h-54l-42 129v130z" />
<glyph unicode="(" horiz-adv-x="385" d="M328 756v-162q-52 0 -66.5 -29t-14.5 -100v-324q0 -129 82 -129v-162q-49 0 -86.5 3.5t-66 14t-48 21.5t-33 33.5t-21 42.5t-11.5 56t-5 66.5t-1 80.5v264q0 68 1.5 100t9 78t24 66t46 42.5t76.5 30t114 7.5z" />
<glyph unicode=")" horiz-adv-x="385" d="M57 594v162q57 0 99.5 -7.5t71.5 -18t48 -35t29.5 -44.5t15.5 -61.5t6 -71t1 -86.5v-264q0 -51 -1 -81t-4.5 -66t-11 -56t-21 -42.5t-33 -33.5t-47.5 -21.5t-65.5 -14t-86.5 -3.5v162q28 0 45 10t24 31.5t9 39t2 48.5v324q0 71 -14.5 100t-66.5 29z" />
<glyph unicode="*" d="M565 564l-125 -39l75 -107l-73 -56l-78 112l-84 -111l-76 55l78 108l-127 46l32 88l126 -45v136h93v-136l130 45z" />
<glyph unicode="+" horiz-adv-x="600" d="M242 334v190h115v-190h193v-115h-193v-199h-115v199h-192v115h192z" />
<glyph unicode="," horiz-adv-x="360" d="M95 164h162v-164q0 -79 -36 -110.5t-136 -31.5v74q43 0 57.5 15t14.5 53h-62v164z" />
<glyph unicode="-" horiz-adv-x="370" d="M50 237v115h270v-115h-270z" />
<glyph unicode="." horiz-adv-x="360" d="M252 164v-164h-162v164h162z" />
<glyph unicode="/" horiz-adv-x="637" d="M608 750l-441 -863h-137l441 863h137z" />
<glyph unicode="0" horiz-adv-x="724" d="M362 757q41 0 67.5 -1.5t62.5 -7t59.5 -16t49 -29.5t40 -46.5t24 -69t9.5 -94.5v-236q0 -53 -9.5 -94.5t-24 -69t-40 -47.5t-49 -30.5t-59 -16.5t-63 -7.5t-67.5 -1.5t-67.5 1.5t-63 7.5t-59 16.5t-49 30.5t-40 47.5t-24 69t-9.5 94.5v236q0 53 9.5 94.5t24 69t40 46.5 t49 29.5t59.5 16t62.5 7t67.5 1.5zM362 601q-54 0 -77.5 -8.5t-34.5 -37.5t-11 -94v-172q0 -93 23 -118t100 -25t100 24.5t23 117.5v175q0 92 -22.5 115t-100.5 23z" />
<glyph unicode="1" d="M558 750v-750h-200v573l-194 -177l-113 128l273 226h234z" />
<glyph unicode="2" d="M653 156v-156h-591v156q0 86 19 130t73.5 72.5t171.5 53.5q55 12 78.5 18t39.5 18.5t18 25t2 42.5q0 54 -21.5 69.5t-84.5 15.5q-70 0 -88.5 -14.5t-18.5 -73.5v-36h-189v37q0 75 18.5 123.5t59 74.5t91 35.5t127.5 9.5q59 0 99 -4.5t80 -18.5t63.5 -39.5t38 -69 t14.5 -105.5q0 -64 -9 -103t-36 -65.5t-61.5 -41.5t-99.5 -33q-31 -8 -66.5 -16t-52.5 -11.5t-35.5 -10.5t-25.5 -16.5t-11.5 -25.5t-4.5 -41h402z" />
<glyph unicode="3" d="M252 499h-189v26q0 53 8.5 91.5t28.5 64t43 41t61.5 23t74 10t89.5 2.5q45 0 77 -2.5t74.5 -14t69 -32t45.5 -60t19 -94.5q0 -154 -114 -169v-8q123 -5 123 -160q0 -70 -21 -116.5t-63.5 -70t-91 -32t-118.5 -8.5q-43 0 -72.5 1.5t-65 6.5t-59 14.5t-47.5 26.5t-38 41 t-22.5 59t-8.5 80v40h189v-25q0 -58 26.5 -73t88.5 -15q67 0 90.5 16.5t23.5 78.5q0 28 -6.5 41.5t-31 21t-76.5 7.5h-48v145h48q71 0 88 11t17 50q0 27 -2 40t-12 25t-31.5 15.5t-59.5 3.5q-57 0 -82 -18.5t-25 -68.5v-15z" />
<glyph unicode="4" d="M618 750v-457h64v-145h-64v-148h-190v148h-392v214l287 388h295zM428 293v303h-7l-228 -303h235z" />
<glyph unicode="5" d="M83 750h542v-145h-370v-144q36 38 63 46.5t102 8.5q133 0 184 -56t51 -190q0 -89 -16 -144.5t-55.5 -85.5t-92.5 -40t-140 -10q-149 0 -217.5 47t-68.5 177h190q3 -43 25 -55.5t71 -12.5q70 0 92.5 17t22.5 86q0 42 -2 60t-14 34t-34.5 20t-65.5 4q-52 0 -69.5 -6 t-25.5 -31h-172v420z" />
<glyph unicode="6" d="M343 146q81 0 101 15t20 76q0 43 -23.5 52.5t-97.5 9.5q-58 0 -77 -11.5t-19 -54.5q0 -53 17.5 -70t78.5 -17zM660 521h-190q0 53 -21.5 66.5t-82.5 13.5q-74 0 -96.5 -17t-22.5 -88v-118h3q17 50 47.5 63.5t88.5 13.5q59 0 96 -3.5t73 -16t55.5 -35.5t31 -62.5 t11.5 -97.5q0 -77 -17 -127t-55.5 -76.5t-88 -36.5t-126.5 -10q-96 0 -152.5 12t-93 47t-49.5 92.5t-13 155.5v188q0 87 16.5 140.5t57 82.5t94 39t140.5 10q40 0 66 -1t59.5 -5.5t55.5 -12.5t45.5 -23t37 -36.5t22 -53t8.5 -72.5v-32z" />
<glyph unicode="7" d="M624 750v-168l-249 -582h-210l253 586h-360v164h566z" />
<glyph unicode="8" d="M358 309q-71 0 -92.5 -13.5t-21.5 -65.5q0 -48 24.5 -66t89.5 -18q56 0 81 9t31 25t6 53q0 52 -19.5 64t-98.5 12zM360 601q-63 0 -82.5 -13.5t-19.5 -62.5q0 -45 21.5 -58t80.5 -13q66 0 85.5 13.5t19.5 64.5q0 42 -18 55.5t-87 13.5zM191 380v7q-67 17 -94.5 57.5 t-27.5 113.5q0 44 11 78t32.5 55t46.5 35t61 20.5t67 8.5t73 2q56 0 93 -3t79 -15t66 -33.5t40 -61t16 -95.5q0 -76 -23 -108t-91 -54v-7q125 -17 125 -173q0 -58 -16.5 -98.5t-41.5 -63.5t-68 -35.5t-82 -16t-97 -3.5q-55 0 -94 3.5t-81.5 16.5t-69 36t-43.5 63.5t-17 97.5 q0 70 34.5 120t101.5 53z" />
<glyph unicode="9" d="M374 451q58 0 77 11.5t19 54.5q0 53 -17 68.5t-79 15.5q-82 0 -102 -13.5t-20 -73.5q0 -42 24.5 -52.5t97.5 -10.5zM58 225h190q0 -53 21.5 -66t82.5 -13q73 0 95.5 18t22.5 89v120l-5 1q-12 -37 -33.5 -55t-41 -21t-59.5 -3q-59 0 -96 3.5t-73.5 16t-55.5 35.5t-31 62.5 t-12 97.5q0 77 17 126.5t56 75.5t88.5 35.5t126.5 9.5q97 0 153 -11.5t92.5 -46t49.5 -91.5t13 -155v-188q0 -87 -16.5 -141t-56.5 -83.5t-93.5 -40t-140.5 -10.5q-40 0 -65.5 1t-60 5t-56 12t-45 23t-37 36.5t-22 53t-8.5 72.5v32z" />
<glyph unicode=":" horiz-adv-x="360" d="M251 164v-164h-162v164h162zM251 525v-164h-162v164h162z" />
<glyph unicode=";" horiz-adv-x="360" d="M95 164h162v-164q0 -79 -36 -110.5t-136 -31.5v74q43 0 57.5 15t14.5 53h-62v164zM257 525v-164h-162v164h162z" />
<glyph unicode="&#x37e;" horiz-adv-x="360" d="M95 164h162v-164q0 -79 -36 -110.5t-136 -31.5v74q43 0 57.5 15t14.5 53h-62v164zM257 525v-164h-162v164h162z" />
<glyph unicode="&#x3c;" horiz-adv-x="600" d="M550 525v-128l-338 -119l-1 -1l339 -120v-128l-500 188v120z" />
<glyph unicode="=" horiz-adv-x="600" d="M50 449h500v-115h-500v115zM50 219h500v-115h-500v115z" />
<glyph unicode="&#x3e;" horiz-adv-x="600" d="M50 525l500 -188v-120l-500 -188v128l338 119l1 2l-339 119v128z" />
<glyph unicode="?" horiz-adv-x="605" d="M218 532h-172v31q0 51 12.5 86.5t33 56t56 32t71.5 15t89 3.5q64 0 105 -6.5t77 -26t53 -59t17 -101.5q0 -64 -15.5 -101.5t-43 -58t-86.5 -46.5q-31 -13 -42.5 -26t-11.5 -36v-30h-172v30q0 73 24 109t104 69q40 16 56 36t16 54q0 38 -18.5 50t-62.5 12q-45 0 -67.5 -12 t-22.5 -50v-31zM356 164v-164h-162v164h162z" />
<glyph unicode="@" horiz-adv-x="760" d="M293 351v-1q0 -37 19.5 -62.5t54.5 -25.5q45 0 73.5 33.5t28.5 78.5q0 37 -22 60.5t-58 23.5q-41 0 -68.5 -33t-27.5 -74zM498 506l10 51h95l-49 -292q-3 -15 -3 -23q0 -13 15 -13q35 0 65 53.5t30 130.5q0 119 -74 186t-192 67q-124 0 -201.5 -83.5t-77.5 -209.5 q0 -131 83 -210t213 -79q105 0 191 67h99q-114 -157 -298 -157q-163 0 -275.5 108t-112.5 271q0 161 111 272t271 111q84 0 163.5 -39.5t131.5 -112.5t52 -159q0 -115 -74.5 -203t-175.5 -88q-58 0 -58 49l-2 2q-40 -47 -96 -47q-67 0 -117.5 52t-50.5 125q0 92 57 161 t147 69q80 0 123 -59z" />
<glyph unicode="A" horiz-adv-x="767" d="M519 129h-269l-37 -129h-208l225 750h304l228 -750h-204zM478 274l-92 326h-2l-91 -326h185z" />
<glyph unicode="B" horiz-adv-x="753" d="M65 0v750h394q61 0 101 -7t72.5 -27t48 -59t15.5 -99q0 -79 -24 -120.5t-94 -52.5v-8q77 -5 103.5 -46.5t26.5 -121.5q0 -68 -15 -110t-49 -63.5t-74.5 -28.5t-106.5 -7h-398zM265 586v-136h144q53 0 70 13.5t17 58.5q0 36 -12.5 50t-50.5 14h-168zM265 311v-147h151 q51 0 71.5 16t20.5 60q0 45 -18.5 58t-69.5 13h-155z" />
<glyph unicode="C" horiz-adv-x="750" d="M705 481h-206v29q0 42 -32.5 57.5t-90.5 15.5q-81 0 -103 -28.5t-22 -114.5v-117q0 -39 1.5 -60t8 -43.5t20 -32.5t36.5 -16.5t59 -6.5q70 0 96.5 16.5t26.5 77.5v22h206v-22q0 -157 -65 -212.5t-242 -55.5q-51 0 -84.5 1.5t-74.5 7.5t-66.5 18t-52.5 33t-41.5 51 t-24 74.5t-9.5 102.5v194q0 73 16.5 124.5t44 83t74 48.5t96.5 23t122 6q157 0 232 -54.5t75 -192.5v-29z" />
<glyph unicode="D" horiz-adv-x="792" d="M65 0v750h380q159 0 230.5 -66.5t71.5 -224.5v-157q0 -159 -61 -230.5t-214 -71.5h-407zM265 576v-402h176q100 0 100 128v157q0 70 -23 93.5t-78 23.5h-175z" />
<glyph unicode="E" horiz-adv-x="679" d="M265 586v-137h320v-139h-320v-146h348v-164h-548v750h541v-164h-341z" />
<glyph unicode="F" horiz-adv-x="632" d="M65 750h532v-164h-332v-147h306v-164h-306v-275h-200v750z" />
<glyph unicode="G" horiz-adv-x="778" d="M733 518h-203q0 75 -129 75q-43 0 -71 -6.5t-44 -16.5t-23.5 -33t-9.5 -45.5t-2 -64.5v-122q0 -49 8 -79.5t28.5 -46t45.5 -20.5t68 -5q77 0 103 25t26 102h-138v139h341v-131q0 -98 -13.5 -154t-53 -90t-99.5 -44.5t-166 -10.5q-76 0 -128.5 6.5t-98.5 24.5t-72.5 50 t-41.5 83t-15 123v194q0 91 23.5 149t73.5 87.5t109 39.5t150 10q80 0 135 -9t102.5 -33.5t71 -73.5t23.5 -123z" />
<glyph unicode="H" horiz-adv-x="791" d="M265 750v-282h261v282h200v-750h-200v294h-261v-294h-200v750h200z" />
<glyph unicode="I" horiz-adv-x="330" d="M265 750v-750h-200v750h200z" />
<glyph unicode="J" horiz-adv-x="602" d="M343 750h200v-519q0 -77 -12 -122.5t-45 -73t-81.5 -36.5t-131.5 -9q-81 0 -127.5 10.5t-75.5 41t-38.5 77.5t-9.5 129v62h190v-62q0 -49 11 -66.5t50 -17.5q44 0 57 14.5t13 52.5v519z" />
<glyph unicode="K" horiz-adv-x="782" d="M265 750v-282h60l193 282h242l-264 -368l286 -382h-248l-209 294h-60v-294h-200v750h200z" />
<glyph unicode="L" horiz-adv-x="600" d="M265 750v-576h313v-174h-513v750h200z" />
<glyph unicode="M" horiz-adv-x="1058" d="M65 750h317l143 -471h7l136 471h325v-750h-200l20 575l-9 2l-188 -577h-173l-189 577l-9 -2l20 -575h-200v750z" />
<glyph unicode="N" horiz-adv-x="871" d="M61 750h338l222 -577l1 1l-12 576h200v-750h-341l-219 578l-1 -2l12 -576h-200v750z" />
<glyph unicode="O" horiz-adv-x="784" d="M392 -10q-65 0 -114.5 6.5t-95 25t-74.5 49.5t-46 80.5t-17 117.5v212q0 84 24.5 140t74 85t107.5 40t141 11t141 -11t107.5 -40t74 -85t24.5 -140v-212q0 -68 -17 -117.5t-46 -80.5t-74.5 -49.5t-95 -25t-114.5 -6.5zM392 164q83 0 112 23.5t29 103.5v169q0 79 -29 101 t-112 22q-84 0 -112.5 -21.5t-28.5 -101.5v-169q0 -80 29 -103.5t112 -23.5z" />
<glyph unicode="P" horiz-adv-x="743" d="M265 208v-208h-200v750h377q140 0 198 -59.5t58 -205.5q0 -83 -10.5 -133t-39.5 -84t-77.5 -47t-128.5 -13h-177zM265 586v-214h137q58 0 74 19.5t16 91.5q0 60 -17 81.5t-73 21.5h-137z" />
<glyph unicode="Q" horiz-adv-x="791" d="M428 378l107 -76v122q0 101 -25 130t-118 29q-92 0 -116.5 -28.5t-24.5 -130.5v-135q0 -43 7.5 -68t27 -37.5t42 -16t64.5 -3.5q51 0 90 15l-133 87zM726 -1l-74 59q-78 -68 -259 -68q-92 0 -153 12.5t-107 46t-67 94t-21 153.5v158q0 91 21.5 151t68 93t107.5 46t151 13 t151 -13t107.5 -46t68 -93t21.5 -151v-160q0 -86 -15 -128l82 -56z" />
<glyph unicode="R" horiz-adv-x="750" d="M265 218v-218h-200v750h386q135 0 193 -48.5t58 -175.5q0 -120 -24.5 -166.5t-110.5 -67.5v-8q69 -7 102 -38.5t33 -94.5v-151h-200v124q0 94 -82 94h-155zM265 586v-204h155q56 0 69 21.5t13 95.5q0 51 -16.5 69t-65.5 18h-155z" />
<glyph unicode="S" horiz-adv-x="733" d="M667 515h-192q0 53 -23 65.5t-89 12.5q-75 0 -96.5 -14.5t-21.5 -50.5q0 -37 19.5 -49t88.5 -26l192 -38q74 -14 108.5 -57t34.5 -118q0 -66 -7.5 -106t-25.5 -71t-56.5 -45.5t-93 -21t-142.5 -6.5q-70 0 -115 4.5t-87.5 19t-65.5 41.5t-36.5 72.5t-13.5 112.5h192 q0 -56 24.5 -71t101.5 -15q74 0 99.5 13.5t25.5 59.5q0 14 -3 23.5t-11.5 20t-27.5 18t-49 11.5l-191 28q-46 7 -79 24.5t-57.5 62t-24.5 113.5q0 60 15 102.5t39.5 67t67.5 38t87 17.5t109 4q80 0 131.5 -7.5t93 -29.5t60.5 -64.5t19 -109.5v-31z" />
<glyph unicode="T" horiz-adv-x="644" d="M422 576v-576h-200v576h-202v174h604v-174h-202z" />
<glyph unicode="U" horiz-adv-x="776" d="M65 750h200v-487q0 -59 27.5 -79t95.5 -20t95.5 20t27.5 79v487h200v-500q0 -97 -25 -150.5t-95.5 -81.5t-202.5 -28q-104 0 -168.5 14.5t-98.5 49t-45 79t-11 117.5v500z" />
<glyph unicode="V" horiz-adv-x="743" d="M0 750h203l162 -577h2l169 577h207l-219 -750h-312z" />
<glyph unicode="W" horiz-adv-x="1122" d="M0 750h203l108 -577h5l143 577h208l134 -577h3l117 577h201l-166 -750h-289l-102 470h-8l-109 -470h-286z" />
<glyph unicode="X" horiz-adv-x="775" d="M19 750h234l135 -275l136 275h230l-207 -364l223 -386h-233l-149 289l-148 -289h-235l225 386z" />
<glyph unicode="Y" horiz-adv-x="740" d="M0 750h229l134 -289h7l138 289h232l-274 -487v-263h-200v263z" />
<glyph unicode="Z" horiz-adv-x="659" d="M46 750h590v-168l-359 -402v-6h359v-174h-613v169l354 401v6h-331v174z" />
<glyph unicode="[" horiz-adv-x="385" d="M57 756h271v-162h-82v-582h83v-162h-272v906z" />
<glyph unicode="\" horiz-adv-x="640" d="M74 750h140l352 -750h-140z" />
<glyph unicode="]" horiz-adv-x="385" d="M328 -150h-270v162h81v582h-81v162h270v-906z" />
<glyph unicode="^" horiz-adv-x="600" d="M180 250h-130l190 500h120l190 -500h-130l-119 338h-2z" />
<glyph unicode="_" horiz-adv-x="500" d="M500 -76v-74h-500v74h500z" />
<glyph unicode="`" horiz-adv-x="404" d="M125 756l204 -120l-28 -62l-226 71z" />
<glyph unicode="a" horiz-adv-x="609" d="M388 78h-6q-16 -86 -151 -86q-97 0 -143.5 35t-46.5 130q0 91 46.5 128t143.5 37q28 0 45.5 -1.5t40 -6.5t37 -18t20.5 -33h8v83q0 23 -1.5 35t-8.5 25.5t-23.5 19t-43.5 5.5q-36 0 -53.5 -11t-17.5 -44h-172q0 37 8 65t26.5 45t37.5 27.5t51 15t55.5 5.5t63.5 1 q72 0 114.5 -7t75.5 -28.5t46.5 -63t13.5 -108.5v-328h-172zM382 169q0 30 -22 38t-72 8q-37 0 -56 -10t-19 -43q0 -59 75 -59q55 0 74.5 13t19.5 53z" />
<glyph unicode="b" horiz-adv-x="625" d="M408 262q0 81 -17.5 111t-74.5 30q-55 0 -72 -30t-17 -110q0 -90 15.5 -114.5t73.5 -24.5q59 0 75.5 24.5t16.5 113.5zM227 750v-298l8 -2q35 85 146 85q107 0 153 -53.5t46 -174.5v-120q0 -102 -50.5 -148.5t-148.5 -46.5q-61 0 -98.5 21.5t-51.5 77.5h-8l4 -91h-172 v750h172z" />
<glyph unicode="c" horiz-adv-x="590" d="M550 332h-172q0 44 -16 57.5t-66 13.5q-47 0 -63 -26.5t-16 -114.5q0 -90 14.5 -114t64.5 -24q56 0 69 16t13 68h172q0 -70 -14 -112.5t-47.5 -65.5t-77 -30.5t-115.5 -7.5q-150 0 -200.5 56t-50.5 214q0 72 9 118.5t35.5 84t77 54t129.5 16.5q51 0 85 -3.5t69 -15.5 t55 -34t32.5 -59.5t12.5 -90.5z" />
<glyph unicode="d" horiz-adv-x="625" d="M398 262q0 81 -17.5 111t-74.5 30q-55 0 -72 -30t-17 -110q0 -90 15.5 -114.5t73.5 -24.5q59 0 75.5 24.5t16.5 113.5zM398 450v300h172v-750h-172l4 91h-8q-14 -56 -51.5 -77.5t-98.5 -21.5q-98 0 -148.5 46.5t-50.5 148.5v120q0 121 46 174.5t153 53.5q114 0 149 -85h5 z" />
<glyph unicode="e" horiz-adv-x="598" d="M217 328h169q0 55 -19.5 71t-67.5 16q-47 0 -64.5 -18t-17.5 -69zM558 233h-341q0 -71 16.5 -96t68.5 -25q24 0 36 1t25 6t18 17t5 32h172q0 -47 -13.5 -80.5t-34 -52t-56.5 -28.5t-69 -12.5t-83 -2.5q-78 0 -127.5 14t-78.5 48t-40 82.5t-11 125.5q0 80 10.5 128.5 t39 83t78 48t129.5 13.5q149 0 202.5 -56.5t53.5 -216.5v-29z" />
<glyph unicode="f" horiz-adv-x="393" d="M378 525v-126h-117v-399h-172v399h-69v126h69v51q0 71 23.5 107t82.5 51.5t176 15.5v-131q-17 5 -36 5q-51 0 -62.5 -14t-11.5 -66v-19h117z" />
<glyph unicode="g" horiz-adv-x="625" d="M404 432l-6 93h172v-501q0 -151 -49 -206t-198 -55q-143 0 -199 37.5t-56 143.5h160q0 -35 20 -45t60 -10q56 0 73 16.5t17 71.5v109h-6q-32 -94 -143 -94q-54 0 -92.5 14.5t-60 37t-33.5 60.5t-15 73t-3 86q0 71 6.5 115.5t27 83t62.5 56t108 17.5q60 0 97 -23t52 -80h6 zM398 262q0 81 -17.5 111t-74.5 30q-55 0 -72 -30t-17 -110q0 -90 15.5 -114.5t73.5 -24.5q59 0 75.5 24.5t16.5 113.5z" />
<glyph unicode="h" horiz-adv-x="615" d="M227 750v-323h5q18 60 57 84t103 24q168 0 168 -172v-363h-172v323q0 41 -15.5 60.5t-55.5 19.5q-53 0 -71.5 -29.5t-18.5 -84.5v-289h-172v750h172z" />
<glyph unicode="i" horiz-adv-x="282" d="M227 525v-525h-172v525h172zM227 750v-132h-172v132h172z" />
<glyph unicode="j" horiz-adv-x="282" d="M55 525h172v-596q0 -85 -41 -120.5t-129 -35.5q-31 0 -51 6v117q29 0 39 13.5t10 37.5v578zM227 750v-132h-172v132h172z" />
<glyph unicode="k" horiz-adv-x="592" d="M227 750v-422h30l104 197h189l-148 -252l182 -273h-201l-126 213h-30v-213h-172v750h172z" />
<glyph unicode="l" horiz-adv-x="282" d="M227 750v-750h-172v750h172z" />
<glyph unicode="m" horiz-adv-x="924" d="M227 525v-74h2q15 43 55 63.5t89 20.5q148 0 159 -107h8q6 53 48.5 80t97.5 27q92 0 137.5 -42t45.5 -133v-360h-172v304q0 26 -1.5 39.5t-7.5 29.5t-21 23t-39 7q-46 0 -63 -28t-17 -77v-298h-172v318q0 43 -12 64t-53 21q-50 0 -67 -26t-17 -79v-298h-172v525h172z" />
<glyph unicode="n" horiz-adv-x="615" d="M227 525v-98h5q18 60 57 84t103 24q168 0 168 -172v-363h-172v323q0 41 -15.5 60.5t-55.5 19.5q-53 0 -71.5 -29.5t-18.5 -84.5v-289h-172v525h172z" />
<glyph unicode="o" horiz-adv-x="615" d="M307 535q85 0 134 -11t79.5 -43t40 -82t9.5 -137q0 -85 -10 -134t-40 -81.5t-79.5 -43.5t-133.5 -11q-82 0 -131.5 12t-79.5 45t-40.5 82t-10.5 131q0 85 10 134t39.5 82.5t79 45t133.5 11.5zM398 262q0 81 -17.5 111t-74.5 30q-55 0 -72 -30t-17 -110q0 -90 15.5 -114.5 t73.5 -24.5q59 0 75.5 24.5t16.5 113.5z" />
<glyph unicode="p" horiz-adv-x="625" d="M408 262q0 81 -17.5 111t-74.5 30q-55 0 -72 -30t-17 -110q0 -90 15.5 -114.5t73.5 -24.5q59 0 75.5 24.5t16.5 113.5zM227 79v-306h-172v752h172l-4 -83h8q26 93 150 93q199 0 199 -197v-120q0 -121 -46 -173.5t-153 -52.5q-54 0 -90.5 18.5t-55.5 68.5h-8z" />
<glyph unicode="q" horiz-adv-x="625" d="M398 262q0 81 -17.5 111t-74.5 30q-55 0 -72 -30t-17 -110q0 -90 15.5 -114.5t73.5 -24.5q59 0 75.5 24.5t16.5 113.5zM402 442l-4 83h172v-752h-172v306h-8q-19 -50 -55.5 -68.5t-89.5 -18.5q-108 0 -154 52.5t-46 173.5v120q0 197 199 197q124 0 150 -93h8z" />
<glyph unicode="r" horiz-adv-x="512" d="M227 525v-77h2q33 87 133 87q35 0 59.5 -12t38 -29.5t20.5 -46t9 -52.5t2 -58v-42h-155v26q0 82 -49 82q-60 0 -60 -88v-315h-172v525h172z" />
<glyph unicode="s" horiz-adv-x="584" d="M524 380h-162q-3 27 -18 35.5t-52 8.5q-58 0 -74 -10t-16 -36q0 -12 2.5 -19t10.5 -15t27 -11.5t50 -3.5q141 0 199 -31.5t58 -126.5q0 -57 -14.5 -93t-48 -54.5t-76.5 -25t-112 -6.5q-60 0 -96.5 3t-72 12.5t-54 27.5t-29.5 48.5t-11 76.5h172q0 -35 19 -46t66 -11 q54 0 72 9t18 39q0 31 -18.5 41.5t-71.5 10.5q-142 0 -199.5 38t-57.5 121q0 56 17 91.5t54 53t78.5 23t107.5 5.5q40 0 69 -2t62 -9.5t53.5 -21t34 -38.5t13.5 -59v-25z" />
<glyph unicode="t" horiz-adv-x="492" d="M449 525v-126h-199v-235q0 -25 8 -35.5t31 -10.5q45 0 45 68v28h138v-47q0 -104 -42 -139.5t-151 -35.5q-47 0 -78.5 5t-62 19.5t-45.5 45t-15 78.5v259h-64v126h64v111h172v-111h199z" />
<glyph unicode="u" horiz-adv-x="614" d="M55 525h172v-313q0 -44 14.5 -66t52.5 -22t65.5 20.5t27.5 57.5v323h172v-525h-167l6 101h-8q-32 -109 -157 -109q-178 0 -178 174v359z" />
<glyph unicode="v" horiz-adv-x="550" d="M3 525h180l95 -410h5l86 410h178l-129 -525h-270z" />
<glyph unicode="w" horiz-adv-x="842" d="M3 525h165l58 -410h8l87 410h201l87 -410h7l61 410h162l-92 -525h-247l-74 374h-6l-72 -374h-250z" />
<glyph unicode="x" horiz-adv-x="563" d="M24 525h199l60 -145l63 145h200l-138 -247l152 -278h-202l-75 173l-73 -173h-207l156 278z" />
<glyph unicode="y" horiz-adv-x="553" d="M3 525h180l104 -427h2l85 427h176l-132 -571q-23 -102 -71.5 -144.5t-154.5 -42.5q-9 0 -18.5 0.5t-21.5 1.5t-19 1v121q3 0 13.5 -2t16.5 -2q50 0 68.5 29.5t21.5 83.5h-94z" />
<glyph unicode="z" horiz-adv-x="496" d="M40 525h435v-136l-254 -269h254v-120h-454v142l248 263h-229v120z" />
<glyph unicode="{" horiz-adv-x="385" d="M278 33q0 -19 11.5 -35.5t34.5 -16.5h37v-132h-142q-35 0 -74 36t-39 98v205q0 35 -18 44.5t-64 9.5v132q46 0 64 7.5t18 36.5v205q0 62 39 98t74 36h142v-132h-37q-28 0 -37 -14t-9 -38v-171q0 -26 -10 -45t-26.5 -29t-31 -14.5t-28.5 -5.5v-2q17 -2 29 -5t29.5 -12.5 t27.5 -31t10 -53.5v-171z" />
<glyph unicode="|" horiz-adv-x="600" d="M358 750v-750h-115v750h115z" />
<glyph unicode="}" horiz-adv-x="385" d="M361 374v-132q-16 0 -31 -2.5t-33 -15.5t-18 -36v-205q0 -62 -39 -98t-74 -36h-142v132h37q21 0 33.5 16t12.5 36v171q0 93 96 102v2q-14 1 -28.5 5.5t-31 14.5t-26.5 29t-10 45v171q0 52 -46 52h-37v132h144q35 0 73 -36t38 -98v-205q0 -18 17.5 -28.5t33.5 -13t31 -2.5 z" />
<glyph unicode="~" horiz-adv-x="600" d="M453 359h97q0 -50 -10 -93t-40 -77.5t-78 -34.5q-30 0 -74 29l-123 80q-31 19 -50 19q-7 0 -12.5 -5.5t-8 -17t-3.5 -19.5t-2.5 -24.5t-1.5 -20.5h-97q0 37 6 70t19.5 65.5t41 52t65.5 19.5q33 0 67 -23l111 -78q38 -26 59 -26q17 0 25.5 26.5t8.5 57.5z" />
<glyph unicode="&#xa3;" d="M702 501h-196q0 53 -16 71t-65 18q-53 0 -71 -18.5t-18 -71.5v-79h190v-145h-190q0 -52 -8 -74t-39 -37v-5h413v-160h-632v160q43 0 54.5 26t11.5 90h-89v145h89v108q0 85 24 132.5t87 71.5t179 24q114 0 173 -21t81 -66.5t22 -133.5v-35z" />
<glyph unicode="&#xa4;" d="M538 252l81 -81l-72 -68l-81 81q-2 -1 -15.5 -8.5t-19 -9.5t-18.5 -7t-26.5 -6.5t-29.5 -1.5q-59 0 -104 35l-84 -84l-71 70l82 83q-38 46 -38 116q0 66 36 100l-83 81l73 72l82 -82q42 32 113 32q66 0 107 -30l83 82l72 -71l-84 -83q1 -2 12.5 -20.5t17 -36.5t5.5 -41 q0 -15 -2 -29t-5 -24t-8 -22.5t-8 -18t-8.5 -16t-6.5 -12.5zM264 358q0 -38 29 -65t66 -27q47 0 71 31t24 63q0 40 -26.5 69.5t-68.5 29.5t-68.5 -30.5t-26.5 -70.5z" />
<glyph unicode="&#xa5;" d="M9 750h217l127 -289h7l131 289h220l-104 -192h94v-131h-166l-42 -80h208v-131h-245v-216h-200v216h-237v131h201l-41 80h-160v131h91z" />
<glyph unicode="&#xa6;" horiz-adv-x="600" d="M358 250v-300h-115v300h115zM358 700v-300h-115v300h115z" />
<glyph unicode="&#xa7;" d="M270 215l201 -35q52 0 52 77q0 34 -14 46.5t-59 23.5q-154 37 -201 37q-52 0 -52 -70q0 -43 15.5 -57.5t57.5 -21.5zM660 559v-42h-185q-2 56 -20 69q-19 14 -101 14q-68 0 -88 -11t-20 -38q0 -11 1 -18.5t5.5 -13.5t7 -9t12 -6t14 -4t19.5 -4t22 -4l188 -34 q45 -8 68.5 -14t48.5 -18t36 -30t18.5 -47t7.5 -71q0 -25 -0.5 -38.5t-4 -34.5t-9.5 -34t-18 -26.5t-30 -22.5q39 -13 50.5 -46.5t11.5 -91.5q0 -49 -6.5 -80t-26.5 -59.5t-57 -44t-98.5 -24.5t-151.5 -9q-61 0 -101 3t-78 12t-59.5 26t-39 45t-24 68.5t-6.5 97.5h186 q0 -62 23.5 -79t98.5 -17q88 0 114 12.5t26 47.5t-17.5 47t-70.5 21l-238 41q-91 16 -116.5 47t-25.5 123q0 29 1.5 46.5t8 41.5t21.5 39t40 22q-32 22 -41.5 56.5t-9.5 92.5q0 38 5.5 64.5t23.5 53.5t51 42.5t90 25.5t138 10q62 0 99.5 -2.5t81.5 -13t68 -31t40.5 -58 t16.5 -92.5z" />
<glyph unicode="&#xa9;" horiz-adv-x="800" d="M400 -6q-158 0 -269.5 111.5t-111.5 269.5t111.5 269.5t269.5 111.5t269.5 -111.5t111.5 -269.5t-111.5 -269.5t-269.5 -111.5zM400 81q121 0 208 86t87 208t-87 208t-208 86q-123 0 -209 -85.5t-86 -207.5t86 -208.5t209 -86.5zM513 303h89q-8 -71 -60.5 -113 t-125.5 -42q-99 0 -159.5 65.5t-60.5 164.5q0 102 59 166.5t159 64.5q74 0 125 -40.5t63 -110.5h-89q-7 36 -34.5 57.5t-65.5 21.5q-61 0 -96 -46.5t-35 -110.5q0 -61 37 -110.5t97 -49.5q37 0 66 23.5t31 59.5z" />
<glyph unicode="&#xab;" horiz-adv-x="556" d="M174 515l113 -61l-96 -182l96 -169l-107 -66l-134 235zM397 515l113 -61l-96 -182l96 -169l-107 -66l-134 235z" />
<glyph unicode="&#xac;" horiz-adv-x="600" d="M435 42v177h-385v115h500v-292h-115z" />
<glyph unicode="&#xad;" horiz-adv-x="370" d="M50 237v115h270v-115h-270z" />
<glyph unicode="&#xae;" horiz-adv-x="800" d="M400 -6q-158 0 -269.5 111.5t-111.5 269.5t111.5 269.5t269.5 111.5t269.5 -111.5t111.5 -269.5t-111.5 -269.5t-269.5 -111.5zM400 81q121 0 208 85.5t87 207.5t-87 208.5t-208 86.5q-123 0 -209 -85.5t-86 -207.5t86 -208.5t209 -86.5zM236 166v412h206q81 0 120.5 -25 t39.5 -101q0 -56 -28 -82t-84 -30l100 -174h-98l-92 169h-78v-169h-86zM322 512v-111h122q38 0 55 12.5t17 49.5q0 29 -23 39t-67 10h-104z" />
<glyph unicode="&#xb0;" horiz-adv-x="400" d="M351 606q0 -62 -44 -106t-106 -44t-106 44t-44 106q0 61 44 105.5t106 44.5q61 0 105.5 -44t44.5 -106zM281 606q0 34 -23.5 57.5t-57.5 23.5q-33 0 -56 -22.5t-23 -57.5q0 -34 23 -58t57 -24q33 0 56.5 23.5t23.5 57.5z" />
<glyph unicode="&#xb1;" horiz-adv-x="600" d="M242 606h115v-119h193v-115h-193v-122h-115v122h-192v115h192v119zM50 80v115h500v-115h-500z" />
<glyph unicode="&#xb4;" horiz-adv-x="404" d="M279 756l50 -111l-226 -71l-28 62z" />
<glyph unicode="&#xb5;" horiz-adv-x="614" d="M55 525h172v-313q0 -21 2 -34.5t8 -26.5t19 -19.5t34 -6.5q38 0 67.5 20.5t29.5 56.5v323h172v-525h-172l11 101h-8q-32 -107 -163 -107v-221h-172v752z" />
<glyph unicode="&#xb6;" d="M713 -227h-120v832h-77v-832h-120v422h-130q-85 0 -135 12t-80 45.5t-40.5 84t-10.5 136.5q0 149 58.5 213t197.5 64h457v-977zM396 340v265h-100q-40 0 -62.5 -5.5t-33.5 -23.5t-13 -38.5t-2 -64.5q0 -38 1.5 -56.5t7 -36.5t18 -25t32.5 -11t53 -4h99z" />
<glyph unicode="&#xb7;" horiz-adv-x="360" d="M261 363v-164h-162v164h162z" />
<glyph unicode="&#xbb;" horiz-adv-x="556" d="M375 37l-113 61l96 182l-96 169l107 66l134 -235zM152 37l-113 61l96 182l-96 169l107 66l134 -235z" />
<glyph unicode="&#xbe;" horiz-adv-x="1080" d="M1014 450v-274h41v-87h-41v-89h-122v89h-257v128l187 233h192zM892 171v187l-155 -187h155zM848 750l-443 -750h-120l443 750h120zM192 487v89h31q46 0 57 6.5t11 30.5q0 30 -11 39.5t-57 9.5q-21 0 -31 -1t-20 -6t-13.5 -15.5t-3.5 -29.5v-9h-124v16q0 47 12 75.5 t39.5 42t56.5 17.5t78 4q34 0 56.5 -1.5t52 -8t47 -19t30 -36t12.5 -56.5q0 -92 -75 -101v-5q79 -4 79 -97q0 -81 -49.5 -107.5t-152.5 -26.5q-35 0 -59 2t-51 10t-43 22t-27 40.5t-11 63.5v24h122v-15q0 -33 18 -43t57 -10q44 0 59 9t15 46q0 25 -12.5 32.5t-61.5 7.5h-31z " />
<glyph unicode="&#xd7;" horiz-adv-x="600" d="M50 438l88 87l162 -161l162 161l88 -87l-162 -162l162 -162l-88 -88l-162 162l-162 -162l-88 88l162 162z" />
<glyph unicode="&#xf7;" horiz-adv-x="600" d="M50 219v115h500v-115h-500zM357 28h-115v115h115v-115zM357 410h-115v115h115v-115z" />
<glyph unicode="&#x192;" d="M596 489l-22 -126h-102l-69 -390q-6 -33 -10 -54.5t-11.5 -44t-12.5 -35t-18 -25.5t-21.5 -19.5t-30 -13t-38 -8.5t-49.5 -4t-60 -2h-75l22 131q42 -5 51 -5q38 0 51.5 19.5t22.5 66.5l68 384h-76l22 126h75l11 59q10 54 19 87.5t29 58t35.5 36t57 18t74 7.5t104.5 1 l-22 -131q-22 5 -40 5q-38 0 -53.5 -16t-24.5 -72l-9 -53h102z" />
<glyph unicode="&#x2c6;" horiz-adv-x="512" d="M254 756l183 -109l-25 -57l-158 62l-152 -62l-27 57z" />
<glyph unicode="&#x2dc;" horiz-adv-x="585" d="M428 733l82 -41q-50 -99 -123 -99q-35 0 -68 17t-59 34t-43 17q-36 0 -60 -45l-82 44q55 96 130 96q39 0 93 -34.5t78 -34.5q30 0 52 46z" />
<glyph unicode="&#x3bc;" horiz-adv-x="614" d="M55 525h172v-313q0 -21 2 -34.5t8 -26.5t19 -19.5t34 -6.5q38 0 67.5 20.5t29.5 56.5v323h172v-525h-172l11 101h-8q-32 -107 -163 -107v-221h-172v752z" />
<glyph unicode="&#x401;" horiz-adv-x="679" d="M265 586v-137h320v-139h-320v-146h348v-164h-548v750h541v-164h-341zM290 937v-103h-109v103h109zM498 937v-103h-109v103h109z" />
<glyph unicode="&#x402;" horiz-adv-x="874" d="M7 750h670v-156h-235v-134h144q128 0 185.5 -53.5t57.5 -176.5q0 -113 -52.5 -171.5t-190.5 -58.5h-77v156h38q46 0 64 14t18 58q0 42 -15.5 59t-62.5 17h-109v-304h-200v594h-235v156z" />
<glyph unicode="&#x403;" horiz-adv-x="632" d="M65 750h532v-164h-332v-586h-200v750zM551 969l-181 -164h-95l107 164h169z" />
<glyph unicode="&#x404;" horiz-adv-x="739" d="M498 269h206v-48q0 -60 -17 -103.5t-43.5 -67.5t-69 -38t-82 -18t-94.5 -4q-51 0 -84.5 1.5t-74.5 7.5t-66.5 18t-52.5 33t-41.5 51t-24 74.5t-9.5 102.5v194q0 87 22 144t68.5 87.5t106 42t147.5 11.5q159 0 237 -54.5t78 -191.5v-10h-206v19q0 42 -29.5 57.5 t-92.5 15.5q-77 0 -101 -28.5t-24 -114.5h182v-139h-182q0 -38 1.5 -58.5t8 -43t20 -32.5t36.5 -16.5t59 -6.5q70 0 96 16t26 77v22z" />
<glyph unicode="&#x405;" horiz-adv-x="733" d="M667 515h-192q0 53 -23 65.5t-89 12.5q-75 0 -96.5 -14.5t-21.5 -50.5q0 -37 19.5 -49t88.5 -26l192 -38q74 -14 108.5 -57t34.5 -118q0 -66 -7.5 -106t-25.5 -71t-56.5 -45.5t-93 -21t-142.5 -6.5q-70 0 -115 4.5t-87.5 19t-65.5 41.5t-36.5 72.5t-13.5 112.5h192 q0 -56 24.5 -71t101.5 -15q74 0 99.5 13.5t25.5 59.5q0 14 -3 23.5t-11.5 20t-27.5 18t-49 11.5l-191 28q-46 7 -79 24.5t-57.5 62t-24.5 113.5q0 60 15 102.5t39.5 67t67.5 38t87 17.5t109 4q80 0 131.5 -7.5t93 -29.5t60.5 -64.5t19 -109.5v-31z" />
<glyph unicode="&#x406;" horiz-adv-x="330" d="M265 750v-750h-200v750h200z" />
<glyph unicode="&#x407;" horiz-adv-x="331" d="M265 750v-750h-200v750h200zM115 937v-103h-109v103h109zM325 937v-103h-109v103h109z" />
<glyph unicode="&#x408;" horiz-adv-x="602" d="M343 750h200v-519q0 -77 -12 -122.5t-45 -73t-81.5 -36.5t-131.5 -9q-81 0 -127.5 10.5t-75.5 41t-38.5 77.5t-9.5 129v62h190v-62q0 -49 11 -66.5t50 -17.5q44 0 57 14.5t13 52.5v519z" />
<glyph unicode="&#x409;" horiz-adv-x="1214" d="M145 750h607v-290h186q118 0 174.5 -53.5t56.5 -176.5t-57 -176.5t-174 -53.5h-386v576h-217v-315q0 -127 -56 -198t-167 -71q-56 0 -102 9v162q21 -7 61 -7q41 0 57.5 23t16.5 79v492zM752 304v-148h139q44 0 61 15t17 57q0 45 -17 60.5t-61 15.5h-139z" />
<glyph unicode="&#x40a;" horiz-adv-x="1188" d="M265 750v-290h261v290h200v-290h186q118 0 174.5 -53.5t56.5 -176.5t-57 -176.5t-174 -53.5h-386v304h-261v-304h-200v750h200zM726 304v-148h139q44 0 61 15t17 57q0 45 -17 60.5t-61 15.5h-139z" />
<glyph unicode="&#x40b;" horiz-adv-x="874" d="M7 750h670v-156h-235v-134h142q123 0 179 -54t56 -176v-230h-200v228q0 42 -15.5 59t-62.5 17h-99v-304h-200v594h-235v156z" />
<glyph unicode="&#x40c;" horiz-adv-x="782" d="M265 750v-282h60l193 282h242l-264 -368l286 -382h-248l-209 294h-60v-294h-200v750h200zM568 969l-181 -164h-95l107 164h169z" />
<glyph unicode="&#x40e;" horiz-adv-x="740" d="M2 750h227l132 -322h9l129 322h231l-292 -592q-44 -89 -98.5 -128.5t-133.5 -39.5q-44 0 -100 9v162q21 -7 66 -7q46 0 62 10t26 40zM274 958q0 -39 20 -53t71 -14t71 14t20 53h84q0 -94 -42 -123.5t-133 -29.5q-92 0 -133.5 29.5t-41.5 123.5h84z" />
<glyph unicode="&#x40f;" horiz-adv-x="791" d="M265 750v-576h261v576h200v-750h-260v-171h-141v171h-260v750h200z" />
<glyph unicode="&#x410;" horiz-adv-x="767" d="M519 129h-269l-37 -129h-208l225 750h304l228 -750h-204zM478 274l-92 326h-2l-91 -326h185z" />
<glyph unicode="&#x411;" horiz-adv-x="727" d="M612 750v-156h-347v-134h186q118 0 174.5 -53.5t56.5 -176.5t-57 -176.5t-174 -53.5h-386v750h547zM265 304v-148h139q44 0 61 15t17 57q0 45 -17 60.5t-61 15.5h-139z" />
<glyph unicode="&#x412;" horiz-adv-x="753" d="M65 0v750h394q61 0 101 -7t72.5 -27t48 -59t15.5 -99q0 -79 -24 -120.5t-94 -52.5v-8q77 -5 103.5 -46.5t26.5 -121.5q0 -68 -15 -110t-49 -63.5t-74.5 -28.5t-106.5 -7h-398zM265 586v-136h144q53 0 70 13.5t17 58.5q0 36 -12.5 50t-50.5 14h-168zM265 311v-147h151 q51 0 71.5 16t20.5 60q0 45 -18.5 58t-69.5 13h-155z" />
<glyph unicode="&#x413;" horiz-adv-x="632" d="M65 750h532v-164h-332v-586h-200v750z" />
<glyph unicode="&#x414;" horiz-adv-x="817" d="M155 750h577v-578h63v-345h-190v173h-393v-173h-190v345h59q40 55 57 125t17 190v263zM532 578h-187v-103q0 -108 -14.5 -177t-47.5 -126h249v406z" />
<glyph unicode="&#x415;" horiz-adv-x="679" d="M265 586v-137h320v-139h-320v-146h348v-164h-548v750h541v-164h-341z" />
<glyph unicode="&#x416;" horiz-adv-x="1171" d="M494 750h189v-282h60l166 282h228l-226 -363l260 -387h-248l-180 294h-60v-294h-189v294h-60l-180 -294h-248l260 387l-226 363h228l166 -282h60v282z" />
<glyph unicode="&#x417;" horiz-adv-x="733" d="M245 516h-191v31q0 119 75 164.5t232 45.5t236 -43.5t79 -155.5q0 -79 -24 -120.5t-94 -52.5v-8q70 -6 100 -46t30 -112q0 -92 -24.5 -138.5t-94 -68.5t-206.5 -22q-86 0 -140 9t-97 35.5t-62 76.5t-19 129h192q0 -56 24.5 -71t101.5 -15q71 0 98 16.5t27 63.5 q0 41 -20 59t-68 18h-106v139h95q49 0 68 14.5t19 57.5q0 38 -23 54.5t-95 16.5q-63 0 -88 -15.5t-25 -61.5z" />
<glyph unicode="&#x418;" horiz-adv-x="824" d="M255 750v-494h7l234 494h263v-750h-190v494h-7l-225 -494h-272v750h190z" />
<glyph unicode="&#x419;" horiz-adv-x="824" d="M255 750v-494h7l234 494h263v-750h-190v494h-7l-225 -494h-272v750h190zM304 958q0 -39 20 -53t71 -14t71 14t20 53h84q0 -94 -42 -123.5t-133 -29.5q-92 0 -133.5 29.5t-41.5 123.5h84z" />
<glyph unicode="&#x41a;" horiz-adv-x="782" d="M265 750v-282h60l193 282h242l-264 -368l286 -382h-248l-209 294h-60v-294h-200v750h200z" />
<glyph unicode="&#x41b;" horiz-adv-x="817" d="M145 750h607v-750h-200v576h-217v-315q0 -127 -56 -198t-167 -71q-56 0 -102 9v162q21 -7 61 -7q41 0 57.5 23t16.5 79v492z" />
<glyph unicode="&#x41c;" horiz-adv-x="1058" d="M65 750h317l143 -471h7l136 471h325v-750h-200l20 575l-9 2l-188 -577h-173l-189 577l-9 -2l20 -575h-200v750z" />
<glyph unicode="&#x41d;" horiz-adv-x="791" d="M265 750v-282h261v282h200v-750h-200v294h-261v-294h-200v750h200z" />
<glyph unicode="&#x41e;" horiz-adv-x="784" d="M392 -10q-65 0 -114.5 6.5t-95 25t-74.5 49.5t-46 80.5t-17 117.5v212q0 84 24.5 140t74 85t107.5 40t141 11t141 -11t107.5 -40t74 -85t24.5 -140v-212q0 -68 -17 -117.5t-46 -80.5t-74.5 -49.5t-95 -25t-114.5 -6.5zM392 164q83 0 112 23.5t29 103.5v169q0 79 -29 101 t-112 22q-84 0 -112.5 -21.5t-28.5 -101.5v-169q0 -80 29 -103.5t112 -23.5z" />
<glyph unicode="&#x41f;" horiz-adv-x="791" d="M65 750h661v-750h-200v576h-261v-576h-200v750z" />
<glyph unicode="&#x420;" horiz-adv-x="743" d="M265 208v-208h-200v750h377q140 0 198 -59.5t58 -205.5q0 -83 -10.5 -133t-39.5 -84t-77.5 -47t-128.5 -13h-177zM265 586v-214h137q58 0 74 19.5t16 91.5q0 60 -17 81.5t-73 21.5h-137z" />
<glyph unicode="&#x421;" horiz-adv-x="750" d="M705 481h-206v29q0 42 -32.5 57.5t-90.5 15.5q-81 0 -103 -28.5t-22 -114.5v-117q0 -39 1.5 -60t8 -43.5t20 -32.5t36.5 -16.5t59 -6.5q70 0 96.5 16.5t26.5 77.5v22h206v-22q0 -157 -65 -212.5t-242 -55.5q-51 0 -84.5 1.5t-74.5 7.5t-66.5 18t-52.5 33t-41.5 51 t-24 74.5t-9.5 102.5v194q0 73 16.5 124.5t44 83t74 48.5t96.5 23t122 6q157 0 232 -54.5t75 -192.5v-29z" />
<glyph unicode="&#x422;" horiz-adv-x="644" d="M422 576v-576h-200v576h-202v174h604v-174h-202z" />
<glyph unicode="&#x423;" horiz-adv-x="740" d="M2 750h227l132 -322h9l129 322h231l-292 -592q-44 -89 -98.5 -128.5t-133.5 -39.5q-44 0 -100 9v162q21 -7 66 -7q46 0 62 10t26 40z" />
<glyph unicode="&#x424;" horiz-adv-x="1040" d="M620 0h-200v78h-103q-151 0 -211.5 63t-60.5 234q0 169 61.5 234.5t211.5 65.5h102v75h200v-75h101q151 0 212.5 -65t61.5 -235t-61 -233.5t-213 -63.5h-101v-78zM620 511v-269h68q56 0 78.5 28.5t22.5 104.5q0 74 -22.5 105t-78.5 31h-68zM420 242v269h-69 q-56 0 -78 -30.5t-22 -105.5q0 -77 21 -105t77 -28h71z" />
<glyph unicode="&#x425;" horiz-adv-x="775" d="M19 750h234l135 -275l136 275h230l-207 -364l223 -386h-233l-149 289l-148 -289h-235l225 386z" />
<glyph unicode="&#x426;" horiz-adv-x="810" d="M265 750v-576h261v576h200v-576h62v-345h-190v171h-533v750h200z" />
<glyph unicode="&#x427;" horiz-adv-x="763" d="M65 750h200v-185q0 -67 23 -89t93 -22q68 0 116 14v282h200v-750h-200v300q-65 -20 -163 -20q-150 0 -209.5 59t-59.5 197v214z" />
<glyph unicode="&#x428;" horiz-adv-x="1118" d="M265 750v-576h194v576h200v-576h194v576h200v-750h-988v750h200z" />
<glyph unicode="&#x429;" horiz-adv-x="1137" d="M265 750v-576h194v576h200v-576h194v576h200v-576h62v-345h-190v171h-860v750h200z" />
<glyph unicode="&#x42a;" horiz-adv-x="823" d="M370 750v-290h186q118 0 174.5 -53.5t56.5 -176.5t-57 -176.5t-174 -53.5h-386v586h-170v164h370zM370 304v-148h139q44 0 61 15t17 57q0 45 -17 60.5t-61 15.5h-139z" />
<glyph unicode="&#x42b;" horiz-adv-x="1060" d="M265 750v-290h186q118 0 174.5 -53.5t56.5 -176.5t-57 -176.5t-174 -53.5h-386v750h200zM265 304v-148h139q44 0 61 15t17 57q0 45 -17 60.5t-61 15.5h-139zM995 750v-750h-200v750h200z" />
<glyph unicode="&#x42c;" horiz-adv-x="727" d="M265 750v-290h186q118 0 174.5 -53.5t56.5 -176.5t-57 -176.5t-174 -53.5h-386v750h200zM265 304v-148h139q44 0 61 15t17 57q0 45 -17 60.5t-61 15.5h-139z" />
<glyph unicode="&#x42d;" horiz-adv-x="740" d="M241 501h-206q0 117 86 186.5t235 69.5q89 0 147 -11t104 -41t67 -87.5t21 -145.5v-194q0 -45 -5.5 -82t-14 -65t-24 -49.5t-31.5 -36.5t-41 -25t-46.5 -16t-54.5 -9t-59.5 -4t-65.5 -1q-65 0 -110.5 5t-87.5 20.5t-66.5 42.5t-39 72t-14.5 108v32h206v-22 q0 -61 26.5 -77.5t96.5 -16.5q79 0 102 34.5t23 122.5h-190v139h190q0 85 -22.5 114t-102.5 29q-63 0 -93 -18.5t-30 -73.5z" />
<glyph unicode="&#x42e;" horiz-adv-x="1122" d="M265 468h118v13q0 84 24.5 140t74 85t107.5 40t141 11t141 -11t107.5 -40t74 -85t24.5 -140v-212q0 -84 -25 -140.5t-74 -86t-108 -41t-141 -11.5t-140.5 11.5t-107.5 41t-73.5 86t-24.5 140.5v25h-118v-294h-200v750h200v-282zM730 164q83 0 112 23.5t29 103.5v169 q0 79 -29 101t-112 22q-82 0 -111.5 -23t-29.5 -100v-169q0 -79 29.5 -103t111.5 -24z" />
<glyph unicode="&#x42f;" horiz-adv-x="736" d="M471 0v264h-94l-132 -264h-229l163 288q-73 31 -103.5 82.5t-30.5 142.5q0 123 55.5 180t186.5 57h384v-750h-200zM471 428v158h-150q-44 0 -60 -16.5t-16 -63.5q0 -78 91 -78h135z" />
<glyph unicode="&#x430;" horiz-adv-x="609" d="M388 78h-6q-16 -86 -151 -86q-97 0 -143.5 35t-46.5 130q0 91 46.5 128t143.5 37q28 0 45.5 -1.5t40 -6.5t37 -18t20.5 -33h8v83q0 23 -1.5 35t-8.5 25.5t-23.5 19t-43.5 5.5q-36 0 -53.5 -11t-17.5 -44h-172q0 37 8 65t26.5 45t37.5 27.5t51 15t55.5 5.5t63.5 1 q72 0 114.5 -7t75.5 -28.5t46.5 -63t13.5 -108.5v-328h-172zM382 169q0 30 -22 38t-72 8q-37 0 -56 -10t-19 -43q0 -59 75 -59q55 0 74.5 13t19.5 53z" />
<glyph unicode="&#x431;" horiz-adv-x="609" d="M199 418q10 41 46.5 67.5t85.5 26.5q90 0 138 -20.5t71.5 -74.5t23.5 -155q0 -160 -51.5 -215t-205.5 -55q-82 0 -132.5 14.5t-79.5 50.5t-39.5 88.5t-10.5 138.5v96q0 168 59 245t197 77q64 0 87.5 8.5t23.5 30.5h124q0 -87 -51.5 -123t-160.5 -36q-71 0 -101 -30.5 t-30 -120.5v-13h6zM310 380q-56 0 -74.5 -24t-18.5 -94q0 -88 15 -113t75 -25q58 0 71.5 24.5t13.5 113.5q0 74 -14.5 96t-67.5 22z" />
<glyph unicode="&#x432;" horiz-adv-x="585" d="M217 218v-107h92q35 0 49.5 11t14.5 42q0 32 -14 43t-50 11h-92zM55 0v525h284q91 0 136 -30t45 -107q0 -47 -21 -72t-64 -36v-4q49 -8 77 -39.5t28 -84.5q0 -88 -43 -120t-147 -32h-295zM217 414v-91h86q32 0 43.5 8.5t11.5 36.5q0 25 -12 35.5t-41 10.5h-88z" />
<glyph unicode="&#x433;" horiz-adv-x="457" d="M55 525h382v-126h-210v-399h-172v525z" />
<glyph unicode="&#x434;" horiz-adv-x="665" d="M134 525h456v-405h49v-256h-154v136h-311v-136h-154v256h51q63 85 63 234v171zM418 120v285h-122v-56q0 -89 -11.5 -135t-41.5 -94h175z" />
<glyph unicode="&#x435;" horiz-adv-x="598" d="M217 328h169q0 55 -19.5 71t-67.5 16q-47 0 -64.5 -18t-17.5 -69zM558 233h-341q0 -71 16.5 -96t68.5 -25q24 0 36 1t25 6t18 17t5 32h172q0 -47 -13.5 -80.5t-34 -52t-56.5 -28.5t-69 -12.5t-83 -2.5q-78 0 -127.5 14t-78.5 48t-40 82.5t-11 125.5q0 80 10.5 128.5 t39 83t78 48t129.5 13.5q149 0 202.5 -56.5t53.5 -216.5v-29z" />
<glyph unicode="&#x436;" horiz-adv-x="836" d="M35 525h173l98 -197h30v197h160v-197h30l98 197h173l-141 -252l173 -273h-185l-118 213h-30v-213h-160v213h-30l-118 -213h-185l173 273z" />
<glyph unicode="&#x437;" horiz-adv-x="581" d="M204 368h-162v26q0 42 18 70.5t52.5 43.5t75 21t93.5 6q129 0 184.5 -32.5t55.5 -117.5q0 -86 -85 -105v-4q105 -14 105 -124q0 -95 -57.5 -127.5t-193.5 -32.5q-143 0 -199 32.5t-56 138.5h172q0 -37 16 -48.5t66 -11.5q51 0 68 12t17 45q0 35 -17 46.5t-73 11.5h-56 v105h59q42 0 57 10t15 39t-17 40.5t-61 11.5t-60.5 -12t-16.5 -44z" />
<glyph unicode="&#x438;" horiz-adv-x="607" d="M55 525h154v-322h8l140 322h195v-525h-154v324h-5l-141 -324h-197v525z" />
<glyph unicode="&#x439;" horiz-adv-x="607" d="M55 525h154v-322h8l135 322h200v-525h-154v324h-5l-141 -324h-197v525zM360 712h74q0 -77 -34.5 -105t-113.5 -28q-72 0 -107 29t-35 104h74q0 -37 15.5 -48t54.5 -11t55.5 11.5t16.5 47.5z" />
<glyph unicode="&#x43a;" horiz-adv-x="592" d="M227 525v-197h30l104 197h189l-148 -252l182 -273h-201l-126 213h-30v-213h-172v525h172z" />
<glyph unicode="&#x43b;" horiz-adv-x="641" d="M128 525h458v-525h-172v399h-124v-169q0 -130 -51.5 -184t-144.5 -54q-39 0 -74 4v124q16 -2 35 -2q43 0 58 29.5t15 85.5v292z" />
<glyph unicode="&#x43c;" horiz-adv-x="782" d="M323 0l-108 390h-5v-390h-154v525h251l80 -322h8l80 322h251v-525h-154v390h-5l-108 -390h-136z" />
<glyph unicode="&#x43d;" horiz-adv-x="615" d="M227 525v-177h161v177h172v-525h-172v222h-161v-222h-172v525h172z" />
<glyph unicode="&#x43e;" horiz-adv-x="615" d="M307 535q85 0 134 -11t79.5 -43t40 -82t9.5 -137q0 -85 -10 -134t-40 -81.5t-79.5 -43.5t-133.5 -11q-82 0 -131.5 12t-79.5 45t-40.5 82t-10.5 131q0 85 10 134t39.5 82.5t79 45t133.5 11.5zM398 262q0 81 -17.5 111t-74.5 30q-55 0 -72 -30t-17 -110q0 -90 15.5 -114.5 t73.5 -24.5q59 0 75.5 24.5t16.5 113.5z" />
<glyph unicode="&#x43f;" horiz-adv-x="615" d="M55 525h505v-525h-172v399h-161v-399h-172v525z" />
<glyph unicode="&#x440;" horiz-adv-x="625" d="M408 262q0 81 -17.5 111t-74.5 30q-55 0 -72 -30t-17 -110q0 -90 15.5 -114.5t73.5 -24.5q59 0 75.5 24.5t16.5 113.5zM227 79v-306h-172v752h172l-4 -83h8q26 93 150 93q199 0 199 -197v-120q0 -121 -46 -173.5t-153 -52.5q-54 0 -90.5 18.5t-55.5 68.5h-8z" />
<glyph unicode="&#x441;" horiz-adv-x="590" d="M550 332h-172q0 44 -16 57.5t-66 13.5q-47 0 -63 -26.5t-16 -114.5q0 -90 14.5 -114t64.5 -24q56 0 69 16t13 68h172q0 -70 -14 -112.5t-47.5 -65.5t-77 -30.5t-115.5 -7.5q-150 0 -200.5 56t-50.5 214q0 72 9 118.5t35.5 84t77 54t129.5 16.5q51 0 85 -3.5t69 -15.5 t55 -34t32.5 -59.5t12.5 -90.5z" />
<glyph unicode="&#x442;" horiz-adv-x="458" d="M5 525h448v-126h-138v-399h-172v399h-138v126z" />
<glyph unicode="&#x443;" horiz-adv-x="553" d="M3 525h180l104 -427h2l85 427h176l-132 -571q-23 -102 -71.5 -144.5t-154.5 -42.5q-9 0 -18.5 0.5t-21.5 1.5t-19 1v121q3 0 13.5 -2t16.5 -2q50 0 68.5 29.5t21.5 83.5h-94z" />
<glyph unicode="&#x444;" horiz-adv-x="900" d="M531 262q0 -75 13 -106.5t60 -31.5t63 26t16 112t-14.5 113.5t-64.5 27.5q-46 0 -59.5 -28t-13.5 -113zM531 -227h-162v306h-8q-15 -40 -49.5 -63.5t-78.5 -23.5q-101 0 -144.5 53t-43.5 174v120q0 100 46.5 148t141.5 48q99 0 132 -93h4v308h162v-308l4 -1q33 94 133 94 q95 0 141 -47t46 -148v-120q0 -122 -43.5 -175t-144.5 -53q-44 0 -78 23.5t-49 63.5h-9v-306zM369 262q0 85 -14 113t-60 28q-50 0 -64 -27.5t-14 -113.5t16 -112t63 -26t60 31.5t13 106.5z" />
<glyph unicode="&#x445;" horiz-adv-x="563" d="M24 525h199l60 -145l63 145h200l-138 -247l152 -278h-202l-75 173l-73 -173h-207l156 278z" />
<glyph unicode="&#x446;" horiz-adv-x="628" d="M227 525v-399h161v399h172v-399h48v-262h-154v136h-399v525h172z" />
<glyph unicode="&#x447;" horiz-adv-x="597" d="M45 525h172v-131q0 -41 16 -56t60 -15t60.5 15.5t16.5 55.5v131h172v-525h-172v270h-6q-13 -44 -42.5 -61.5t-98.5 -17.5q-93 0 -135.5 40.5t-42.5 131.5v162z" />
<glyph unicode="&#x448;" horiz-adv-x="872" d="M217 525v-399h138v399h162v-399h138v399h162v-525h-762v525h162z" />
<glyph unicode="&#x449;" horiz-adv-x="885" d="M217 525v-399h138v399h162v-399h138v399h162v-399h48v-262h-154v136h-656v525h162z" />
<glyph unicode="&#x44a;" horiz-adv-x="664" d="M306 227v-107h88q34 0 48.5 12.5t14.5 40.5q0 30 -14 42t-49 12h-88zM0 525h306v-178h128q97 0 143.5 -41t46.5 -133q0 -94 -45 -133.5t-145 -39.5h-300v399h-134v126z" />
<glyph unicode="&#x44b;" horiz-adv-x="848" d="M227 227v-107h88q34 0 48.5 12.5t14.5 40.5q0 30 -14 42t-49 12h-88zM227 525v-178h128q97 0 143.5 -41t46.5 -133q0 -94 -45 -133.5t-145 -39.5h-300v525h172zM793 525v-525h-172v525h172z" />
<glyph unicode="&#x44c;" horiz-adv-x="585" d="M227 227v-107h88q34 0 48.5 12.5t14.5 40.5q0 30 -14 42t-49 12h-88zM227 525v-178h128q97 0 143.5 -41t46.5 -133q0 -94 -45 -133.5t-145 -39.5h-300v525h172z" />
<glyph unicode="&#x44d;" horiz-adv-x="588" d="M207 341h-172q0 61 17.5 101t54.5 59.5t78.5 26.5t104.5 7q79 0 130 -16.5t77.5 -53.5t36 -83.5t9.5 -118.5q0 -157 -51.5 -214t-201.5 -57q-68 0 -111 7t-78 28t-50.5 62t-15.5 106h172q0 -49 14.5 -66t68.5 -17q45 0 63 21.5t18 84.5h-113v105h113q0 54 -18.5 73 t-62.5 19q-48 0 -65.5 -14.5t-17.5 -59.5z" />
<glyph unicode="&#x44e;" horiz-adv-x="880" d="M227 334h83q7 117 62.5 159t199.5 42q85 0 134 -11t79.5 -43t40 -82t9.5 -137q0 -85 -10 -134t-40 -81.5t-79.5 -43.5t-133.5 -11q-146 0 -200.5 45.5t-61.5 170.5h-83v-208h-172v525h172v-191zM663 262q0 81 -17.5 111t-74.5 30q-55 0 -72 -30t-17 -110 q0 -90 15.5 -114.5t73.5 -24.5q59 0 75.5 24.5t16.5 113.5z" />
<glyph unicode="&#x44f;" horiz-adv-x="590" d="M363 298v107h-88q-34 0 -48.5 -12.5t-14.5 -40.5q0 -30 14 -42t49 -12h88zM363 0v178h-68l-82 -178h-187l103 194q-84 37 -84 157q0 92 45.5 133t144.5 41h300v-525h-172z" />
<glyph unicode="&#x451;" horiz-adv-x="583" d="M207 328h169q0 55 -19.5 71t-67.5 16q-47 0 -64.5 -18t-17.5 -69zM548 233h-341q0 -71 16.5 -96t68.5 -25q24 0 36 1t25 6t18 17t5 32h172q0 -47 -13.5 -80.5t-34 -52t-56.5 -28.5t-69 -12.5t-83 -2.5q-78 0 -127.5 14t-78.5 48t-40 82.5t-11 125.5q0 80 10.5 128.5 t39 83t78 48t129.5 13.5q149 0 202.5 -56.5t53.5 -216.5v-29zM239 712v-103h-109v103h109zM449 712v-103h-109v103h109z" />
<glyph unicode="&#x452;" horiz-adv-x="615" d="M55 757h172v-70h161v-80h-161v-180h5q18 60 57 84t103 24q88 0 128 -48t40 -161v-204q0 -98 -11.5 -155t-43.5 -88t-74.5 -40t-118.5 -9v123q32 0 46.5 12.5t22 54t7.5 129.5v154q0 59 -14.5 79.5t-56.5 20.5q-53 0 -71.5 -29.5t-18.5 -84.5v-289h-172v607h-60v80h60v70z " />
<glyph unicode="&#x453;" horiz-adv-x="457" d="M55 525h382v-126h-210v-399h-172v525zM419 748l-147 -130h-79l89 130h137z" />
<glyph unicode="&#x454;" horiz-adv-x="566" d="M541 341h-171q0 45 -17.5 59.5t-65.5 14.5q-44 0 -62 -19t-18 -73h112v-105h-112q0 -64 17.5 -85t62.5 -21q55 0 69 14t14 62h171q0 -52 -11 -88t-29.5 -57t-52.5 -32.5t-69.5 -15t-91.5 -3.5q-150 0 -201 56.5t-51 214.5q0 72 9.5 118.5t36 83.5t77 53.5t129.5 16.5 q63 0 104.5 -7t78 -26.5t54 -59t17.5 -101.5z" />
<glyph unicode="&#x455;" horiz-adv-x="584" d="M524 380h-162q-3 27 -18 35.5t-52 8.5q-58 0 -74 -10t-16 -36q0 -12 2.5 -19t10.5 -15t27 -11.5t50 -3.5q141 0 199 -31.5t58 -126.5q0 -57 -14.5 -93t-48 -54.5t-76.5 -25t-112 -6.5q-60 0 -96.5 3t-72 12.5t-54 27.5t-29.5 48.5t-11 76.5h172q0 -35 19 -46t66 -11 q54 0 72 9t18 39q0 31 -18.5 41.5t-71.5 10.5q-142 0 -199.5 38t-57.5 121q0 56 17 91.5t54 53t78.5 23t107.5 5.5q40 0 69 -2t62 -9.5t53.5 -21t34 -38.5t13.5 -59v-25z" />
<glyph unicode="&#x456;" horiz-adv-x="282" d="M227 525v-525h-172v525h172zM227 750v-132h-172v132h172z" />
<glyph unicode="&#x457;" horiz-adv-x="282" d="M227 525v-525h-172v525h172zM90 712v-103h-109v103h109zM300 712v-103h-109v103h109z" />
<glyph unicode="&#x458;" horiz-adv-x="282" d="M55 525h172v-596q0 -85 -41 -120.5t-129 -35.5q-31 0 -51 6v117q29 0 39 13.5t10 37.5v578zM227 750v-132h-172v132h172z" />
<glyph unicode="&#x459;" horiz-adv-x="949" d="M128 525h458v-178h128q97 0 143.5 -41t46.5 -133q0 -94 -45 -133.5t-145 -39.5h-300v399h-124v-169q0 -130 -51.5 -184t-144.5 -54q-39 0 -74 4v124q16 -2 35 -2q43 0 58 29.5t15 85.5v292zM586 227v-107h88q34 0 48.5 12.5t14.5 40.5q0 30 -14 42t-49 12h-88z" />
<glyph unicode="&#x45a;" horiz-adv-x="923" d="M227 525v-177h161v177h172v-178h128q97 0 143.5 -41t46.5 -133q0 -94 -45 -133.5t-145 -39.5h-300v227h-161v-227h-172v525h172zM560 227v-107h88q34 0 48.5 12.5t14.5 40.5q0 30 -14 42t-49 12h-88z" />
<glyph unicode="&#x45b;" horiz-adv-x="615" d="M227 757v-70h161v-80h-161v-180h5q18 60 57 84t103 24q168 0 168 -172v-363h-172v323q0 41 -15.5 60.5t-55.5 19.5q-53 0 -71.5 -29.5t-18.5 -84.5v-289h-172v607h-60v80h60v70h172z" />
<glyph unicode="&#x45c;" horiz-adv-x="592" d="M227 525v-197h30l104 197h189l-148 -252l182 -273h-201l-126 213h-30v-213h-172v525h172zM465 748l-147 -130h-79l89 130h137z" />
<glyph unicode="&#x45e;" horiz-adv-x="553" d="M3 525h180l104 -427h2l85 427h176l-132 -571q-23 -102 -71.5 -144.5t-154.5 -42.5q-9 0 -18.5 0.5t-21.5 1.5t-19 1v121q3 0 13.5 -2t16.5 -2q50 0 68.5 29.5t21.5 83.5h-94zM361 712h74q0 -77 -34.5 -105t-113.5 -28q-72 0 -107 29t-35 104h74q0 -37 15.5 -48t54.5 -11 t55.5 11.5t16.5 47.5z" />
<glyph unicode="&#x45f;" horiz-adv-x="615" d="M227 126h161v399h172v-525h-202v-136h-101v136h-202v525h172v-399z" />
<glyph unicode="&#x490;" horiz-adv-x="632" d="M65 750h382v145h150v-309h-332v-586h-200v750z" />
<glyph unicode="&#x491;" horiz-adv-x="457" d="M55 525h282v90h100v-216h-210v-399h-172v525z" />
<glyph unicode="&#x2013;" horiz-adv-x="600" d="M50 237v115h500v-115h-500z" />
<glyph unicode="&#x2014;" horiz-adv-x="1000" d="M0 352h1000v-115h-1000v115z" />
<glyph unicode="&#x2018;" horiz-adv-x="264" d="M208 450h-162v164q0 79 36 110.5t136 31.5v-74q-42 0 -57 -15t-15 -53h62v-164z" />
<glyph unicode="&#x2019;" horiz-adv-x="264" d="M56 750h162v-164q0 -79 -36 -110.5t-136 -31.5v74q42 0 57 15t15 53h-62v164z" />
<glyph unicode="&#x201a;" horiz-adv-x="360" d="M95 164h162v-164q0 -79 -36 -110.5t-136 -31.5v74q43 0 57.5 15t14.5 53h-62v164z" />
<glyph unicode="&#x201c;" horiz-adv-x="489" d="M433 450h-162v164q0 79 36 110.5t136 31.5v-74q-43 0 -57.5 -15t-14.5 -53h62v-164zM208 450h-162v164q0 79 36 110.5t136 31.5v-74q-42 0 -57 -15t-15 -53h62v-164z" />
<glyph unicode="&#x201d;" horiz-adv-x="489" d="M56 750h162v-164q0 -79 -36 -110.5t-136 -31.5v74q42 0 57 15t15 53h-62v164zM281 750h162v-164q0 -79 -36 -110.5t-136 -31.5v74q43 0 57.5 15t14.5 53h-62v164z" />
<glyph unicode="&#x201e;" horiz-adv-x="489" d="M54 164h162v-164q0 -79 -36 -110.5t-136 -31.5v74q42 0 57 15t15 53h-62v164zM279 164h162v-164q0 -79 -36 -110.5t-136 -31.5v74q43 0 57.5 15t14.5 53h-62v164z" />
<glyph unicode="&#x2020;" d="M446 750v-219h182v-132h-182v-626h-172v626h-182v132h182v219h172z" />
<glyph unicode="&#x2022;" horiz-adv-x="600" d="M490 375q0 -77 -55 -132t-133 -55t-132.5 54.5t-54.5 132.5q0 77 54.5 132.5t132.5 55.5t133 -55t55 -133z" />
<glyph unicode="&#x2026;" horiz-adv-x="1000" d="M247 164v-164h-162v164h162zM581 164v-164h-162v164h162zM915 164v-164h-162v164h162z" />
<glyph unicode="&#x2030;" horiz-adv-x="1290" d="M1101 375q94 0 130 -25t36 -110v-110q0 -85 -35.5 -110.5t-129.5 -25.5q-93 0 -126.5 25t-33.5 110v110q0 86 33 111t126 25zM1101 288q-39 0 -49 -9t-10 -51v-83q0 -45 10 -54.5t49 -9.5q41 0 53.5 10t12.5 54v83q0 42 -11.5 51t-54.5 9zM742 750l-443 -750h-120 l443 750h120zM718 375q94 0 130 -25t36 -110v-110q0 -85 -35.5 -110.5t-129.5 -25.5q-93 0 -126.5 25t-33.5 110v110q0 86 33 111t126 25zM718 288q-39 0 -49 -9t-10 -51v-83q0 -45 10 -54.5t49 -9.5q41 0 53.5 10t12.5 54v83q0 42 -11.5 51t-54.5 9zM182 756q94 0 130 -25 t36 -110v-110q0 -85 -35.5 -110.5t-129.5 -25.5q-93 0 -126.5 25t-33.5 110v110q0 86 33 111t126 25zM182 669q-39 0 -49 -9t-10 -51v-83q0 -45 10 -54.5t49 -9.5q41 0 53.5 10t12.5 54v83q0 42 -11.5 51t-54.5 9z" />
<glyph unicode="&#x2039;" horiz-adv-x="331" d="M172 515l113 -61l-96 -182l96 -169l-107 -66l-134 235z" />
<glyph unicode="&#x203a;" horiz-adv-x="330" d="M152 37l-113 61l96 182l-96 169l107 66l134 -235z" />
<glyph unicode="&#x2116;" horiz-adv-x="1199" d="M802 127h314v-77h-314v77zM959 505q53 0 83.5 -7t47 -28t21.5 -49t5 -79t-5 -79t-21.5 -49t-47 -28.5t-83.5 -7.5t-83.5 7.5t-47 28.5t-21.5 49t-5 79t5 79t21.5 49t47 28t83.5 7zM960 428h-1q-32 0 -42.5 -15.5t-10.5 -70.5t10.5 -71t42.5 -16t42.5 16t10.5 71t-10 70.5 t-42 15.5zM63 750h310l178 -575h6l-19 575h200v-750h-311l-178 575h-6l20 -575h-200v750z" />
<glyph unicode="&#x2122;" horiz-adv-x="897" d="M405 750h147l91 -239l91 239h147v-404h-93v321h-3l-116 -321h-52l-116 321h-3v-321h-93v404zM13 750h348v-83h-123v-321h-102v321h-123v83z" />
<glyph unicode="&#x2219;" horiz-adv-x="360" d="M261 363v-164h-162v164h162z" />
<glyph unicode="&#xe000;" horiz-adv-x="525" d="M0 525h525v-525h-525v525z" />
<glyph horiz-adv-x="272" d="M0 358h272v-164h-272v164z" />
</font>
</defs>
</svg>
