<?xml version="1.0" standalone="no"?>
<!DOCTYPE svg PUBLIC "-//W3C//DTD SVG 1.1//EN" "http://www.w3.org/Graphics/SVG/1.1/DTD/svg11.dtd" >
<svg xmlns="http://www.w3.org/2000/svg">
<metadata></metadata>
<defs>
<font id="EuropeDemiRegular" horiz-adv-x="705" >
<font-face units-per-em="1000" ascent="800" descent="-200" />
<missing-glyph horiz-adv-x="267" />
<glyph unicode=" "  horiz-adv-x="267" />
<glyph unicode="&#x09;" horiz-adv-x="267" />
<glyph unicode="&#xa0;" horiz-adv-x="267" />
<glyph unicode="!" horiz-adv-x="309" d="M212 134v-134h-125v134h125zM223 747l-11 -499h-125l-10 499h146z" />
<glyph unicode="&#x22;" horiz-adv-x="438" d="M164 450h-99l-23 299h147zM372 450h-99l-24 299h147z" />
<glyph unicode="#" horiz-adv-x="761" d="M360 506h146l58 144h62l-58 -144h133l-21 -57h-136l-58 -141h138l-24 -56h-136l-59 -147h-60l58 147h-145l-60 -147h-62l60 147h-136l22 56h138l57 141h-138l23 57h138l59 144h60zM338 449l-58 -141h146l57 141h-145z" />
<glyph unicode="$" d="M393 643v-201q51 0 90 -4.5t77 -18t62 -36t39 -61t15 -90.5q0 -132 -59.5 -184.5t-198.5 -52.5h-25v-79h-82v79q-65 0 -113 9.5t-88.5 33t-61 68.5t-20.5 110v27h130q0 -49 7 -76.5t28.5 -40.5t45 -16t72.5 -3v223q-49 0 -84.5 4t-73.5 17t-61.5 35.5t-39 63t-15.5 96.5 q0 66 19.5 109t59 64.5t85 29.5t110.5 8v71h82v-71q59 -2 94.5 -7t71.5 -18t55 -36.5t30.5 -63t11.5 -96.5h-127v14q0 55 -24 74t-80 19h-32zM311 442v201h-20q-26 0 -41.5 -1t-33 -6.5t-27 -15.5t-16 -28t-6.5 -44q0 -61 35.5 -83.5t108.5 -22.5zM393 330v-223h25 q65 0 96 23.5t31 86.5q0 67 -40 90t-112 23z" />
<glyph unicode="%" horiz-adv-x="905" d="M195 753q48 0 75 -4.5t48.5 -20t30 -46t8.5 -80.5v-76q0 -95 -34.5 -123t-127.5 -28q-89 0 -124.5 30.5t-35.5 125.5v71q0 94 35 122.5t125 28.5zM195 690q-55 0 -69.5 -12.5t-14.5 -57.5v-112q0 -45 14.5 -57.5t69.5 -12.5q52 0 69 13t17 57v111q0 45 -14.5 58t-71.5 13 zM737 753l-475 -753h-77l474 753h78zM726 378q48 0 75 -4.5t48.5 -20t30 -46t8.5 -80.5v-76q0 -95 -34.5 -123t-127.5 -28q-89 0 -124.5 30.5t-35.5 125.5v71q0 94 35 122.5t125 28.5zM726 315q-55 0 -69.5 -12.5t-14.5 -57.5v-112q0 -45 14.5 -57.5t69.5 -12.5q52 0 69 13 t17 57v111q0 45 -14.5 58t-71.5 13z" />
<glyph unicode="&#x26;" horiz-adv-x="793" d="M558 364h121q4 -30 4 -45q0 -85 -18 -145l107 -92l-67 -82l-91 76q-32 -52 -87 -68.5t-133 -16.5h-22q-48 0 -79.5 1.5t-67.5 7t-59 16t-45.5 28.5t-34.5 44t-19.5 63.5t-7.5 86.5q0 89 29.5 132.5t113.5 56.5q-40 33 -51 59t-11 80q0 58 16.5 95t51 54.5t71.5 23t95 5.5 q63 0 101.5 -6t73 -25t50 -58.5t15.5 -102.5v-39h-126q0 29 -0.5 43.5t-4 31.5t-9.5 23.5t-18.5 13.5t-30.5 8.5t-45 1.5q-21 0 -32.5 -0.5t-28 -4t-25 -11t-15 -21t-6.5 -33.5q0 -38 11 -57t46 -49l228 -195v100zM276 360q-52 -11 -67.5 -33.5t-15.5 -79.5q0 -51 7 -79.5 t28.5 -43t46 -17.5t74.5 -3h41q46 0 75.5 10t56.5 42z" />
<glyph unicode="'" horiz-adv-x="233" d="M166 450h-101l-26 299h153z" />
<glyph unicode="(" horiz-adv-x="347" d="M295 761v-119q-57 0 -77.5 -25t-20.5 -93v-397q0 -74 18 -100.5t60 -26.5h20v-119q-66 0 -109.5 13t-69 34t-38.5 63.5t-16.5 84.5t-3.5 114v267q0 68 3.5 109t16.5 83t38.5 63.5t69.5 35t109 13.5z" />
<glyph unicode=")" horiz-adv-x="347" d="M58 -119v119h20q42 0 60.5 29t18.5 104v387q0 69 -21 95.5t-78 26.5v119q47 0 82.5 -6.5t61 -18t42.5 -32.5t27.5 -42.5t16 -56.5t7 -67.5t1.5 -80.5v-267q0 -51 -1.5 -84t-7 -68.5t-15.5 -57.5t-27.5 -43t-43 -32t-61 -17.5t-82.5 -6.5z" />
<glyph unicode="*" d="M550 579l-135 -46l81 -116l-59 -45l-83 121l-89 -121l-60 45l84 116l-135 50l25 72l136 -50v146h75v-146l136 50z" />
<glyph unicode="+" horiz-adv-x="562" d="M246 610h69v-220h220v-69h-220v-220h-69v220h-220v69h220v220z" />
<glyph unicode="," horiz-adv-x="251" d="M186 134v-131q0 -74 -23.5 -102t-98.5 -28q-9 0 -13 2v59q32 0 45.5 10t13.5 40v16h-49v134h125z" />
<glyph unicode="-" horiz-adv-x="378" d="M50 338h278v-89h-278v89z" />
<glyph unicode="." horiz-adv-x="237" d="M181 134v-134h-125v134h125z" />
<glyph unicode="/" horiz-adv-x="681" d="M608 749l-508 -862h-94l508 862h94z" />
<glyph unicode="0" d="M670 374q0 -84 -4 -138.5t-17 -100.5t-33.5 -71t-58 -42.5t-85.5 -23.5t-120 -6t-119.5 6t-84 23.5t-56.5 42.5t-32.5 71.5t-16 100t-3.5 138.5t4 139t16.5 100.5t32.5 71.5t57 42.5t84.5 23.5t119.5 6t120 -6t85 -23.5t57.5 -42.5t33 -71.5t16.5 -100.5t4 -139zM180 374 q0 -52 0.5 -81t3.5 -61t6.5 -47t13.5 -31.5t20.5 -21.5t31 -10.5t41.5 -6.5t55 -1q46 0 71 2t48 12.5t32.5 24t16.5 47t8.5 70.5t1.5 104q0 52 -0.5 82t-4 61.5t-7 47t-14 31.5t-21 21.5t-31.5 10.5t-42 6t-56 1q-34 0 -55.5 -1t-41.5 -6.5t-31 -11.5t-21 -22t-14 -31.5 t-7 -47t-3.5 -61t-0.5 -80.5z" />
<glyph unicode="1" d="M494 749v-749h-138v629l-194 -194l-83 88l243 226h172z" />
<glyph unicode="2" horiz-adv-x="704" d="M622 113v-113h-566v154q0 34 3.5 61t13 48t19.5 36t29 26.5t34 19t42.5 13.5t48 9.5t55.5 8.5q101 14 142 41t41 101q0 76 -31 101t-113 25q-91 0 -120.5 -26t-29.5 -111v-25h-134v33q0 145 59.5 193.5t224.5 48.5q73 0 121 -9t86.5 -34t56.5 -73t18 -123q0 -43 -8 -77 t-20.5 -58.5t-36 -43.5t-46 -31t-60 -22t-68 -16t-79.5 -13q-74 -11 -94 -34t-20 -90v-20h432z" />
<glyph unicode="3" horiz-adv-x="703" d="M289 329v108h80q77 0 98 17.5t21 91.5q0 59 -29.5 78.5t-115.5 19.5q-94 0 -119 -25t-25 -112h-134q0 138 61 194t209 56q160 0 224.5 -44t64.5 -153q0 -38 -4 -64t-16 -51t-37 -40t-63 -20v-5q75 -10 104 -47t29 -116q0 -58 -12 -97.5t-43.5 -70t-89.5 -44.5t-146 -14 q-162 0 -227.5 50.5t-65.5 169.5v41h133q0 -50 4 -75t21.5 -44t47.5 -24t87 -5q91 0 121.5 26.5t30.5 94.5q0 66 -25.5 85t-95.5 19h-88z" />
<glyph unicode="4" horiz-adv-x="703" d="M573 749v-481h87v-107h-87v-161h-138v161h-406v155l333 433h211zM142 268h293v377z" />
<glyph unicode="5" d="M608 749v-107h-399v-187q28 37 72 48.5t105 11.5q133 0 193.5 -57.5t60.5 -185.5q0 -80 -10 -128.5t-40.5 -85.5t-87.5 -52t-149 -15q-159 0 -223 47.5t-64 178.5h139q0 -68 31 -90t102 -22q102 0 132 29t30 119q0 88 -26 119t-101 31q-83 0 -119 -8.5t-44 -44.5h-126 v399h524z" />
<glyph unicode="6" horiz-adv-x="703" d="M621 539h-137q0 60 -22 82.5t-82 22.5h-64q-71 0 -98 -22.5t-27 -86.5v-151q25 48 65 60.5t108 12.5q137 0 201.5 -45t64.5 -172q0 -76 -11 -121t-44 -75.5t-87 -41.5t-145 -11q-74 0 -123.5 10t-90 36t-59.5 76t-19 127v264q0 79 17 129.5t55.5 77.5t89 36.5t129.5 9.5 q57 0 94 -3.5t75.5 -16t60 -35.5t35.5 -63.5t14 -99.5zM191 226q0 -80 26.5 -101t124.5 -21q92 0 121 21.5t29 100.5q0 73 -27 95.5t-125 22.5q-99 0 -124 -20t-25 -98z" />
<glyph unicode="7" d="M609 749v-138l-306 -611h-154l323 630h-418v119h555z" />
<glyph unicode="8" horiz-adv-x="702" d="M344 330q-98 0 -125.5 -19t-27.5 -90q0 -69 29.5 -93t123.5 -24t124.5 24t30.5 91q0 71 -28.5 91t-126.5 20zM344 644q-89 0 -117.5 -20t-28.5 -84q0 -66 27.5 -84.5t118.5 -18.5t117.5 18t26.5 84q0 65 -28.5 85t-115.5 20zM183 386q-69 22 -95 61.5t-26 108.5 q0 114 63 157.5t220 43.5q156 0 217.5 -43.5t61.5 -158.5q0 -70 -23 -109t-93 -60q74 -18 101.5 -57.5t27.5 -114.5q0 -123 -63 -173t-230 -50t-229 49.5t-62 173.5q0 74 29 114t101 58z" />
<glyph unicode="9" horiz-adv-x="703" d="M58 209h136q0 -60 22 -82.5t81 -22.5h65q71 0 98 22.5t27 86.5v151q-25 -48 -65 -61t-107 -13q-145 0 -206 45.5t-61 172.5q0 67 11.5 110t43 76t88.5 48t145 15q74 0 123 -9.5t89 -36t58.5 -76.5t18.5 -127v-264q0 -79 -17 -129.5t-55.5 -77.5t-88 -36.5t-128.5 -9.5 q-57 0 -94 3.5t-75.5 16t-60 35.5t-35 63.5t-13.5 99.5zM487 522q0 71 -29 96.5t-122 25.5q-88 0 -118 -26t-30 -96q0 -79 25 -99t125 -20q99 0 124 20.5t25 98.5z" />
<glyph unicode=":" horiz-adv-x="237" d="M181 134v-134h-125v134h125zM181 522v-134h-125v134h125z" />
<glyph unicode=";" horiz-adv-x="236" d="M174 134v-131q0 -74 -23.5 -102t-98.5 -28q-9 0 -13 2v59q32 0 45.5 10t13.5 40v16h-49v134h125zM174 522v-134h-125v134h125z" />
<glyph unicode="&#x37e;" horiz-adv-x="236" d="M174 134v-131q0 -74 -23.5 -102t-98.5 -28q-9 0 -13 2v59q32 0 45.5 10t13.5 40v16h-49v134h125zM174 522v-134h-125v134h125z" />
<glyph unicode="&#x3c;" horiz-adv-x="561" d="M523 698v-136l-342 -167l342 -169v-134l-487 245v116z" />
<glyph unicode="=" horiz-adv-x="561" d="M17 474h526v-69h-526v69zM17 307h526v-69h-526v69z" />
<glyph unicode="&#x3e;" horiz-adv-x="561" d="M35 562v136l487 -245v-116l-487 -245v134l342 169z" />
<glyph unicode="?" horiz-adv-x="594" d="M333 134v-134h-125v134h125zM333 238h-125q0 41 1 59.5t6 41t16.5 34.5t31 25t51.5 27q61 27 84 50t23 74q0 56 -27 79t-97 23q-71 0 -94 -20.5t-23 -81.5v-25h-125v37q0 103 57 149t181 46q127 0 189.5 -41t62.5 -155q0 -90 -24 -129.5t-83 -68.5q-6 -3 -28.5 -13 t-27.5 -13t-19 -12.5t-17.5 -17t-8 -21t-4.5 -29.5v-18z" />
<glyph unicode="@" horiz-adv-x="787" d="M477 554h90v-240q0 -35 8.5 -52.5t34.5 -17.5q33 0 44.5 33.5t11.5 142.5q0 56 -2 87.5t-13.5 58.5t-25.5 38.5t-49 19.5t-71 9.5t-104 1.5q-67 0 -106 -2.5t-73.5 -12.5t-50.5 -25t-28 -46.5t-15 -69.5t-3 -100q0 -42 0.5 -65t2 -55t4.5 -48t9 -37.5t14.5 -32 t21.5 -23.5t29.5 -18.5t39 -11.5t50 -7.5t62.5 -1.5q142 0 182.5 7.5t57.5 34.5l66 -31q-26 -49 -85.5 -64t-217.5 -15q-68 0 -114 6t-81.5 23t-56 41.5t-33 68t-17 95.5t-4.5 130q0 73 7 124t25 88t42 59t66 35t89 17t117 4q75 0 122.5 -3.5t88 -15t62 -29.5t36.5 -51.5 t20 -75.5t5 -106q0 -147 -28.5 -196.5t-112.5 -49.5q-29 0 -48 3.5t-37 18.5t-23 42q-16 -38 -46 -51t-79 -13q-46 0 -75 12t-42.5 39t-18 55.5t-4.5 75.5q0 37 2 62t10.5 53t23 44t41 27t63.5 11q44 0 70.5 -10t45.5 -43v53zM477 394q0 49 -19 70.5t-66 21.5 q-53 0 -67.5 -23.5t-14.5 -73.5v-49q0 -27 1.5 -41t8.5 -28.5t22.5 -20.5t41.5 -6q61 0 77 23.5t16 84.5v42z" />
<glyph unicode="A" horiz-adv-x="748" d="M537 143h-324l-47 -143h-149l249 749h211l254 -749h-146zM504 250l-130 389l-128 -389h258z" />
<glyph unicode="B" horiz-adv-x="730" d="M209 630v-196h180q72 0 98.5 20.5t26.5 85.5q0 52 -23.5 71t-77.5 19h-204zM209 327v-208h180q74 0 108 23.5t34 83.5q0 59 -26 80t-90 21h-206zM65 0v749h384q209 0 209 -188q0 -142 -107 -172v-5q60 -10 92 -53.5t32 -115.5q0 -102 -54 -158.5t-160 -56.5h-396z" />
<glyph unicode="C" horiz-adv-x="726" d="M540 268h141v-44q0 -129 -69 -181t-241 -52q-127 0 -193 33.5t-94.5 117.5t-28.5 246q0 201 65.5 285t245.5 84q92 0 151.5 -15.5t93 -50.5t47.5 -79.5t19 -113.5h-140q-5 86 -38 111.5t-133 25.5q-53 0 -82.5 -8.5t-49.5 -38t-26.5 -78.5t-6.5 -136q0 -110 14.5 -164.5 t49 -75.5t104.5 -21q99 0 135 22.5t36 85.5v47z" />
<glyph unicode="D" horiz-adv-x="771" d="M65 0v749h358q166 0 229.5 -79.5t63.5 -271.5q0 -227 -64 -312.5t-240 -85.5h-347zM209 627v-505h176q76 0 113.5 19t54.5 72.5t17 160.5q0 108 -14.5 161.5t-46.5 72.5t-97 19h-203z" />
<glyph unicode="E" horiz-adv-x="621" d="M209 630v-191h350v-119h-350v-201h367v-119h-511v749h511v-119h-367z" />
<glyph unicode="F" horiz-adv-x="571" d="M65 749h494v-122h-350v-188h333v-119h-333v-320h-144v749z" />
<glyph unicode="G" horiz-adv-x="752" d="M376 397h331v-82q0 -95 -12.5 -152.5t-48.5 -98.5t-98.5 -57t-164.5 -16q-86 0 -143 13t-94.5 38t-57 73.5t-26.5 107t-7 151.5q0 88 7.5 146.5t28 106.5t57.5 75t94.5 41t140.5 14q176 0 245 -49t75 -186h-137q-6 50 -19.5 71.5t-49.5 31.5t-114 10q-41 0 -68.5 -4 t-49 -15.5t-33 -28.5t-19 -48.5t-10 -69t-2.5 -95.5q0 -60 2.5 -98.5t10 -70t19.5 -47.5t34 -27.5t48.5 -14.5t68.5 -3q110 0 146 29t36 127v21h-190v107z" />
<glyph unicode="H" horiz-adv-x="767" d="M209 749v-310h349v310h144v-749h-144v320h-349v-320h-144v749h144z" />
<glyph unicode="I" horiz-adv-x="274" d="M209 749v-749h-144v749h144z" />
<glyph unicode="J" horiz-adv-x="583" d="M374 749h144v-524q0 -125 -55 -179.5t-195 -54.5q-139 0 -190.5 53.5t-51.5 181.5v67h134v-69q0 -66 20 -88.5t88 -22.5q63 0 84.5 23.5t21.5 87.5v525z" />
<glyph unicode="K" horiz-adv-x="746" d="M209 749v-310h63l254 310h176l-303 -365l335 -384h-182l-276 320h-67v-320h-144v749h144z" />
<glyph unicode="L" horiz-adv-x="583" d="M209 749v-627h348v-122h-492v749h144z" />
<glyph unicode="M" horiz-adv-x="1018" d="M65 749h237l203 -556h4l199 556h245v-749h-144v631l-236 -631h-129l-235 627v-627h-144v749z" />
<glyph unicode="N" horiz-adv-x="833" d="M65 749h242l316 -627h1v627h144v-749h-242l-316 626h-1v-626h-144v749z" />
<glyph unicode="O" horiz-adv-x="751" d="M55 390q0 216 65 291.5t255 75.5q97 0 157 -16.5t97.5 -60t52 -111.5t14.5 -179q0 -128 -14 -203.5t-53 -120.5t-97 -60t-157 -15q-70 0 -117.5 6t-85 24t-59 44.5t-35.5 74t-18.5 105.5t-4.5 145zM201 374q0 -62 2 -101.5t10 -71t18.5 -47t32 -26t46 -13t65.5 -2.5 q48 0 76 5.5t50 19.5t31 45t13.5 74.5t4.5 116.5q0 94 -6 143.5t-28 77.5t-51.5 34t-89.5 6q-42 0 -65.5 -2t-46 -12t-32.5 -25.5t-18 -46.5t-10 -71t-2 -104z" />
<glyph unicode="P" horiz-adv-x="719" d="M209 246v-246h-144v749h319q73 0 121.5 -10t86.5 -36t55 -75t17 -125q0 -151 -58 -204t-209 -53h-188zM209 627v-259h174q76 0 105.5 25t29.5 97q0 79 -30 108t-105 29h-174z" />
<glyph unicode="Q" horiz-adv-x="786" d="M779 101l-59 -84l-65 48q-44 -45 -110.5 -59.5t-157.5 -14.5q-106 0 -167.5 16t-100 63t-51.5 121.5t-13 202.5q0 110 13 175.5t50.5 110t100.5 61t167 16.5q103 0 166.5 -17t102.5 -61t53 -111t14 -176q0 -128 -2.5 -168.5t-12.5 -73.5zM413 353l159 -110q4 25 4 132 q0 90 -6 138t-28.5 77.5t-56 37t-98.5 7.5q-64 0 -97 -7.5t-55 -37t-28 -77.5t-6 -138q0 -60 2.5 -98.5t10.5 -70t20 -48t34.5 -27.5t49.5 -14.5t69 -3.5q103 0 149 35l-183 119z" />
<glyph unicode="R" horiz-adv-x="729" d="M209 251v-251h-144v749h366q125 0 184 -53.5t59 -178.5q0 -32 -3 -57.5t-11.5 -52t-23 -44.5t-39 -32t-58.5 -18v-4q125 -7 125 -144v-165h-144v153q0 54 -29 76t-83 22h-199zM209 627v-254h199q65 0 92.5 30t27.5 95q0 70 -24 99.5t-90 29.5h-205z" />
<glyph unicode="S" horiz-adv-x="692" d="M45 240h136q0 -87 28 -108.5t134 -21.5q99 0 132.5 24.5t33.5 83.5q0 56 -36.5 75t-147.5 27q-71 5 -118 16t-86 35t-57.5 67t-18.5 107q0 103 66.5 157.5t228.5 54.5q70 0 118.5 -7.5t89.5 -28t61.5 -61t20.5 -100.5v-29h-138q0 69 -30 91t-119 22q-90 0 -122 -25 t-32 -75q0 -26 2.5 -39t11 -27t29 -20t52.5 -11t85 -8q73 -4 120.5 -14.5t85 -33.5t55 -62t17.5 -98q0 -67 -12 -109t-45.5 -73.5t-93 -44.5t-153.5 -13q-61 0 -102.5 4.5t-81 17.5t-63 37t-37.5 63.5t-14 96.5v30z" />
<glyph unicode="T" horiz-adv-x="608" d="M376 627v-627h-144v627h-220v122h584v-122h-220z" />
<glyph unicode="U" horiz-adv-x="754" d="M65 749h144v-507q0 -55 11 -80t46.5 -37t111.5 -12q77 0 112 12t45 36.5t10 80.5v507h144v-500q0 -50 -4.5 -85t-17.5 -65.5t-34.5 -49.5t-57 -33t-84.5 -19.5t-117 -5.5q-102 0 -162.5 12.5t-93.5 46.5t-43 78.5t-10 121.5v499z" />
<glyph unicode="V" horiz-adv-x="722" d="M11 749h147l202 -629l202 629h148l-242 -749h-217z" />
<glyph unicode="W" horiz-adv-x="1144" d="M12 749h144l157 -631h4l172 631h165l170 -631l163 631h145l-202 -749h-209l-149 572h-3l-156 -572h-205z" />
<glyph unicode="X" horiz-adv-x="746" d="M36 749h167l174 -297l173 297h164l-222 -362l239 -387h-166l-188 315l-190 -315h-169l246 387z" />
<glyph unicode="Y" horiz-adv-x="702" d="M12 749h162l181 -320l180 320h167l-278 -461v-288h-144v288z" />
<glyph unicode="Z" horiz-adv-x="646" d="M42 749h575v-123l-413 -504h418v-122h-598v121l411 506h-393v122z" />
<glyph unicode="[" horiz-adv-x="347" d="M61 749h229v-107h-95v-648h95v-107h-229v862z" />
<glyph unicode="\" horiz-adv-x="681" d="M73 749h94l508 -862h-94z" />
<glyph unicode="]" horiz-adv-x="347" d="M286 -113h-229v107h95v648h-95v107h229v-862z" />
<glyph unicode="^" horiz-adv-x="561" d="M146 405h-123l180 348h153l180 -348h-124l-133 255z" />
<glyph unicode="_" horiz-adv-x="562" d="M0 -70h562v-78h-562v78z" />
<glyph unicode="`" horiz-adv-x="561" d="M214 741l176 -116l-28 -51l-193 85z" />
<glyph unicode="a" horiz-adv-x="592" d="M188 373h-125q0 48 16.5 80.5t48 49t68.5 23t87 6.5q49 0 81.5 -3t66 -14t53 -30.5t31.5 -54.5t12 -85v-345h-125l10 72h-3q-24 -51 -61.5 -66t-111.5 -15q-100 0 -145.5 37.5t-45.5 126.5q0 98 43.5 132.5t158.5 34.5q69 0 100.5 -15t48.5 -51h6v89q0 63 -24 84.5 t-90 21.5q-57 0 -78.5 -16t-21.5 -62zM402 157q0 46 -26 62.5t-97 16.5q-61 0 -83.5 -18.5t-22.5 -63.5q0 -43 23 -60t82 -17q67 0 95.5 17t28.5 63z" />
<glyph unicode="b" horiz-adv-x="603" d="M190 749v-296h1q37 79 155 79q125 0 168.5 -61t43.5 -197q0 -56 -3.5 -93.5t-15.5 -77t-34 -61.5t-61 -36.5t-95 -14.5q-60 0 -97 19t-66 68h-2l6 -78h-125v749h125zM309 435q-69 0 -94 -33.5t-25 -138.5q0 -107 25 -141t94 -34q70 0 95.5 34t25.5 141q0 105 -25.5 138.5 t-95.5 33.5z" />
<glyph unicode="c" horiz-adv-x="558" d="M400 198h122q0 -114 -52 -160.5t-184 -46.5q-136 0 -188.5 59t-52.5 211q0 153 52.5 212t188.5 59q106 0 168.5 -38t62.5 -135v-19h-122v7q0 54 -23 71t-86 17q-66 0 -89.5 -36.5t-23.5 -137.5q0 -100 23.5 -136.5t89.5 -36.5q71 0 92.5 23t21.5 87z" />
<glyph unicode="d" horiz-adv-x="603" d="M292 435q-69 0 -94 -33.5t-25 -138.5q0 -107 25 -141t94 -34q70 0 95.5 34t25.5 141q0 105 -25.5 138.5t-95.5 33.5zM413 749h125v-749h-125l6 79h-2q-27 -50 -65 -69t-96 -19q-56 0 -95 14t-61.5 36.5t-35 61t-16 76.5t-3.5 94q0 135 44 197t169 62q116 0 155 -78v295z " />
<glyph unicode="e" horiz-adv-x="576" d="M406 166h125v-19q0 -48 -17 -80t-52 -48t-75.5 -22t-100.5 -6q-135 0 -188 59.5t-53 210.5q0 150 54 210.5t188 60.5q133 0 188.5 -60t55.5 -198v-35h-358q0 -95 23 -126t91 -31q64 0 91.5 15t27.5 58v11zM406 317q0 70 -26 97t-92 27q-65 0 -90 -27t-25 -97h233z" />
<glyph unicode="f" horiz-adv-x="365" d="M342 525v-97h-125v-428h-125v428h-75v97h75v57q0 102 45 139t182 37q17 0 23 -2v-95q-11 3 -37 3q-53 0 -70.5 -17.5t-17.5 -63.5v-58h125z" />
<glyph unicode="g" horiz-adv-x="606" d="M292 435q-69 0 -94 -33.5t-25 -138.5q0 -107 25 -141t94 -34q70 0 95.5 34t25.5 141q0 105 -25.5 138.5t-95.5 33.5zM413 443v81h125v-535q0 -129 -55 -176t-188 -47q-131 0 -178.5 36.5t-47.5 141.5h119q0 -50 23.5 -65.5t77.5 -15.5q65 0 94.5 21.5t29.5 83.5v105h-1 q-37 -82 -167 -82q-113 0 -156.5 63t-43.5 198q0 152 48.5 216t161.5 64q66 0 99.5 -18t56.5 -71h2z" />
<glyph unicode="h" horiz-adv-x="602" d="M190 749v-306h1q24 52 61 70.5t97 18.5q102 0 145 -40t43 -138v-354h-125v326q0 63 -18.5 86t-78.5 23q-125 0 -125 -125v-310h-125v749h125z" />
<glyph unicode="i" horiz-adv-x="255" d="M190 749v-109h-125v109h125zM190 524v-524h-125v524h125z" />
<glyph unicode="j" horiz-adv-x="255" d="M190 749v-109h-125v109h125zM65 524h125v-548q0 -77 -31.5 -117t-108.5 -40q-27 0 -47 4v87q36 0 49 19t13 58v537z" />
<glyph unicode="k" horiz-adv-x="558" d="M190 749v-429h30l147 204h143l-187 -247l223 -277h-151l-173 234h-32v-234h-125v749h125z" />
<glyph unicode="l" horiz-adv-x="255" d="M190 749v-749h-125v749h125z" />
<glyph unicode="m" horiz-adv-x="923" d="M190 524v-82h1q52 90 158 90q147 0 165 -91h1q20 52 59 71.5t100 19.5q98 0 141 -42t43 -138v-352h-125v328q0 60 -17 83.5t-77 23.5q-115 0 -115 -123v-312h-125v331q0 61 -15.5 82.5t-75.5 21.5q-65 0 -91.5 -30.5t-26.5 -95.5v-309h-125v524h125z" />
<glyph unicode="n" horiz-adv-x="602" d="M190 524v-81h1q24 52 61 70.5t97 18.5q102 0 145 -40t43 -138v-354h-125v326q0 63 -18.5 86t-78.5 23q-125 0 -125 -125v-310h-125v524h125z" />
<glyph unicode="o" horiz-adv-x="586" d="M292 532q142 0 195.5 -58.5t53.5 -210.5t-53.5 -212t-195.5 -60q-141 0 -194 60t-53 212q0 153 52.5 211t194.5 58zM292 435q-69 0 -94 -33.5t-25 -138.5q0 -107 25 -141t94 -34q70 0 95.5 34t25.5 141q0 105 -25.5 138.5t-95.5 33.5z" />
<glyph unicode="p" horiz-adv-x="600" d="M309 435q-69 0 -94 -33.5t-25 -138.5q0 -107 25 -141t94 -34q70 0 95.5 34t25.5 141q0 105 -25.5 138.5t-95.5 33.5zM190 524v-74h1q31 47 65 64.5t90 17.5q65 0 107 -17.5t64 -54.5t30 -81.5t8 -112.5q0 -52 -3 -87t-14.5 -73.5t-32.5 -61.5t-59 -38t-92 -15 q-59 0 -98.5 16t-64.5 65h-1v-297h-125v749h125z" />
<glyph unicode="q" horiz-adv-x="600" d="M289 435q-69 0 -94 -33.5t-25 -138.5q0 -107 25 -141t94 -34q70 0 95.5 34t25.5 141q0 105 -25.5 138.5t-95.5 33.5zM410 524h125v-749h-125v297h-1q-25 -49 -64.5 -65t-98.5 -16q-54 0 -92 15t-59 38t-32.5 61.5t-14.5 73.5t-3 87q0 68 8 112.5t30 81.5t64 54.5 t107 17.5q56 0 90 -17.5t65 -64.5h1v74z" />
<glyph unicode="r" horiz-adv-x="492" d="M190 524v-69h1q13 37 49.5 57t83.5 20q82 0 112.5 -43.5t30.5 -128.5v-36h-115v23q0 24 -1.5 36.5t-7.5 26.5t-21 19.5t-39 5.5q-46 0 -69.5 -27.5t-23.5 -74.5v-333h-125v524h125z" />
<glyph unicode="s" horiz-adv-x="555" d="M498 379h-120q0 38 -22.5 52t-87.5 14t-83.5 -13.5t-18.5 -56.5q0 -33 24 -44t117 -18q100 -7 155 -39.5t55 -109.5q0 -54 -16.5 -89.5t-50 -53t-72 -24t-94.5 -6.5q-36 0 -57 1t-54.5 5t-53.5 13t-40.5 24.5t-30.5 41.5t-10 60v28h128q0 -51 19.5 -68.5t70.5 -17.5h38 q54 0 77.5 17t23.5 56q0 35 -28 49.5t-108 18.5q-116 7 -168.5 40t-52.5 118q0 92 56.5 123.5t172.5 31.5q30 0 50.5 -1t51 -4.5t51 -12.5t40.5 -22.5t30 -36.5t10 -53q0 -9 -2 -23z" />
<glyph unicode="t" horiz-adv-x="469" d="M82 649h125v-124h201v-97h-201v-266q0 -43 9.5 -58.5t46.5 -15.5q39 0 50 21t11 64v25h106v-27q0 -92 -39.5 -136t-132.5 -44t-134.5 38.5t-41.5 134.5v264h-67v97h67v124z" />
<glyph unicode="u" horiz-adv-x="602" d="M65 524h125v-326q0 -63 18.5 -86.5t80.5 -23.5q123 0 123 120v316h125v-524h-125l6 78h-5q-43 -87 -161 -87q-98 0 -142.5 38.5t-44.5 134.5v360z" />
<glyph unicode="v" horiz-adv-x="520" d="M509 524l-151 -524h-190l-160 524h131l123 -437l116 437h131z" />
<glyph unicode="w" horiz-adv-x="814" d="M804 524l-120 -524h-180l-96 422l-94 -422h-182l-120 524h124l89 -438h3l101 438h158l99 -438h5l90 438h123z" />
<glyph unicode="x" horiz-adv-x="533" d="M33 524h142l92 -168l91 168h145l-152 -248l170 -276h-148l-106 193l-104 -193h-151l173 276z" />
<glyph unicode="y" horiz-adv-x="508" d="M12 524h133l131 -445l102 445h130l-140 -556q-10 -41 -18.5 -67t-24 -54.5t-35 -44t-50.5 -26t-72 -10.5q-49 0 -52 4v90q13 -3 29 -3q47 0 69 35.5t36 107.5h-66z" />
<glyph unicode="z" horiz-adv-x="487" d="M45 524h407v-103l-282 -324h282v-97h-429v108l276 319h-254v97z" />
<glyph unicode="{" horiz-adv-x="561" d="M125 224v108q64 14 64 97v178q0 96 50 125t169 29h23v-124q-65 0 -86.5 -17t-21.5 -77v-137q0 -50 -13 -80t-51 -52q38 -22 51 -53.5t13 -79.5v-138q0 -60 24 -79t84 -19v-117h-23q-34 0 -53.5 0.5t-46 4t-41.5 10t-32 18t-25.5 29t-14.5 43.5t-6 60v167q0 87 -64 104z " />
<glyph unicode="|" horiz-adv-x="542" d="M213 748h125v-935h-125v935z" />
<glyph unicode="}" horiz-adv-x="561" d="M432 332v-108q-64 -17 -64 -104v-167q0 -34 -6 -60t-14.5 -43.5t-25.5 -29t-32 -18t-41.5 -10t-46 -4t-53.5 -0.5h-23v117q60 0 84 19t24 79v138q0 48 13 79.5t51 53.5q-38 22 -51 52t-13 80v137q0 60 -21.5 77t-86.5 17v124h23q129 0 174 -32.5t45 -121.5v-178 q0 -83 64 -97z" />
<glyph unicode="~" horiz-adv-x="562" d="M78 275l-68 56q61 141 165 141q40 0 112 -35t105 -35q51 0 92 74l68 -56q-64 -140 -166 -140q-40 0 -110 35t-105 35q-51 0 -93 -75z" />
<glyph unicode="&#xa3;" horiz-adv-x="704" d="M483 391v-105h-201v-65q0 -69 -53 -106h448v-115h-607v112q31 4 47.5 25.5t20 43.5t3.5 56v49h-92v105h92v108q0 154 55.5 206t208.5 52q79 0 125.5 -8.5t80.5 -35t47 -74.5t13 -127h-139q0 69 -26 97t-95 28q-85 0 -107 -23t-22 -101v-122h201z" />
<glyph unicode="&#xa4;" horiz-adv-x="496" d="M249 66q-59 0 -109 34l-45 -45l-49 48l45 45q-36 50 -36 112q0 59 36 110l-45 45l49 48l45 -45q50 34 109 34q58 0 110 -36l47 47l49 -48l-47 -47q34 -48 34 -108q0 -59 -34 -109l47 -48l-49 -48l-46 47q-50 -36 -111 -36zM249 144q48 0 81.5 34t33.5 82t-33.5 81 t-81.5 33t-82 -33t-34 -81t34 -82t82 -34z" />
<glyph unicode="&#xa5;" d="M558 536h94v-106h-155l-50 -89h205v-106h-239v-235h-129v235h-231v106h201l-51 89h-150v106h90l-122 214h157l172 -321l174 321h159z" />
<glyph unicode="&#xa6;" horiz-adv-x="562" d="M213 162h125v-349h-125v349zM213 748h125v-349h-125v349z" />
<glyph unicode="&#xa7;" d="M623 534h-132q0 68 -23.5 87.5t-95.5 19.5h-53q-64 0 -82.5 -16t-18.5 -59q0 -39 14 -56t71 -30l190 -45q49 -11 73.5 -20t45.5 -28t27.5 -48.5t6.5 -78.5q0 -52 -13 -88t-52 -53q32 -15 47.5 -38t18.5 -44.5t3 -62.5q0 -42 -8.5 -74.5t-21 -54t-36 -36.5t-44.5 -23 t-56.5 -12t-61.5 -5t-69 -1q-47 0 -76 1.5t-63 6t-54 14.5t-40 26.5t-30 41.5t-16.5 60t-6.5 82h131q0 -41 5 -61.5t26 -34.5t54 -17.5t97 -3.5q70 0 100.5 16.5t30.5 70.5q0 44 -19 60.5t-70 28.5l-245 55q-74 16 -97.5 50.5t-23.5 117.5q0 58 15 91.5t63 47.5 q-25 17 -38 42.5t-15 46t-2 58.5q0 51 15.5 87t37.5 55t61.5 29t71.5 12t84 2h16q36 0 57 -0.5t52 -4t49.5 -10.5t39.5 -19.5t32.5 -31t19.5 -46.5t8 -64v-43zM254 210q18 -4 74 -17.5t94.5 -22t51.5 -8.5q30 0 43.5 23t13.5 57q0 48 -17.5 64.5t-69.5 29.5q-189 47 -201 47 q-60 0 -60 -85q0 -46 13 -62t58 -26z" />
<glyph unicode="&#xa9;" horiz-adv-x="871" d="M532 302h86v-27q0 -76 -42.5 -106.5t-146.5 -30.5q-111 0 -148.5 47.5t-37.5 189.5q0 119 39.5 168t146.5 49q106 0 143 -34.5t43 -117.5h-83q-4 51 -24 65t-79 14q-62 0 -80.5 -27t-18.5 -126q0 -95 19.5 -125t79.5 -30q59 0 81 13t22 49v29zM437 762 q159 0 272.5 -114.5t113.5 -273.5t-113.5 -274t-272.5 -115q-160 0 -274.5 114.5t-114.5 274.5t114 274t275 114zM435 701q-134 0 -228 -96.5t-94 -230.5t95 -231t228 -97q134 0 228 97.5t94 230.5q0 134 -94 230.5t-229 96.5z" />
<glyph unicode="&#xab;" horiz-adv-x="528" d="M182 542l84 -47l-105 -216l112 -210l-79 -53l-143 263zM386 542l84 -47l-105 -216l112 -210l-79 -53l-143 263z" />
<glyph unicode="&#xac;" horiz-adv-x="561" d="M390 106v207h-354v86h459v-293h-105z" />
<glyph unicode="&#xad;" horiz-adv-x="378" d="M50 338h278v-89h-278v89z" />
<glyph unicode="&#xae;" horiz-adv-x="871" d="M271 163v430h211q71 0 104.5 -32.5t33.5 -105.5q0 -51 -16.5 -79.5t-59.5 -32.5v-3q76 -4 76 -84v-93h-82v87q0 57 -68 57h-117v-144h-82zM353 524v-148h117q37 0 52.5 17.5t15.5 56.5q0 40 -13.5 57t-51.5 17h-120zM437 762q159 0 272 -113.5t113 -272.5 q0 -160 -113.5 -275.5t-271.5 -115.5q-160 0 -274.5 114.5t-114.5 274.5t114 274t275 114zM436 701q-134 0 -228.5 -95.5t-94.5 -229.5t95 -232t228 -98q134 0 227.5 97.5t93.5 230.5q0 134 -93.5 230.5t-227.5 96.5z" />
<glyph unicode="&#xaf;" horiz-adv-x="562" d="M142 688h278v-76h-278v76z" />
<glyph unicode="&#x2c9;" horiz-adv-x="562" d="M142 688h278v-76h-278v76z" />
<glyph unicode="&#xb0;" horiz-adv-x="562" d="M282 564q-38 0 -65 27t-27 65q0 37 27 63.5t65 26.5q37 0 64 -26.5t27 -63.5t-27 -64.5t-64 -27.5zM282 609q19 0 32.5 14t13.5 33t-13.5 32t-32.5 13q-20 0 -33.5 -13t-13.5 -32q0 -20 13.5 -33.5t33.5 -13.5z" />
<glyph unicode="&#xb1;" horiz-adv-x="561" d="M24 252h509v-69h-509v69zM244 804h69v-220h220v-69h-220v-220h-69v220h-220v69h220v220z" />
<glyph unicode="&#xb4;" horiz-adv-x="561" d="M345 741l45 -82l-194 -85l-27 51z" />
<glyph unicode="&#xb5;" horiz-adv-x="631" d="M65 -188v712h125v-274q0 -77 32.5 -119.5t92.5 -42.5q63 0 94 49.5t31 116.5v270h125v-524h-125v87q-39 -96 -125 -96q-82 0 -125 72v-251h-125z" />
<glyph unicode="&#xb6;" horiz-adv-x="704" d="M692 -225h-106v855h-89v-855h-106v467h-105q-65 0 -108 5.5t-79.5 20.5t-56.5 43t-31 72.5t-11 109.5q0 142 53 199t192 57h447v-974zM391 356v274h-128q-86 0 -109 -24t-23 -115q0 -88 28.5 -111.5t118.5 -23.5h113z" />
<glyph unicode="&#xb7;" d="M415 421v-134h-125v134h125z" />
<glyph unicode="&#xbb;" horiz-adv-x="528" d="M346 542l131 -263l-143 -263l-79 53l112 210l-105 216zM141 542l131 -263l-143 -263l-79 53l112 210l-105 216z" />
<glyph unicode="&#xd7;" horiz-adv-x="558" d="M108 614l171 -172l172 174l50 -49l-175 -172l173 -172l-47 -47l-172 173l-173 -175l-48 49l174 173l-172 171z" />
<glyph unicode="&#xf7;" horiz-adv-x="561" d="M17 429h526v-67h-526v67zM280 649q23 0 39 -16.5t16 -39.5q0 -21 -16.5 -37.5t-38.5 -16.5t-38.5 16.5t-16.5 37.5q0 23 16 39.5t39 16.5zM280 252q22 0 38.5 -16.5t16.5 -37.5q0 -23 -16.5 -39.5t-38.5 -16.5q-23 0 -39 16.5t-16 39.5q0 21 16.5 37.5t38.5 16.5z" />
<glyph unicode="&#x192;" d="M461 562h118l-17 -93h-118l-79 -452q-18 -106 -62.5 -141t-153.5 -35q-2 0 -71 3l17 94q14 -3 33 -3q54 0 75 16t30 66l80 452h-90l17 93h89q8 65 16.5 107t25.5 74t35 48t52.5 26t70.5 12.5t97 2.5l-17 -97q-4 0 -17 2t-20 2q-26 0 -45 -9t-30 -21.5t-18.5 -38.5 t-10.5 -47.5t-7 -60.5z" />
<glyph unicode="&#x3bc;" horiz-adv-x="631" d="M65 -188v712h125v-274q0 -77 32.5 -119.5t92.5 -42.5q63 0 94 49.5t31 116.5v270h125v-524h-125v87q-39 -96 -125 -96q-82 0 -125 72v-251h-125z" />
<glyph unicode="&#x401;" horiz-adv-x="621" d="M209 630v-191h350v-119h-350v-201h367v-119h-511v749h511v-119h-367zM260 919v-89h-99v89h99zM464 919v-89h-99v89h99z" />
<glyph unicode="&#x402;" horiz-adv-x="843" d="M376 627v-206h1q24 36 54 46.5t110 10.5q112 0 179.5 -56t67.5 -176q0 -79 -15 -126.5t-56 -74.5t-99.5 -36t-158.5 -9v119q107 0 146 26t39 111q0 59 -32 81t-106 22q-68 0 -99 -21.5t-31 -77.5v-260h-144v627h-220v122h584v-122h-220z" />
<glyph unicode="&#x403;" horiz-adv-x="568" d="M65 749h491v-122h-347v-627h-144v749zM370 959h135l-177 -150h-71z" />
<glyph unicode="&#x404;" horiz-adv-x="730" d="M537 243h140v-36q0 -112 -71.5 -164t-242.5 -52q-66 0 -111.5 6.5t-81.5 25t-57 46t-34.5 74.5t-18.5 105.5t-5 144.5q0 207 64.5 285t243.5 78q91 0 149.5 -15t92 -49.5t48.5 -78.5t21 -115h-137q-9 87 -41 116t-130 29q-101 0 -134 -43.5t-33 -165.5h289v-107h-289 q0 -136 33 -179.5t134 -43.5q95 0 133 26.5t38 90.5v22z" />
<glyph unicode="&#x405;" horiz-adv-x="692" d="M45 240h136q0 -87 28 -108.5t134 -21.5q99 0 132.5 24.5t33.5 83.5q0 56 -38 76.5t-148 28.5q-71 5 -117.5 15.5t-85.5 34t-57 66t-18 106.5q0 103 66.5 157.5t228.5 54.5q70 0 118.5 -7.5t89.5 -28t61.5 -61t20.5 -100.5v-29h-138q0 69 -30 91t-119 22q-90 0 -122 -25 t-32 -75q0 -32 3.5 -47t21.5 -28.5t53 -18.5t101 -9q146 -9 212.5 -53t66.5 -157q0 -67 -12 -109t-45.5 -73.5t-93 -44.5t-153.5 -13q-61 0 -102.5 4.5t-81 17.5t-63 37t-37.5 63.5t-14 96.5v30z" />
<glyph unicode="&#x406;" horiz-adv-x="274" d="M209 749v-749h-144v749h144z" />
<glyph unicode="&#x407;" horiz-adv-x="274" d="M209 749v-749h-144v749h144zM84 919v-89h-99v89h99zM287 919v-89h-99v89h99z" />
<glyph unicode="&#x408;" horiz-adv-x="583" d="M374 749h144v-524q0 -125 -55 -179.5t-195 -54.5q-139 0 -190.5 53.5t-51.5 181.5v67h134v-69q0 -66 20 -88.5t88 -22.5q63 0 84.5 23.5t21.5 87.5v525z" />
<glyph unicode="&#x409;" horiz-adv-x="1177" d="M136 749h546v-310h233q217 0 217 -212q0 -108 -56.5 -167.5t-158.5 -59.5h-379v627h-261v-429q0 -91 -45 -149t-144 -58q-41 0 -73 6v119q18 -3 44 -3q44 0 60.5 19.5t16.5 54.5v562zM682 320v-201h185q68 0 94.5 22t26.5 85q0 57 -27 75.5t-94 18.5h-185z" />
<glyph unicode="&#x40a;" horiz-adv-x="1176" d="M209 749v-310h318v310h144v-310h233q217 0 217 -212q0 -108 -56.5 -167.5t-158.5 -59.5h-379v320h-318v-320h-144v749h144zM671 320v-201h185q68 0 94.5 22t26.5 85q0 57 -27 75.5t-94 18.5h-185z" />
<glyph unicode="&#x40b;" horiz-adv-x="810" d="M376 627v-206h1q24 36 54 46.5t110 10.5q214 0 214 -212v-266h-144v265q0 58 -25 76t-90 18q-63 0 -91.5 -21.5t-28.5 -77.5v-260h-144v627h-220v122h584v-122h-220z" />
<glyph unicode="&#x40c;" horiz-adv-x="746" d="M209 749v-310h63l254 310h176l-303 -365l335 -384h-182l-276 320h-67v-320h-144v749h144zM403 959h135l-177 -150h-71z" />
<glyph unicode="&#x40e;" horiz-adv-x="699" d="M529 749h170l-260 -586q-43 -96 -91.5 -134t-113.5 -38q-46 0 -91 5v122q23 -5 51 -5q85 0 85 50q0 15 -9 34l-258 552h173l150 -380q14 -37 20 -104h2q9 61 27 108zM357 793q-80 0 -123.5 31.5t-43.5 112.5h91q0 -35 15.5 -47t60.5 -12q50 0 66 12t16 47h90 q0 -81 -45 -112.5t-127 -31.5z" />
<glyph unicode="&#x40f;" horiz-adv-x="767" d="M209 749v-627h349v627h144v-749h-251v-173h-135v173h-251v749h144z" />
<glyph unicode="&#x410;" horiz-adv-x="748" d="M537 143h-324l-47 -143h-149l249 749h211l254 -749h-146zM504 250l-130 389l-128 -389h258z" />
<glyph unicode="&#x411;" horiz-adv-x="714" d="M65 749h523v-119h-379v-191h233q217 0 217 -212q0 -108 -56.5 -167.5t-158.5 -59.5h-379v749zM209 320v-201h185q68 0 94.5 22t26.5 85q0 57 -27 75.5t-94 18.5h-185z" />
<glyph unicode="&#x412;" horiz-adv-x="730" d="M209 630v-196h180q72 0 98.5 20.5t26.5 85.5q0 52 -23.5 71t-77.5 19h-204zM209 327v-208h180q74 0 108 23.5t34 83.5q0 59 -26 80t-90 21h-206zM65 0v749h384q209 0 209 -188q0 -142 -107 -172v-5q60 -10 92 -53.5t32 -115.5q0 -102 -54 -158.5t-160 -56.5h-396z" />
<glyph unicode="&#x413;" horiz-adv-x="568" d="M65 749h491v-122h-347v-627h-144v749z" />
<glyph unicode="&#x414;" horiz-adv-x="795" d="M77 122v1q44 46 61 115t17 196v315h542v-627h67v-295h-134v173h-475v-173h-134v295h56zM553 627h-257v-192q0 -120 -15 -194t-52 -119h324v505z" />
<glyph unicode="&#x415;" horiz-adv-x="621" d="M209 630v-191h350v-119h-350v-201h367v-119h-511v749h511v-119h-367z" />
<glyph unicode="&#x416;" horiz-adv-x="1113" d="M485 749h144v-310h66l221 310h159l-269 -364l295 -385h-160l-244 320h-68v-320h-144v320h-68l-243 -320h-162l298 385l-270 364h157l220 -310h68v310z" />
<glyph unicode="&#x417;" horiz-adv-x="703" d="M247 327v107h116q67 0 98.5 24.5t31.5 78.5q0 61 -33 84t-122 23q-95 0 -126.5 -23.5t-31.5 -91.5h-137q10 133 74 180.5t222 47.5q147 0 218.5 -47t71.5 -145q0 -79 -23.5 -118t-82.5 -58v-4q71 -19 98 -57.5t27 -113.5q0 -79 -26 -125.5t-94.5 -71.5t-189.5 -25 q-77 0 -128 8.5t-92.5 31t-61 66.5t-19.5 111v31h136q0 -43 3.5 -63.5t19.5 -39.5t49.5 -25.5t92.5 -6.5q99 0 136.5 23t37.5 86q0 61 -31 87t-95 26h-139z" />
<glyph unicode="&#x418;" horiz-adv-x="786" d="M515 749h206v-749h-144v494q0 73 11 132h-1l-316 -626h-206v749h144v-492q0 -74 -11 -133h2z" />
<glyph unicode="&#x419;" horiz-adv-x="786" d="M515 749h206v-749h-144v494q0 73 11 132h-1l-316 -626h-206v749h144v-492q0 -74 -11 -133h2zM376 793q-80 0 -123.5 31.5t-43.5 112.5h91q0 -35 15.5 -47t60.5 -12q50 0 66 12t16 47h90q0 -81 -45 -112.5t-127 -31.5z" />
<glyph unicode="&#x41a;" horiz-adv-x="746" d="M209 749v-310h63l254 310h176l-303 -365l335 -384h-182l-276 320h-67v-320h-144v749h144z" />
<glyph unicode="&#x41b;" horiz-adv-x="771" d="M136 749h570v-749h-144v627h-285v-429q0 -91 -45 -149t-144 -58q-41 0 -73 6v119q18 -3 44 -3q44 0 60.5 19.5t16.5 54.5v562z" />
<glyph unicode="&#x41c;" horiz-adv-x="1018" d="M65 749h237l203 -556h4l199 556h245v-749h-144v631l-236 -631h-129l-235 627v-627h-144v749z" />
<glyph unicode="&#x41d;" horiz-adv-x="767" d="M209 749v-310h349v310h144v-749h-144v320h-349v-320h-144v749h144z" />
<glyph unicode="&#x41e;" horiz-adv-x="751" d="M55 390q0 216 65 291.5t255 75.5q97 0 157 -16.5t97.5 -60t52 -111.5t14.5 -179q0 -128 -14 -203.5t-53 -120.5t-97 -60t-157 -15q-70 0 -117.5 6t-85 24t-59 44.5t-35.5 74t-18.5 105.5t-4.5 145zM201 374q0 -62 2 -101.5t10 -71t18.5 -47t32 -26t46 -13t65.5 -2.5 q48 0 76 5.5t50 19.5t31 45t13.5 74.5t4.5 116.5q0 94 -6 143.5t-28 77.5t-51.5 34t-89.5 6q-42 0 -65.5 -2t-46 -12t-32.5 -25.5t-18 -46.5t-10 -71t-2 -104z" />
<glyph unicode="&#x41f;" horiz-adv-x="767" d="M65 749h637v-749h-144v627h-349v-627h-144v749z" />
<glyph unicode="&#x420;" horiz-adv-x="719" d="M209 246v-246h-144v749h319q73 0 121.5 -10t86.5 -36t55 -75t17 -125q0 -151 -58 -204t-209 -53h-188zM209 627v-259h174q76 0 105.5 25t29.5 97q0 79 -30 108t-105 29h-174z" />
<glyph unicode="&#x421;" horiz-adv-x="726" d="M540 268h141v-44q0 -129 -69 -181t-241 -52q-127 0 -193 33.5t-94.5 117.5t-28.5 246q0 201 65.5 285t245.5 84q92 0 151.5 -15.5t93 -50.5t47.5 -79.5t19 -113.5h-140q-5 86 -38 111.5t-133 25.5q-43 0 -69 -6t-46.5 -21.5t-30.5 -46.5t-14.5 -75.5t-4.5 -114.5 q0 -83 7 -131.5t27 -78t50.5 -39t83.5 -9.5q99 0 135 22.5t36 85.5v47z" />
<glyph unicode="&#x422;" horiz-adv-x="608" d="M376 627v-627h-144v627h-220v122h584v-122h-220z" />
<glyph unicode="&#x423;" horiz-adv-x="699" d="M529 749h170l-260 -586q-43 -96 -91.5 -134t-113.5 -38q-46 0 -91 5v122q23 -5 51 -5q85 0 85 50q0 15 -9 34l-258 552h173l150 -380q14 -37 20 -104h2q9 61 27 108z" />
<glyph unicode="&#x424;" horiz-adv-x="1008" d="M576 557v-351h95q76 0 107 39.5t31 134.5t-31 136t-107 41h-95zM432 749h144v-70h90q149 0 218 -71.5t69 -227.5q0 -155 -68.5 -225.5t-218.5 -70.5h-90v-84h-144v84h-90q-148 0 -217.5 70.5t-69.5 225.5q0 157 71.5 228t223.5 71h82v70zM432 206v351h-95 q-75 0 -106.5 -41.5t-31.5 -135.5t32 -134t107 -40h94z" />
<glyph unicode="&#x425;" horiz-adv-x="746" d="M36 749h167l174 -297l173 297h164l-222 -362l239 -387h-166l-188 315l-190 -315h-169l246 387z" />
<glyph unicode="&#x426;" horiz-adv-x="798" d="M209 122h350v627h144v-627h67v-295h-134v173h-571v749h144v-627z" />
<glyph unicode="&#x427;" horiz-adv-x="731" d="M65 749h144v-215q0 -61 29 -86.5t108 -25.5q129 0 176 20v307h144v-749h-144v324q-48 -24 -198 -24q-145 0 -202 56t-57 182v211z" />
<glyph unicode="&#x428;" horiz-adv-x="1178" d="M209 749v-627h308v627h144v-627h308v627h144v-749h-1048v749h144z" />
<glyph unicode="&#x429;" horiz-adv-x="1208" d="M209 749v-627h308v627h144v-627h308v627h144v-627h67v-295h-134v173h-981v749h144z" />
<glyph unicode="&#x42a;" horiz-adv-x="812" d="M10 749h297v-310h233q217 0 217 -212q0 -108 -56.5 -167.5t-158.5 -59.5h-379v630h-153v119zM307 320v-201h185q68 0 94.5 22t26.5 85q0 57 -27 75.5t-94 18.5h-185z" />
<glyph unicode="&#x42b;" horiz-adv-x="995" d="M209 749v-310h233q217 0 217 -212q0 -108 -56.5 -167.5t-158.5 -59.5h-379v749h144zM209 320v-201h185q68 0 94.5 22t26.5 85q0 57 -27 75.5t-94 18.5h-185zM930 749v-749h-144v749h144z" />
<glyph unicode="&#x42c;" horiz-adv-x="714" d="M209 749v-310h233q217 0 217 -212q0 -108 -56.5 -167.5t-158.5 -59.5h-379v749h144zM209 320v-201h185q68 0 94.5 22t26.5 85q0 57 -27 75.5t-94 18.5h-185z" />
<glyph unicode="&#x42d;" horiz-adv-x="719" d="M181 498h-137q6 71 21 115.5t48.5 79t92.5 49.5t149 15q174 0 241.5 -80.5t67.5 -285.5q0 -86 -5 -144.5t-18.5 -105t-34.5 -74t-57 -45.5t-81.5 -24.5t-112.5 -6.5q-171 0 -242.5 52.5t-71.5 163.5v36h141v-22q0 -64 38 -90.5t132 -26.5q100 0 134 46t34 177h-289v107 h289q0 128 -32 169t-136 41q-97 0 -129.5 -29.5t-41.5 -116.5z" />
<glyph unicode="&#x42e;" horiz-adv-x="1069" d="M209 749v-310h164q5 94 20 150.5t50.5 96.5t95 55.5t154.5 15.5q130 0 197 -31.5t95.5 -109t28.5 -226.5q0 -128 -14 -203.5t-53.5 -120.5t-97 -60t-156.5 -15q-98 0 -154 11.5t-94 49t-52.5 99t-19.5 169.5h-164v-320h-144v749h144zM519 374q0 -63 2 -102.5t10.5 -70.5 t18.5 -47t32 -25.5t46 -12t65 -2.5t65 2.5t46 12t32.5 25.5t18.5 46.5t10.5 70.5t2.5 103t-2.5 103t-10.5 71t-18.5 46.5t-32.5 25t-46 12t-65 2.5t-65 -2.5t-46 -12t-32 -25.5t-18.5 -47t-10.5 -70.5t-2 -102.5z" />
<glyph unicode="&#x42f;" horiz-adv-x="719" d="M510 264h-174l-147 -264h-164l164 283q-71 29 -107.5 79t-36.5 145q0 242 228 242h381v-749h-144v264zM510 379v248h-207q-62 0 -88 -28t-26 -95q0 -71 26 -98t87 -27h208z" />
<glyph unicode="&#x430;" horiz-adv-x="592" d="M188 373h-125q0 48 16.5 80.5t48 49t68.5 23t87 6.5q49 0 81.5 -3t66 -14t53 -30.5t31.5 -54.5t12 -85v-345h-125l10 72h-3q-24 -51 -61.5 -66t-111.5 -15q-100 0 -145.5 37.5t-45.5 126.5q0 97 44 132t159 35q69 0 100 -15t48 -51h6v89q0 63 -24 84.5t-90 21.5 q-57 0 -78.5 -16t-21.5 -62zM402 157q0 46 -26 62.5t-97 16.5q-61 0 -83.5 -18.5t-22.5 -63.5q0 -44 22.5 -60.5t81.5 -16.5q67 0 96 17t29 63z" />
<glyph unicode="&#x431;" horiz-adv-x="606" d="M175 436h2q18 38 49.5 61t97.5 23q131 0 184 -60.5t53 -196.5q0 -149 -52.5 -210.5t-196.5 -61.5q-141 0 -194 57.5t-53 208.5v167q0 278 244 278q71 0 94 7t23 29h94q0 -75 -48.5 -100.5t-151.5 -25.5q-76 0 -110.5 -41t-34.5 -104v-31zM193 263q0 -58 7 -93.5t23.5 -53 t36 -23t52.5 -5.5t52.5 5.5t37 22.5t24.5 53t7 94q0 93 -27.5 126.5t-92.5 33.5t-92.5 -33.5t-27.5 -126.5z" />
<glyph unicode="&#x432;" horiz-adv-x="578" d="M190 433v-122h119q48 0 67.5 13t19.5 45q0 34 -17 49t-58 15h-131zM190 225v-134h137q43 0 62 16.5t19 50.5q0 67 -75 67h-143zM65 0v524h291q88 0 126.5 -34.5t38.5 -108.5q0 -41 -25.5 -70t-69.5 -39v-3q107 -21 107 -125q0 -77 -35.5 -110.5t-126.5 -33.5h-306z" />
<glyph unicode="&#x433;" horiz-adv-x="424" d="M65 524h347v-97h-222v-427h-125v524z" />
<glyph unicode="&#x434;" horiz-adv-x="637" d="M140 524h409v-427h67v-239h-115v142h-365v-142h-115v239h56q35 46 49 93t14 136v198zM424 97v330h-165v-109q0 -149 -58 -221h223z" />
<glyph unicode="&#x435;" horiz-adv-x="576" d="M406 166h125v-19q0 -48 -17 -80t-52 -48t-75.5 -22t-100.5 -6q-135 0 -188 59.5t-53 210.5q0 150 54 210.5t188 60.5q133 0 188.5 -60t55.5 -198v-35h-358q0 -95 23 -126t91 -31q64 0 91.5 15t27.5 58v11zM406 317q0 70 -26 97t-92 27q-65 0 -90 -27t-25 -97h233z" />
<glyph unicode="&#x436;" horiz-adv-x="817" d="M346 524h125v-204h31l133 204h139l-167 -246l198 -278h-145l-158 234h-31v-234h-125v234h-31l-158 -234h-145l198 278l-167 246h139l133 -204h31v204z" />
<glyph unicode="&#x437;" horiz-adv-x="550" d="M213 234v86h51q67 0 89 14t22 47q0 34 -22 47t-81 13q-30 0 -45 -1.5t-30.5 -7.5t-21.5 -19.5t-6 -36.5h-124q8 88 58.5 122t171.5 34q109 0 166 -31t57 -106q0 -48 -21.5 -76.5t-73.5 -40.5q102 -24 102 -126q0 -93 -56.5 -127t-176.5 -34q-132 0 -186 33.5t-54 112.5 v29h123q0 -52 22 -68t92 -16q63 0 88 14t25 57t-26 62t-92 19h-51z" />
<glyph unicode="&#x438;" horiz-adv-x="605" d="M65 524h119v-305q0 -49 -16 -115h1l218 420h153v-524h-119v305q0 49 16 115h-1l-218 -420h-153v524z" />
<glyph unicode="&#x439;" horiz-adv-x="605" d="M65 524h119v-305q0 -49 -16 -115h1l218 420h153v-524h-119v305q0 49 16 115h-1l-218 -420h-153v524zM298 562q-61 0 -93.5 23.5t-32.5 84.5h69q0 -26 12 -36t46 -10q37 0 49 9.5t12 36.5h69q0 -61 -34.5 -84.5t-96.5 -23.5z" />
<glyph unicode="&#x43a;" horiz-adv-x="558" d="M190 524v-204h30l147 204h143l-187 -246l223 -278h-151l-175 234h-30v-234h-125v524h125z" />
<glyph unicode="&#x43b;" horiz-adv-x="615" d="M113 524h437v-524h-125v427h-187v-265q0 -76 -35 -123.5t-105 -47.5q-54 0 -77 5v94q18 -3 32 -3q35 0 47.5 20.5t12.5 64.5v352z" />
<glyph unicode="&#x43c;" horiz-adv-x="775" d="M65 524h189q122 -358 133 -438h1q2 16 13 59t43 147t76 232h190v-524h-119v320q0 63 11 140h-1l-153 -460h-122l-153 460h-1q12 -82 12 -140v-320h-119v524z" />
<glyph unicode="&#x43d;" horiz-adv-x="601" d="M190 524v-199h221v199h125v-524h-125v228h-221v-228h-125v524h125z" />
<glyph unicode="&#x43e;" horiz-adv-x="586" d="M292 532q142 0 195.5 -58.5t53.5 -210.5t-53.5 -212t-195.5 -60q-141 0 -194 60t-53 212q0 153 52.5 211t194.5 58zM292 435q-69 0 -94 -33.5t-25 -138.5q0 -107 25 -141t94 -34q70 0 95.5 34t25.5 141q0 105 -25.5 138.5t-95.5 33.5z" />
<glyph unicode="&#x43f;" horiz-adv-x="601" d="M65 524h471v-524h-125v427h-221v-427h-125v524z" />
<glyph unicode="&#x440;" horiz-adv-x="600" d="M309 435q-69 0 -94 -33.5t-25 -138.5q0 -107 25 -141t94 -34q70 0 95.5 34t25.5 141q0 105 -25.5 138.5t-95.5 33.5zM190 524v-74h1q31 47 65 64.5t90 17.5q65 0 107 -17.5t64 -54.5t30 -81.5t8 -112.5q0 -52 -3 -87t-14.5 -73.5t-32.5 -61.5t-59 -38t-92 -15 q-59 0 -98.5 16t-64.5 65h-1v-297h-125v749h125z" />
<glyph unicode="&#x441;" horiz-adv-x="558" d="M400 198h122q0 -114 -52 -160.5t-184 -46.5q-136 0 -188.5 59t-52.5 211q0 153 52.5 212t188.5 59q106 0 168.5 -38t62.5 -135v-19h-122v7q0 54 -23 71t-86 17q-66 0 -89.5 -36.5t-23.5 -137.5q0 -100 23.5 -136.5t89.5 -36.5q71 0 92.5 23t21.5 87z" />
<glyph unicode="&#x442;" horiz-adv-x="485" d="M12 524h461v-97h-168v-427h-125v427h-168v97z" />
<glyph unicode="&#x443;" horiz-adv-x="508" d="M12 524h133l131 -445l102 445h130l-140 -556q-10 -41 -18.5 -67t-24 -54.5t-35 -44t-50.5 -26t-72 -10.5q-49 0 -52 4v90q13 -3 29 -3q47 0 69 35.5t36 107.5h-66z" />
<glyph unicode="&#x444;" horiz-adv-x="875" d="M272 435q-65 0 -83.5 -31.5t-18.5 -140.5q0 -107 18 -141t86 -34q67 0 84 33.5t17 141.5q0 110 -18.5 141t-84.5 31zM375 749h125v-290q36 73 133 73q106 0 151.5 -54.5t45.5 -203.5q0 -150 -43 -216.5t-146 -66.5q-53 0 -84.5 16.5t-56.5 64.5v-295h-125v295 q-25 -48 -56.5 -64.5t-84.5 -16.5q-103 0 -146 67.5t-43 216.5q0 103 22 159.5t63 77t112 20.5q96 0 133 -73v290zM603 435q-65 0 -84 -31t-19 -140q0 -108 17 -142t84 -34q68 0 86 34.5t18 141.5q0 110 -18 140.5t-84 30.5z" />
<glyph unicode="&#x445;" horiz-adv-x="533" d="M33 524h142l92 -168l91 168h145l-152 -248l170 -276h-148l-106 193l-104 -193h-151l173 276z" />
<glyph unicode="&#x446;" horiz-adv-x="624" d="M190 97h222v427h125v-427h67v-239h-115v142h-424v524h125v-427z" />
<glyph unicode="&#x447;" horiz-adv-x="584" d="M55 524h125v-154q0 -44 19 -59t82 -15q60 0 86.5 21t26.5 66v141h125v-524h-125v273h-1q-23 -68 -154 -68q-99 0 -141.5 37t-42.5 123v159z" />
<glyph unicode="&#x448;" horiz-adv-x="877" d="M190 524v-427h186v427h125v-427h186v427h125v-524h-747v524h125z" />
<glyph unicode="&#x449;" horiz-adv-x="900" d="M190 524v-427h186v427h125v-427h186v427h125v-427h68v-239h-115v142h-700v524h125z" />
<glyph unicode="&#x44a;" horiz-adv-x="637" d="M5 524h258v-199h175q72 0 113 -40.5t41 -121.5t-41 -122t-113 -41h-300v427h-133v97zM263 234v-143h125q40 0 58 15.5t18 56.5q0 42 -17.5 56.5t-58.5 14.5h-125z" />
<glyph unicode="&#x44b;" horiz-adv-x="787" d="M190 524v-199h175q72 0 113 -40.5t41 -121.5t-41 -122t-113 -41h-300v524h125zM190 234v-143h125q40 0 58 15.5t18 56.5q0 42 -17.5 56.5t-58.5 14.5h-125zM722 524v-524h-125v524h125z" />
<glyph unicode="&#x44c;" horiz-adv-x="564" d="M190 524v-199h175q72 0 113 -40.5t41 -121.5t-41 -122t-113 -41h-300v524h125zM190 234v-143h125q40 0 58 15.5t18 56.5q0 42 -17.5 56.5t-58.5 14.5h-125z" />
<glyph unicode="&#x44d;" horiz-adv-x="562" d="M169 166q0 -38 22 -61t83 -23q66 0 90.5 32t24.5 120h-193v86h193q0 70 -22 95.5t-85 25.5q-56 0 -82.5 -15.5t-30.5 -58.5h-122q0 91 60.5 128t173.5 37q128 0 182 -57.5t54 -201.5q0 -165 -47 -223.5t-191 -58.5q-127 0 -179.5 43.5t-52.5 131.5h122z" />
<glyph unicode="&#x44e;" horiz-adv-x="815" d="M190 524v-199h84q5 50 17.5 85t39.5 64t74 43.5t116 14.5q142 0 195.5 -58.5t53.5 -210.5t-53.5 -212t-195.5 -60q-135 0 -186.5 55.5t-60.5 181.5h-84v-228h-125v524h125zM521 435q-69 0 -94 -33.5t-25 -138.5q0 -107 25 -141t94 -34q70 0 95.5 34t25.5 141 q0 105 -25.5 138.5t-95.5 33.5z" />
<glyph unicode="&#x44f;" horiz-adv-x="565" d="M375 200h-96l-118 -200h-133l131 216q-114 32 -114 149q0 159 148 159h307v-524h-125v200zM375 291v142h-132q-39 0 -54.5 -15t-15.5 -56t19.5 -56t60.5 -15h122z" />
<glyph unicode="&#x451;" horiz-adv-x="576" d="M406 166h125v-19q0 -48 -17 -80t-52 -48t-75.5 -22t-100.5 -6q-135 0 -188 59.5t-53 210.5q0 150 54 210.5t188 60.5q133 0 188.5 -60t55.5 -198v-35h-358q0 -95 23 -126t91 -31q64 0 91.5 15t27.5 58v11zM406 317q0 70 -26 97t-92 27q-65 0 -90 -27t-25 -97h233z M223 696v-89h-99v89h99zM427 696v-89h-99v89h99z" />
<glyph unicode="&#x452;" horiz-adv-x="619" d="M82 749h125v-65h208v-86h-208v-155h1q24 52 61 70.5t97 18.5q102 0 145 -40t43 -138v-167q0 -154 -21.5 -230.5t-73.5 -107t-156 -30.5v97q49 0 74.5 21t38.5 79.5t13 170.5v139q0 63 -18.5 86t-78.5 23q-125 0 -125 -125v-310h-125v598h-70v86h70v65z" />
<glyph unicode="&#x453;" horiz-adv-x="424" d="M65 524h347v-97h-222v-427h-125v524zM266 705h109l-147 -120h-51z" />
<glyph unicode="&#x454;" horiz-adv-x="562" d="M394 166h123q0 -88 -54.5 -131.5t-181.5 -43.5q-75 0 -119.5 12.5t-71.5 46.5t-36 85.5t-9 138.5q0 144 53.5 201t182.5 57q113 0 172 -36t64 -129h-124q-4 44 -29.5 59t-82.5 15q-66 0 -89.5 -27t-23.5 -94h198v-86h-198q0 -86 21.5 -119t91.5 -33t91.5 22t21.5 62z" />
<glyph unicode="&#x455;" horiz-adv-x="555" d="M498 379h-120q0 38 -22.5 52t-87.5 14q-66 0 -84.5 -13.5t-18.5 -56.5q0 -33 24.5 -44t117.5 -18q100 -7 155 -39.5t55 -109.5q0 -54 -16.5 -89.5t-50 -53t-72 -24t-94.5 -6.5q-36 0 -57 1t-54.5 5t-53.5 13t-40.5 24.5t-30.5 41.5t-10 60v28h127q0 -50 20 -68t71 -18h38 q54 0 77.5 17t23.5 56q0 35 -28 49.5t-108 18.5q-116 7 -168.5 40t-52.5 118q0 92 56.5 123.5t172.5 31.5q30 0 50.5 -1t51 -4.5t51 -12.5t40.5 -22.5t30 -36.5t10 -53q0 -9 -2 -23z" />
<glyph unicode="&#x456;" horiz-adv-x="255" d="M190 749v-109h-125v109h125zM190 524v-524h-125v524h125z" />
<glyph unicode="&#x457;" horiz-adv-x="255" d="M190 524v-524h-125v524h125zM76 696v-89h-99v89h99zM279 696v-89h-99v89h99z" />
<glyph unicode="&#x458;" horiz-adv-x="255" d="M190 749v-109h-125v109h125zM65 524h125v-548q0 -77 -31.5 -117t-108.5 -40q-27 0 -47 4v87q36 0 49 19t13 58v537z" />
<glyph unicode="&#x459;" horiz-adv-x="924" d="M113 524h437v-199h175q72 0 113 -40.5t41 -121.5t-41 -122t-113 -41h-300v427h-187v-265q0 -76 -35 -123.5t-105 -47.5q-54 0 -77 5v94q18 -3 32 -3q35 0 47.5 20.5t12.5 64.5v352zM550 234v-143h125q40 0 58 15.5t18 56.5q0 42 -17.5 56.5t-58.5 14.5h-125z" />
<glyph unicode="&#x45a;" horiz-adv-x="910" d="M190 524v-199h221v199h125v-199h175q72 0 113 -40.5t41 -121.5t-41 -122t-113 -41h-300v234h-221v-234h-125v524h125zM536 234v-143h125q40 0 58 15.5t18 56.5q0 42 -17.5 56.5t-58.5 14.5h-125z" />
<glyph unicode="&#x45b;" horiz-adv-x="619" d="M82 749h125v-65h208v-86h-208v-155h1q24 52 61 70.5t97 18.5q102 0 145 -40t43 -138v-354h-125v326q0 63 -18.5 86t-78.5 23q-125 0 -125 -125v-310h-125v598h-70v86h70v65z" />
<glyph unicode="&#x45c;" horiz-adv-x="558" d="M190 524v-204h30l147 204h143l-187 -246l223 -278h-151l-175 234h-30v-234h-125v524h125zM315 705h109l-147 -120h-51z" />
<glyph unicode="&#x45e;" horiz-adv-x="508" d="M12 524h133l131 -445l102 445h130l-140 -556q-10 -41 -18.5 -67t-24 -54.5t-35 -44t-50.5 -26t-72 -10.5q-49 0 -52 4v90q13 -3 29 -3q47 0 69 35.5t36 107.5h-66zM276 562q-61 0 -93.5 23.5t-32.5 84.5h69q0 -26 12 -36t46 -10q37 0 49 9.5t12 36.5h69 q0 -61 -34.5 -84.5t-96.5 -23.5z" />
<glyph unicode="&#x45f;" horiz-adv-x="601" d="M190 524v-427h221v427h125v-524h-178v-142h-115v142h-178v524h125z" />
<glyph unicode="&#x490;" horiz-adv-x="568" d="M65 749h357v123h134v-245h-347v-627h-144v749z" />
<glyph unicode="&#x491;" horiz-adv-x="424" d="M65 524h232v83h115v-180h-222v-427h-125v524z" />
<glyph unicode="&#x2013;" d="M64 338h576v-89h-576v89z" />
<glyph unicode="&#x2014;" horiz-adv-x="771" d="M0 338h771v-89h-771v89z" />
<glyph unicode="&#x2018;" horiz-adv-x="235" d="M50 486v131q0 74 23.5 102t98.5 28q9 0 13 -2v-59q-32 0 -45.5 -10t-13.5 -40v-16h49v-134h-125z" />
<glyph unicode="&#x2019;" horiz-adv-x="235" d="M185 750v-131q0 -74 -23.5 -102t-98.5 -28q-9 0 -13 2v59q32 0 45.5 10t13.5 40v16h-49v134h125z" />
<glyph unicode="&#x201a;" horiz-adv-x="251" d="M186 134v-131q0 -74 -23.5 -102t-98.5 -28q-9 0 -13 2v59q32 0 45.5 10t13.5 40v16h-49v134h125z" />
<glyph unicode="&#x201c;" horiz-adv-x="426" d="M241 486v131q0 74 23.5 102t98.5 28q9 0 13 -2v-59q-32 0 -45.5 -10t-13.5 -40v-16h49v-134h-125zM50 486v131q0 74 23.5 102t98.5 28q9 0 13 -2v-59q-32 0 -45.5 -10t-13.5 -40v-16h49v-134h-125z" />
<glyph unicode="&#x201d;" horiz-adv-x="426" d="M185 750v-131q0 -74 -23.5 -102t-98.5 -28q-9 0 -13 2v59q32 0 45.5 10t13.5 40v16h-49v134h125zM376 750v-131q0 -74 -23.5 -102t-98.5 -28q-9 0 -13 2v59q32 0 45.5 10t13.5 40v16h-49v134h125z" />
<glyph unicode="&#x201e;" horiz-adv-x="423" d="M186 134v-131q0 -74 -23.5 -102t-98.5 -28q-9 0 -13 2v59q32 0 45.5 10t13.5 40v16h-49v134h125zM377 134v-131q0 -74 -23.5 -102t-98.5 -28q-9 0 -13 2v59q32 0 45.5 10t13.5 40v16h-49v134h125z" />
<glyph unicode="&#x2020;" horiz-adv-x="675" d="M275 748h125v-210h240v-107h-240v-618h-125v618h-240v107h240v210z" />
<glyph unicode="&#x2022;" horiz-adv-x="674" d="M223 400q0 47 28.5 77.5t79.5 30.5t80.5 -30.5t29.5 -77.5t-29.5 -78.5t-80.5 -31.5q-50 0 -79 31.5t-29 78.5z" />
<glyph unicode="&#x2026;" horiz-adv-x="712" d="M181 134v-134h-125v134h125zM419 134v-134h-125v134h125zM657 134v-134h-125v134h125z" />
<glyph unicode="&#x2030;" horiz-adv-x="1296" d="M195 753q48 0 75 -4.5t48.5 -20t30 -46t8.5 -80.5v-76q0 -95 -34.5 -123t-127.5 -28q-89 0 -124.5 30.5t-35.5 125.5v71q0 94 35 122.5t125 28.5zM195 690q-55 0 -69.5 -12.5t-14.5 -57.5v-112q0 -45 14.5 -57.5t69.5 -12.5q52 0 69 13t17 57v111q0 45 -14.5 58t-71.5 13 zM737 753l-475 -753h-77l474 753h78zM726 378q48 0 75 -4.5t48.5 -20t30 -46t8.5 -80.5v-76q0 -95 -34.5 -123t-127.5 -28q-89 0 -124.5 30.5t-35.5 125.5v71q0 94 35 122.5t125 28.5zM726 315q-55 0 -69.5 -12.5t-14.5 -57.5v-112q0 -45 14.5 -57.5t69.5 -12.5q52 0 69 13 t17 57v111q0 45 -14.5 58t-71.5 13zM1098 378q48 0 75 -4.5t48.5 -20t30 -46t8.5 -80.5v-76q0 -95 -34.5 -123t-127.5 -28q-89 0 -124.5 30.5t-35.5 125.5v71q0 94 35 122.5t125 28.5zM1098 315q-55 0 -69.5 -12.5t-14.5 -57.5v-112q0 -45 14.5 -57.5t69.5 -12.5q52 0 69 13 t17 57v111q0 45 -14.5 58t-71.5 13z" />
<glyph unicode="&#x2039;" horiz-adv-x="323" d="M182 542l84 -47l-105 -216l112 -210l-79 -53l-143 263z" />
<glyph unicode="&#x203a;" horiz-adv-x="323" d="M142 542l131 -263l-143 -263l-79 53l112 210l-105 216z" />
<glyph unicode="&#x2116;" horiz-adv-x="1191" d="M986 597q47 0 73.5 -5t48.5 -20.5t30.5 -46t8.5 -81.5v-70q0 -96 -35.5 -126t-125.5 -30q-89 0 -125 31t-36 125v70q0 95 35.5 124t125.5 29zM986 281q50 0 67.5 13t17.5 57v110q0 46 -14.5 59.5t-70.5 13.5t-70.5 -13.5t-14.5 -59.5v-111q0 -45 14 -57t71 -12zM845 167 h283v-63h-283v63zM65 749h242l316 -627h1v627h144v-749h-242l-316 626h-1v-626h-144v749z" />
<glyph unicode="&#x2122;" horiz-adv-x="756" d="M124 425v269h-95v55h252v-55h-95v-269h-62zM698 749v-324h-62v272l-103 -272h-56l-100 271v-271h-62v324h102l87 -241h2l86 241h106z" />
<glyph unicode="&#x2219;" d="M415 421v-134h-125v134h125z" />
<glyph unicode="&#xe000;" horiz-adv-x="525" d="M0 525h525v-525h-525v525z" />
</font>
</defs>
</svg>
