<?xml version="1.0" standalone="no"?>
<!DOCTYPE svg PUBLIC "-//W3C//DTD SVG 1.1//EN" "http://www.w3.org/Graphics/SVG/1.1/DTD/svg11.dtd" >
<svg xmlns="http://www.w3.org/2000/svg">
<metadata>
This is a custom SVG webfont generated by Font Squirrel.
Copyright   : Copyright C 1995 Type Market Ltd Moscow 119136 Box 20 phone0951427712 Created by AKustov
Designer    : Alexey Kustov
Foundry     : ParaType Inc
</metadata>
<defs>
<font id="EuropeRegular" horiz-adv-x="1150" >
<font-face units-per-em="2048" ascent="1638" descent="-410" />
<missing-glyph horiz-adv-x="487" />
<glyph unicode=" "  horiz-adv-x="487" />
<glyph unicode="&#x09;" horiz-adv-x="487" />
<glyph unicode="&#xa0;" horiz-adv-x="487" />
<glyph unicode="!" horiz-adv-x="548" d="M164 1534h198l-32 -1112h-133zM172 0v207h182v-207h-182z" />
<glyph unicode="&#x22;" horiz-adv-x="757" d="M113 1536h192l-31 -614h-133zM453 1536h192l-29 -614h-137z" />
<glyph unicode="#" horiz-adv-x="1390" d="M141 532l15 93h284l37 258h-287l15 94h284l62 420h96l-59 -420h270l57 420h97l-60 -420h295l-14 -94h-293l-37 -258h293l-12 -93h-293l-66 -454h-94l64 454h-271l-61 -454h-101l66 454h-287zM537 625h270l37 258h-273z" />
<glyph unicode="$" horiz-adv-x="1406" d="M59 403v56h170q0 -82 5.5 -135.5t23.5 -92t39.5 -60t67 -34t93.5 -15.5t128 -3h57v586q-90 0 -148.5 3t-132 15t-118.5 37.5t-88 67.5t-62.5 110t-19.5 160q0 137 33.5 226t106.5 134t160 60.5t222 15.5h47v141h129v-141q86 0 140.5 -2t118 -12.5t101 -27.5t76.5 -48 t59.5 -77t33 -111.5t12.5 -151.5h-170q0 168 -49.5 228.5t-206.5 60.5h-115v-541q88 0 141.5 -2t122 -10.5t108.5 -24.5t83 -47t65.5 -75t38 -109.5t15.5 -151.5q0 -268 -121 -360t-404 -92h-49v-152h-129v152q-80 0 -126 1t-111.5 6t-101.5 17t-82 31.5t-70.5 51.5t-49 75 t-34 103t-9.5 138zM244 1141q0 -96 18.5 -154.5t63.5 -87.5t98 -38t145 -9h74v541h-76q-66 0 -104.5 -3.5t-86.5 -16.5t-72.5 -38.5t-42 -74.5t-17.5 -119zM772 119h59q176 0 260.5 61.5t84.5 231.5q0 102 -19.5 162.5t-73 88t-108.5 35t-166 7.5h-37v-586z" />
<glyph unicode="%" horiz-adv-x="1867" d="M61 1049v198q0 172 64.5 230.5t269.5 58.5t268.5 -58.5t63.5 -228.5v-198q0 -170 -63.5 -228.5t-268.5 -58.5q-203 0 -268.5 58.5t-65.5 226.5zM162 1010q0 -106 52 -134t181 -28q68 0 100.5 3t68.5 19.5t49.5 52t13.5 97.5v254q0 117 -52.5 147.5t-179.5 30.5 q-125 0 -179 -31.5t-54 -146.5v-264zM350 0l1034 1536h111l-1040 -1536h-105zM1118 285v198q0 172 64.5 230.5t269.5 58.5t268.5 -58.5t63.5 -228.5v-198q0 -170 -63.5 -228.5t-268.5 -58.5q-203 0 -268.5 58.5t-65.5 226.5zM1219 246q0 -106 52 -134t181 -28q68 0 100.5 3 t68.5 19.5t49 52.5t13 97v254q0 117 -52 147.5t-179 30.5q-125 0 -179 -31.5t-54 -146.5v-264z" />
<glyph unicode="&#x26;" horiz-adv-x="1609" d="M131 487q0 117 23.5 195t72.5 117t95.5 55t119.5 27q-84 72 -109.5 124t-25.5 162q0 92 22.5 158t58.5 102.5t98.5 57t124 27t151.5 6.5q121 0 195.5 -12.5t135 -50.5t87 -113.5t26.5 -196.5v-84h-170v55q0 63 -4 104.5t-20.5 70t-32.5 44t-57 23.5t-77 9t-108 1 q-66 0 -101.5 -4t-77.5 -19.5t-61.5 -53.5t-19.5 -99q0 -84 27.5 -132t101.5 -110l576 -483q4 45 4 209h170v-133q0 -104 -19 -205l269 -219l-95 -119l-225 186q-33 -68 -87 -110.5t-132 -60t-134 -21.5t-151 -4q-156 0 -229.5 4t-172.5 28.5t-141 76t-75 147.5t-33 241z M301 489q0 -223 59.5 -289.5t278.5 -66.5h149q322 0 363 158l-600 495q-160 -35 -205 -87t-45 -210z" />
<glyph unicode="'" horiz-adv-x="419" d="M113 1534h194l-28 -612h-140z" />
<glyph unicode="(" horiz-adv-x="636" d="M127 258v719q0 88 2 138t9 120t23.5 108.5t45.5 84t70.5 68t105 37.5t145.5 15v-143q-66 0 -109.5 -19.5t-67 -46t-36 -80t-15.5 -97.5t-3 -120v-847q0 -53 2 -88t13.5 -78t32 -67.5t58 -42t93.5 -17.5h32v-144h-47q-96 0 -162.5 28t-103.5 69t-57.5 111.5t-25.5 134 t-5 157.5z" />
<glyph unicode=")" horiz-adv-x="636" d="M127 -98h33q68 0 109.5 22.5t60 69.5t23.5 89t5 110v851q0 76 -3 120t-15 96.5t-35.5 80t-67.5 46t-110 18.5v143q82 0 145.5 -15t105.5 -37.5t70.5 -68t45 -84t23.5 -108.5t9 -120t2 -138v-719q0 -94 -5 -157.5t-25.5 -134t-57.5 -111.5t-103.5 -69t-162.5 -28h-47v144z " />
<glyph unicode="*" horiz-adv-x="1406" d="M297 1210l37 109l315 -115v332h113v-332l313 117l37 -117l-313 -112l190 -271l-92 -65l-190 278l-205 -278l-90 65l196 271z" />
<glyph unicode="+" d="M53 733v96h471v445h99v-445h475v-96h-475v-444h-99v444h-471z" />
<glyph unicode="," horiz-adv-x="464" d="M123 -139q57 2 78.5 26.5t21.5 81.5v31h-80v207h183v-225q0 -106 -32 -158.5t-126 -52.5q-25 0 -45 4v86z" />
<glyph unicode="-" horiz-adv-x="733" d="M82 532v136h569v-136h-569z" />
<glyph unicode="." horiz-adv-x="456" d="M137 0v207h182v-207h-182z" />
<glyph unicode="/" horiz-adv-x="1486" d="M16 -225l1182 1759h129l-1186 -1759h-125z" />
<glyph unicode="0" horiz-adv-x="1406" d="M53 772q0 315 68.5 485t203 231.5t377.5 61.5q182 0 298 -32.5t199 -118.5t118 -237.5t35 -389.5q0 -315 -69 -487t-204 -236.5t-376.5 -64.5t-377 64.5t-204 236.5t-68.5 487zM223 774q0 -203 19.5 -320.5t75 -193.5t144.5 -101.5t240 -25.5q201 0 300.5 54.5 t139.5 186.5t40 398q0 203 -18.5 319.5t-75 189.5t-144.5 96.5t-242 23.5q-102 0 -172.5 -10.5t-127 -38t-88 -69.5t-54 -115.5t-30 -166t-7.5 -227.5z" />
<glyph unicode="1" horiz-adv-x="1406" d="M240 1071l424 463h241v-1534h-164v1403l-393 -432z" />
<glyph unicode="2" horiz-adv-x="1411" d="M125 0v287q0 104 27.5 180t68.5 120t118 72.5t147.5 40t183.5 21.5q176 16 257 50t107.5 96.5t26.5 195.5q0 182 -84 260t-289 78q-236 0 -317.5 -77t-81.5 -249v-63h-164q0 309 120 423.5t447 114.5q283 0 411 -111.5t128 -377.5q0 -145 -24.5 -233.5t-92 -141.5 t-155 -75.5t-244.5 -39.5q-272 -29 -349 -84t-77 -217v-120h942v-150h-1106z" />
<glyph unicode="3" horiz-adv-x="1411" d="M123 412v90h164v-90q0 -162 78.5 -220.5t316.5 -58.5q137 0 215 12.5t121 51.5t55 92t12 153q0 152 -70.5 211.5t-240.5 59.5h-213v149h197q195 0 247 48t52 233q0 129 -82 193.5t-293 64.5q-217 0 -294 -75t-77 -261h-164q0 268 120 376.5t413 108.5q289 0 418 -101 t129 -306q0 -182 -57.5 -258t-192.5 -97q162 -20 220 -102t58 -244q0 -270 -118.5 -364t-452.5 -94q-109 0 -186.5 9t-152.5 35.5t-121 72.5t-73.5 124t-27.5 187z" />
<glyph unicode="4" horiz-adv-x="1411" d="M61 350v207l770 977h259v-1034h231v-150h-231v-350h-164v350h-865zM205 500h721v921z" />
<glyph unicode="5" horiz-adv-x="1406" d="M141 440h170q0 -104 11.5 -157.5t55.5 -91t118.5 -48t214.5 -10.5q209 0 295 67.5t86 266.5q0 256 -68 345t-283 89q-162 0 -243.5 -14.5t-112.5 -42t-47 -86.5h-164v774h1032v-150h-868v-458q43 57 118.5 86.5t133 35t149.5 5.5q279 0 401 -108.5t122 -375.5 q0 -174 -22.5 -279.5t-85 -177t-168 -99t-275.5 -27.5q-127 0 -202 6t-155 31.5t-119.5 73.5t-66.5 133t-27 212z" />
<glyph unicode="6" horiz-adv-x="1411" d="M117 569v222q0 164 8 274.5t34.5 200.5t65.5 141t110 85t159 46t219 12q109 0 178.5 -5t145 -25.5t116.5 -59.5t68.5 -107.5t27.5 -166.5v-47h-170v37q0 143 -71.5 184t-294.5 41q-131 0 -208 -16.5t-129 -66.5t-70.5 -134t-18.5 -226v-167q25 53 58.5 81.5t122.5 47 t245 18.5q285 0 410.5 -104.5t125.5 -370.5q0 -272 -130 -375.5t-435 -103.5q-115 0 -189.5 7t-144 29.5t-109.5 62.5t-70 105.5t-42 157.5t-12 223zM287 463q0 -197 85 -263.5t312 -66.5q221 0 308 69.5t87 258.5q0 193 -84 260t-311 67q-229 0 -313 -67.5t-84 -257.5z" />
<glyph unicode="7" horiz-adv-x="1411" d="M111 1384v150h1118v-217l-744 -1317h-204l809 1384h-979z" />
<glyph unicode="8" horiz-adv-x="1411" d="M119 449q0 152 54 235.5t210 114.5q-150 31 -196 109.5t-46 228.5q0 231 122 321t433 90q309 0 428 -89t119 -320q0 -147 -48 -228.5t-198 -111.5q147 -27 208 -116t61 -243q0 -178 -44 -271t-168 -139t-364 -46q-236 0 -358.5 47t-167.5 142.5t-45 275.5zM289 424 q0 -172 78.5 -231.5t324.5 -59.5t325 59.5t79 237.5q0 168 -81 228.5t-325 60.5t-322.5 -61.5t-78.5 -233.5zM311 1139q0 -170 67.5 -222.5t311.5 -52.5q172 0 254 29t105.5 81t23.5 163q0 98 -27.5 151t-111.5 82t-244 29q-229 0 -304 -56.5t-75 -203.5z" />
<glyph unicode="9" horiz-adv-x="1411" d="M127 346v47h170v-41q0 -139 72.5 -179t294.5 -40q133 0 208.5 16.5t128 65.5t71 132t18.5 224v170q-25 -55 -59 -83.5t-123 -47t-244 -18.5q-285 0 -411 104.5t-126 370.5q0 272 130 376.5t435 104.5q160 0 257.5 -18.5t173 -73.5t106.5 -157.5t31 -270.5v-287 q0 -166 -8.5 -275.5t-34 -198.5t-65.5 -140t-109.5 -85t-158.5 -46t-220 -12q-109 0 -177.5 5t-144.5 25.5t-118 58.5t-69.5 106.5t-27.5 166.5zM297 1071q0 -193 84 -261.5t311.5 -68.5t312.5 68t85 260q0 197 -85 263.5t-313 66.5q-221 0 -308 -70t-87 -258z" />
<glyph unicode=":" horiz-adv-x="456" d="M137 0v207h182v-207h-182zM137 862v207h182v-207h-182z" />
<glyph unicode=";" horiz-adv-x="458" d="M117 -139q57 2 78.5 26.5t21.5 81.5v31h-80v207h182v-225q0 -106 -31.5 -158.5t-125.5 -52.5q-25 0 -45 4v86zM137 864v207h182v-207h-182z" />
<glyph unicode="&#x37e;" horiz-adv-x="458" d="M117 -139q57 2 78.5 26.5t21.5 81.5v31h-80v207h182v-225q0 -106 -31.5 -158.5t-125.5 -52.5q-25 0 -45 4v86zM137 864v207h182v-207h-182z" />
<glyph unicode="&#x3c;" horiz-adv-x="1148" d="M74 692v156l997 471v-180l-805 -369l805 -371v-178z" />
<glyph unicode="=" d="M55 569v97h1047v-97h-1047zM55 899v96h1047v-96h-1047z" />
<glyph unicode="&#x3e;" d="M78 221v178l805 371l-805 371v178l997 -473v-154z" />
<glyph unicode="?" horiz-adv-x="1196" d="M125 1057q0 152 17.5 238.5t68.5 146t139 81t236 21.5q133 0 216 -14t151.5 -56t99 -126t30.5 -215q0 -117 -24.5 -200t-73.5 -133t-96 -77t-119 -49q-96 -31 -125 -73t-29 -122v-37h-182q0 170 50.5 243t200 124t192.5 106.5t43 198.5q0 164 -71 222.5t-257 58.5 q-137 0 -201.5 -23.5t-83 -69t-18.5 -143.5v-102h-164zM434 0v207h182v-207h-182z" />
<glyph unicode="@" horiz-adv-x="1447" d="M96 715q0 145 10.5 244.5t39 173t68.5 114.5t113.5 66.5t157.5 33t215 7.5q219 0 341 -20.5t196 -87t96.5 -168t22.5 -285.5q0 -209 -28 -318.5t-66.5 -138.5t-108.5 -29t-122 31t-64 94q-53 -125 -277 -125q-96 0 -158.5 27.5t-90 86t-37 120t-9.5 159.5q0 203 61.5 295 t250.5 92q180 0 237 -100v100h113v-528q0 -47 4 -74.5t24.5 -54.5t61.5 -27t61.5 18.5t37 105.5t16.5 259q0 125 -3.5 191.5t-27 128t-51 85t-102 43t-152.5 21.5t-228 2q-129 0 -203.5 -4t-138 -28.5t-90 -53t-47 -99.5t-23.5 -146.5t-3 -212.5q0 -139 5 -224.5t26.5 -159 t52 -108.5t94 -60.5t140.5 -32.5t202 -7q242 0 326.5 16.5t95.5 59.5l79 -58q-29 -51 -71.5 -73.5t-128.5 -31.5t-266 -9q-92 0 -147.5 2t-125 8t-107.5 20.5t-85 38t-72 59t-50.5 86t-37.5 120t-19.5 156.5t-7.5 200zM516 700q0 -190 36 -243.5t150 -53.5q156 0 199 53.5 t43 205.5v100q0 125 -46 177t-169 52q-135 0 -174 -51.5t-39 -239.5z" />
<glyph unicode="A" horiz-adv-x="1474" d="M53 0l559 1534h248l572 -1534h-183l-114 315h-775l-122 -315h-185zM401 465h678l-340 942z" />
<glyph unicode="B" horiz-adv-x="1415" d="M143 0v1534h740q201 0 294 -87t93 -290q0 -150 -35 -229.5t-156 -122.5q143 -39 189.5 -118t46.5 -243q0 -219 -89 -331.5t-300 -112.5h-783zM313 150h473q209 0 284 51t75 231t-55.5 227.5t-231.5 47.5h-545v-557zM313 856h488q172 0 235.5 60.5t63.5 224.5 q0 141 -49.5 192t-186.5 51h-551v-528z" />
<glyph unicode="C" horiz-adv-x="1374" d="M102 762q0 326 58.5 494.5t184.5 231t370 62.5q182 0 295.5 -27.5t175 -95t85 -152.5t32.5 -226h-166q-12 113 -27.5 170t-60.5 104t-122 62.5t-212 15.5q-182 0 -272.5 -51.5t-130.5 -185.5t-40 -402q0 -164 13.5 -269.5t41 -179t82 -111.5t125 -53.5t181.5 -15.5 q270 0 356 75t86 304h166q0 -303 -126 -415.5t-482 -112.5q-184 0 -293 29.5t-185.5 115.5t-105.5 235.5t-29 397.5z" />
<glyph unicode="D" horiz-adv-x="1499" d="M143 0v1534h709q145 0 248.5 -40t163 -103.5t93.5 -169t44 -208t10 -247.5q0 -141 -9 -242.5t-41 -207t-86 -170t-149.5 -105.5t-228.5 -41h-754zM313 150h500q231 0 329.5 132t98.5 484q0 240 -47 376t-138 189t-249 53h-494v-1234z" />
<glyph unicode="E" horiz-adv-x="1220" d="M143 0v1534h987v-150h-817v-528h781v-149h-781v-557h813v-150h-983z" />
<glyph unicode="F" horiz-adv-x="1116" d="M143 0v1534h936v-150h-766v-528h748v-149h-748v-707h-170z" />
<glyph unicode="G" horiz-adv-x="1423" d="M102 762q0 455 130 621.5t501 166.5q160 0 269.5 -18.5t176 -51t105.5 -95t54.5 -128t23.5 -174.5h-170q-10 135 -44 197.5t-127 91.5t-288 29q-143 0 -226 -24.5t-139.5 -97.5t-76 -193.5t-19.5 -323.5t19.5 -321.5t76 -189.5t139.5 -94.5t226 -23.5q274 0 366.5 98.5 t92.5 372.5v53h-492v150h662v-178q0 -266 -57.5 -402.5t-187.5 -189.5t-382 -53q-195 0 -314.5 35.5t-192 130t-99.5 237t-27 375.5z" />
<glyph unicode="H" horiz-adv-x="1523" d="M143 0v1534h170v-678h897v678h170v-1534h-170v707h-897v-707h-170z" />
<glyph unicode="I" horiz-adv-x="456" d="M143 0v1534h170v-1534h-170z" />
<glyph unicode="J" horiz-adv-x="1148" d="M59 422v137h170v-113q0 -184 60.5 -248.5t245.5 -64.5q160 0 230.5 74t70.5 242v1085h170v-1112q0 -215 -102.5 -326.5t-368.5 -111.5q-145 0 -239.5 25.5t-146 83t-71 134t-19.5 195.5z" />
<glyph unicode="K" horiz-adv-x="1425" d="M143 0v1534h170v-678h152l629 678h227l-705 -741l787 -793h-236l-702 707h-152v-707h-170z" />
<glyph unicode="L" horiz-adv-x="1132" d="M143 0v1534h170v-1384h777v-150h-947z" />
<glyph unicode="M" horiz-adv-x="1937" d="M143 0v1534h281l545 -1315l544 1315h281v-1534h-170v1411l-580 -1411h-147l-584 1397v-1397h-170z" />
<glyph unicode="N" horiz-adv-x="1591" d="M143 0v1534h271l864 -1401v1401h170v-1534h-270l-865 1386v-1386h-170z" />
<glyph unicode="O" horiz-adv-x="1492" d="M102 766q0 168 11.5 285.5t42 208t75.5 144.5t121 88t169 46t229 12q203 0 318.5 -29.5t192 -118.5t102.5 -236.5t26 -399.5t-26 -398.5t-102.5 -235.5t-194.5 -118.5t-320.5 -29.5t-319.5 29.5t-193.5 118.5t-103.5 235.5t-27 398.5zM272 766q0 -145 5.5 -235.5t26 -168 t50 -116.5t86 -67.5t127 -37t181 -8.5t181 8.5t126 37t85 67.5t49 116.5t25 168t5.5 235.5q0 147 -5.5 237.5t-25 168t-48 116.5t-85 67.5t-127 37t-180.5 8.5q-113 0 -183.5 -8.5t-128 -37t-86 -67.5t-48 -116.5t-25 -168t-5.5 -237.5z" />
<glyph unicode="P" horiz-adv-x="1363" d="M143 0v1534h731q221 0 313.5 -102.5t92.5 -333.5q0 -281 -109.5 -389.5t-400.5 -108.5h-457v-600h-170zM313 750h408q217 0 303 64.5t86 260.5q0 174 -50 241.5t-210 67.5h-537v-634z" />
<glyph unicode="Q" horiz-adv-x="1521" d="M90 766q0 203 18.5 334t59.5 223t119 140t181 67.5t265 19.5q207 0 325 -28.5t195.5 -117.5t104 -236.5t26.5 -401.5q0 -401 -26 -492l129 -88l-70 -116l-114 77q-88 -104 -212 -133.5t-356 -29.5q-135 0 -227 12t-168 46t-121 88t-75.5 144.5t-42 207t-11.5 284.5z M260 766q0 -145 5 -235.5t24.5 -168t49.5 -116.5t86 -67.5t127 -37t179 -8.5q197 0 288 19.5t142 85.5l-477 309l78 121l444 -293q8 55 8 391q0 145 -6 237.5t-26.5 169t-51 116.5t-89 67.5t-129 36t-181 8.5t-181.5 -8.5t-127 -37t-85 -67.5t-48.5 -116.5t-24.5 -169 t-5 -236.5z" />
<glyph unicode="R" horiz-adv-x="1431" d="M143 0v1534h729q229 0 337 -99.5t108 -334.5q0 -174 -54.5 -280.5t-205.5 -137.5q240 -16 239 -293v-389h-170v348q0 147 -71.5 210t-223.5 63h-518v-621h-170zM313 770h502q180 0 256 64.5t76 238.5q0 172 -63.5 241.5t-211.5 69.5h-559v-614z" />
<glyph unicode="S" horiz-adv-x="1288" d="M72 401v72h170q0 -82 4 -131t21.5 -91t41 -62.5t74.5 -35t110.5 -17.5t159.5 -3q176 0 264.5 33t113 89t24.5 171q0 109 -29 161t-112 76.5t-257 30.5q-150 4 -247 23.5t-175.5 64.5t-114.5 129t-36 211q0 231 133 329.5t436 98.5q143 0 232.5 -14t166 -59t111.5 -134.5 t35 -232.5h-170q0 172 -71.5 231.5t-303.5 59.5q-244 0 -321.5 -56.5t-77.5 -212t92 -208t393 -68.5q256 -12 371 -98t115 -318q0 -266 -124 -361t-448 -95q-125 0 -201.5 6t-157.5 29.5t-124 67.5t-70.5 121.5t-27.5 192.5z" />
<glyph unicode="T" horiz-adv-x="1230" d="M31 1384v150h1161v-150h-496v-1384h-170v1384h-495z" />
<glyph unicode="U" horiz-adv-x="1507" d="M154 455v1079h170v-1075q0 -211 76.5 -268.5t353.5 -57.5q147 0 226 10.5t130 48t65.5 97t14.5 170.5v1075h170v-1079q0 -84 -9.5 -149.5t-31 -114t-46 -83t-69.5 -58t-84 -37t-105.5 -19.5t-120.5 -8t-140 -2q-96 0 -154.5 2t-129.5 12t-113 29.5t-86 53.5t-66.5 84 t-36.5 122t-14 168z" />
<glyph unicode="V" horiz-adv-x="1316" d="M-23 1534h185l489 -1397l479 1397h187l-543 -1534h-250z" />
<glyph unicode="W" horiz-adv-x="2357" d="M35 1534h180l418 -1401l416 1401h256l409 -1401l430 1401h183l-486 -1534h-262l-401 1380l-414 -1380h-256z" />
<glyph unicode="X" horiz-adv-x="1404" d="M29 0l549 795l-504 739h205l434 -655l434 655h205l-504 -739l549 -795h-209l-475 705l-475 -705h-209z" />
<glyph unicode="Y" horiz-adv-x="1378" d="M41 1534h190l465 -733l463 733h195l-580 -893v-641h-170v641z" />
<glyph unicode="Z" horiz-adv-x="1304" d="M55 0v152l961 1232h-930v150h1145v-164l-969 -1220h989v-150h-1196z" />
<glyph unicode="[" horiz-adv-x="636" d="M125 -229v1763h393v-133h-223v-1497h223v-133h-393z" />
<glyph unicode="\" horiz-adv-x="1486" d="M162 1534h129l1182 -1759h-125z" />
<glyph unicode="]" horiz-adv-x="636" d="M119 -96h223v1497h-223v133h393v-1763h-393v133z" />
<glyph unicode="^" d="M74 860l401 676h203l401 -676h-170l-334 555l-333 -555h-168z" />
<glyph unicode="_" d="M0 -166h1151v-117h-1151v117z" />
<glyph unicode="`" d="M385 1407l80 113l303 -232l-53 -84z" />
<glyph unicode="a" horiz-adv-x="1157" d="M92 328q0 193 101.5 259t308.5 66q182 0 251.5 -27.5t106.5 -97.5v154q0 102 -9 154.5t-49 82t-91.5 36t-161.5 6.5q-150 0 -203 -28t-53 -120v-31h-164q0 106 29.5 172t95 94.5t129 37t172.5 8.5q125 0 200.5 -12.5t142.5 -50.5t96.5 -114.5t29.5 -199.5v-717h-154 l7 139q-55 -98 -125 -126.5t-236 -28.5q-219 0 -321.5 68.5t-102.5 275.5zM256 344q0 -133 56.5 -180t193.5 -47q74 0 118 2t95 13t77.5 31.5t45 59.5t18.5 94q0 139 -66.5 175t-289.5 36q-131 0 -189.5 -37.5t-58.5 -146.5z" />
<glyph unicode="b" horiz-adv-x="1159" d="M133 0v1534h164v-584q57 78 129 111t221 33q111 0 188.5 -29t123 -74t70 -122.5t31.5 -152.5t7 -184q0 -113 -8 -189.5t-34 -150t-73 -115.5t-127 -67.5t-194 -25.5q-145 0 -214 30.5t-130 122.5l10 -137h-164zM297 539q0 -74 1 -116t7 -94.5t18.5 -79t33 -57t53 -44 t79 -22.5t109.5 -9q188 0 246.5 93t58.5 329q0 240 -58.5 331t-252.5 91q-61 0 -107.5 -9.5t-78 -21.5t-52 -43t-33 -56.5t-17.5 -80t-6 -94t-1 -117.5z" />
<glyph unicode="c" horiz-adv-x="1099" d="M92 538.5q0 317.5 96.5 436.5t360.5 119q223 0 335.5 -71t112.5 -261v-35h-157q0 135 -54.5 184.5t-236.5 49.5t-237.5 -77t-55.5 -339q0 -260 59.5 -344t237.5 -84q184 0 239.5 52t65.5 224h158q-14 -246 -112.5 -327.5t-350.5 -81.5q-266 0 -363.5 118.5t-97.5 436z " />
<glyph unicode="d" horiz-adv-x="1159" d="M92 532q0 109 7 184t32 152.5t69 122.5t121.5 74t188.5 29q150 0 223.5 -33t128.5 -111v584h164v-1534h-160l6 137q-61 -92 -129.5 -122.5t-214.5 -30.5q-115 0 -194.5 25.5t-126.5 67.5t-72.5 115.5t-34 150t-8.5 189.5zM256 539q0 -74 1 -116t7 -94.5t18.5 -79t33 -57 t53 -44t79 -22.5t109.5 -9q188 0 246.5 93t58.5 329q0 240 -58.5 331t-252.5 91q-61 0 -107.5 -9.5t-78 -21.5t-52 -43t-33 -56.5t-17.5 -80t-6 -94t-1 -117.5z" />
<glyph unicode="e" horiz-adv-x="1128" d="M92 543q0 311 106.5 431t360.5 120q250 0 358.5 -113t108.5 -389v-88h-770q0 -242 58.5 -314.5t246.5 -72.5q190 0 245.5 34.5t55.5 147.5v33h164q0 -113 -27.5 -183.5t-93 -106.5t-142.5 -47t-202 -11q-272 0 -370.5 115.5t-98.5 443.5zM256 637h606q0 184 -64.5 254 t-238.5 70t-238.5 -71t-64.5 -253z" />
<glyph unicode="f" horiz-adv-x="604" d="M10 942v133h164v160q0 178 81 248.5t263 70.5q49 0 94 -8v-133q-51 8 -106 8q-90 0 -129 -42t-39 -132v-172h280v-133h-280v-942h-164v942h-164z" />
<glyph unicode="g" d="M92 494q0 123 5 195.5t29 159.5t68 134t125.5 79t200.5 32q248 0 350 -160l-8 139h156v-1143q0 -246 -98.5 -328.5t-370.5 -82.5q-119 0 -190.5 11t-128 48t-80 108.5t-23.5 186.5h152q6 -141 56 -181t193 -40q193 0 263.5 47t70.5 217v215q-45 -90 -135 -118.5 t-217 -28.5t-211 33.5t-129 104.5t-61.5 158t-16.5 214zM256 539q0 -74 1 -116t7 -94.5t18.5 -79t33 -57t53 -44t79 -22.5t109.5 -9q188 0 246.5 93t58.5 329q0 240 -58.5 331t-252.5 91q-61 0 -107.5 -9.5t-78 -21.5t-52 -43t-33 -56.5t-17.5 -80t-6 -94t-1 -117.5z" />
<glyph unicode="h" horiz-adv-x="1177" d="M133 0v1534h164v-582q49 88 130 114t212 26q227 0 316 -83t89 -313v-696h-163v727q0 143 -55.5 187t-202.5 44q-197 0 -261.5 -74.5t-64.5 -271.5v-612h-164z" />
<glyph unicode="i" horiz-adv-x="430" d="M133 0v1073h164v-1073h-164zM133 1358v176h164v-176h-164z" />
<glyph unicode="j" horiz-adv-x="430" d="M-20 -295q12 -6 22 -6q37 0 62.5 11t39 27.5t20.5 47.5t8 52.5t1 62.5v1173h164v-1173q0 -145 -51 -231.5t-189 -86.5q-45 0 -77 10v113zM133 1360v176h164v-176h-164z" />
<glyph unicode="k" horiz-adv-x="1036" d="M133 0v1534h164v-897h63l388 436h196l-457 -493l541 -580h-213l-455 504h-63v-504h-164z" />
<glyph unicode="l" horiz-adv-x="430" d="M133 0v1534h164v-1534h-164z" />
<glyph unicode="m" horiz-adv-x="1867" d="M133 0v1073h164v-143q106 164 344 164q281 0 342 -183q102 182 367 183q209 0 297 -88t88 -295v-711h-164v721q0 139 -50.5 189.5t-191.5 50.5q-313 0 -313 -250v-711h-164v709q0 150 -49 201t-203 51q-174 0 -238.5 -80t-64.5 -265v-616h-164z" />
<glyph unicode="n" horiz-adv-x="1177" d="M133 0v1073h164v-121q49 88 130 114t212 26q227 0 316 -83t89 -313v-696h-163v727q0 143 -55.5 187t-202.5 44q-197 0 -261.5 -74.5t-64.5 -271.5v-612h-164z" />
<glyph unicode="o" horiz-adv-x="1128" d="M92 535q0 330 100.5 443.5t370.5 113.5q272 0 372.5 -113t100.5 -442.5t-100 -443t-373 -113.5q-270 0 -370.5 113.5t-100.5 441.5zM256 536.5q0 -182.5 27.5 -271.5t90 -120.5t189.5 -31.5q129 0 190.5 30.5t90 119.5t28.5 274q0 180 -27.5 268t-90 120.5t-191.5 32.5 q-127 0 -189.5 -31.5t-90 -119.5t-27.5 -270.5z" />
<glyph unicode="p" horiz-adv-x="1159" d="M133 -461v1534h164v-123q104 143 332 144q115 0 194.5 -26t126.5 -68t74 -114.5t35 -149.5t8 -189q0 -109 -7 -184.5t-33 -152.5t-71 -123t-122.5 -74.5t-188.5 -28.5q-123 0 -209 27.5t-139 111.5v-584h-164zM297 539q0 -74 1 -116t7 -94.5t18.5 -79t33 -57t53 -44 t79 -22.5t109.5 -9q188 0 246.5 93t58.5 329q0 240 -58.5 331t-252.5 91q-61 0 -107.5 -9.5t-78 -21.5t-52 -43t-33 -56.5t-17.5 -80t-6 -94t-1 -117.5z" />
<glyph unicode="q" horiz-adv-x="1159" d="M92 539q0 115 8.5 191.5t35 151t73.5 117.5t127 69t194 26q227 0 332 -142v121h164v-1534h-164v584q-53 -84 -140 -111.5t-212 -27.5q-111 0 -188.5 28.5t-121.5 72.5t-69 121t-32 150.5t-7 182.5zM256 539q0 -74 1 -116t7 -94.5t18.5 -79t33 -57t53 -44t79 -22.5 t109.5 -9q188 0 246.5 93t58.5 329q0 240 -58.5 331t-252.5 91q-61 0 -107.5 -9.5t-78 -21.5t-52 -43t-33 -56.5t-17.5 -80t-6 -94t-1 -117.5z" />
<glyph unicode="r" horiz-adv-x="909" d="M133 0v1073h164v-106q92 133 285 133q162 0 237.5 -78t75.5 -242v-63h-164v80q0 96 -42 133t-140 37q-252 0 -252 -252v-715h-164z" />
<glyph unicode="s" horiz-adv-x="1099" d="M102 342h164q0 -141 58.5 -183t226.5 -42q180 0 237.5 35.5t57.5 158.5q0 82 -64.5 121t-222.5 51q-88 6 -141 13.5t-121 27t-104.5 50t-63.5 85t-27 129.5q0 168 94.5 237t329.5 69q84 0 143.5 -4.5t123 -19.5t102.5 -43t63.5 -75t24.5 -114v-39h-164q0 90 -53 126 t-223 36q-168 0 -222.5 -32t-54.5 -124q0 -74 20.5 -106.5t84 -50t204.5 -23.5q215 -10 325 -80t110 -244q0 -188 -102.5 -252.5t-348.5 -64.5q-127 0 -205 12t-139 50t-87 109.5t-26 186.5z" />
<glyph unicode="t" horiz-adv-x="804" d="M12 942v133h142v258h163v-258h414v-133h-414v-657q0 -98 29 -133t123 -35t123 34.5t29 133.5v94h153q0 -240 -54 -317.5t-253 -77.5q-178 0 -245.5 64.5t-67.5 236.5v657h-142z" />
<glyph unicode="u" horiz-adv-x="1159" d="M133 322v751h164v-713q0 -143 49 -194t195 -51q188 0 254.5 70.5t66.5 254.5v633h164v-1073h-152v141q-63 -96 -148 -127.5t-220 -31.5q-199 0 -286 76t-87 264z" />
<glyph unicode="v" horiz-adv-x="974" d="M16 1073h174l295 -952l299 952h174l-358 -1073h-225z" />
<glyph unicode="w" horiz-adv-x="1562" d="M27 1073h161l246 -964l236 964h233l234 -964l245 964h168l-301 -1073h-233l-232 961l-231 -961h-238z" />
<glyph unicode="x" horiz-adv-x="974" d="M0 0l383 561l-342 512h188l244 -393l244 393h188l-342 -512l383 -561h-196l-277 434l-276 -434h-197z" />
<glyph unicode="y" horiz-adv-x="960" d="M18 1073h164l336 -954l246 954h166l-330 -1216q-53 -197 -126 -269.5t-200 -72.5q-53 0 -92 12v131q37 -10 62 -10q92 0 132 60.5t103 291.5h-69z" />
<glyph unicode="z" horiz-adv-x="927" d="M47 0v152l641 788h-586v133h777v-145l-641 -795h641v-133h-832z" />
<glyph unicode="{" horiz-adv-x="1148" d="M315 500v137q133 37 134 213v401q0 184 92 248t297 64v-150q-119 0 -169.5 -49t-50.5 -172v-369q0 -100 -23.5 -159.5t-100.5 -98.5q74 -41 99 -105.5t25 -160.5v-358q0 -127 47.5 -174.5t172.5 -47.5v-149q-113 0 -176.5 10t-116.5 45t-74.5 103.5t-21.5 183.5v367 q0 92 -28 145t-106 76z" />
<glyph unicode="|" horiz-adv-x="1148" d="M489 -381v1915h170v-1915h-170z" />
<glyph unicode="}" horiz-adv-x="1148" d="M313 -281q123 6 171 53.5t48 168.5v368q0 100 24 159.5t99 98.5q-74 41 -98.5 104.5t-24.5 162.5v358q0 125 -48 173t-171 48v150q92 0 143.5 -4.5t105.5 -22.5t81 -55t43 -100.5t16 -159.5v-367q0 -92 28 -145.5t106 -77.5v-135q-133 -37 -134 -213v-402 q0 -182 -91 -246.5t-298 -64.5v149z" />
<glyph unicode="~" horiz-adv-x="1148" d="M20 676q123 258 316 258q84 0 239.5 -84t245.5 -84q113 0 207 172l96 -76q-123 -256 -317 -256q-86 0 -234.5 80t-228.5 80q-78 0 -129 -43t-98 -123z" />
<glyph unicode="&#xa3;" horiz-adv-x="1380" d="M88 0v150q96 25 148.5 117.5t52.5 297.5v119h-180v150h180v188q0 160 27.5 262t91 161.5t153.5 82t229.5 22.5t223.5 -22.5t133 -80.5t65.5 -141t16.5 -223h-170q0 186 -55.5 252t-204.5 66q-190 0 -265 -63.5t-75 -221.5v-282h477v-150h-477v-133q0 -195 -32 -286 t-105 -115h821v-150h-1055z" />
<glyph unicode="&#xa4;" horiz-adv-x="1474" d="M272 367l101 100q-82 109 -82 264q0 168 86 279l-103 102l78 78l103 -103q123 88 284.5 88.5t276.5 -88.5l104 105l78 -74l-100 -100q82 -102 82 -268q0 -170 -86 -275l102 -102l-78 -78l-102 102q-119 -88 -289 -88q-141 0 -272 88l-105 -104zM455 754q0 -139 78.5 -217 t199.5 -78q119 0 201 81t82 210q0 117 -83 196.5t-200 79.5t-197.5 -77.5t-80.5 -194.5z" />
<glyph unicode="&#xa5;" horiz-adv-x="1406" d="M76 1534h200l426 -719l424 719h205l-299 -490h209v-141h-297l-141 -227h438v-141h-459v-535h-172v535h-442v141h422l-137 227h-285v141h201z" />
<glyph unicode="&#xa6;" horiz-adv-x="1138" d="M489 -102v675h164v-675h-164zM489 858v676h164v-676h-164z" />
<glyph unicode="&#xa7;" horiz-adv-x="1406" d="M172 629q0 115 36 180t138 88q-119 76 -119 289q0 121 22.5 192.5t85 110.5t145.5 50t231 11q100 0 157.5 -3t122 -16t97 -39t62.5 -71t40 -112.5t10 -163.5h-149q0 174 -59.5 219t-280.5 45q-154 0 -220.5 -17.5t-87 -56.5t-20.5 -131q0 -111 39 -150.5t170 -80.5 l342 -107q98 -31 139 -47t85 -52t57.5 -89t13.5 -141q0 -102 -31 -169t-113 -104q94 -41 119 -109.5t25 -197.5q0 -236 -103.5 -313.5t-414.5 -77.5q-90 0 -145.5 2t-118 11t-98.5 27.5t-72.5 48.5t-54 75t-29 109.5t-11.5 148.5h154v-66q0 -137 72.5 -175t302.5 -38 q209 0 291.5 47t82.5 172q0 70 -7 109t-36.5 65.5t-61.5 38t-108 31.5l-471 125q-129 35 -179 108.5t-50 223.5zM322 643q0 -104 33.5 -142t136.5 -67l346 -96q78 -20 108 -21q84 0 111.5 63.5t27.5 172.5q0 72 -45 106.5t-139 61.5l-332 96q-84 27 -112 27 q-135 0 -135 -201z" />
<glyph unicode="&#xa9;" horiz-adv-x="1800" d="M109 766q0 328 232 560.5t560 232.5q326 0 558.5 -233.5t232.5 -559.5t-232.5 -560.5t-558.5 -234.5t-559 233.5t-233 561.5zM205 766q0 -291 203.5 -498t492.5 -207t491.5 208t202.5 497t-202.5 495.5t-491.5 206.5t-492.5 -206.5t-203.5 -495.5zM467 764q0 201 121 338 t319 137q152 0 270.5 -85t135.5 -230h-96q-23 104 -111 159.5t-201 55.5q-150 0 -234.5 -109.5t-84.5 -265.5q0 -154 85 -258.5t234 -104.5q133 0 221 75t105 204h94q-14 -170 -131 -274.5t-289 -104.5q-197 0 -317.5 132t-120.5 331z" />
<glyph unicode="&#xaa;" horiz-adv-x="1157" d="M92 328q0 193 101.5 259t308.5 66q182 0 251.5 -27.5t106.5 -97.5v154q0 102 -9 154.5t-49 82t-91.5 36t-161.5 6.5q-150 0 -203 -28t-53 -120v-31h-164q0 106 29.5 172t95 94.5t129 37t172.5 8.5q125 0 200.5 -12.5t142.5 -50.5t96.5 -114.5t29.5 -199.5v-717h-154 l7 139q-55 -98 -125 -126.5t-236 -28.5q-219 0 -321.5 68.5t-102.5 275.5zM256 344q0 -133 56.5 -180t193.5 -47q74 0 118 2t95 13t77.5 31.5t45 59.5t18.5 94q0 139 -66.5 175t-289.5 36q-131 0 -189.5 -37.5t-58.5 -146.5z" />
<glyph unicode="&#xab;" horiz-adv-x="1030" d="M117 592l274 586l119 -72l-242 -514l271 -518l-115 -74zM492 592l278 586l117 -72l-242 -514l268 -518l-110 -74z" />
<glyph unicode="&#xac;" horiz-adv-x="1148" d="M74 733v96h997v-512h-96v416h-901z" />
<glyph unicode="&#xad;" horiz-adv-x="733" d="M82 532v136h569v-136h-569z" />
<glyph unicode="&#xae;" horiz-adv-x="1800" d="M109 766q0 328 232 560.5t560 232.5q326 0 558.5 -233.5t232.5 -559.5t-232.5 -560.5t-558.5 -234.5t-559 233.5t-233 561.5zM205 766q0 -291 203.5 -498t492.5 -207t491.5 208t202.5 497t-202.5 495.5t-491.5 206.5t-492.5 -206.5t-203.5 -495.5zM565 307v932h445 q145 0 205.5 -60.5t60.5 -207.5q0 -115 -27.5 -170.5t-126.5 -77.5q154 -14 154 -180v-236h-100v215q0 86 -46.5 122t-140.5 36h-319v-373h-105zM670 768h305q111 0 156 36t45 138q0 117 -28 161t-134 44h-344v-379z" />
<glyph unicode="&#xaf;" d="M283 1192v131h569v-131h-569z" />
<glyph unicode="&#x2c9;" d="M283 1192v131h569v-131h-569z" />
<glyph unicode="&#xb0;" d="M250 1194q0 139 93 236.5t232 97.5q133 0 229.5 -97.5t96.5 -230.5t-97 -229.5t-229 -96.5q-129 0 -227 95.5t-98 224.5zM336 1198q0 -96 70.5 -168t166.5 -72q98 0 170 72t72 170t-70.5 171t-169 73t-169 -74t-70.5 -172z" />
<glyph unicode="&#xb1;" d="M53 391v96h1043v-96h-1043zM53 1026v96h471v445h97v-445h475v-96h-475v-436h-97v436h-471z" />
<glyph unicode="&#xb2;" horiz-adv-x="1411" d="M125 0v287q0 104 27.5 180t68.5 120t118 72.5t147.5 40t183.5 21.5q176 16 257 50t107.5 96.5t26.5 195.5q0 182 -84 260t-289 78q-236 0 -317.5 -77t-81.5 -249v-63h-164q0 309 120 423.5t447 114.5q283 0 411 -111.5t128 -377.5q0 -145 -24.5 -233.5t-92 -141.5 t-155 -75.5t-244.5 -39.5q-272 -29 -349 -84t-77 -217v-120h942v-150h-1106z" />
<glyph unicode="&#xb3;" horiz-adv-x="1411" d="M123 412v90h164v-90q0 -162 78.5 -220.5t316.5 -58.5q137 0 215 12.5t121 51.5t55 92t12 153q0 152 -70.5 211.5t-240.5 59.5h-213v149h197q195 0 247 48t52 233q0 129 -82 193.5t-293 64.5q-217 0 -294 -75t-77 -261h-164q0 268 120 376.5t413 108.5q289 0 418 -101 t129 -306q0 -182 -57.5 -258t-192.5 -97q162 -20 220 -102t58 -244q0 -270 -118.5 -364t-452.5 -94q-109 0 -186.5 9t-152.5 35.5t-121 72.5t-73.5 124t-27.5 187z" />
<glyph unicode="&#xb4;" d="M385 1288l303 232l80 -113l-328 -203z" />
<glyph unicode="&#xb5;" horiz-adv-x="1204" d="M133 -383v1483h164v-686q0 -127 86 -212t213 -85q147 0 229 115.5t82 265.5v602h164v-1100h-164v215q-39 -109 -120.5 -170t-194.5 -61q-197 0 -295 155v-522h-164z" />
<glyph unicode="&#xb6;" horiz-adv-x="1411" d="M14 1057q0 154 16.5 235.5t74 142t161 80t283.5 19.5h735v-1964h-156v1821h-182v-1821h-155v1032h-242q-123 0 -210 11.5t-146.5 39t-94.5 60t-53 89t-24.5 113t-6.5 142.5zM178 1071q0 -193 73 -259.5t284 -66.5h256v646h-347q-168 0 -217 -59.5t-49 -260.5z" />
<glyph unicode="&#xb7;" horiz-adv-x="1406" d="M612 457v207h183v-207h-183z" />
<glyph unicode="&#xb9;" horiz-adv-x="1406" d="M240 1071l424 463h241v-1534h-164v1403l-393 -432z" />
<glyph unicode="&#xba;" horiz-adv-x="1128" d="M92 535q0 330 100.5 443.5t370.5 113.5q272 0 372.5 -113t100.5 -442.5t-100 -443t-373 -113.5q-270 0 -370.5 113.5t-100.5 441.5zM256 536.5q0 -182.5 27.5 -271.5t90 -120.5t189.5 -31.5q129 0 190.5 30.5t90 119.5t28.5 274q0 180 -27.5 268t-90 120.5t-191.5 32.5 q-127 0 -189.5 -31.5t-90 -119.5t-27.5 -270.5z" />
<glyph unicode="&#xbb;" horiz-adv-x="1030" d="M117 74l266 518l-242 514l119 72l279 -586l-314 -592zM492 74l268 518l-242 514l121 72l274 -586l-309 -592z" />
<glyph unicode="&#xc0;" horiz-adv-x="1474" d="M405 1876l80 113l303 -232l-53 -84zM53 0l559 1534h248l572 -1534h-183l-114 315h-775l-122 -315h-185zM401 465h678l-340 942z" />
<glyph unicode="&#xc1;" horiz-adv-x="1474" d="M680 1757l303 232l80 -113l-328 -203zM53 0l559 1534h248l572 -1534h-183l-114 315h-775l-122 -315h-185zM401 465h678l-340 942z" />
<glyph unicode="&#xc2;" horiz-adv-x="1474" d="M234 1673l401 676h203l401 -676h-170l-334 555l-333 -555h-168zM53 0l559 1534h248l572 -1534h-183l-114 315h-775l-122 -315h-185zM401 465h678l-340 942z" />
<glyph unicode="&#xc3;" horiz-adv-x="1474" d="M184 1749q123 258 316 258q84 0 239.5 -84t245.5 -84q113 0 207 172l96 -76q-123 -256 -317 -256q-86 0 -234.5 80t-228.5 80q-78 0 -129 -43t-98 -123zM53 0l559 1534h248l572 -1534h-183l-114 315h-775l-122 -315h-185zM401 465h678l-340 942z" />
<glyph unicode="&#xc5;" horiz-adv-x="1474" d="M410 1847q0 139 93 236.5t232 97.5q133 0 229.5 -97.5t96.5 -230.5t-97 -229.5t-229 -96.5q-129 0 -227 95.5t-98 224.5zM496 1851q0 -96 70.5 -168t166.5 -72q98 0 170 72t72 170t-70.5 171t-169 73t-169 -74t-70.5 -172zM53 0l559 1534h248l572 -1534h-183l-114 315 h-775l-122 -315h-185zM401 465h678l-340 942z" />
<glyph unicode="&#xc8;" horiz-adv-x="1220" d="M307 1876l80 113l303 -232l-53 -84zM143 0v1534h987v-150h-817v-528h781v-149h-781v-557h813v-150h-983z" />
<glyph unicode="&#xc9;" horiz-adv-x="1220" d="M582 1757l303 232l80 -113l-328 -203zM143 0v1534h987v-150h-817v-528h781v-149h-781v-557h813v-150h-983z" />
<glyph unicode="&#xca;" horiz-adv-x="1220" d="M135 1673l401 676h203l401 -676h-170l-334 555l-333 -555h-168zM143 0v1534h987v-150h-817v-528h781v-149h-781v-557h813v-150h-983z" />
<glyph unicode="&#xcc;" horiz-adv-x="456" d="M-102 1876l80 113l303 -232l-53 -84zM143 0v1534h170v-1534h-170z" />
<glyph unicode="&#xcd;" horiz-adv-x="456" d="M172 1757l303 232l80 -113l-328 -203zM143 0v1534h170v-1534h-170z" />
<glyph unicode="&#xce;" horiz-adv-x="456" d="M-274 1673l401 676h203l401 -676h-170l-334 555l-333 -555h-168zM143 0v1534h170v-1534h-170z" />
<glyph unicode="&#xd1;" horiz-adv-x="1591" d="M243 1749q123 258 316 258q84 0 239.5 -84t245.5 -84q113 0 207 172l96 -76q-123 -256 -317 -256q-86 0 -234.5 80t-228.5 80q-78 0 -129 -43t-98 -123zM143 0v1534h271l864 -1401v1401h170v-1534h-270l-865 1386v-1386h-170z" />
<glyph unicode="&#xd2;" horiz-adv-x="1492" d="M420 1876l80 113l303 -232l-53 -84zM102 766q0 168 11.5 285.5t42 208t75.5 144.5t121 88t169 46t229 12q203 0 318.5 -29.5t192 -118.5t102.5 -236.5t26 -399.5t-26 -398.5t-102.5 -235.5t-194.5 -118.5t-320.5 -29.5t-319.5 29.5t-193.5 118.5t-103.5 235.5t-27 398.5z M272 766q0 -145 5.5 -235.5t26 -168t50 -116.5t86 -67.5t127 -37t181 -8.5t181 8.5t126 37t85 67.5t49 116.5t25 168t5.5 235.5q0 147 -5.5 237.5t-25 168t-48 116.5t-85 67.5t-127 37t-180.5 8.5q-113 0 -183.5 -8.5t-128 -37t-86 -67.5t-48 -116.5t-25 -168t-5.5 -237.5z " />
<glyph unicode="&#xd3;" horiz-adv-x="1492" d="M694 1757l303 232l80 -113l-328 -203zM102 766q0 168 11.5 285.5t42 208t75.5 144.5t121 88t169 46t229 12q203 0 318.5 -29.5t192 -118.5t102.5 -236.5t26 -399.5t-26 -398.5t-102.5 -235.5t-194.5 -118.5t-320.5 -29.5t-319.5 29.5t-193.5 118.5t-103.5 235.5 t-27 398.5zM272 766q0 -145 5.5 -235.5t26 -168t50 -116.5t86 -67.5t127 -37t181 -8.5t181 8.5t126 37t85 67.5t49 116.5t25 168t5.5 235.5q0 147 -5.5 237.5t-25 168t-48 116.5t-85 67.5t-127 37t-180.5 8.5q-113 0 -183.5 -8.5t-128 -37t-86 -67.5t-48 -116.5t-25 -168 t-5.5 -237.5z" />
<glyph unicode="&#xd4;" horiz-adv-x="1492" d="M246 1673l401 676h203l401 -676h-170l-334 555l-333 -555h-168zM102 766q0 168 11.5 285.5t42 208t75.5 144.5t121 88t169 46t229 12q203 0 318.5 -29.5t192 -118.5t102.5 -236.5t26 -399.5t-26 -398.5t-102.5 -235.5t-194.5 -118.5t-320.5 -29.5t-319.5 29.5 t-193.5 118.5t-103.5 235.5t-27 398.5zM272 766q0 -145 5.5 -235.5t26 -168t50 -116.5t86 -67.5t127 -37t181 -8.5t181 8.5t126 37t85 67.5t49 116.5t25 168t5.5 235.5q0 147 -5.5 237.5t-25 168t-48 116.5t-85 67.5t-127 37t-180.5 8.5q-113 0 -183.5 -8.5t-128 -37 t-86 -67.5t-48 -116.5t-25 -168t-5.5 -237.5z" />
<glyph unicode="&#xd5;" horiz-adv-x="1492" d="M196 1749q123 258 316 258q84 0 239.5 -84t245.5 -84q113 0 207 172l96 -76q-123 -256 -317 -256q-86 0 -234.5 80t-228.5 80q-78 0 -129 -43t-98 -123zM102 766q0 168 11.5 285.5t42 208t75.5 144.5t121 88t169 46t229 12q203 0 318.5 -29.5t192 -118.5t102.5 -236.5 t26 -399.5t-26 -398.5t-102.5 -235.5t-194.5 -118.5t-320.5 -29.5t-319.5 29.5t-193.5 118.5t-103.5 235.5t-27 398.5zM272 766q0 -145 5.5 -235.5t26 -168t50 -116.5t86 -67.5t127 -37t181 -8.5t181 8.5t126 37t85 67.5t49 116.5t25 168t5.5 235.5q0 147 -5.5 237.5 t-25 168t-48 116.5t-85 67.5t-127 37t-180.5 8.5q-113 0 -183.5 -8.5t-128 -37t-86 -67.5t-48 -116.5t-25 -168t-5.5 -237.5z" />
<glyph unicode="&#xd7;" horiz-adv-x="1148" d="M139 420l365 364l-363 363l68 70l362 -365l365 365l70 -70l-365 -365l365 -362l-66 -68l-367 363l-364 -365z" />
<glyph unicode="&#xd9;" horiz-adv-x="1507" d="M426 1876l80 113l303 -232l-53 -84zM154 455v1079h170v-1075q0 -211 76.5 -268.5t353.5 -57.5q147 0 226 10.5t130 48t65.5 97t14.5 170.5v1075h170v-1079q0 -84 -9.5 -149.5t-31 -114t-46 -83t-69.5 -58t-84 -37t-105.5 -19.5t-120.5 -8t-140 -2q-96 0 -154.5 2 t-129.5 12t-113 29.5t-86 53.5t-66.5 84t-36.5 122t-14 168z" />
<glyph unicode="&#xda;" horiz-adv-x="1507" d="M700 1757l303 232l80 -113l-328 -203zM154 455v1079h170v-1075q0 -211 76.5 -268.5t353.5 -57.5q147 0 226 10.5t130 48t65.5 97t14.5 170.5v1075h170v-1079q0 -84 -9.5 -149.5t-31 -114t-46 -83t-69.5 -58t-84 -37t-105.5 -19.5t-120.5 -8t-140 -2q-96 0 -154.5 2 t-129.5 12t-113 29.5t-86 53.5t-66.5 84t-36.5 122t-14 168z" />
<glyph unicode="&#xdb;" horiz-adv-x="1507" d="M254 1673l401 676h203l401 -676h-170l-334 555l-333 -555h-168zM154 455v1079h170v-1075q0 -211 76.5 -268.5t353.5 -57.5q147 0 226 10.5t130 48t65.5 97t14.5 170.5v1075h170v-1079q0 -84 -9.5 -149.5t-31 -114t-46 -83t-69.5 -58t-84 -37t-105.5 -19.5t-120.5 -8 t-140 -2q-96 0 -154.5 2t-129.5 12t-113 29.5t-86 53.5t-66.5 84t-36.5 122t-14 168z" />
<glyph unicode="&#xdd;" horiz-adv-x="1378" d="M643 1757l303 232l80 -113l-328 -203zM41 1534h190l465 -733l463 733h195l-580 -893v-641h-170v641z" />
<glyph unicode="&#xe0;" horiz-adv-x="1157" d="M225 1419l80 113l303 -232l-53 -84zM92 328q0 193 101.5 259t308.5 66q182 0 251.5 -27.5t106.5 -97.5v154q0 102 -9 154.5t-49 82t-91.5 36t-161.5 6.5q-150 0 -203 -28t-53 -120v-31h-164q0 106 29.5 172t95 94.5t129 37t172.5 8.5q125 0 200.5 -12.5t142.5 -50.5 t96.5 -114.5t29.5 -199.5v-717h-154l7 139q-55 -98 -125 -126.5t-236 -28.5q-219 0 -321.5 68.5t-102.5 275.5zM256 344q0 -133 56.5 -180t193.5 -47q74 0 118 2t95 13t77.5 31.5t45 59.5t18.5 94q0 139 -66.5 175t-289.5 36q-131 0 -189.5 -37.5t-58.5 -146.5z" />
<glyph unicode="&#xe1;" horiz-adv-x="1157" d="M500 1300l303 232l80 -113l-328 -203zM92 328q0 193 101.5 259t308.5 66q182 0 251.5 -27.5t106.5 -97.5v154q0 102 -9 154.5t-49 82t-91.5 36t-161.5 6.5q-150 0 -203 -28t-53 -120v-31h-164q0 106 29.5 172t95 94.5t129 37t172.5 8.5q125 0 200.5 -12.5t142.5 -50.5 t96.5 -114.5t29.5 -199.5v-717h-154l7 139q-55 -98 -125 -126.5t-236 -28.5q-219 0 -321.5 68.5t-102.5 275.5zM256 344q0 -133 56.5 -180t193.5 -47q74 0 118 2t95 13t77.5 31.5t45 59.5t18.5 94q0 139 -66.5 175t-289.5 36q-131 0 -189.5 -37.5t-58.5 -146.5z" />
<glyph unicode="&#xe2;" horiz-adv-x="1157" d="M54 1216l401 676h203l401 -676h-170l-334 555l-333 -555h-168zM92 328q0 193 101.5 259t308.5 66q182 0 251.5 -27.5t106.5 -97.5v154q0 102 -9 154.5t-49 82t-91.5 36t-161.5 6.5q-150 0 -203 -28t-53 -120v-31h-164q0 106 29.5 172t95 94.5t129 37t172.5 8.5 q125 0 200.5 -12.5t142.5 -50.5t96.5 -114.5t29.5 -199.5v-717h-154l7 139q-55 -98 -125 -126.5t-236 -28.5q-219 0 -321.5 68.5t-102.5 275.5zM256 344q0 -133 56.5 -180t193.5 -47q74 0 118 2t95 13t77.5 31.5t45 59.5t18.5 94q0 139 -66.5 175t-289.5 36 q-131 0 -189.5 -37.5t-58.5 -146.5z" />
<glyph unicode="&#xe3;" horiz-adv-x="1157" d="M4 1292q123 258 316 258q84 0 239.5 -84t245.5 -84q113 0 207 172l96 -76q-123 -256 -317 -256q-86 0 -234.5 80t-228.5 80q-78 0 -129 -43t-98 -123zM92 328q0 193 101.5 259t308.5 66q182 0 251.5 -27.5t106.5 -97.5v154q0 102 -9 154.5t-49 82t-91.5 36t-161.5 6.5 q-150 0 -203 -28t-53 -120v-31h-164q0 106 29.5 172t95 94.5t129 37t172.5 8.5q125 0 200.5 -12.5t142.5 -50.5t96.5 -114.5t29.5 -199.5v-717h-154l7 139q-55 -98 -125 -126.5t-236 -28.5q-219 0 -321.5 68.5t-102.5 275.5zM256 344q0 -133 56.5 -180t193.5 -47q74 0 118 2 t95 13t77.5 31.5t45 59.5t18.5 94q0 139 -66.5 175t-289.5 36q-131 0 -189.5 -37.5t-58.5 -146.5z" />
<glyph unicode="&#xe5;" horiz-adv-x="1157" d="M230 1536q0 139 93 236.5t232 97.5q133 0 229.5 -97.5t96.5 -230.5t-97 -229.5t-229 -96.5q-129 0 -227 95.5t-98 224.5zM316 1540q0 -96 70.5 -168t166.5 -72q98 0 170 72t72 170t-70.5 171t-169 73t-169 -74t-70.5 -172zM92 328q0 193 101.5 259t308.5 66 q182 0 251.5 -27.5t106.5 -97.5v154q0 102 -9 154.5t-49 82t-91.5 36t-161.5 6.5q-150 0 -203 -28t-53 -120v-31h-164q0 106 29.5 172t95 94.5t129 37t172.5 8.5q125 0 200.5 -12.5t142.5 -50.5t96.5 -114.5t29.5 -199.5v-717h-154l7 139q-55 -98 -125 -126.5t-236 -28.5 q-219 0 -321.5 68.5t-102.5 275.5zM256 344q0 -133 56.5 -180t193.5 -47q74 0 118 2t95 13t77.5 31.5t45 59.5t18.5 94q0 139 -66.5 175t-289.5 36q-131 0 -189.5 -37.5t-58.5 -146.5z" />
<glyph unicode="&#xe8;" horiz-adv-x="1128" d="M229 1419l80 113l303 -232l-53 -84zM92 543q0 311 106.5 431t360.5 120q250 0 358.5 -113t108.5 -389v-88h-770q0 -242 58.5 -314.5t246.5 -72.5q190 0 245.5 34.5t55.5 147.5v33h164q0 -113 -27.5 -183.5t-93 -106.5t-142.5 -47t-202 -11q-272 0 -370.5 115.5 t-98.5 443.5zM256 637h606q0 184 -64.5 254t-238.5 70t-238.5 -71t-64.5 -253z" />
<glyph unicode="&#xe9;" horiz-adv-x="1128" d="M504 1300l303 232l80 -113l-328 -203zM92 543q0 311 106.5 431t360.5 120q250 0 358.5 -113t108.5 -389v-88h-770q0 -242 58.5 -314.5t246.5 -72.5q190 0 245.5 34.5t55.5 147.5v33h164q0 -113 -27.5 -183.5t-93 -106.5t-142.5 -47t-202 -11q-272 0 -370.5 115.5 t-98.5 443.5zM256 637h606q0 184 -64.5 254t-238.5 70t-238.5 -71t-64.5 -253z" />
<glyph unicode="&#xea;" horiz-adv-x="1128" d="M58 1216l401 676h203l401 -676h-170l-334 555l-333 -555h-168zM92 543q0 311 106.5 431t360.5 120q250 0 358.5 -113t108.5 -389v-88h-770q0 -242 58.5 -314.5t246.5 -72.5q190 0 245.5 34.5t55.5 147.5v33h164q0 -113 -27.5 -183.5t-93 -106.5t-142.5 -47t-202 -11 q-272 0 -370.5 115.5t-98.5 443.5zM256 637h606q0 184 -64.5 254t-238.5 70t-238.5 -71t-64.5 -253z" />
<glyph unicode="&#xec;" horiz-adv-x="430" d="M-115 1860l80 113l303 -232l-53 -84zM133 0v1073h164v-1073h-164zM133 1358v176h164v-176h-164z" />
<glyph unicode="&#xed;" horiz-adv-x="430" d="M160 1741l303 232l80 -113l-328 -203zM133 0v1073h164v-1073h-164zM133 1358v176h164v-176h-164z" />
<glyph unicode="&#xee;" horiz-adv-x="430" d="M-286 1657l401 676h203l401 -676h-170l-334 555l-333 -555h-168zM133 0v1073h164v-1073h-164zM133 1358v176h164v-176h-164z" />
<glyph unicode="&#xf1;" horiz-adv-x="1177" d="M36 1290q123 258 316 258q84 0 239.5 -84t245.5 -84q113 0 207 172l96 -76q-123 -256 -317 -256q-86 0 -234.5 80t-228.5 80q-78 0 -129 -43t-98 -123zM133 0v1073h164v-121q49 88 130 114t212 26q227 0 316 -83t89 -313v-696h-163v727q0 143 -55.5 187t-202.5 44 q-197 0 -261.5 -74.5t-64.5 -271.5v-612h-164z" />
<glyph unicode="&#xf2;" horiz-adv-x="1128" d="M233 1417l80 113l303 -232l-53 -84zM92 535q0 330 100.5 443.5t370.5 113.5q272 0 372.5 -113t100.5 -442.5t-100 -443t-373 -113.5q-270 0 -370.5 113.5t-100.5 441.5zM256 536.5q0 -182.5 27.5 -271.5t90 -120.5t189.5 -31.5q129 0 190.5 30.5t90 119.5t28.5 274 q0 180 -27.5 268t-90 120.5t-191.5 32.5q-127 0 -189.5 -31.5t-90 -119.5t-27.5 -270.5z" />
<glyph unicode="&#xf3;" horiz-adv-x="1128" d="M508 1298l303 232l80 -113l-328 -203zM92 535q0 330 100.5 443.5t370.5 113.5q272 0 372.5 -113t100.5 -442.5t-100 -443t-373 -113.5q-270 0 -370.5 113.5t-100.5 441.5zM256 536.5q0 -182.5 27.5 -271.5t90 -120.5t189.5 -31.5q129 0 190.5 30.5t90 119.5t28.5 274 q0 180 -27.5 268t-90 120.5t-191.5 32.5q-127 0 -189.5 -31.5t-90 -119.5t-27.5 -270.5z" />
<glyph unicode="&#xf4;" horiz-adv-x="1128" d="M62 1214l401 676h203l401 -676h-170l-334 555l-333 -555h-168zM92 535q0 330 100.5 443.5t370.5 113.5q272 0 372.5 -113t100.5 -442.5t-100 -443t-373 -113.5q-270 0 -370.5 113.5t-100.5 441.5zM256 536.5q0 -182.5 27.5 -271.5t90 -120.5t189.5 -31.5 q129 0 190.5 30.5t90 119.5t28.5 274q0 180 -27.5 268t-90 120.5t-191.5 32.5q-127 0 -189.5 -31.5t-90 -119.5t-27.5 -270.5z" />
<glyph unicode="&#xf5;" horiz-adv-x="1128" d="M12 1290q123 258 316 258q84 0 239.5 -84t245.5 -84q113 0 207 172l96 -76q-123 -256 -317 -256q-86 0 -234.5 80t-228.5 80q-78 0 -129 -43t-98 -123zM92 535q0 330 100.5 443.5t370.5 113.5q272 0 372.5 -113t100.5 -442.5t-100 -443t-373 -113.5q-270 0 -370.5 113.5 t-100.5 441.5zM256 536.5q0 -182.5 27.5 -271.5t90 -120.5t189.5 -31.5q129 0 190.5 30.5t90 119.5t28.5 274q0 180 -27.5 268t-90 120.5t-191.5 32.5q-127 0 -189.5 -31.5t-90 -119.5t-27.5 -270.5z" />
<glyph unicode="&#xf7;" d="M53 733v96h1045v-96h-1045zM485 356q0 37 26 63.5t64 26.5q37 0 65 -26.5t28 -63.5q0 -35 -29 -61.5t-63.5 -26.5t-62.5 26.5t-28 61.5zM485 1204q0 35 28 62.5t62.5 27.5t63.5 -27.5t29 -62.5q0 -37 -28 -62.5t-64.5 -25.5t-63.5 25.5t-27 62.5z" />
<glyph unicode="&#xf9;" horiz-adv-x="1159" d="M250 1417l80 113l303 -232l-53 -84zM133 322v751h164v-713q0 -143 49 -194t195 -51q188 0 254.5 70.5t66.5 254.5v633h164v-1073h-152v141q-63 -96 -148 -127.5t-220 -31.5q-199 0 -286 76t-87 264z" />
<glyph unicode="&#xfa;" horiz-adv-x="1159" d="M524 1298l303 232l80 -113l-328 -203zM133 322v751h164v-713q0 -143 49 -194t195 -51q188 0 254.5 70.5t66.5 254.5v633h164v-1073h-152v141q-63 -96 -148 -127.5t-220 -31.5q-199 0 -286 76t-87 264z" />
<glyph unicode="&#xfb;" horiz-adv-x="1159" d="M78 1214l401 676h203l401 -676h-170l-334 555l-333 -555h-168zM133 322v751h164v-713q0 -143 49 -194t195 -51q188 0 254.5 70.5t66.5 254.5v633h164v-1073h-152v141q-63 -96 -148 -127.5t-220 -31.5q-199 0 -286 76t-87 264z" />
<glyph unicode="&#xfd;" horiz-adv-x="960" d="M418 1298l303 232l80 -113l-328 -203zM18 1073h164l336 -954l246 954h166l-330 -1216q-53 -197 -126 -269.5t-200 -72.5q-53 0 -92 12v131q37 -10 62 -10q92 0 132 60.5t103 291.5h-69z" />
<glyph unicode="&#x152;" horiz-adv-x="2713" d="M1636 0v1534h987v-150h-817v-528h781v-149h-781v-557h813v-150h-983zM102 766q0 168 11.5 285.5t42 208t75.5 144.5t121 88t169 46t229 12q203 0 318.5 -29.5t192 -118.5t102.5 -236.5t26 -399.5t-26 -398.5t-102.5 -235.5t-194.5 -118.5t-320.5 -29.5t-319.5 29.5 t-193.5 118.5t-103.5 235.5t-27 398.5zM272 766q0 -145 5.5 -235.5t26 -168t50 -116.5t86 -67.5t127 -37t181 -8.5t181 8.5t126 37t85 67.5t49 116.5t25 168t5.5 235.5q0 147 -5.5 237.5t-25 168t-48 116.5t-85 67.5t-127 37t-180.5 8.5q-113 0 -183.5 -8.5t-128 -37 t-86 -67.5t-48 -116.5t-25 -168t-5.5 -237.5z" />
<glyph unicode="&#x153;" horiz-adv-x="2256" d="M1220 543q0 311 106.5 431t360.5 120q250 0 358.5 -113t108.5 -389v-88h-770q0 -242 58.5 -314.5t246.5 -72.5q190 0 245.5 34.5t55.5 147.5v33h164q0 -113 -27.5 -183.5t-93 -106.5t-142.5 -47t-202 -11q-272 0 -370.5 115.5t-98.5 443.5zM1384 637h606q0 184 -64.5 254 t-238.5 70t-238.5 -71t-64.5 -253zM92 535q0 330 100.5 443.5t370.5 113.5q272 0 372.5 -113t100.5 -442.5t-100 -443t-373 -113.5q-270 0 -370.5 113.5t-100.5 441.5zM256 536.5q0 -182.5 27.5 -271.5t90 -120.5t189.5 -31.5q129 0 190.5 30.5t90 119.5t28.5 274 q0 180 -27.5 268t-90 120.5t-191.5 32.5q-127 0 -189.5 -31.5t-90 -119.5t-27.5 -270.5z" />
<glyph unicode="&#x2c6;" d="M74 860l401 676h203l401 -676h-170l-334 555l-333 -555h-168z" />
<glyph unicode="&#x2dc;" horiz-adv-x="487" d="M-553 199q123 258 316 258q84 0 239.5 -84t245.5 -84q113 0 207 172l96 -76q-123 -256 -317 -256q-86 0 -234.5 80t-228.5 80q-78 0 -129 -43t-98 -123z" />
<glyph unicode="&#x2000;" horiz-adv-x="1173" />
<glyph unicode="&#x2001;" horiz-adv-x="2349" />
<glyph unicode="&#x2002;" horiz-adv-x="1173" />
<glyph unicode="&#x2003;" horiz-adv-x="2349" />
<glyph unicode="&#x2004;" horiz-adv-x="782" />
<glyph unicode="&#x2005;" horiz-adv-x="585" />
<glyph unicode="&#x2006;" horiz-adv-x="391" />
<glyph unicode="&#x2007;" horiz-adv-x="391" />
<glyph unicode="&#x2008;" horiz-adv-x="292" />
<glyph unicode="&#x2009;" horiz-adv-x="468" />
<glyph unicode="&#x200a;" horiz-adv-x="129" />
<glyph unicode="&#x2010;" horiz-adv-x="733" d="M82 532v136h569v-136h-569z" />
<glyph unicode="&#x2011;" horiz-adv-x="733" d="M82 532v136h569v-136h-569z" />
<glyph unicode="&#x2012;" horiz-adv-x="733" d="M82 532v136h569v-136h-569z" />
<glyph unicode="&#x2013;" d="M55 532v136h1047v-136h-1047z" />
<glyph unicode="&#x2014;" horiz-adv-x="1603" d="M0 532v136h1604v-136h-1604z" />
<glyph unicode="&#x2018;" horiz-adv-x="409" d="M102 1102v223q0 104 33 157.5t127 53.5q25 0 45 -4v-86q-57 -2 -79.5 -26.5t-22.5 -82.5v-28h80v-207h-183z" />
<glyph unicode="&#x2019;" horiz-adv-x="409" d="M102 1104v86q57 2 80 26.5t23 81.5v29h-80v207h182v-223q0 -104 -32.5 -157.5t-127.5 -53.5q-25 0 -45 4z" />
<glyph unicode="&#x201a;" horiz-adv-x="464" d="M123 -139q57 2 78.5 26.5t21.5 81.5v31h-80v207h183v-225q0 -106 -32 -158.5t-126 -52.5q-25 0 -45 4v86z" />
<glyph unicode="&#x201c;" horiz-adv-x="733" d="M102 1102v223q0 104 33 157.5t127 53.5q25 0 45 -4v-86q-57 -2 -79.5 -26.5t-22.5 -82.5v-28h80v-207h-183zM426 1102v223q0 104 33 157.5t127 53.5q25 0 45 -4v-86q-57 -2 -80 -26.5t-23 -82.5v-28h80v-207h-182z" />
<glyph unicode="&#x201d;" horiz-adv-x="733" d="M102 1104v86q57 2 80 26.5t23 81.5v29h-80v207h182v-223q0 -104 -32.5 -157.5t-127.5 -53.5q-25 0 -45 4zM426 1104v86q57 2 79.5 26.5t22.5 81.5v29h-79v207h182v-223q0 -104 -33 -157.5t-127 -53.5q-25 0 -45 4z" />
<glyph unicode="&#x201e;" horiz-adv-x="733" d="M113 -139q57 2 78.5 26.5t21.5 81.5v31h-80v207h182v-225q0 -106 -31.5 -158.5t-125.5 -52.5q-25 0 -45 4v86zM434 -139q57 2 79 26.5t22 81.5v31h-80v207h182v-225q0 -106 -32 -158.5t-126 -52.5q-25 0 -45 4v86z" />
<glyph unicode="&#x2022;" horiz-adv-x="1380" d="M461 657.5q0 92.5 62.5 157t154.5 64.5q94 0 158.5 -64.5t64.5 -157t-63.5 -156t-157.5 -63.5q-92 0 -155.5 63.5t-63.5 156z" />
<glyph unicode="&#x2026;" horiz-adv-x="1374" d="M137 0v207h182v-207h-182zM596 0v207h182v-207h-182zM1055 0v207h182v-207h-182z" />
<glyph unicode="&#x202f;" horiz-adv-x="468" />
<glyph unicode="&#x2039;" horiz-adv-x="655" d="M117 592l276 586l117 -72l-242 -514l269 -518l-113 -74z" />
<glyph unicode="&#x203a;" horiz-adv-x="630" d="M117 74l266 518l-242 514l121 72l275 -586l-310 -592z" />
<glyph unicode="&#x205f;" horiz-adv-x="585" />
<glyph unicode="&#x2122;" horiz-adv-x="1691" d="M27 1448v84h616v-84h-262v-727h-90v727h-264zM725 721v811h149l287 -694l289 694h147v-811h-90v745l-307 -745h-78l-307 739v-739h-90z" />
<glyph unicode="&#xe000;" horiz-adv-x="1075" d="M0 1075h1075v-1075h-1075v1075z" />
<glyph unicode="&#xfb01;" horiz-adv-x="1034" d="M737 0v1073h164v-1073h-164zM737 1358v176h164v-176h-164zM10 942v133h164v160q0 178 81 248.5t263 70.5q49 0 94 -8v-133q-51 8 -106 8q-90 0 -129 -42t-39 -132v-172h280v-133h-280v-942h-164v942h-164z" />
<glyph unicode="&#xfb02;" horiz-adv-x="1034" d="M737 0v1534h164v-1534h-164zM10 942v133h164v160q0 178 81 248.5t263 70.5q49 0 94 -8v-133q-51 8 -106 8q-90 0 -129 -42t-39 -132v-172h280v-133h-280v-942h-164v942h-164z" />
<glyph unicode="&#xfb03;" horiz-adv-x="1638" d="M1341 0v1073h164v-1073h-164zM1341 1358v176h164v-176h-164zM614 942v133h164v160q0 178 81 248.5t263 70.5q49 0 94 -8v-133q-51 8 -106 8q-90 0 -129 -42t-39 -132v-172h280v-133h-280v-942h-164v942h-164zM10 942v133h164v160q0 178 81 248.5t263 70.5q49 0 94 -8 v-133q-51 8 -106 8q-90 0 -129 -42t-39 -132v-172h280v-133h-280v-942h-164v942h-164z" />
<glyph unicode="&#xfb04;" horiz-adv-x="1638" d="M1341 0v1534h164v-1534h-164zM614 942v133h164v160q0 178 81 248.5t263 70.5q49 0 94 -8v-133q-51 8 -106 8q-90 0 -129 -42t-39 -132v-172h280v-133h-280v-942h-164v942h-164zM10 942v133h164v160q0 178 81 248.5t263 70.5q49 0 94 -8v-133q-51 8 -106 8q-90 0 -129 -42 t-39 -132v-172h280v-133h-280v-942h-164v942h-164z" />
</font>
</defs>
</svg>
