<?xml version="1.0" standalone="no"?>
<!DOCTYPE svg PUBLIC "-//W3C//DTD SVG 1.1//EN" "http://www.w3.org/Graphics/SVG/1.1/DTD/svg11.dtd" >
<svg xmlns="http://www.w3.org/2000/svg">
<metadata></metadata>
<defs>
<font id="EuropeItalic" horiz-adv-x="562" >
<font-face units-per-em="1000" ascent="800" descent="-200" />
<missing-glyph horiz-adv-x="238" />
<glyph unicode=" "  horiz-adv-x="238" />
<glyph unicode="&#x09;" horiz-adv-x="238" />
<glyph unicode="&#xa0;" horiz-adv-x="238" />
<glyph unicode="!" horiz-adv-x="268" d="M125 101l-18 -101h-89l18 101h89zM243 749l-112 -543h-65l80 543h97z" />
<glyph unicode="&#x22;" horiz-adv-x="370" d="M108 450h-65l38 300h94zM275 450h-67l39 300h94z" />
<glyph unicode="#" horiz-adv-x="679" d="M417 260l-71 -222h-46l70 222h-132l-69 -222h-49l71 222h-140l15 45h139l41 126h-140l15 46h139l66 205h47l-65 -205h132l64 205h47l-65 -205h144l-15 -46h-143l-41 -126h143l-14 -45h-143zM425 431h-133l-40 -126h132z" />
<glyph unicode="$" horiz-adv-x="687" d="M323 416l46 264h-37q-35 0 -58 -2.5t-49 -13t-41.5 -28.5t-25.5 -51.5t-10 -80.5q0 -55 32 -71.5t107 -16.5h36zM373 344l-50 -286h29q96 0 147.5 43.5t51.5 153.5q0 58 -35.5 73.5t-124.5 15.5h-18zM311 -10l-14 -74h-63l14 74q-39 0 -61.5 0.5t-54 3.5t-48.5 8 t-37.5 15.5t-30.5 25t-17 36.5t-7 51q0 30 12 94h83q-9 -50 -9 -80q0 -55 32 -70.5t122 -15.5h28l50 286q-48 0 -77.5 1.5t-66 9.5t-57 22.5t-34.5 41t-14 65.5q0 80 21.5 133.5t64 81.5t92.5 39t119 11h23l13 69h63l-13 -69q50 0 80.5 -2t63.5 -9.5t50.5 -22t28.5 -40 t11 -63.5q0 -34 -7 -73h-83q7 36 7 65q0 42 -23.5 59t-83.5 17h-56l-46 -264q53 0 83.5 -1.5t66.5 -9t54.5 -21.5t31.5 -41t13 -66q0 -150 -70 -218.5t-230 -68.5h-24z" />
<glyph unicode="%" horiz-adv-x="912" d="M279 750q81 0 112 -18.5t31 -65.5q0 -23 -23 -153q-15 -83 -51 -111.5t-135 -28.5q-82 0 -113.5 18.5t-31.5 66.5q0 22 23 151q15 85 51.5 113t136.5 28zM272 709q-61 0 -90 -15.5t-39 -71.5q-26 -145 -26 -155q0 -35 24 -44t79 -9q26 0 40 1t31.5 5t26.5 13t17.5 25 t12.5 40q25 139 25 153q0 37 -23.5 47.5t-77.5 10.5zM816 750l-640 -750h-51l637 750h54zM729 377q81 0 112 -18.5t31 -65.5q0 -23 -23 -153q-15 -83 -51 -111.5t-135 -28.5q-82 0 -113.5 18.5t-31.5 66.5q0 22 23 151q15 85 51.5 113t136.5 28zM722 336q-61 0 -90 -15.5 t-39 -71.5q-26 -145 -26 -155q0 -35 24 -44t79 -9q26 0 40 1t31.5 5t26.5 13t17.5 25t12.5 40q25 139 25 153q0 37 -23.5 47.5t-77.5 10.5z" />
<glyph unicode="&#x26;" horiz-adv-x="786" d="M572 330h83l-11 -65q-10 -53 -27 -100l112 -107l-56 -58l-94 91q-22 -33 -52 -54t-69.5 -29.5t-67.5 -10.5t-74 -2q-55 0 -84.5 1t-68 5.5t-58 14t-39 26.5t-27 44t-7.5 64q0 135 49 202t146 78q-26 26 -36 44.5t-10 45.5q0 121 60.5 171t196.5 50q102 0 146.5 -23.5 t44.5 -96.5q0 -37 -14 -103h-83q11 60 11 86q0 43 -26 53.5t-104 10.5q-27 0 -44 -1.5t-38.5 -8t-33.5 -18.5t-20.5 -35t-8.5 -55q0 -25 10 -43t35 -43l239 -236q9 33 20 102zM272 384q-81 -17 -108 -42.5t-40 -102.5q-10 -58 -10 -86q0 -51 31 -69.5t114 -18.5h73 q156 0 190 77z" />
<glyph unicode="'" horiz-adv-x="205" d="M110 450h-68l39 299h95z" />
<glyph unicode="(" horiz-adv-x="311" d="M335 756l-12 -70q-39 0 -65 -12t-41 -39.5t-22.5 -53t-15.5 -72.5l-73 -414q-8 -46 -8 -67q0 -76 79 -76h16l-12 -70h-23q-79 0 -110.5 35t-31.5 99q0 43 12 110l62 351q8 43 13 67.5t15 58.5t20.5 53t28.5 41t41 33t55 18.5t72 7.5z" />
<glyph unicode=")" horiz-adv-x="311" d="M139 756q92 0 128 -34.5t36 -103.5q0 -41 -17 -141l-62 -351q-8 -46 -16 -77t-24 -65.5t-37.5 -54.5t-56.5 -33.5t-82 -13.5h-23l12 70h16q33 0 55.5 11t35.5 34t19 43.5t12 53.5l74 416q11 62 11 90q0 43 -20.5 64.5t-72.5 21.5z" />
<glyph unicode="*" horiz-adv-x="687" d="M548 588l-163 -55l70 -132l-51 -32l-69 136l-124 -136l-38 32l119 132l-141 58l27 53l144 -56l29 162h55l-29 -162l163 57z" />
<glyph unicode="+" d="M30 405h230l38 217h48l-38 -217h232l-8 -47h-232l-38 -217h-48l38 217h-230z" />
<glyph unicode="," horiz-adv-x="227" d="M178 101l-20 -110q-9 -52 -29 -77.5t-66 -25.5q-12 0 -22 2l8 42q28 1 40.5 13t17.5 40l3 15h-39l18 101h89z" />
<glyph unicode="-" horiz-adv-x="358" d="M53 326h278l-13 -66h-278z" />
<glyph unicode="." horiz-adv-x="223" d="M165 101l-18 -101h-89l18 101h89z" />
<glyph unicode="/" horiz-adv-x="726" d="M724 749l-731 -859h-61l729 859h63z" />
<glyph unicode="0" horiz-adv-x="687" d="M681 377q-21 -116 -51 -191t-78 -118t-108 -59.5t-148 -16.5q-140 0 -203 48.5t-63 175.5q0 64 17 161q20 116 50 190t78 116t107.5 58t148.5 16q142 0 204 -47t62 -174q0 -69 -16 -159zM598 377q17 100 17 157q0 88 -43 119t-154 31q-76 0 -121 -11.5t-78.5 -47 t-52.5 -92t-36 -155.5q-18 -106 -18 -158q0 -89 44 -122t153 -33q142 0 198.5 61.5t90.5 250.5z" />
<glyph unicode="1" horiz-adv-x="687" d="M528 749l-132 -749h-80l121 685l-229 -211l-45 49l247 226h118z" />
<glyph unicode="2" horiz-adv-x="689" d="M567 73l-13 -73h-540l25 140q9 51 29 88t44 58.5t63.5 35.5t75 19.5t91.5 10.5q88 8 130.5 24.5t61 47t29.5 95.5q5 25 5 53q0 59 -37 85.5t-121 26.5q-116 0 -166 -41t-63 -149h-80q27 151 95.5 207t228.5 56q118 0 173 -39t55 -128q0 -34 -7 -72q-13 -71 -32.5 -114 t-57 -69t-82 -37t-122.5 -19q-94 -10 -139.5 -24.5t-65.5 -41t-29 -81.5l-11 -59h460z" />
<glyph unicode="3" horiz-adv-x="689" d="M289 348l13 73h96q95 0 124.5 23.5t45.5 113.5q3 16 3 32q0 47 -37 70.5t-126 23.5q-106 0 -150 -36.5t-60 -127.5h-80q22 130 90.5 183.5t211.5 53.5q123 0 179.5 -38t56.5 -113q0 -20 -5 -48q-15 -89 -49.5 -126t-102.5 -47q61 -8 86.5 -34.5t25.5 -75.5q0 -26 -6 -59 q-23 -132 -89 -178t-229 -46q-59 0 -99 5.5t-75 21.5t-52 47t-17 78q0 35 13 101h80q-13 -71 -13 -89q0 -51 38 -71t137 -20q89 0 132.5 14t61.5 43t29 94q4 21 4 42q0 49 -31.5 69.5t-101.5 20.5h-104z" />
<glyph unicode="4" horiz-adv-x="689" d="M618 749l-89 -505h113l-13 -73h-113l-30 -171h-80l30 171h-422l18 101l460 477h126zM449 244l79 450l-431 -450h352z" />
<glyph unicode="5" horiz-adv-x="687" d="M105 370l67 378h504l-13 -73h-424l-40 -224q26 28 65.5 42.5t68 17t73.5 2.5q115 0 168 -37t53 -125q0 -35 -7 -74q-15 -85 -35 -136.5t-57 -86.5t-91 -48.5t-137 -13.5q-53 0 -85.5 2t-66.5 10t-52.5 23.5t-30 42.5t-11.5 67q0 30 8 78h83q-8 -43 -8 -68q0 -49 36 -65.5 t140 -16.5q102 0 150 33t65 130q12 70 12 102q0 61 -32.5 85.5t-113.5 24.5q-79 0 -120.5 -7t-59 -20.5t-29.5 -42.5h-80z" />
<glyph unicode="6" horiz-adv-x="689" d="M383 458q118 0 173 -35.5t55 -124.5q0 -164 -81 -235t-243 -71q-134 0 -187 31t-53 130q0 54 32 233q17 97 35 157t43 105t63.5 67t88.5 32t127 10q47 0 77.5 -2t63.5 -9t51.5 -20.5t30.5 -37.5t12 -59q0 -19 -9 -73h-83q7 37 7 56q0 45 -34.5 58.5t-128.5 13.5 q-124 0 -173 -41.5t-73 -174.5l-15 -82q24 39 67 55.5t154 16.5zM300 65q115 0 171 46.5t56 169.5q0 59 -38.5 81.5t-132.5 22.5q-123 0 -175.5 -47t-52.5 -168q0 -61 39 -83t133 -22z" />
<glyph unicode="7" horiz-adv-x="689" d="M686 749l-19 -106l-476 -643h-100l514 676h-478l13 73h546z" />
<glyph unicode="8" horiz-adv-x="689" d="M353 351q-119 0 -162.5 -30t-58.5 -114q-6 -29 -6 -51q0 -52 38.5 -71.5t139.5 -19.5q120 0 163.5 29t58.5 116q5 30 5 48q0 52 -38.5 72.5t-139.5 20.5zM411 683q-112 0 -153 -27.5t-54 -99.5q-6 -32 -6 -55q0 -46 34.5 -62.5t132.5 -16.5q127 0 171 40.5t44 133.5 q0 47 -37 67t-132 20zM210 390q-53 11 -74.5 36t-21.5 67q0 145 73 204t240 59q129 0 183.5 -31t54.5 -107q0 -92 -33.5 -151.5t-121.5 -76.5q105 -19 105 -121q0 -22 -5 -54q-12 -65 -29.5 -104.5t-53.5 -68t-92.5 -39.5t-144.5 -11q-139 0 -193.5 32.5t-54.5 111.5 q0 36 9 83q12 74 46 115t113 56z" />
<glyph unicode="9" horiz-adv-x="689" d="M329 289q-118 0 -173 35.5t-55 123.5q0 35 7 73q23 133 95.5 184t221.5 51q130 0 186 -32t56 -128q0 -41 -34 -234q-14 -81 -27.5 -134.5t-34 -97t-44 -68.5t-60.5 -41.5t-81.5 -22.5t-108.5 -6q-39 0 -65.5 1.5t-56 5.5t-48 13t-35 22.5t-24 35t-7.5 50.5q0 22 9 72h83 q-7 -30 -7 -55q0 -45 34.5 -58.5t129.5 -13.5q125 0 173.5 41t71.5 173l15 83q-16 -26 -35 -40.5t-64.5 -23.5t-121.5 -9zM412 683q-117 0 -172 -50.5t-55 -165.5q0 -60 38.5 -82.5t132.5 -22.5q121 0 174.5 49t53.5 167q0 61 -39 83t-133 22z" />
<glyph unicode=":" horiz-adv-x="223" d="M128 101l-18 -101h-89l18 101h89zM202 522l-18 -101h-89l18 101h89z" />
<glyph unicode=";" horiz-adv-x="224" d="M138 101l-20 -110q-9 -52 -29 -77.5t-66 -25.5q-12 0 -22 2l8 42q28 1 40.5 13t17.5 40l3 15h-39l18 101h89zM212 523l-18 -101h-89l18 101h89z" />
<glyph unicode="&#x37e;" horiz-adv-x="224" d="M138 101l-20 -110q-9 -52 -29 -77.5t-66 -25.5q-12 0 -22 2l8 42q28 1 40.5 13t17.5 40l3 15h-39l18 101h89zM212 523l-18 -101h-89l18 101h89z" />
<glyph unicode="&#x3c;" horiz-adv-x="561" d="M570 644l-15 -88l-425 -180l361 -181l-15 -87l-447 230l14 76z" />
<glyph unicode="=" d="M45 486h511l-8 -47h-511zM17 325h511l-8 -47h-511z" />
<glyph unicode="&#x3e;" d="M-9 108l15 87l425 181l-361 181l15 87l447 -231l-14 -75z" />
<glyph unicode="?" horiz-adv-x="584" d="M273 216h-89q14 83 45 119t108 60q88 28 117 72t29 126q0 50 -32 69t-108 19q-53 0 -80 -4.5t-47.5 -23.5t-30 -49t-19.5 -88h-80q13 74 28.5 116.5t46 71.5t75 39.5t116.5 10.5q113 0 164 -27t51 -108q0 -124 -56 -194.5t-143 -95.5q-52 -15 -70.5 -38.5t-24.5 -74.5z M252 101l-18 -101h-89l18 101h89z" />
<glyph unicode="@" horiz-adv-x="707" d="M495 531h55l-45 -258q-4 -24 -4 -37q0 -39 34 -39q20 0 31.5 9t27 51.5t30.5 126.5q16 88 16 129q0 68 -47.5 84.5t-202.5 16.5q-63 0 -100 -2t-69.5 -14t-48.5 -26t-32 -48.5t-24 -71t-20 -104.5q-19 -106 -19 -160q0 -80 46 -104.5t176 -24.5q118 0 161 8t52 29l34 -28 q-26 -36 -69 -46t-169 -10q-47 0 -74.5 1t-60.5 4.5t-51.5 10.5t-38.5 20t-29.5 32t-15.5 46t-6 63q0 60 17 160q15 86 33 139.5t42 89.5t64 53t87 23.5t124 6.5q165 0 225 -31t60 -122q0 -43 -13 -121q-13 -77 -28.5 -126t-34 -72.5t-36 -31t-42.5 -7.5q-34 0 -57 15 t-23 46q-37 -61 -146 -61q-67 0 -93.5 27t-26.5 79q0 33 10 86q9 49 19.5 80.5t31 58t53.5 38.5t81 12q87 0 108 -49zM382 484q-66 0 -89.5 -25t-39.5 -117q-10 -60 -10 -83q0 -38 16.5 -50t58.5 -12q76 0 102 26t39 100q12 70 12 92q0 36 -20.5 52.5t-68.5 16.5z" />
<glyph unicode="A" horiz-adv-x="720" d="M-20 0l405 749h121l147 -749h-89l-29 154h-378l-87 -154h-90zM521 227l-85 460l-246 -460h331z" />
<glyph unicode="B" horiz-adv-x="691" d="M168 345l-48 -272h231q102 0 143 25t56 113q7 44 7 62q0 46 -26 59t-97 13h-266zM226 676l-45 -258h238q91 0 133 42.5t42 144.5q0 39 -22.5 55t-76.5 16h-269zM24 0l132 749h361q83 0 122.5 -30t39.5 -98q0 -187 -129 -228q51 -15 71.5 -39.5t20.5 -66.5q0 -27 -8 -70 q-18 -106 -71.5 -161.5t-156.5 -55.5h-382z" />
<glyph unicode="C" horiz-adv-x="671" d="M562 250h81q-26 -148 -97 -203t-245 -55q-138 0 -194.5 41.5t-56.5 159.5q0 74 19 179q28 159 71 241.5t110 113t186 30.5q144 0 196.5 -38.5t52.5 -127.5q0 -39 -6 -79h-81q2 40 2 53q0 69 -34.5 94t-142.5 25q-131 0 -183 -60t-86 -240q-20 -105 -20 -172 q0 -87 40.5 -117t139.5 -30q132 0 180 36.5t68 148.5z" />
<glyph unicode="D" horiz-adv-x="732" d="M24 0l132 749h346q124 0 174.5 -54.5t50.5 -157.5q0 -57 -18 -163q-15 -87 -34 -146.5t-54 -115.5t-92 -84t-137 -28h-368zM226 676l-106 -603h244q113 0 172 64.5t90 236.5q14 81 14 132q0 94 -41.5 132t-131.5 38h-241z" />
<glyph unicode="E" horiz-adv-x="596" d="M181 418h381l-13 -73h-381l-48 -272h397l-13 -73h-480l132 749h482l-13 -73h-399z" />
<glyph unicode="F" horiz-adv-x="545" d="M181 418h365l-13 -73h-365l-61 -345h-83l132 749h457l-13 -73h-374z" />
<glyph unicode="G" horiz-adv-x="695" d="M711 529h-83q3 27 3 49q0 63 -40 84.5t-159 21.5q-70 0 -113 -12t-76.5 -47.5t-53.5 -94.5t-37 -158q-18 -105 -18 -156q0 -89 42.5 -120t146.5 -31q136 0 191 52.5t78 203.5h-240l13 73h323q-12 -89 -28 -152.5t-39.5 -108.5t-50 -72.5t-67.5 -43t-84.5 -20.5t-107.5 -5 q-144 0 -202.5 45t-58.5 160q0 66 19 175q20 113 46 184t70 117.5t105.5 65t154.5 18.5q110 0 169.5 -18t80 -51t20.5 -93q0 -32 -4 -66z" />
<glyph unicode="H" horiz-adv-x="744" d="M181 418h438l58 331h83l-132 -749h-83l61 345h-438l-61 -345h-83l132 749h83z" />
<glyph unicode="I" horiz-adv-x="223" d="M239 749l-132 -749h-83l132 749h83z" />
<glyph unicode="J" horiz-adv-x="561" d="M494 749h83l-96 -543q-18 -105 -78 -159.5t-190 -54.5q-112 0 -157 32.5t-45 103.5q0 41 20 145h83q-17 -91 -17 -120q0 -49 28.5 -68.5t100.5 -19.5q78 0 119 36t55 118z" />
<glyph unicode="K" horiz-adv-x="696" d="M239 749l-58 -331h74l365 331h111l-408 -362l316 -387h-115l-282 345h-74l-61 -345h-83l132 749h83z" />
<glyph unicode="L" horiz-adv-x="553" d="M239 749l-119 -676h379l-13 -73h-462l132 749h83z" />
<glyph unicode="M" horiz-adv-x="946" d="M293 749l153 -642l379 642h137l-132 -749h-83l122 689l-405 -689h-72l-165 682l-120 -682h-83l132 749h137z" />
<glyph unicode="N" horiz-adv-x="777" d="M156 749h132l302 -684l120 684h83l-132 -749h-132l-303 677l-119 -677h-83z" />
<glyph unicode="O" horiz-adv-x="729" d="M70 374q22 123 47.5 195t71 115.5t105.5 58t160 14.5q148 0 206.5 -40t58.5 -155q0 -64 -21 -188q-22 -123 -47 -194.5t-70 -115t-105 -58t-159 -14.5q-149 0 -208 40.5t-59 156.5q0 70 20 185zM153 374q-21 -120 -21 -174q0 -82 42.5 -108.5t156.5 -26.5q54 0 89 4 t64.5 18t47.5 33t34 57t26 82t23 115q22 119 22 178q0 80 -42 106t-155 26q-55 0 -90.5 -4t-65.5 -18t-47.5 -33t-34 -57t-26.5 -82t-23 -116z" />
<glyph unicode="P" horiz-adv-x="666" d="M159 293l-52 -293h-83l132 749h357q89 0 128.5 -33.5t39.5 -106.5q0 -35 -7 -73q-25 -138 -87.5 -190.5t-204.5 -52.5h-223zM226 676l-54 -310h199q106 0 153.5 31.5t64.5 127.5q7 45 7 67q0 45 -24 64.5t-84 19.5h-262z" />
<glyph unicode="Q" horiz-adv-x="743" d="M696 91l-44 -57l-49 38q-52 -51 -115 -65.5t-176 -14.5q-150 0 -209 40.5t-59 156.5q0 70 20 185q22 123 47.5 195t71 115.5t105.5 58t158 14.5q152 0 211.5 -40t59.5 -156q0 -75 -25.5 -217.5t-50.5 -209.5zM384 326l191 -143q14 52 36 182.5t22 181.5q0 83 -43 110 t-158 27q-54 0 -89 -4t-65 -18t-47.5 -33t-33.5 -57t-26.5 -82.5t-23.5 -115.5q-21 -120 -21 -175q0 -81 42 -107.5t155 -26.5q96 0 142.5 9.5t76.5 41.5l-207 151z" />
<glyph unicode="R" horiz-adv-x="699" d="M160 303l-53 -303h-83l132 749h356q95 0 140.5 -34t45.5 -113q0 -57 -14 -111t-54 -101.5t-101 -56.5q96 -7 96 -100q0 -30 -38 -233h-83q34 189 34 209q0 50 -31 72t-94 22h-253zM226 676l-53 -300h245q194 0 194 205q0 52 -27 73.5t-86 21.5h-273z" />
<glyph unicode="S" horiz-adv-x="629" d="M30 231h83q-10 -57 -10 -82q0 -54 36.5 -69t145.5 -15q69 0 115 13t69.5 40t32.5 59t9 78t-36.5 63t-139.5 21q-129 5 -188.5 36t-59.5 116q0 141 78.5 203.5t241.5 62.5q122 0 178.5 -29t56.5 -118q0 -22 -7 -68h-83q6 32 6 54q0 50 -35.5 69t-128.5 19 q-129 0 -175.5 -37t-46.5 -133q0 -51 45.5 -70t171.5 -26q107 -6 157 -36t50 -108q0 -72 -15 -122t-51 -87t-100 -55t-158 -18q-52 0 -86 2t-69 10.5t-54.5 23.5t-32 41t-12.5 64q0 27 12 98z" />
<glyph unicode="T" horiz-adv-x="601" d="M413 676l-119 -676h-83l119 676h-242l13 73h567l-13 -73h-242z" />
<glyph unicode="U" horiz-adv-x="736" d="M161 749h83l-93 -525q-8 -43 -8 -69q0 -55 39 -72.5t151 -17.5q72 0 111.5 5t67.5 23.5t40.5 47.5t21.5 83l93 525h83l-93 -527q-8 -47 -21.5 -82t-28.5 -59.5t-39 -41t-46 -26t-58 -14.5t-66 -6t-78 -1q-47 0 -75.5 1t-62 6t-52.5 14.5t-37 26t-25.5 42t-7.5 60.5 q0 30 8 80z" />
<glyph unicode="V" horiz-adv-x="643" d="M638 749h91l-397 -749h-122l-135 749h90l119 -682z" />
<glyph unicode="W" horiz-adv-x="1151" d="M1222 749l-369 -749h-128l-77 674l-321 -674h-125l-99 749h88l84 -684l323 684h125l80 -684l330 684h89z" />
<glyph unicode="X" horiz-adv-x="686" d="M222 749l156 -320l268 320h100l-310 -361l200 -388h-102l-171 344l-293 -344h-102l336 388l-182 361h100z" />
<glyph unicode="Y" horiz-adv-x="673" d="M106 749h93l164 -358l289 358h95l-360 -436l-55 -313h-83l55 313z" />
<glyph unicode="Z" horiz-adv-x="637" d="M687 749l-14 -80l-578 -596h483l-13 -73h-584l13 74l575 602h-454l13 73h559z" />
<glyph unicode="[" horiz-adv-x="311" d="M137 749h192l-11 -65h-109l-129 -731h109l-12 -65h-192z" />
<glyph unicode="\" horiz-adv-x="726" d="M155 749h63l425 -859h-61z" />
<glyph unicode="]" horiz-adv-x="311" d="M174 -112h-192l12 65h109l129 731h-109l11 65h192z" />
<glyph unicode="^" d="M89 420h-82l254 330h99l138 -330h-83l-115 271z" />
<glyph unicode="_" d="M5 -81h562l-10 -57h-562z" />
<glyph unicode="`" d="M241 742l128 -113l-34 -41l-143 99z" />
<glyph unicode="a" horiz-adv-x="565" d="M245 258q-74 0 -107.5 -27.5t-33.5 -101.5q0 -42 25 -57t82 -15q39 0 64 2t52.5 9.5t42.5 21.5t25 40t10 63q0 42 -33 53.5t-127 11.5zM164 382h-80q7 42 23.5 71t35 45t50 24t58 10t68.5 2q106 0 154 -24t48 -100q0 -27 -6 -60l-61 -350h-75l15 68q-36 -48 -72.5 -62 t-117.5 -14q-93 0 -137.5 23.5t-44.5 92.5q0 116 57.5 163.5t175.5 47.5q89 0 121 -13.5t43 -47.5q21 114 21 144q0 44 -27.5 55.5t-108.5 11.5q-76 0 -104 -15t-36 -72z" />
<glyph unicode="b" horiz-adv-x="566" d="M327 469q-35 0 -60.5 -4.5t-44 -17.5t-29.5 -25.5t-20.5 -41.5t-14 -50.5t-12.5 -66.5q-14 -79 -14 -113q0 -50 27 -71.5t98 -21.5q92 0 128.5 45.5t56.5 160.5q12 69 12 102q0 55 -28.5 79.5t-98.5 24.5zM232 749l-50 -285q34 38 72 54t111 16q94 0 132 -39.5t38 -114.5 q0 -44 -13 -120q-12 -69 -27 -113.5t-43.5 -82t-75 -55t-115.5 -17.5q-71 0 -101.5 15t-52.5 60l-7 -67h-80l132 749h80z" />
<glyph unicode="c" horiz-adv-x="537" d="M406 192h77q-27 -120 -82.5 -160t-178.5 -40q-103 0 -146 34.5t-43 119.5q0 50 12 117q27 155 84.5 213t186.5 58q97 0 145.5 -26t48.5 -94q0 -23 -7 -59h-77q5 28 5 45q0 38 -27.5 53.5t-99.5 15.5q-89 0 -122.5 -37.5t-55.5 -165.5q-12 -66 -12 -108q0 -59 27 -80 t93 -21q90 0 121 25.5t51 109.5z" />
<glyph unicode="d" horiz-adv-x="566" d="M307 469q-35 0 -60.5 -4.5t-44 -17.5t-29.5 -25.5t-20.5 -41.5t-14 -50.5t-12.5 -66.5q-14 -79 -14 -113q0 -50 27 -71.5t98 -21.5q92 0 128.5 45.5t56.5 160.5q12 69 12 102q0 55 -28.5 79.5t-98.5 24.5zM458 464l50 285h80l-132 -749h-78l15 67q-38 -45 -74.5 -60 t-107.5 -15q-99 0 -139 36.5t-40 111.5q0 41 14 120q9 53 19 89.5t28.5 74.5t44 60t66 36t94.5 14q73 0 106 -16t54 -54z" />
<glyph unicode="e" horiz-adv-x="551" d="M498 246h-376q-11 -61 -11 -96q0 -55 28 -74t99 -19q95 0 125 18.5t40 86.5h80q-10 -55 -29.5 -89.5t-54 -52t-73.5 -23t-100 -5.5q-106 0 -149.5 33.5t-43.5 120.5q0 48 12 119q27 152 89.5 210.5t186.5 58.5q101 0 147.5 -36.5t46.5 -122.5q0 -38 -17 -129zM133 311 h296q7 42 7 63q0 53 -29.5 74t-97.5 21q-85 0 -122.5 -34.5t-53.5 -123.5z" />
<glyph unicode="f" horiz-adv-x="295" d="M348 525l-12 -65h-137l-81 -460h-80l81 460h-80l12 65h80l13 78q15 87 61 121.5t135 34.5q25 0 45 -4l-11 -65q-25 4 -51 4q-44 0 -66.5 -20.5t-30.5 -64.5l-15 -84h137z" />
<glyph unicode="g" d="M326 469q-35 0 -60.5 -4.5t-44 -17.5t-29.5 -25.5t-20.5 -41.5t-14 -50.5t-12.5 -66.5q-14 -79 -14 -113q0 -50 27 -71.5t98 -21.5q92 0 128.5 45.5t56.5 160.5q12 69 12 102q0 55 -28.5 79.5t-98.5 24.5zM479 456l8 68h76l-98 -558q-21 -120 -76.5 -160.5t-188.5 -40.5 q-98 0 -139.5 21.5t-41.5 89.5q0 26 6 62h74q-3 -22 -3 -38q0 -44 23 -57t83 -13q94 0 131.5 22.5t53.5 106.5l19 105q-30 -44 -76.5 -58t-108.5 -14q-93 0 -131.5 37.5t-38.5 112.5q0 39 10 99q10 59 19 95t28 78.5t44.5 65.5t68.5 38.5t101 15.5q121 0 157 -78z" />
<glyph unicode="h" horiz-adv-x="575" d="M231 749l-50 -284q31 43 73 55.5t106 12.5q92 0 131.5 -26.5t39.5 -94.5q0 -34 -7 -72l-60 -340h-80l63 355q4 23 4 43q0 42 -25 56t-85 14q-96 0 -134 -36.5t-55 -132.5l-53 -299h-80l132 749h80z" />
<glyph unicode="i" horiz-adv-x="210" d="M231 749l-15 -86h-80l15 86h80zM191 524l-92 -524h-80l92 524h80z" />
<glyph unicode="j" horiz-adv-x="210" d="M229 750l-15 -86h-80l15 86h80zM109 524h80l-101 -573q-12 -71 -44.5 -113t-99.5 -42q-22 0 -37 5l9 55q6 -3 11 -3q30 0 47.5 15.5t22.5 32.5t11 50z" />
<glyph unicode="k" horiz-adv-x="506" d="M231 749l-77 -438h31l226 213h96l-265 -241l214 -283h-104l-179 246h-31l-43 -246h-80l132 749h80z" />
<glyph unicode="l" horiz-adv-x="210" d="M231 749l-132 -749h-80l132 749h80z" />
<glyph unicode="m" horiz-adv-x="912" d="M190 524l-12 -70q65 80 182 80q137 0 151 -89q66 89 195 89q85 0 123 -29t38 -95q0 -28 -6 -63l-61 -347h-80l62 352q5 30 5 46q0 39 -23 55t-79 16q-153 0 -175 -122l-61 -347h-80l61 346q6 32 6 53q0 39 -23.5 54.5t-83.5 15.5q-85 0 -123.5 -39t-54.5 -129l-53 -301 h-80l92 524h80z" />
<glyph unicode="n" horiz-adv-x="575" d="M190 524l-10 -59q31 43 73 55.5t106 12.5q92 0 131.5 -26.5t39.5 -94.5q0 -34 -7 -72l-60 -340h-80l63 355q4 23 4 43q0 42 -25 56t-85 14q-96 0 -134 -36.5t-55 -132.5l-53 -299h-80l92 524h80z" />
<glyph unicode="o" horiz-adv-x="551" d="M506 262q-28 -161 -87 -216.5t-192 -55.5q-105 0 -149.5 33t-44.5 121q0 48 12 117q28 161 87 216.5t191 55.5q106 0 151 -33t45 -120q0 -42 -13 -118zM426 262q12 64 12 106q0 59 -28.5 79.5t-98.5 20.5q-91 0 -127 -39t-59 -167q-12 -66 -12 -106q0 -60 28 -80.5 t98 -20.5q63 0 96 15t54 58.5t37 133.5z" />
<glyph unicode="p" horiz-adv-x="566" d="M326 469q-35 0 -60.5 -4.5t-44 -17.5t-29.5 -25.5t-20.5 -41.5t-14 -50.5t-12.5 -66.5q-14 -79 -14 -113q0 -50 27 -71.5t98 -21.5q92 0 128.5 45.5t56.5 160.5q12 69 12 102q0 55 -28.5 79.5t-98.5 24.5zM191 524l-10 -60q63 70 174 70q100 0 140 -37.5t40 -112.5 q0 -46 -13 -117q-12 -67 -26.5 -111t-42 -84.5t-73.5 -60t-113 -19.5q-60 0 -99.5 13.5t-58.5 54.5l-50 -285h-80l132 749h80z" />
<glyph unicode="q" horiz-adv-x="566" d="M325 469q-35 0 -60.5 -4.5t-44 -17.5t-29.5 -25.5t-20.5 -41.5t-14 -50.5t-12.5 -66.5q-14 -79 -14 -113q0 -50 27 -71.5t98 -21.5q92 0 128.5 45.5t56.5 160.5q12 69 12 102q0 55 -28.5 79.5t-98.5 24.5zM486 524h80l-132 -749h-80l50 285q-33 -41 -78 -54.5t-106 -13.5 q-94 0 -131.5 38t-37.5 113q0 49 13 120q13 70 28 114.5t43 83t75 56t116 17.5q111 0 150 -69z" />
<glyph unicode="r" horiz-adv-x="444" d="M190 524l-9 -52q57 65 150 65q67 0 98.5 -27t31.5 -83q0 -30 -10 -77h-80q10 50 10 67q0 31 -18.5 43t-58.5 12q-122 0 -145 -123l-61 -349h-80l92 524h80z" />
<glyph unicode="s" horiz-adv-x="537" d="M502 390h-80q3 14 3 24q0 30 -26.5 42.5t-97.5 12.5q-91 0 -121 -22t-30 -85q0 -31 27.5 -42t110.5 -15q93 -4 140.5 -31t47.5 -91q0 -111 -62 -151t-189 -40q-106 0 -152 23.5t-46 93.5q0 25 6 58h80q-4 -21 -4 -41q0 -42 27.5 -55.5t96.5 -13.5q96 0 129 24.5t33 90.5 q0 54 -127 64q-38 3 -61.5 6t-52.5 10.5t-45.5 19.5t-28 32t-11.5 48q0 102 60.5 142t175.5 40q47 0 79.5 -3.5t63 -13t45.5 -30t15 -52.5q0 -20 -6 -45z" />
<glyph unicode="t" horiz-adv-x="393" d="M141 651h80l-22 -126h202l-11 -65h-202l-57 -321q-4 -20 -4 -38q0 -24 13.5 -34t49.5 -10q49 0 67 22.5t30 105.5h75q-20 -116 -53.5 -154.5t-130.5 -38.5q-72 0 -102.5 20.5t-30.5 71.5q0 24 6 55l57 321h-69l11 65h69z" />
<glyph unicode="u" horiz-adv-x="566" d="M112 524h80l-61 -347q-6 -38 -6 -51q0 -39 23 -54.5t81 -15.5q91 0 130.5 35t54.5 124l54 309h80l-92 -524h-74l12 69q-40 -47 -84 -62.5t-110 -15.5q-82 0 -120 26t-38 88q0 20 5 52z" />
<glyph unicode="v" horiz-adv-x="476" d="M54 524h85l62 -465l228 465h85l-267 -524h-110z" />
<glyph unicode="w" horiz-adv-x="763" d="M59 524h79l37 -471l198 471h114l31 -471l203 471h82l-239 -524h-114l-31 469l-195 -469h-116z" />
<glyph unicode="x" horiz-adv-x="476" d="M66 524h92l85 -192l153 192h92l-211 -250l139 -274h-96l-98 212l-172 -212h-96l235 274z" />
<glyph unicode="y" horiz-adv-x="469" d="M64 524h80l82 -466l202 466h81l-266 -594q-43 -96 -84.5 -131.5t-103.5 -35.5q-26 0 -44 6l11 64q18 -5 29 -5q45 0 70 29.5t76 142.5h-34z" />
<glyph unicode="z" horiz-adv-x="453" d="M96 524h379l-12 -71l-382 -388h313l-11 -65h-406l13 74l381 385h-286z" />
<glyph unicode="{" horiz-adv-x="561" d="M148 244l12 67q69 18 84 104l34 196q16 89 66.5 120.5t150.5 31.5l-13 -73q-58 0 -87 -24t-39 -84l-32 -180q-8 -49 -25 -78t-58 -48q43 -26 43 -83q0 -27 -20 -133.5t-20 -129.5q0 -37 21 -52t71 -15l-13 -73q-91 0 -129 19.5t-38 83.5q0 27 21.5 148t21.5 136 q0 51 -51 67z" />
<glyph unicode="|" horiz-adv-x="561" d="M240 -186h-83l165 935h83z" />
<glyph unicode="}" horiz-adv-x="561" d="M414 308l-12 -66q-68 -18 -83 -104l-35 -196q-16 -89 -66 -120.5t-151 -31.5l13 73q60 3 88 26t38 82l32 180q9 49 25.5 78t56.5 48q-42 26 -42 81q0 27 20 135t20 128q0 38 -21.5 53.5t-70.5 15.5l13 73q38 0 59.5 -1.5t45 -7t35.5 -16t19.5 -29.5t7.5 -47 q0 -30 -21 -146.5t-21 -137.5q0 -53 50 -70z" />
<glyph unicode="~" horiz-adv-x="561" d="M43 293l-41 37q82 126 176 126q41 0 110 -41t113 -41q54 0 116 84l40 -37q-83 -125 -177 -125q-42 0 -107.5 39t-104.5 39q-66 0 -125 -81z" />
<glyph unicode="&#xa3;" horiz-adv-x="674" d="M58 407h88l16 92q27 151 91.5 204.5t199.5 53.5q103 0 144 -29t41 -100q0 -38 -11 -99h-83q7 38 7 67q0 50 -24.5 69t-82.5 19q-93 0 -135 -31t-56 -108l-24 -138h233l-13 -73h-233l-11 -65q-17 -95 -40.5 -139.5t-61.5 -56.5h401l-13 -73h-515l13 73q50 12 83 57.5 t51 145.5l10 58h-88z" />
<glyph unicode="&#xa4;" horiz-adv-x="720" d="M166 543l45 38l41 -50q68 43 146 43q79 0 128 -43l60 51l31 -36l-57 -49q21 -34 21 -84q0 -49 -19 -99t-51 -82l41 -50l-44 -38l-42 50q-65 -43 -148 -43q-69 0 -126 43l-60 -51l-31 36l57 49q-21 37 -21 87q0 101 70 178zM383 501q-68 0 -115.5 -49t-47.5 -118 q0 -52 31.5 -81t82.5 -29q63 0 114 47.5t51 117.5q0 49 -33 80.5t-83 31.5z" />
<glyph unicode="&#xa5;" horiz-adv-x="687" d="M103 749h98l146 -351l269 351h100l-188 -239h102l-12 -69h-145l-89 -111h214l-12 -69h-224l-46 -261h-84l46 261h-216l12 69h206l-47 111h-139l12 69h98z" />
<glyph unicode="&#xa6;" horiz-adv-x="556" d="M331 419h-80l59 330h80zM249 -50h-80l58 330h80z" />
<glyph unicode="&#xa7;" horiz-adv-x="687" d="M248 412q-43 0 -65.5 -42.5t-22.5 -91.5q0 -29 15 -42t54 -24l161 -47q36 -10 51 -10q43 0 66.5 39.5t23.5 90.5q0 25 -18.5 40t-58.5 27l-154 47q-40 13 -52 13zM637 559h-73q6 35 6 58q0 45 -30.5 58t-119.5 13q-75 0 -109 -8.5t-47 -27.5t-21 -64q-4 -20 -4 -38 q0 -30 18 -44.5t68 -30.5l158 -52q70 -22 95.5 -41.5t25.5 -66.5q0 -146 -99 -186q51 -24 51 -83q0 -17 -8 -67q-20 -115 -77 -153t-209 -38q-52 0 -82.5 2t-62.5 9t-48 20.5t-26.5 37.5t-10.5 60q0 29 8 77h75q-9 -44 -9 -67q0 -44 35 -56.5t133 -12.5q102 0 146.5 23 t55.5 84q5 32 5 47q0 32 -18 45t-70 27l-219 61q-48 14 -69 38.5t-21 68.5q0 71 26.5 123t87.5 63q-39 28 -39 87q0 18 6 54q11 59 28 94t51 54t75.5 24.5t113.5 5.5q49 0 77.5 -1.5t58 -8t44 -19t23.5 -35t9 -55.5q0 -29 -8 -79z" />
<glyph unicode="&#xa9;" horiz-adv-x="879" d="M640 332q-22 -83 -88 -134t-150 -51q-83 0 -130.5 50t-47.5 129q0 112 75.5 195.5t184.5 83.5q74 0 122.5 -40.5t48.5 -113.5h-47q0 49 -40 77t-94 28q-84 0 -138 -69t-54 -155q0 -60 33.5 -98t95.5 -38q65 0 114.5 36.5t68.5 99.5h46zM508 761q141 0 232.5 -91.5 t91.5 -228.5q0 -118 -65.5 -223.5t-172 -168.5t-222.5 -63q-141 0 -233 92t-92 230q0 117 66.5 222.5t173 168t221.5 62.5zM501 717q-103 0 -197 -56t-151.5 -149.5t-57.5 -197.5q0 -121 80 -202.5t205 -81.5q157 0 280.5 123t123.5 281q0 121 -79.5 202t-203.5 81z" />
<glyph unicode="&#xab;" horiz-adv-x="503" d="M242 575l52 -35l-163 -251l88 -253l-63 -36l-99 289zM427 575l51 -35l-163 -251l87 -253l-61 -36l-101 289z" />
<glyph unicode="&#xac;" horiz-adv-x="561" d="M454 155l36 203h-440l8 47h487l-44 -250h-47z" />
<glyph unicode="&#xad;" horiz-adv-x="358" d="M53 326h278l-13 -66h-278z" />
<glyph unicode="&#xae;" horiz-adv-x="879" d="M320 332l-32 -182h-51l80 455h217q59 0 85.5 -19.5t26.5 -65.5q0 -148 -102 -167q62 -6 62 -64q0 -15 -22 -139h-49q20 117 20 127q0 30 -19.5 42.5t-59.5 12.5h-156zM360 560l-33 -185h149q63 0 91 30.5t28 104.5q0 26 -14.5 38t-52.5 12h-168zM508 761 q141 0 232.5 -91.5t91.5 -228.5q0 -117 -66 -223t-172.5 -169t-221.5 -63q-141 0 -233 92t-92 230q0 117 66.5 222.5t173 168t221.5 62.5zM501 717q-103 0 -197 -56t-151.5 -149.5t-57.5 -197.5q0 -121 80 -202.5t205 -81.5q157 0 280.5 123t123.5 281q0 121 -79.5 202 t-203.5 81z" />
<glyph unicode="&#xaf;" d="M144 646h278l-12 -64h-278z" />
<glyph unicode="&#x2c9;" d="M144 646h278l-12 -64h-278z" />
<glyph unicode="&#xb0;" d="M309 746q58 0 95.5 -38.5t37.5 -94.5q0 -73 -58.5 -129.5t-130.5 -56.5q-56 0 -95 38t-39 93q0 74 58.5 131t131.5 57zM302 705q-55 0 -97.5 -44t-42.5 -94q0 -39 26.5 -69t70.5 -30q51 0 96 40.5t45 99.5q0 37 -26.5 67t-71.5 30z" />
<glyph unicode="&#xb1;" d="M38 548h230l39 217h47l-39 -217h232l-8 -47h-232l-38 -213h-47l38 213h-230zM-16 238h509l-9 -47h-509z" />
<glyph unicode="&#xb4;" d="M350 742l29 -55l-178 -99l-19 41z" />
<glyph unicode="&#xb5;" horiz-adv-x="588" d="M129 537h80l-59 -335q-3 -14 -3 -28q0 -52 34 -84.5t89 -32.5q72 0 122 56t63 130l52 294h80l-95 -537h-80l19 105q-29 -53 -74.5 -83t-99.5 -30q-96 0 -131 76l-45 -255h-80z" />
<glyph unicode="&#xb6;" horiz-adv-x="689" d="M543 -210h-76l156 889h-89l-156 -889h-76l88 504h-118q-133 0 -182.5 30.5t-49.5 99.5q0 28 11 92q13 75 28 115t48.5 69.5t85.5 39t140 9.5h359zM403 364l55 315h-169q-82 0 -111 -29t-46 -127q-6 -36 -6 -62q0 -55 33.5 -76t118.5 -21h125z" />
<glyph unicode="&#xb7;" horiz-adv-x="687" d="M397 324l-18 -101h-89l18 101h89z" />
<glyph unicode="&#xbb;" horiz-adv-x="503" d="M363 575l83 -286l-202 -289l-48 36l175 253l-73 251zM178 575l85 -286l-204 -289l-46 36l174 253l-73 251z" />
<glyph unicode="&#xd7;" horiz-adv-x="561" d="M139 594l146 -178l209 178l28 -34l-209 -178l147 -177l-38 -33l-148 177l-209 -178l-28 34l209 178l-146 177z" />
<glyph unicode="&#xf7;" d="M30 405h510l-8 -47h-510zM325 632q16 0 27 -11.5t11 -24.5q0 -21 -17 -36t-36 -15q-17 0 -27.5 11t-10.5 25q0 18 17.5 34.5t35.5 16.5zM252 218q16 0 27 -11.5t11 -24.5q0 -21 -17 -36t-36 -15q-17 0 -27.5 11t-10.5 25q0 18 17.5 34.5t35.5 16.5z" />
<glyph unicode="&#x192;" horiz-adv-x="676" d="M650 725l-12 -73q-52 11 -78 11q-97 0 -144 -128l-31 -84h153l-11 -65h-162l-128 -349q-45 -125 -102.5 -179.5t-150.5 -54.5q-37 0 -87 11l13 74q52 -11 76 -11q64 0 100.5 41t71.5 138l121 330h-144l11 65h154l33 92q70 193 228 193q44 0 89 -11z" />
<glyph unicode="&#x3bc;" horiz-adv-x="588" d="M129 537h80l-59 -335q-3 -14 -3 -28q0 -52 34 -84.5t89 -32.5q72 0 122 56t63 130l52 294h80l-95 -537h-80l19 105q-29 -53 -74.5 -83t-99.5 -30q-96 0 -131 76l-45 -255h-80z" />
<glyph unicode="&#x401;" horiz-adv-x="596" d="M181 418h381l-13 -73h-381l-48 -272h397l-13 -73h-480l132 749h482l-13 -73h-399zM531 882l-15 -86h-80l15 86h80zM380 882l-15 -86h-80l15 86h80z" />
<glyph unicode="&#x402;" horiz-adv-x="803" d="M413 676l-45 -258h196q104 0 148.5 -30t44.5 -104q0 -34 -7 -70q-20 -114 -80 -164t-178 -50h-117l13 73h111q86 0 120 31t48 110q6 32 6 53q0 48 -30 63t-107 15h-181l-61 -345h-83l119 676h-242l13 73h567l-13 -73h-242z" />
<glyph unicode="&#x403;" horiz-adv-x="545" d="M156 749h463l-13 -73h-380l-119 -676h-83zM564 946l-165 -150h-68l128 150h105z" />
<glyph unicode="&#x404;" horiz-adv-x="682" d="M597 528q2 32 2 44q0 67 -34 89.5t-143 22.5q-66 0 -106.5 -10t-72.5 -40t-51 -80.5t-34 -135.5h383l-13 -73h-383q-18 -99 -18 -155q0 -77 39 -101t144 -24q96 0 143 14t67.5 46.5t33.5 104.5h83q-13 -71 -31.5 -113t-56.5 -72t-97.5 -41.5t-154.5 -11.5 q-141 0 -196.5 38t-55.5 148q0 68 22 194q22 123 47 195.5t68.5 116.5t100 58.5t149.5 14.5q142 0 196 -34t54 -129q0 -34 -4 -66h-81z" />
<glyph unicode="&#x405;" horiz-adv-x="629" d="M30 231h83q-10 -57 -10 -82q0 -54 36.5 -69t145.5 -15q69 0 115 13t69.5 40t32.5 59t9 78t-36.5 63t-139.5 21q-129 5 -188.5 36t-59.5 116q0 141 78.5 203.5t241.5 62.5q122 0 178.5 -29t56.5 -118q0 -22 -7 -68h-83q6 32 6 54q0 50 -35.5 69t-128.5 19 q-129 0 -175.5 -37t-46.5 -133q0 -51 45.5 -70t171.5 -26q107 -6 157 -36t50 -108q0 -72 -15 -122t-51 -87t-100 -55t-158 -18q-52 0 -86 2t-69 10.5t-54.5 23.5t-32 41t-12.5 64q0 27 12 98z" />
<glyph unicode="&#x406;" horiz-adv-x="223" d="M239 749l-132 -749h-83l132 749h83z" />
<glyph unicode="&#x407;" horiz-adv-x="243" d="M190 882l-15 -86h-80l15 86h80zM353 882l-15 -86h-80l15 86h80zM249 749l-132 -749h-83l132 749h83z" />
<glyph unicode="&#x408;" horiz-adv-x="561" d="M494 749h83l-96 -543q-18 -105 -78 -159.5t-190 -54.5q-112 0 -157 32.5t-45 103.5q0 37 20 145h83q-17 -90 -17 -120q0 -49 28.5 -68.5t100.5 -19.5q78 0 119 36t55 118z" />
<glyph unicode="&#x409;" horiz-adv-x="1071" d="M214 749h439l-58 -331h227q104 0 148.5 -30t44.5 -104q0 -284 -265 -284h-312l119 676h-273l-80 -457q-20 -111 -61.5 -165t-118.5 -54h-53l13 73h20q51 0 75.5 26.5t39.5 110.5zM582 345l-48 -272h223q27 0 46.5 2.5t45.5 13.5t42.5 30.5t28 57.5t11.5 90q0 48 -30 63 t-107 15h-212z" />
<glyph unicode="&#x40a;" horiz-adv-x="1096" d="M181 418h356l58 331h83l-58 -331h227q104 0 148.5 -30t44.5 -104q0 -284 -265 -284h-312l61 345h-356l-61 -345h-83l132 749h83zM607 345l-48 -272h223q95 0 134.5 46.5t39.5 147.5q0 48 -30 63t-107 15h-212z" />
<glyph unicode="&#x40b;" horiz-adv-x="749" d="M413 676l-45 -258h122q104 0 148.5 -30t44.5 -104q0 -38 -45 -284h-83q44 245 44 267q0 48 -30 63t-107 15h-107l-61 -345h-83l119 676h-242l13 73h567l-13 -73h-242z" />
<glyph unicode="&#x40c;" horiz-adv-x="696" d="M239 749l-59 -331h74l366 331h111l-408 -362l316 -387h-115l-283 345h-74l-60 -345h-83l132 749h83zM588 946l-165 -150h-68l128 150h105z" />
<glyph unicode="&#x40e;" horiz-adv-x="660" d="M106 749h90l140 -519l302 519h86l-373 -632q-68 -117 -161 -117h-78l13 73h49q39 0 60 14.5t41 55.5zM551 882h57q-12 -68 -48.5 -91.5t-126.5 -23.5q-72 0 -103.5 17t-31.5 63q0 15 3 35h57q0 -39 16.5 -48.5t69.5 -9.5q52 0 76 10t31 48z" />
<glyph unicode="&#x40f;" horiz-adv-x="744" d="M239 749l-119 -676h438l119 676h83l-132 -749h-262l-30 -172h-80l30 172h-262l132 749h83z" />
<glyph unicode="&#x410;" horiz-adv-x="720" d="M-20 0l405 749h121l147 -749h-89l-29 154h-378l-87 -154h-90zM521 227l-85 460l-246 -460h331z" />
<glyph unicode="&#x411;" horiz-adv-x="683" d="M156 749h495l-13 -73h-412l-45 -258h250q104 0 148.5 -30t44.5 -104q0 -34 -7 -70q-20 -114 -80 -164t-178 -50h-335zM168 345l-48 -272h246q86 0 120 31t48 110q6 32 6 53q0 48 -30 63t-107 15h-235z" />
<glyph unicode="&#x412;" horiz-adv-x="691" d="M168 345l-48 -272h231q102 0 143 25t56 113q7 44 7 62q0 46 -26 59t-97 13h-266zM226 676l-45 -258h238q91 0 133 42.5t42 144.5q0 39 -22.5 55t-76.5 16h-269zM24 0l132 749h361q83 0 122.5 -30t39.5 -98q0 -26 -4 -53t-15.5 -65t-40 -68t-69.5 -42q51 -15 71.5 -39.5 t20.5 -66.5q0 -27 -8 -70q-18 -106 -71.5 -161.5t-156.5 -55.5h-382z" />
<glyph unicode="&#x413;" horiz-adv-x="545" d="M156 749h463l-13 -73h-380l-119 -676h-83z" />
<glyph unicode="&#x414;" horiz-adv-x="743" d="M40 73v1q97 116 127 289l68 386h509l-119 -676h54l-43 -245h-76l30 172h-533l-30 -172h-76l43 245h46zM648 676h-343l-53 -303q-20 -110 -46 -174.5t-72 -125.5h408z" />
<glyph unicode="&#x415;" horiz-adv-x="596" d="M181 418h381l-13 -73h-381l-48 -272h397l-13 -73h-480l132 749h482l-13 -73h-399z" />
<glyph unicode="&#x416;" horiz-adv-x="1122" d="M181 749h104l195 -331h73l58 331h83l-58 -331h72l312 331h103l-346 -364l268 -385h-120l-230 345h-72l-61 -345h-83l61 345h-73l-352 -345h-120l404 385z" />
<glyph unicode="&#x417;" horiz-adv-x="683" d="M199 532h-83q12 57 31.5 97t44 65t62 39t79.5 19t102 5q131 0 189 -32t58 -108q0 -93 -40 -155.5t-121 -75.5q60 -9 85.5 -37t25.5 -80q0 -135 -75 -206t-257 -71q-147 0 -205 30t-58 110q0 31 12 92h83q-10 -45 -10 -76q0 -52 39 -67.5t152 -15.5q131 0 183 46t52 137 q0 97 -135 97h-174l13 73h169q45 0 78.5 11t51.5 27.5t28.5 41.5t13 46t2.5 48q0 51 -39.5 71.5t-133.5 20.5q-114 0 -157.5 -30.5t-65.5 -121.5z" />
<glyph unicode="&#x418;" horiz-adv-x="782" d="M239 749l-122 -692l548 692h133l-132 -749h-83l121 685l-548 -685h-132l132 749h83z" />
<glyph unicode="&#x419;" horiz-adv-x="782" d="M239 749l-122 -691l548 691h133l-132 -749h-83l121 686l-548 -686h-132l132 749h83zM585 882h57q-12 -68 -48.5 -91.5t-126.5 -23.5q-72 0 -103.5 17t-31.5 63q0 15 3 35h57q0 -39 16.5 -48.5t69.5 -9.5q52 0 76 10t31 48z" />
<glyph unicode="&#x41a;" horiz-adv-x="696" d="M239 749l-58 -331h74l365 331h111l-408 -362l316 -387h-115l-282 345h-74l-61 -345h-83l132 749h83z" />
<glyph unicode="&#x41b;" horiz-adv-x="726" d="M214 749h528l-132 -749h-83l119 676h-362l-80 -457q-20 -111 -61.5 -165t-118.5 -54h-53l13 73h20q51 0 75.5 26.5t39.5 110.5z" />
<glyph unicode="&#x41c;" horiz-adv-x="946" d="M293 749l153 -642l379 642h137l-132 -749h-83l122 689l-405 -689h-72l-165 682l-120 -682h-83l132 749h137z" />
<glyph unicode="&#x41d;" horiz-adv-x="744" d="M181 418h438l58 331h83l-132 -749h-83l61 345h-438l-61 -345h-83l132 749h83z" />
<glyph unicode="&#x41e;" horiz-adv-x="729" d="M70 374q22 123 47.5 195t71 115.5t105.5 58t160 14.5q148 0 206.5 -40t58.5 -155q0 -64 -21 -188q-22 -123 -47 -194.5t-70 -115t-105 -58t-159 -14.5q-149 0 -208 40.5t-59 156.5q0 70 20 185zM153 374q-21 -120 -21 -174q0 -82 42.5 -108.5t156.5 -26.5q54 0 89 4 t64.5 18t47.5 33t34 57t26 82t23 115q22 119 22 178q0 80 -42 106t-155 26q-55 0 -90.5 -4t-65.5 -18t-47.5 -33t-34 -57t-26.5 -82t-23 -116z" />
<glyph unicode="&#x41f;" horiz-adv-x="744" d="M156 749h604l-132 -749h-83l119 676h-438l-119 -676h-83z" />
<glyph unicode="&#x420;" horiz-adv-x="666" d="M159 293l-52 -293h-83l132 749h357q89 0 128.5 -33.5t39.5 -106.5q0 -35 -7 -73q-25 -138 -87.5 -190.5t-204.5 -52.5h-223zM226 676l-54 -310h199q106 0 153.5 31.5t64.5 127.5q7 45 7 67q0 45 -24 64.5t-84 19.5h-262z" />
<glyph unicode="&#x421;" horiz-adv-x="671" d="M562 250h81q-26 -148 -97 -203t-245 -55q-138 0 -194.5 41.5t-56.5 159.5q0 74 19 179q28 159 71 241.5t110 113t186 30.5q144 0 196.5 -38.5t52.5 -127.5q0 -21 -6 -79h-81q2 40 2 53q0 69 -34.5 94t-142.5 25q-67 0 -108.5 -12t-73.5 -47.5t-52 -94.5t-37 -158 q-18 -99 -18 -160q0 -87 40.5 -117t139.5 -30q132 0 180 36.5t68 148.5z" />
<glyph unicode="&#x422;" horiz-adv-x="601" d="M413 676l-119 -676h-83l119 676h-242l13 73h567l-13 -73h-242z" />
<glyph unicode="&#x423;" horiz-adv-x="660" d="M106 749h90l140 -519l302 519h86l-373 -632q-68 -117 -161 -117h-78l13 73h49q39 0 60 14.5t41 55.5z" />
<glyph unicode="&#x424;" horiz-adv-x="872" d="M479 749h83l-16 -89h95q108 0 161 -43t53 -141q0 -40 -9 -91q-26 -149 -98 -211.5t-202 -62.5h-96l-20 -111h-83l20 111h-93q-109 0 -162.5 43t-53.5 140q0 40 9 91q26 149 98.5 212t204.5 63h93zM534 589l-72 -407h87q96 0 145.5 48t68.5 155q7 38 7 72q0 69 -36 100.5 t-114 31.5h-86zM379 182l72 407h-87q-99 0 -147 -47.5t-67 -156.5q-8 -46 -8 -76q0 -66 35 -96.5t115 -30.5h87z" />
<glyph unicode="&#x425;" horiz-adv-x="686" d="M222 749l156 -320l268 320h100l-310 -361l200 -388h-102l-171 344l-293 -344h-102l336 388l-182 361h100z" />
<glyph unicode="&#x426;" horiz-adv-x="752" d="M239 749l-119 -676h438l119 676h83l-119 -676h56l-43 -245h-80l30 172h-580l132 749h83z" />
<glyph unicode="&#x427;" horiz-adv-x="694" d="M146 749h83q-39 -213 -39 -247q0 -61 38 -77t133 -16q143 0 209 14l57 326h83l-132 -749h-83l62 352q-74 -16 -229 -16q-124 0 -173.5 30.5t-49.5 112.5q0 45 41 270z" />
<glyph unicode="&#x428;" horiz-adv-x="1153" d="M239 749l-119 -676h382l119 676h83l-119 -676h382l119 676h83l-132 -749h-1013l132 749h83z" />
<glyph unicode="&#x429;" horiz-adv-x="1173" d="M239 749l-119 -676h382l119 676h83l-119 -676h382l119 676h83l-119 -676h56l-43 -245h-80l30 172h-989l132 749h83z" />
<glyph unicode="&#x42a;" horiz-adv-x="740" d="M86 749h219l-58 -331h250q104 0 148.5 -30t44.5 -104q0 -34 -7 -70q-20 -114 -80 -164t-178 -50h-335l119 676h-136zM234 345l-48 -272h246q86 0 120 31t48 110q6 32 6 53q0 48 -30 63t-107 15h-235z" />
<glyph unicode="&#x42b;" horiz-adv-x="899" d="M239 749l-58 -331h250q104 0 148.5 -30t44.5 -104q0 -34 -7 -70q-20 -114 -80 -164t-178 -50h-335l132 749h83zM168 345l-48 -272h246q86 0 120 31t48 110q6 32 6 53q0 48 -30 63t-107 15h-235zM915 749l-132 -749h-83l132 749h83z" />
<glyph unicode="&#x42c;" horiz-adv-x="680" d="M239 749l-58 -331h250q104 0 148.5 -30t44.5 -104q0 -34 -7 -70q-20 -114 -80 -164t-178 -50h-335l132 749h83zM168 345l-48 -272h246q86 0 120 31t48 110q6 32 6 53q0 48 -30 63t-107 15h-235z" />
<glyph unicode="&#x42d;" horiz-adv-x="681" d="M184 528h-83q31 133 104 181t224 48q135 0 191 -43t56 -160q0 -76 -19 -181q-21 -117 -47.5 -189.5t-70 -116t-100.5 -59.5t-145 -16q-143 0 -203.5 36.5t-60.5 125.5q0 31 8 76h83q-6 -33 -6 -57q0 -63 43 -85.5t149 -22.5q70 0 114 13.5t73 50t44.5 84.5t30.5 132h-341 l13 73h341q12 68 12 114q0 88 -41.5 120t-136.5 32q-116 0 -160.5 -30.5t-71.5 -125.5z" />
<glyph unicode="&#x42e;" horiz-adv-x="953" d="M239 749l-58 -331h159q19 108 46.5 175t72.5 103.5t98 48.5t137 12q66 0 107 -7t74 -27.5t47.5 -60t14.5 -102.5q0 -70 -20 -185q-15 -85 -32 -145.5t-41 -103.5t-49.5 -69t-63.5 -40.5t-77 -19.5t-95 -5q-135 0 -192 38.5t-57 156.5q0 61 17 158h-159l-61 -345h-83 l132 749h83zM572 65q48 0 79 5.5t61.5 23t50.5 52t38 90.5t33 139q18 99 18 159q0 93 -39.5 121.5t-131.5 28.5q-54 0 -86 -5.5t-62.5 -22.5t-49.5 -52t-36 -89.5t-32 -139.5q-19 -104 -19 -169q0 -87 39 -114t137 -27z" />
<glyph unicode="&#x42f;" horiz-adv-x="694" d="M548 300h-231l-221 -300h-101l232 310q-131 24 -131 187q0 123 76.5 187.5t205.5 64.5h332l-132 -749h-83zM561 373l53 303h-266q-47 0 -82 -17t-53 -44.5t-26.5 -57t-8.5 -59.5q0 -60 40 -92.5t117 -32.5h226z" />
<glyph unicode="&#x430;" horiz-adv-x="565" d="M245 258q-74 0 -107.5 -27.5t-33.5 -101.5q0 -42 25 -57t82 -15q39 0 64 2t52.5 9.5t42.5 21.5t25 40t10 63q0 42 -33 53.5t-127 11.5zM164 382h-80q7 42 23.5 71t35 45t50 24t58 10t68.5 2q106 0 154 -24t48 -100q0 -27 -6 -60l-61 -350h-75l15 68q-36 -48 -72.5 -62 t-117.5 -14q-93 0 -137.5 23.5t-44.5 92.5q0 116 57.5 163.5t175.5 47.5q89 0 121 -13.5t43 -47.5q21 114 21 144q0 44 -27.5 55.5t-108.5 11.5q-76 0 -104 -15t-36 -72z" />
<glyph unicode="&#x431;" horiz-adv-x="568" d="M151 432q29 42 70 62t103 20q109 0 154 -35.5t45 -117.5q0 -47 -10 -101q-13 -72 -30 -118t-48 -82t-80 -52t-122 -16q-108 0 -151.5 37t-43.5 116q0 43 13 115l28 162q45 261 257 261q94 0 117.5 7t28.5 36h67q-12 -63 -54 -84t-141 -21q-85 0 -134 -39t-69 -150z M313 449q-89 0 -125.5 -38t-56.5 -152q-11 -61 -11 -98q0 -57 28 -80.5t99 -23.5q92 0 128.5 42.5t57.5 160.5q10 62 10 91q0 57 -29 77.5t-101 20.5z" />
<glyph unicode="&#x432;" horiz-adv-x="559" d="M142 246l-32 -181h185q49 0 80.5 26.5t31.5 88.5q0 66 -80 66h-185zM180 460l-26 -149h183q55 0 78 21.5t23 76.5q0 29 -18 40t-57 11h-183zM19 0l92 525h265q69 0 106.5 -21.5t37.5 -78.5q0 -53 -28.5 -93t-90.5 -51q86 -21 86 -98q0 -14 -2 -30t-12.5 -45.5 t-28.5 -51.5t-56 -39t-90 -17h-279z" />
<glyph unicode="&#x433;" horiz-adv-x="434" d="M111 524h353l-11 -65h-273l-81 -459h-80z" />
<glyph unicode="&#x434;" horiz-adv-x="559" d="M37 65q38 48 57 95t33 127l41 237h371l-81 -459h55l-37 -214h-73l26 149h-378l-26 -149h-73l37 214h48zM378 65l70 394h-211l-33 -187q-23 -131 -83 -207h257z" />
<glyph unicode="&#x435;" horiz-adv-x="551" d="M498 246h-376q-11 -61 -11 -96q0 -55 28 -74t99 -19q96 0 126 18.5t39 86.5h80q-10 -55 -29.5 -89.5t-54 -52t-73.5 -23t-100 -5.5q-106 0 -149.5 33.5t-43.5 120.5q0 48 12 119q27 152 89.5 210.5t186.5 58.5q101 0 147.5 -36.5t46.5 -122.5q0 -38 -17 -129zM133 311 h296q7 42 7 63q0 53 -29.5 74t-97.5 21q-85 0 -122.5 -34.5t-53.5 -123.5z" />
<glyph unicode="&#x436;" horiz-adv-x="747" d="M381 525h80l-37 -214h31l202 214h85l-234 -243l184 -282h-94l-155 246h-31l-43 -246h-80l43 246h-32l-241 -246h-94l284 282l-151 243h86l129 -214h31z" />
<glyph unicode="&#x437;" horiz-adv-x="543" d="M169 381h-80q7 47 26 78.5t51 47t67.5 21.5t87.5 6q100 0 144 -26t44 -81q0 -52 -29 -97t-87 -57q83 -13 83 -89q0 -107 -65 -149.5t-181 -42.5q-113 0 -157.5 24.5t-44.5 85.5q0 26 6 57h80q-6 -38 -6 -47q0 -34 25.5 -44.5t100.5 -10.5q97 0 128.5 26t31.5 95 q0 68 -76 68h-118l11 65h118q98 0 98 100q0 29 -24.5 43.5t-88.5 14.5q-79 0 -108 -14.5t-37 -73.5z" />
<glyph unicode="&#x438;" horiz-adv-x="577" d="M191 524l-75 -429l344 429h98l-92 -524h-80l75 426l-342 -426h-100l92 524h80z" />
<glyph unicode="&#x439;" horiz-adv-x="577" d="M191 524l-76 -428l344 428h98l-92 -524h-80l76 427l-343 -427h-99l92 524h80zM428 665h48q-10 -57 -39.5 -77.5t-95.5 -20.5q-55 0 -79 14t-24 51q0 14 3 33h49q-3 -9 -3 -16q0 -18 13.5 -26t49.5 -8q39 0 55.5 9.5t22.5 40.5z" />
<glyph unicode="&#x43a;" horiz-adv-x="506" d="M191 524l-37 -213h31l226 213h96l-265 -241l214 -283h-104l-179 246h-31l-43 -246h-80l92 524h80z" />
<glyph unicode="&#x43b;" horiz-adv-x="550" d="M147 524h384l-92 -524h-80l81 459h-224l-55 -308q-27 -151 -152 -151h-39l11 65h12q44 0 61.5 16t27.5 72z" />
<glyph unicode="&#x43c;" horiz-adv-x="732" d="M335 91l250 433h128l-92 -524h-80l80 455l-267 -455h-70l-105 456l-80 -456h-80l92 524h126z" />
<glyph unicode="&#x43d;" horiz-adv-x="565" d="M191 524l-37 -213h275l37 213h80l-92 -524h-80l43 246h-275l-43 -246h-80l92 524h80z" />
<glyph unicode="&#x43e;" horiz-adv-x="551" d="M506 262q-28 -161 -87 -216.5t-192 -55.5q-105 0 -149.5 33t-44.5 121q0 48 12 117q28 161 87 216.5t191 55.5q106 0 151 -33t45 -120q0 -42 -13 -118zM426 262q12 64 12 106q0 59 -28.5 79.5t-98.5 20.5q-91 0 -127 -39t-59 -167q-12 -66 -12 -106q0 -60 28 -80.5 t98 -20.5q63 0 96 15t54 58.5t37 133.5z" />
<glyph unicode="&#x43f;" horiz-adv-x="565" d="M111 524h435l-92 -524h-80l81 459h-275l-81 -459h-80z" />
<glyph unicode="&#x440;" horiz-adv-x="566" d="M326 469q-35 0 -60.5 -4.5t-44 -17.5t-29.5 -25.5t-20.5 -41.5t-14 -50.5t-12.5 -66.5q-14 -79 -14 -113q0 -50 27 -71.5t98 -21.5q92 0 128.5 45.5t56.5 160.5q12 69 12 102q0 55 -28.5 79.5t-98.5 24.5zM191 524l-10 -60q63 70 174 70q100 0 140 -37.5t40 -112.5 q0 -46 -13 -117q-12 -67 -26.5 -111t-42 -84.5t-73.5 -60t-113 -19.5q-60 0 -99.5 13.5t-58.5 54.5l-50 -285h-80l132 749h80z" />
<glyph unicode="&#x441;" horiz-adv-x="537" d="M406 192h77q-27 -120 -82.5 -160t-178.5 -40q-103 0 -146 34.5t-43 119.5q0 50 12 117q27 155 84.5 213t186.5 58q97 0 145.5 -26t48.5 -94q0 -22 -7 -59h-77q5 28 5 45q0 38 -27.5 53.5t-99.5 15.5q-89 0 -122.5 -37.5t-55.5 -165.5q-12 -66 -12 -108q0 -59 27 -80 t93 -21q90 0 121 25.5t51 109.5z" />
<glyph unicode="&#x442;" horiz-adv-x="458" d="M142 0l81 459h-181l11 65h442l-11 -65h-181l-81 -459h-80z" />
<glyph unicode="&#x443;" horiz-adv-x="469" d="M64 524h80l82 -466l202 466h81l-266 -594q-43 -96 -84.5 -131.5t-103.5 -35.5q-26 0 -44 6l11 64q18 -5 29 -5q45 0 70 29.5t76 142.5h-34z" />
<glyph unicode="&#x444;" horiz-adv-x="820" d="M284 -225l54 307q-25 -42 -70.5 -66t-96.5 -24q-76 0 -107 33t-31 97q0 46 18 143q10 59 18.5 93.5t24.5 72.5t38 57.5t57 32.5t84 13q100 0 131 -82l52 298h80l-52 -298q62 82 162 82q78 0 109.5 -32.5t31.5 -99.5q0 -45 -16 -137q-10 -57 -18.5 -91t-25 -73t-38 -60 t-57 -35t-82.5 -14q-50 0 -86 24t-45 68l-55 -309h-80zM287 469q-70 0 -103 -45t-51 -144q-13 -78 -13 -118q0 -55 22 -80t73 -25q71 0 104 50t54 173q9 50 9 86q0 53 -22.5 78t-72.5 25zM604 469q-67 0 -100 -44t-51 -145q-13 -78 -13 -120q0 -54 21 -78.5t71 -24.5 q72 0 106 51t56 175q9 48 9 84q0 52 -23 77t-76 25z" />
<glyph unicode="&#x445;" horiz-adv-x="476" d="M488 524l-211 -250l139 -274h-96l-98 212l-172 -212h-96l235 274l-123 250h92l85 -192l153 192h92z" />
<glyph unicode="&#x446;" horiz-adv-x="581" d="M191 524l-81 -459h274l81 459h80l-81 -459h55l-37 -214h-73l26 149h-416l92 524h80z" />
<glyph unicode="&#x447;" horiz-adv-x="538" d="M111 524h80q-28 -155 -28 -174q0 -34 22 -46t78 -12q91 0 140 24l36 208h80l-92 -524h-80l48 271h-4q-24 -27 -54.5 -35.5t-107.5 -8.5q-75 0 -111.5 24t-36.5 81q0 26 30 192z" />
<glyph unicode="&#x448;" horiz-adv-x="864" d="M191 524l-81 -459h247l81 459h80l-81 -459h247l81 459h80l-92 -524h-734l92 524h80z" />
<glyph unicode="&#x449;" horiz-adv-x="868" d="M192 524l-81 -459h247l81 459h80l-81 -459h247l81 459h80l-81 -459h55l-37 -214h-73l26 149h-716l92 524h80z" />
<glyph unicode="&#x44a;" horiz-adv-x="573" d="M46 524h184l-37 -213h191q129 0 129 -111q0 -100 -53.5 -150t-129.5 -50h-272l81 459h-104zM181 246l-32 -181h165q62 0 90 27.5t28 96.5q0 33 -20.5 45t-69.5 12h-161z" />
<glyph unicode="&#x44b;" horiz-adv-x="734" d="M191 524l-37 -213h191q129 0 129 -111q0 -100 -53.5 -150t-129.5 -50h-272l92 524h80zM142 246l-32 -181h165q62 0 90 27.5t28 96.5q0 33 -20.5 45t-69.5 12h-161zM715 524l-92 -524h-80l92 524h80z" />
<glyph unicode="&#x44c;" horiz-adv-x="534" d="M191 524l-37 -213h191q129 0 129 -111q0 -100 -53.5 -150t-129.5 -50h-272l92 524h80zM142 246l-32 -181h165q62 0 90 27.5t28 96.5q0 33 -20.5 45t-69.5 12h-161z" />
<glyph unicode="&#x44d;" horiz-adv-x="552" d="M161 380h-75q26 91 82.5 122.5t163.5 31.5q101 0 144.5 -33.5t43.5 -119.5q0 -42 -13 -117q-28 -160 -83 -216t-189 -56q-112 0 -155.5 32.5t-43.5 98.5q0 17 2 37h79q-2 -20 -2 -26q0 -46 27 -61.5t105 -15.5q91 0 124 35.5t53 153.5h-225l11 65h225q8 43 8 70 q0 49 -27.5 68.5t-95.5 19.5q-80 0 -110.5 -17t-48.5 -72z" />
<glyph unicode="&#x44e;" horiz-adv-x="776" d="M154 311h124q30 130 85.5 176t183.5 46q107 0 152 -31.5t45 -120.5q0 -43 -13 -119q-15 -86 -36 -138.5t-55.5 -82.5t-77.5 -40.5t-111 -10.5q-106 0 -151 31t-45 117q0 49 11 108h-124l-43 -246h-80l92 524h80zM651 262q12 66 12 106q0 58 -28.5 79t-99.5 21 q-93 0 -128 -38.5t-58 -168.5q-13 -75 -13 -110q0 -57 28 -76.5t99 -19.5q95 0 130 38t58 169z" />
<glyph unicode="&#x44f;" horiz-adv-x="535" d="M381 211h-158l-141 -211h-90l153 221q-36 6 -60.5 36t-24.5 78q0 84 49.5 136.5t134.5 52.5h272l-92 -524h-80zM392 276l33 183h-166q-120 0 -120 -127q0 -33 20.5 -44.5t68.5 -11.5h164z" />
<glyph unicode="&#x451;" horiz-adv-x="551" d="M487 246h-376q-11 -63 -11 -97q0 -54 27.5 -73t98.5 -19q96 0 126 18t40 87h80q-10 -55 -30 -89.5t-54.5 -52t-73 -23t-99.5 -5.5q-105 0 -149.5 33.5t-44.5 120.5q0 43 13 119q26 152 88.5 210.5t186.5 58.5q101 0 147.5 -36.5t46.5 -122.5q0 -37 -16 -129zM122 311h296 q6 36 6 62q0 53 -29 74.5t-97 21.5q-85 0 -122.5 -34.5t-53.5 -123.5zM449 665l-15 -86h-80l15 86h80zM308 665l-15 -86h-80l15 86h80z" />
<glyph unicode="&#x452;" horiz-adv-x="575" d="M228 749l-12 -68h200l-10 -57h-200l-28 -159q31 43 73 55.5t106 12.5q92 0 131.5 -26.5t39.5 -94.5q0 -34 -7 -72l-34 -190q-29 -165 -86.5 -225.5t-194.5 -60.5l12 65q88 0 127 43t62 178l37 205q4 23 4 43q0 42 -25 56t-85 14q-96 0 -134 -36.5t-55 -132.5l-53 -299 h-80l110 624h-65l10 57h65l12 68h80z" />
<glyph unicode="&#x453;" horiz-adv-x="434" d="M111 524h353l-11 -65h-273l-81 -459h-80zM440 695l-141 -128h-68l109 128h100z" />
<glyph unicode="&#x454;" horiz-adv-x="537" d="M400 160h78q-15 -64 -40 -98.5t-76 -52t-140 -17.5q-105 0 -147.5 32.5t-42.5 116.5q0 53 13 124q28 157 85.5 213t185.5 56q102 0 147 -24t45 -101q0 -18 -2 -36h-75q0 62 -23 79t-104 17q-86 0 -120 -33t-51 -125h258l-11 -65h-258q-11 -64 -11 -100q0 -52 26.5 -70.5 t95.5 -18.5q86 0 118 20.5t49 82.5z" />
<glyph unicode="&#x455;" horiz-adv-x="537" d="M502 390h-80q3 14 3 24q0 30 -26.5 42.5t-97.5 12.5q-91 0 -121 -22t-30 -85q0 -31 27.5 -42t110.5 -15q93 -4 140.5 -31t47.5 -91q0 -111 -62 -151t-189 -40q-106 0 -152 23.5t-46 93.5q0 25 6 58h80q-4 -21 -4 -41q0 -42 27.5 -55.5t96.5 -13.5q96 0 129 24.5t33 90.5 q0 54 -127 64q-38 3 -61.5 6t-52.5 10.5t-45.5 19.5t-28 32t-11.5 48q0 102 60.5 142t175.5 40q47 0 79.5 -3.5t63 -13t45.5 -30t15 -52.5q0 -20 -6 -45z" />
<glyph unicode="&#x456;" horiz-adv-x="210" d="M231 749l-15 -86h-80l15 86h80zM191 524l-92 -524h-80l92 524h80z" />
<glyph unicode="&#x457;" horiz-adv-x="210" d="M288 665l-15 -86h-80l15 86h80zM147 665l-15 -86h-80l15 86h80zM191 524l-92 -524h-80l92 524h80z" />
<glyph unicode="&#x458;" horiz-adv-x="210" d="M229 750l-15 -86h-80l15 86h80zM109 524h80l-101 -573q-12 -71 -44.5 -113t-99.5 -42q-22 0 -37 5l9 55q6 -3 11 -3q30 0 47.5 15.5t22.5 32.5t11 50z" />
<glyph unicode="&#x459;" horiz-adv-x="817" d="M147 524h350l-37 -213h168q129 0 129 -111q0 -100 -53.5 -150t-129.5 -50h-249l81 459h-190l-55 -308q-26 -151 -152 -151h-39l11 65h12q44 0 61.5 16t27.5 72zM448 246l-32 -181h142q62 0 90 27.5t28 96.5q0 33 -20.5 45t-69.5 12h-138z" />
<glyph unicode="&#x45a;" horiz-adv-x="817" d="M191 524l-37 -213h226l37 213h80l-37 -213h168q129 0 129 -111q0 -100 -53.5 -150t-129.5 -50h-249l43 246h-226l-43 -246h-80l92 524h80zM448 246l-32 -181h142q62 0 90 27.5t28 96.5q0 33 -20.5 45t-69.5 12h-138z" />
<glyph unicode="&#x45b;" horiz-adv-x="575" d="M231 749l-12 -68h200l-10 -57h-200l-28 -159q31 43 73 55.5t106 12.5q92 0 131.5 -26.5t39.5 -94.5q0 -34 -7 -72l-60 -340h-80l63 355q4 23 4 43q0 42 -25 56t-85 14q-96 0 -134 -36.5t-55 -132.5l-53 -299h-80l110 624h-65l10 57h65l12 68h80z" />
<glyph unicode="&#x45c;" horiz-adv-x="506" d="M191 524l-37 -213h31l226 213h96l-265 -241l214 -283h-104l-179 246h-31l-43 -246h-80l92 524h80zM462 695l-141 -128h-68l109 128h100z" />
<glyph unicode="&#x45e;" horiz-adv-x="469" d="M64 524h80l81 -466l203 466h81l-266 -594q-44 -97 -85.5 -132t-103.5 -35q-25 0 -43 6l11 64q17 -5 29 -5q45 0 70 29.5t75 142.5h-34zM390 665h48q-10 -57 -39.5 -77.5t-95.5 -20.5q-55 0 -79 14t-24 51q0 14 3 33h49q-3 -9 -3 -16q0 -18 13.5 -26t49.5 -8 q39 0 55.5 9.5t22.5 40.5z" />
<glyph unicode="&#x45f;" horiz-adv-x="565" d="M189 524l-81 -459h275l81 459h80l-92 -524h-181l-26 -149h-73l26 149h-181l92 524h80z" />
<glyph unicode="&#x490;" horiz-adv-x="545" d="M156 749h380l24 133h83l-37 -206h-380l-119 -676h-83z" />
<glyph unicode="&#x491;" horiz-adv-x="434" d="M108 524h288l16 92h65l-27 -157h-273l-81 -459h-80z" />
<glyph unicode="&#x2013;" d="M40 326h506l-13 -66h-506z" />
<glyph unicode="&#x2014;" horiz-adv-x="783" d="M9 326h778l-13 -66h-778z" />
<glyph unicode="&#x2018;" horiz-adv-x="200" d="M60 538l20 109q8 51 28.5 77t66.5 26q13 0 21 -2l-7 -42q-28 -1 -40.5 -13t-17.5 -40l-3 -14h38l-18 -101h-88z" />
<glyph unicode="&#x2019;" horiz-adv-x="200" d="M196 749l-20 -109q-8 -51 -28.5 -77t-66.5 -26q-13 0 -21 2l7 42q28 1 40.5 13t17.5 40l3 14h-38l18 101h88z" />
<glyph unicode="&#x201a;" horiz-adv-x="227" d="M178 101l-20 -110q-9 -52 -29 -77.5t-66 -25.5q-12 0 -22 2l8 42q28 1 40.5 13t17.5 40l3 15h-39l18 101h89z" />
<glyph unicode="&#x201c;" horiz-adv-x="358" d="M218 538l20 109q8 51 28.5 77t66.5 26q13 0 21 -2l-7 -42q-28 -1 -40.5 -13t-17.5 -40l-3 -14h38l-18 -101h-88zM60 538l20 109q8 51 28.5 77t66.5 26q13 0 21 -2l-7 -42q-28 -1 -40.5 -13t-17.5 -40l-3 -14h38l-18 -101h-88z" />
<glyph unicode="&#x201d;" horiz-adv-x="358" d="M196 749l-20 -109q-8 -51 -28.5 -77t-66.5 -26q-13 0 -21 2l7 42q28 1 40.5 13t17.5 40l3 14h-38l18 101h88zM354 749l-20 -109q-8 -51 -28.5 -77t-66.5 -26q-13 0 -21 2l7 42q28 1 40.5 13t17.5 40l3 14h-38l18 101h88z" />
<glyph unicode="&#x201e;" horiz-adv-x="358" d="M173 101l-20 -110q-9 -52 -29 -77.5t-66 -25.5q-12 0 -22 2l8 42q28 1 40.5 13t17.5 40l3 15h-39l18 101h89zM330 101l-20 -110q-9 -52 -29 -77.5t-66 -25.5q-12 0 -22 2l8 42q28 1 40.5 13t17.5 40l3 15h-39l18 101h89z" />
<glyph unicode="&#x2020;" horiz-adv-x="623" d="M356 749h83l-43 -245h200l-13 -73h-200l-116 -658h-83l116 658h-200l13 73h200z" />
<glyph unicode="&#x2022;" horiz-adv-x="674" d="M313 214q-40 0 -65 24.5t-25 62.5q0 51 38.5 89.5t88.5 38.5q43 0 67.5 -26.5t24.5 -59.5q0 -55 -40 -92t-89 -37z" />
<glyph unicode="&#x2026;" horiz-adv-x="671" d="M165 101l-18 -101h-89l18 101h89zM389 101l-18 -101h-89l18 101h89zM613 101l-18 -101h-89l18 101h89z" />
<glyph unicode="&#x2030;" horiz-adv-x="1297" d="M279 750q81 0 112 -18.5t31 -65.5q0 -23 -23 -153q-15 -83 -51 -111.5t-135 -28.5q-82 0 -113.5 18.5t-31.5 66.5q0 22 23 151q15 85 51.5 113t136.5 28zM272 709q-61 0 -90 -15.5t-39 -71.5q-26 -145 -26 -155q0 -35 24 -44t79 -9q26 0 40 1t31.5 5t26.5 13t17.5 25 t12.5 40q25 139 25 153q0 37 -23.5 47.5t-77.5 10.5zM816 750l-640 -750h-51l637 750h54zM729 377q81 0 112 -18.5t31 -65.5q0 -23 -23 -153q-15 -83 -51 -111.5t-135 -28.5q-82 0 -113.5 18.5t-31.5 66.5q0 22 23 151q15 85 51.5 113t136.5 28zM722 336q-61 0 -90 -15.5 t-39 -71.5q-26 -145 -26 -155q0 -35 24 -44t79 -9q26 0 40 1t31.5 5t26.5 13t17.5 25t12.5 40q25 139 25 153q0 37 -23.5 47.5t-77.5 10.5zM1120 377q81 0 112 -18.5t31 -65.5q0 -23 -23 -153q-15 -83 -51 -111.5t-135 -28.5q-82 0 -113.5 18.5t-31.5 66.5q0 22 23 151 q15 85 51.5 113t136.5 28zM1113 336q-61 0 -90 -15.5t-39 -71.5q-26 -145 -26 -155q0 -35 24 -44t79 -9q26 0 40 1t31.5 5t26.5 13t17.5 25t12.5 40q25 139 25 153q0 37 -23.5 47.5t-77.5 10.5z" />
<glyph unicode="&#x2039;" horiz-adv-x="320" d="M243 575l51 -35l-163 -251l87 -253l-62 -36l-99 289z" />
<glyph unicode="&#x203a;" horiz-adv-x="308" d="M179 575l83 -286l-202 -289l-47 36l174 253l-73 251z" />
<glyph unicode="&#x2116;" horiz-adv-x="1200" d="M740 117h358l-8 -44h-358zM990 514q70 0 98 -19t28 -69q0 -26 -11 -91q-8 -44 -16 -69t-25.5 -47t-48 -30.5t-78.5 -8.5q-70 0 -101.5 22t-31.5 76q0 20 10 79q17 94 51 125.5t125 31.5zM985 468q-51 0 -76.5 -22.5t-34.5 -73.5q-14 -76 -14 -95q0 -30 15.5 -40.5 t55.5 -10.5q66 0 85 17.5t31 85.5q12 71 12 87q0 27 -16 39.5t-58 12.5zM156 749h132l302 -684l120 684h83l-132 -749h-132l-303 677l-119 -677h-83z" />
<glyph unicode="&#x2122;" horiz-adv-x="826" d="M107 352l63 355h-129l7 41h301l-7 -41h-128l-63 -355h-44zM462 748l80 -339l201 339h72l-70 -396h-44l64 364l-214 -364h-38l-86 361l-64 -361h-44l70 396h73z" />
<glyph unicode="&#x2219;" horiz-adv-x="687" d="M397 324l-18 -101h-89l18 101h89z" />
<glyph unicode="&#xe000;" horiz-adv-x="525" d="M0 525h525v-525h-525v525z" />
</font>
</defs>
</svg>
